# Blender v2.92.0 OBJ File: 'monster.blend'
# www.blender.org
mtllib monster_red.mtl
o red_Cube.016
v 0.550000 2.559207 -2.700784
v 0.550000 2.442182 -2.700784
v 1.100000 2.559207 -2.501024
v 1.100000 2.357469 -2.501023
v 1.100000 2.559207 -2.700001
v 1.100000 2.357469 -2.700001
v 0.000000 2.559207 -2.700784
v 0.000000 2.445037 -2.700784
v 1.132145 2.559207 -2.732100
v 1.132145 2.357469 -2.732099
v 0.000000 2.559207 -2.732929
v 0.000000 2.445037 -2.732928
v 0.550023 2.559207 -2.732929
v 0.550023 2.442182 -2.732928
v 1.132145 2.559207 -2.501024
v 1.132145 2.357469 -2.501023
v -0.550000 2.559207 -2.700784
v -0.550000 2.442182 -2.700784
v -1.100000 2.559207 -2.501024
v -1.100000 2.357469 -2.501023
v -1.100000 2.559207 -2.700001
v -1.100000 2.357469 -2.700001
v -1.132145 2.559207 -2.732100
v -1.132145 2.357469 -2.732099
v -0.550023 2.559207 -2.732929
v -0.550023 2.442182 -2.732928
v -1.132145 2.559207 -2.501024
v -1.132145 2.357469 -2.501023
vt 0.557059 0.930098
vt 0.557059 0.930098
vt 0.557059 0.930098
vt 0.557059 0.930098
vt 0.557059 0.930098
vt 0.557059 0.930098
vt 0.557059 0.930098
vt 0.557059 0.930098
vt 0.557059 0.930098
vt 0.557059 0.930098
vt 0.557059 0.930098
vt 0.557059 0.930098
vt 0.557059 0.930098
vt 0.557059 0.930098
vt 0.557059 0.930098
vt 0.557059 0.930098
vt 0.557059 0.930098
vt 0.557059 0.930098
vt 0.557059 0.930098
vt 0.557059 0.930098
vt 0.557059 0.930098
vt 0.557059 0.930098
vt 0.557059 0.930098
vt 0.557059 0.930098
vt 0.557059 0.930098
vt 0.557059 0.930098
vt 0.557059 0.930098
vt 0.557059 0.930098
vn 0.0000 1.0000 0.0000
vn 0.0000 0.0000 1.0000
vn 0.0000 -0.0000 -1.0000
vn 0.0007 -0.0000 -1.0000
vn 0.0014 -0.0000 -1.0000
vn 1.0000 -0.0000 0.0000
vn 0.0000 -1.0000 0.0000
vn -0.0052 -1.0000 -0.0000
vn -0.1426 -0.9800 -0.1391
vn -0.1519 -0.9884 -0.0054
vn -0.1423 -0.9795 -0.1425
vn -0.0007 -0.0000 -1.0000
vn -0.0014 -0.0000 -1.0000
vn -1.0000 0.0000 0.0000
vn 0.0052 -1.0000 -0.0000
vn 0.1426 -0.9800 -0.1391
vn 0.1519 -0.9884 -0.0054
vn 0.1522 -0.9883 -0.0001
vn -0.1522 -0.9883 -0.0001
vn 0.1423 -0.9795 -0.1425
usemtl rear_lights
s 1
f 5/1/1 13/2/1 1/3/1
f 1/3/1 11/4/1 7/5/1
f 4/6/2 15/7/2 3/8/2
f 12/9/3 13/2/4 14/10/4
f 14/10/4 9/11/5 10/12/5
f 9/11/6 16/13/6 10/12/6
f 6/14/7 16/13/7 4/6/7
f 2/15/8 12/9/7 14/10/8
f 6/14/9 14/10/10 10/12/11
f 5/1/1 15/7/1 9/11/1
f 25/16/1 21/17/1 17/18/1
f 11/4/1 17/18/1 7/5/1
f 27/19/2 20/20/2 19/21/2
f 12/9/3 25/16/12 11/4/3
f 23/22/13 26/23/12 24/24/13
f 28/25/14 23/22/14 24/24/14
f 28/25/7 22/26/7 20/20/7
f 18/27/15 12/9/7 8/28/7
f 22/26/16 26/23/17 18/27/18
f 21/17/1 27/19/1 19/21/1
f 5/1/1 9/11/1 13/2/1
f 1/3/1 13/2/1 11/4/1
f 4/6/2 16/13/2 15/7/2
f 12/9/3 11/4/3 13/2/4
f 14/10/4 13/2/4 9/11/5
f 9/11/6 15/7/6 16/13/6
f 6/14/7 10/12/7 16/13/7
f 2/15/8 8/28/7 12/9/7
f 6/14/9 2/15/19 14/10/10
f 5/1/1 3/8/1 15/7/1
f 25/16/1 23/22/1 21/17/1
f 11/4/1 25/16/1 17/18/1
f 27/19/2 28/25/2 20/20/2
f 12/9/3 26/23/12 25/16/12
f 23/22/13 25/16/12 26/23/12
f 28/25/14 27/19/14 23/22/14
f 28/25/7 24/24/7 22/26/7
f 18/27/15 26/23/15 12/9/7
f 22/26/16 24/24/20 26/23/17
f 21/17/1 23/22/1 27/19/1
