# Blender v2.92.0 OBJ File: 'monster.blend'
# www.blender.org
mtllib monster_flight.mtl
o flight.001_Cube.005
v 0.558918 2.441772 2.433757
v 0.531397 2.156141 2.701437
v 1.035891 2.439701 2.153203
v 1.039879 2.274783 2.405252
v -0.558918 2.441772 2.433757
v -0.531397 2.156141 2.701437
v -1.035891 2.439701 2.153203
v -1.039879 2.274783 2.405252
vt 0.822265 0.679579
vt 0.822265 0.679579
vt 0.822265 0.679579
vt 0.822265 0.679579
vt 0.822265 0.679579
vt 0.822265 0.679579
vt 0.822265 0.679579
vt 0.822265 0.679579
vn 0.3079 0.7984 0.5175
vn 0.2665 0.6453 0.7160
vn -0.3079 0.7984 0.5175
vn -0.2665 0.6453 0.7160
usemtl headlights
s 1
f 4/1/1 3/2/1 1/3/1
f 2/4/2 4/1/2 1/3/2
f 8/5/3 5/6/3 7/7/3
f 6/8/4 5/6/4 8/5/4
