# Blender v2.92.0 OBJ File: 'monster.blend'
# www.blender.org
mtllib monster_screen.mtl
o screen_Cube.003
v 1.378319 2.806114 1.211324
v 1.378319 2.614746 1.211324
v 1.134610 2.806114 1.325750
v 1.134610 2.614746 1.325750
v 1.231875 2.806114 1.270142
v 1.231875 2.614746 1.270142
v 0.000000 2.617329 1.264778
v 0.000000 3.131446 0.719554
v 0.550000 2.617329 1.264778
v 0.438831 3.131446 0.719554
v 0.836307 3.131446 0.719554
v 1.039549 2.617329 1.264778
v 1.040340 2.637956 -0.119434
v 1.040340 2.637956 1.246364
v 0.839706 3.140340 0.708137
v 0.839706 3.140340 -0.119434
v -1.378319 2.806114 1.211324
v -1.378319 2.614746 1.211324
v -1.134610 2.806114 1.325750
v -1.134610 2.614746 1.325750
v -1.231875 2.806114 1.270142
v -1.231875 2.614746 1.270142
v -0.550000 2.617329 1.264778
v -0.438831 3.131446 0.719554
v -0.836307 3.131446 0.719554
v -1.039549 2.617329 1.264778
v -1.040340 2.637956 -0.119434
v -1.040340 2.637956 1.246364
v -0.839706 3.140340 0.708137
v -0.839706 3.140340 -0.119434
vt 0.064422 0.317902
vt 0.064422 0.317902
vt 0.064422 0.317902
vt 0.064422 0.317902
vt 0.064422 0.317902
vt 0.057059 0.305098
vt 0.057059 0.305098
vt 0.057059 0.305098
vt 0.057059 0.305098
vt 0.057059 0.305098
vt 0.057059 0.305098
vt 0.057059 0.305098
vt 0.057059 0.305098
vt 0.064422 0.317902
vt 0.064422 0.317902
vt 0.064422 0.317902
vt 0.064422 0.317902
vt 0.064422 0.317902
vt 0.057059 0.305098
vt 0.057059 0.305098
vt 0.057059 0.305098
vt 0.057059 0.305098
vt 0.057059 0.305098
vt 0.057059 0.305098
vt 0.057059 0.305098
vt 0.064422 0.317902
vt 0.057059 0.305098
vt 0.057059 0.305098
vt 0.064422 0.317902
vt 0.057059 0.305098
vn -0.4963 0.0000 -0.8681
vn -0.3727 0.0000 -0.9280
vn 0.0000 0.7276 0.6860
vn 0.9287 0.3709 -0.0000
vn 0.4963 0.0000 -0.8681
vn 0.3727 0.0000 -0.9280
vn -0.9287 0.3709 -0.0000
usemtl windows
s 1
f 6/1/1 3/2/1 5/3/1
f 2/4/2 5/3/2 1/5/2
f 9/6/3 11/7/3 10/8/3
f 7/9/3 10/8/3 8/10/3
f 13/11/4 15/12/4 14/13/4
f 19/14/5 22/15/5 21/16/5
f 21/16/6 18/17/6 17/18/6
f 23/19/3 25/20/3 26/21/3
f 7/9/3 24/22/3 23/19/3
f 29/23/7 27/24/7 28/25/7
f 6/1/1 4/26/1 3/2/1
f 2/4/2 6/1/2 5/3/2
f 9/6/3 12/27/3 11/7/3
f 7/9/3 9/6/3 10/8/3
f 13/11/4 16/28/4 15/12/4
f 19/14/5 20/29/5 22/15/5
f 21/16/6 22/15/6 18/17/6
f 23/19/3 24/22/3 25/20/3
f 7/9/3 8/10/3 24/22/3
f 29/23/7 30/30/7 27/24/7
