# Blender v2.92.0 OBJ File: 'bus.blend'
# www.blender.org
mtllib bus_blight.mtl
o white_Cube.001
v 1.540364 1.241680 6.540484
v 1.542827 1.525509 6.540484
v 1.084649 1.529061 6.540484
v 1.540364 1.241680 6.499999
v 1.243910 1.046522 6.540484
v 1.243910 1.046522 6.499999
v 0.637446 1.031976 6.540484
v 0.637446 1.031976 6.499999
v 0.633575 1.237816 6.499999
v 1.084649 1.529061 6.500000
v 1.542827 1.525509 6.500000
v 0.633575 1.237816 6.540484
v -1.540366 1.241680 6.540484
v -1.243912 1.046522 6.540484
v -1.084651 1.529061 6.540484
v -1.540366 1.241680 6.499999
v -1.243912 1.046522 6.499999
v -0.637448 1.031976 6.540484
v -0.637448 1.031976 6.499999
v -0.633577 1.237816 6.499999
v -1.084651 1.529061 6.500000
v -1.542829 1.525509 6.500000
v -0.633577 1.237816 6.540484
v -1.542829 1.525509 6.540484
vt 0.807059 0.680098
vt 0.807059 0.680098
vt 0.807059 0.680098
vt 0.807059 0.680098
vt 0.807059 0.680098
vt 0.807059 0.680098
vt 0.807059 0.680098
vt 0.807059 0.680098
vt 0.807059 0.680098
vt 0.807059 0.680098
vt 0.807059 0.680098
vt 0.807059 0.680098
vt 0.807059 0.680098
vt 0.807059 0.680098
vt 0.807059 0.680098
vt 0.807059 0.680098
vt 0.807059 0.680098
vt 0.807059 0.680098
vt 0.807059 0.680098
vt 0.807059 0.680098
vt 0.807059 0.680098
vt 0.807059 0.680098
vt 0.807059 0.680098
vt 0.807059 0.680098
vn 0.0000 -0.0000 1.0000
vn 0.5499 -0.8353 0.0000
vn 0.0240 -0.9997 0.0000
vn -0.5424 0.8401 0.0000
vn 1.0000 -0.0087 0.0000
vn -0.9998 -0.0188 0.0000
vn 0.0078 1.0000 0.0000
vn -0.5499 -0.8353 0.0000
vn -0.5498 -0.8353 0.0000
vn -0.0240 -0.9997 0.0000
vn 0.5424 0.8401 0.0000
vn -1.0000 -0.0087 0.0000
vn 0.9998 -0.0188 0.0000
vn -0.0078 1.0000 0.0000
vn 0.5498 -0.8353 0.0000
usemtl headlights.004
s 1
f 1/1/1 2/2/1 3/3/1
f 4/4/2 5/5/2 6/6/2
f 6/6/3 7/7/3 8/8/3
f 9/9/4 3/3/4 10/10/4
f 11/11/5 1/1/5 4/4/5
f 8/8/6 12/12/6 9/9/6
f 10/10/7 2/2/7 11/11/7
f 13/13/1 14/14/1 15/15/1
f 14/14/8 16/16/9 17/17/8
f 18/18/10 17/17/10 19/19/10
f 15/15/11 20/20/11 21/21/11
f 13/13/12 22/22/12 16/16/12
f 23/23/13 19/19/13 20/20/13
f 24/24/14 21/21/14 22/22/14
f 3/3/1 12/12/1 5/5/1
f 12/12/1 7/7/1 5/5/1
f 5/5/1 1/1/1 3/3/1
f 4/4/15 1/1/15 5/5/15
f 6/6/3 5/5/3 7/7/3
f 9/9/4 12/12/4 3/3/4
f 11/11/5 2/2/5 1/1/5
f 8/8/6 7/7/6 12/12/6
f 10/10/7 3/3/7 2/2/7
f 18/18/1 23/23/1 14/14/1
f 23/23/1 15/15/1 14/14/1
f 15/15/1 24/24/1 13/13/1
f 14/14/8 13/13/9 16/16/9
f 18/18/10 14/14/10 17/17/10
f 15/15/11 23/23/11 20/20/11
f 13/13/12 24/24/12 22/22/12
f 23/23/13 18/18/13 19/19/13
f 24/24/14 15/15/14 21/21/14
