# Blender v2.92.0 OBJ File: 'uploads_files_4050116_plane.blend'
# www.blender.org
mtllib plane_screen.mtl
o body_screen_Circle.005
v -0.210872 7.716077 2.517771
v -0.353038 6.792009 2.866516
v 0.263716 7.717478 2.513199
v 0.418028 6.794286 2.859088
v -0.673891 6.561010 2.856137
v -0.576768 7.396779 2.496989
v 0.739981 6.565185 2.842517
v 0.631024 7.400345 2.485354
v 0.674678 7.338685 1.907462
v 0.778176 6.435279 1.926913
v 0.677299 6.334646 0.041663
v 0.577570 6.852216 0.662982
v 0.809250 6.423789 2.813496
v 0.691571 7.354209 2.421255
v -0.631191 7.334776 1.920052
v -0.728943 6.430882 1.941431
v -0.742862 6.419261 2.828367
v -0.638271 7.350228 2.434031
v -0.663820 6.330749 0.054736
v -0.555206 6.848825 0.673922
vt 0.000000 0.000000
vt 0.000000 0.000000
vt 0.000000 0.000000
vt 0.000000 0.000000
vt 0.000000 0.000000
vt 0.000000 0.000000
vt 0.000000 0.000000
vt 0.000000 0.000000
vt 0.000000 0.000000
vt 0.000000 0.000000
vt 0.000000 0.000000
vt 0.000000 0.000000
vt 0.000000 0.000000
vt 0.000000 0.000000
vt 0.000000 0.000000
vt 0.000000 0.000000
vt 0.000000 0.000000
vt 0.000000 0.000000
vt 0.000000 0.000000
vt 0.000000 0.000000
vn -0.0080 -0.3520 -0.9360
vn 0.3772 -0.3772 -0.8458
vn -0.3335 -0.4071 -0.8503
vn -0.9929 -0.1130 0.0361
vn -0.9622 -0.2641 0.0656
vn 0.9894 -0.1046 0.1011
vn 0.9943 -0.1057 0.0142
vn 0.3194 -0.4052 -0.8566
vn -0.3912 -0.3795 -0.8384
vn -0.9932 -0.1116 0.0334
vn -0.9866 -0.1104 0.1202
vn 0.9649 -0.2585 0.0470
vn 0.9941 -0.1071 0.0169
usemtl Material.004
s off
f 2/1/1 3/2/1 4/3/1
f 2/1/2 6/4/2 1/5/2
f 4/3/3 8/6/3 7/7/3
f 10/8/4 14/9/4 9/10/4
f 10/8/5 12/11/5 11/12/5
f 16/13/6 20/14/6 15/15/6
f 16/13/7 18/16/7 17/17/7
f 2/1/1 1/5/1 3/2/1
f 2/1/8 5/18/8 6/4/8
f 4/3/9 3/2/9 8/6/9
f 10/8/10 13/19/10 14/9/10
f 10/8/11 9/10/11 12/11/11
f 16/13/12 19/20/12 20/14/12
f 16/13/13 15/15/13 18/16/13
