# Blender v2.92.0 OBJ File: 'police.blend'
# www.blender.org
mtllib police_flight.mtl
o flight_Cube.006
v 0.943000 0.803716 2.964898
v 0.943000 0.844047 3.020410
v 1.034443 0.856511 2.964898
v 0.999515 0.876676 3.020410
v 1.034443 0.962100 2.964898
v 0.999515 0.941935 3.020410
v 0.943000 1.014895 2.964898
v 0.943000 0.974564 3.020410
v 0.943000 0.909306 3.041614
v 0.851556 0.962100 2.964898
v 0.886485 0.941935 3.020410
v 0.851556 0.856511 2.964898
v 0.886485 0.876676 3.020410
v 1.034443 0.856511 2.930590
v 1.034443 0.962100 2.930590
v 0.943000 1.014895 2.930590
v 0.851556 0.962100 2.930590
v 0.851556 0.856511 2.930590
v 0.943000 0.803716 2.930590
v 0.733000 0.803716 2.964898
v 0.733000 0.844047 3.020410
v 0.824444 0.856511 2.964898
v 0.789515 0.876676 3.020410
v 0.824444 0.962100 2.964898
v 0.789515 0.941935 3.020410
v 0.733000 1.014895 2.964898
v 0.733000 0.974564 3.020410
v 0.733000 0.909306 3.041614
v 0.641557 0.962100 2.964898
v 0.676485 0.941935 3.020410
v 0.641557 0.856511 2.964898
v 0.676485 0.876676 3.020410
v 0.824444 0.856511 2.930590
v 0.824444 0.962100 2.930590
v 0.733000 1.014895 2.930590
v 0.641557 0.962100 2.930590
v 0.641557 0.856511 2.930590
v 0.733000 0.803716 2.930590
v -0.943000 0.803716 2.964898
v -0.943000 0.844047 3.020410
v -1.034443 0.856511 2.964898
v -0.999515 0.876676 3.020410
v -1.034443 0.962100 2.964898
v -0.999515 0.941935 3.020410
v -0.943000 1.014895 2.964898
v -0.943000 0.974564 3.020410
v -0.943000 0.909306 3.041614
v -0.851556 0.962100 2.964898
v -0.886485 0.941935 3.020410
v -0.851556 0.856511 2.964898
v -0.886485 0.876676 3.020410
v -1.034443 0.856511 2.930590
v -1.034443 0.962100 2.930590
v -0.943000 1.014895 2.930590
v -0.851556 0.962100 2.930590
v -0.851556 0.856511 2.930590
v -0.943000 0.803716 2.930590
v -0.733000 0.803716 2.964898
v -0.733000 0.844047 3.020410
v -0.824444 0.856511 2.964898
v -0.789515 0.876676 3.020410
v -0.824444 0.962100 2.964898
v -0.789515 0.941935 3.020410
v -0.733000 1.014895 2.964898
v -0.733000 0.974564 3.020410
v -0.733000 0.909306 3.041614
v -0.641557 0.962100 2.964898
v -0.676485 0.941935 3.020410
v -0.641557 0.856511 2.964898
v -0.676485 0.876676 3.020410
v -0.824444 0.856511 2.930590
v -0.824444 0.962100 2.930590
v -0.733000 1.014895 2.930590
v -0.641557 0.962100 2.930590
v -0.641557 0.856511 2.930590
v -0.733000 0.803716 2.930590
vt 0.810059 0.678176
vt 0.810059 0.678176
vt 0.810059 0.678176
vt 0.810059 0.678176
vt 0.810059 0.678176
vt 0.810059 0.678176
vt 0.810059 0.678176
vt 0.810059 0.678176
vt 0.810059 0.678176
vt 0.810059 0.678176
vt 0.810059 0.678176
vt 0.810059 0.678176
vt 0.810059 0.678176
vt 0.810059 0.678176
vt 0.810059 0.678176
vt 0.810059 0.678176
vt 0.810059 0.678176
vt 0.810059 0.678176
vt 0.810059 0.678176
vt 0.810059 0.678176
vt 0.810059 0.678176
vt 0.810059 0.678176
vt 0.810059 0.678176
vt 0.810059 0.678176
vt 0.810059 0.678176
vt 0.810059 0.678176
vt 0.810059 0.678176
vt 0.810059 0.678176
vt 0.810059 0.678176
vt 0.810059 0.678176
vt 0.810059 0.678176
vt 0.810059 0.678176
vt 0.810059 0.678176
vt 0.810059 0.678176
vt 0.810059 0.678176
vt 0.810059 0.678176
vt 0.810059 0.678176
vt 0.810059 0.678176
vt 0.810059 0.678176
vt 0.810059 0.678176
vt 0.810059 0.678176
vt 0.810059 0.678176
vt 0.810059 0.678176
vt 0.810059 0.678176
vt 0.810059 0.678176
vt 0.810059 0.678176
vt 0.810059 0.678176
vt 0.810059 0.678176
vt 0.810059 0.678176
vt 0.810059 0.678176
vt 0.810059 0.678176
vt 0.810059 0.678176
vt 0.810059 0.678176
vt 0.810059 0.678176
vt 0.810059 0.678176
vt 0.810059 0.678176
vt 0.810059 0.678176
vt 0.810059 0.678176
vt 0.810059 0.678176
vt 0.810059 0.678176
vt 0.810059 0.678176
vt 0.810059 0.678176
vt 0.810059 0.678176
vt 0.810059 0.678176
vt 0.810059 0.678176
vt 0.810059 0.678176
vt 0.810059 0.678176
vt 0.810059 0.678176
vt 0.810059 0.678176
vt 0.810059 0.678176
vt 0.810059 0.678176
vt 0.810059 0.678176
vt 0.810059 0.678176
vt 0.810059 0.678176
vt 0.810059 0.678176
vt 0.810059 0.678176
vn 0.1756 -0.3042 0.9363
vn 0.4232 -0.7330 0.5326
vn 0.8464 0.0000 0.5326
vn 0.3513 0.0000 0.9363
vn 0.4232 0.7330 0.5326
vn 0.1756 0.3042 0.9363
vn -0.4232 0.7330 0.5326
vn -0.1756 0.3042 0.9363
vn -0.8464 0.0000 0.5326
vn -0.3513 0.0000 0.9363
vn -0.4232 -0.7330 0.5326
vn -0.1756 -0.3042 0.9363
vn -0.5000 -0.8660 0.0000
vn -1.0000 0.0000 0.0000
vn -0.5000 0.8660 0.0000
vn 0.5000 0.8660 0.0000
vn 1.0000 0.0000 0.0000
vn 0.5000 -0.8660 0.0000
usemtl headlights.003
s 1
f 9/1/1 2/2/1 4/3/1
f 1/4/2 4/3/2 2/2/2
f 3/5/3 6/6/3 4/3/3
f 9/1/4 4/3/4 6/6/4
f 6/6/5 7/7/5 8/8/5
f 9/1/6 6/6/6 8/8/6
f 7/7/7 11/9/7 8/8/7
f 9/1/8 8/8/8 11/9/8
f 10/10/9 13/11/9 11/9/9
f 9/1/10 11/9/10 13/11/10
f 13/11/11 1/4/11 2/2/11
f 9/1/12 13/11/12 2/2/12
f 18/12/13 1/4/13 12/13/13
f 17/14/14 12/13/14 10/10/14
f 16/15/15 10/10/15 7/7/15
f 15/16/16 7/7/16 5/17/16
f 14/18/17 5/17/17 3/5/17
f 19/19/18 3/5/18 1/4/18
f 28/20/1 21/21/1 23/22/1
f 21/21/2 22/23/2 23/22/2
f 22/23/3 25/24/3 23/22/3
f 28/20/4 23/22/4 25/24/4
f 24/25/5 27/26/5 25/24/5
f 28/20/6 25/24/6 27/26/6
f 26/27/7 30/28/7 27/26/7
f 28/20/8 27/26/8 30/28/8
f 29/29/9 32/30/9 30/28/9
f 28/20/10 30/28/10 32/30/10
f 31/31/11 21/21/11 32/30/11
f 28/20/12 32/30/12 21/21/12
f 37/32/13 20/33/13 31/31/13
f 36/34/14 31/31/14 29/29/14
f 35/35/15 29/29/15 26/27/15
f 34/36/16 26/27/16 24/25/16
f 33/37/17 24/25/17 22/23/17
f 38/38/18 22/23/18 20/33/18
f 47/39/12 42/40/12 40/41/12
f 42/40/11 39/42/11 40/41/11
f 44/43/9 41/44/9 42/40/9
f 47/39/10 44/43/10 42/40/10
f 44/43/7 45/45/7 43/46/7
f 47/39/8 46/47/8 44/43/8
f 49/48/5 45/45/5 46/47/5
f 47/39/6 49/48/6 46/47/6
f 51/49/3 48/50/3 49/48/3
f 47/39/4 51/49/4 49/48/4
f 40/41/2 50/51/2 51/49/2
f 47/39/1 40/41/1 51/49/1
f 39/42/18 56/52/18 50/51/18
f 50/51/17 55/53/17 48/50/17
f 48/50/16 54/54/16 45/45/16
f 45/45/15 53/55/15 43/46/15
f 43/46/14 52/56/14 41/44/14
f 41/44/13 57/57/13 39/42/13
f 66/58/12 61/59/12 59/60/12
f 59/60/11 60/61/11 58/62/11
f 63/63/9 60/61/9 61/59/9
f 66/58/10 63/63/10 61/59/10
f 63/63/7 64/64/7 62/65/7
f 66/58/8 65/66/8 63/63/8
f 68/67/5 64/64/5 65/66/5
f 66/58/6 68/67/6 65/66/6
f 70/68/3 67/69/3 68/67/3
f 66/58/4 70/68/4 68/67/4
f 59/60/2 69/70/2 70/68/2
f 66/58/1 59/60/1 70/68/1
f 58/62/18 75/71/18 69/70/18
f 69/70/17 74/72/17 67/69/17
f 67/69/16 73/73/16 64/64/16
f 64/64/15 72/74/15 62/65/15
f 62/65/14 71/75/14 60/61/14
f 60/61/13 76/76/13 58/62/13
f 1/4/2 3/5/2 4/3/2
f 3/5/3 5/17/3 6/6/3
f 6/6/5 5/17/5 7/7/5
f 7/7/7 10/10/7 11/9/7
f 10/10/9 12/13/9 13/11/9
f 13/11/11 12/13/11 1/4/11
f 18/12/13 19/19/13 1/4/13
f 17/14/14 18/12/14 12/13/14
f 16/15/15 17/14/15 10/10/15
f 15/16/16 16/15/16 7/7/16
f 14/18/17 15/16/17 5/17/17
f 19/19/18 14/18/18 3/5/18
f 21/21/2 20/33/2 22/23/2
f 22/23/3 24/25/3 25/24/3
f 24/25/5 26/27/5 27/26/5
f 26/27/7 29/29/7 30/28/7
f 29/29/9 31/31/9 32/30/9
f 31/31/11 20/33/11 21/21/11
f 37/32/13 38/38/13 20/33/13
f 36/34/14 37/32/14 31/31/14
f 35/35/15 36/34/15 29/29/15
f 34/36/16 35/35/16 26/27/16
f 33/37/17 34/36/17 24/25/17
f 38/38/18 33/37/18 22/23/18
f 42/40/11 41/44/11 39/42/11
f 44/43/9 43/46/9 41/44/9
f 44/43/7 46/47/7 45/45/7
f 49/48/5 48/50/5 45/45/5
f 51/49/3 50/51/3 48/50/3
f 40/41/2 39/42/2 50/51/2
f 39/42/18 57/57/18 56/52/18
f 50/51/17 56/52/17 55/53/17
f 48/50/16 55/53/16 54/54/16
f 45/45/15 54/54/15 53/55/15
f 43/46/14 53/55/14 52/56/14
f 41/44/13 52/56/13 57/57/13
f 59/60/11 61/59/11 60/61/11
f 63/63/9 62/65/9 60/61/9
f 63/63/7 65/66/7 64/64/7
f 68/67/5 67/69/5 64/64/5
f 70/68/3 69/70/3 67/69/3
f 59/60/2 58/62/2 69/70/2
f 58/62/18 76/76/18 75/71/18
f 69/70/17 75/71/17 74/72/17
f 67/69/16 74/72/16 73/73/16
f 64/64/15 73/73/15 72/74/15
f 62/65/14 72/74/14 71/75/14
f 60/61/13 71/75/13 76/76/13
