# Blender v2.92.0 OBJ File: 'police.blend'
# www.blender.org
mtllib police_ban2.mtl
o ban2_Cube.002
v -0.814163 0.721057 1.608824
v -1.132842 0.722601 1.608824
v -0.814163 0.659740 1.420111
v -1.132842 0.660990 1.419203
v -0.814163 0.499212 1.303480
v -1.132842 0.499689 1.302012
v -0.814163 0.300788 1.303480
v -1.132842 0.300311 1.302012
v -0.814163 0.140260 1.420111
v -1.132842 0.139010 1.419203
v -0.814163 0.078943 1.608824
v -1.132842 0.077399 1.608824
v -0.814163 0.140260 1.797536
v -1.132842 0.139010 1.798444
v -0.814163 0.300788 1.914166
v -1.132842 0.300311 1.915635
v -0.814163 0.499212 1.914166
v -1.132842 0.499689 1.915635
v -0.814163 0.659740 1.797536
v -1.132842 0.660990 1.798444
v -1.053401 0.445573 1.575713
v -1.053401 0.456331 1.608824
v -1.053401 0.417407 1.555250
v -1.053401 0.382593 1.555250
v -1.053401 0.354427 1.575713
v -1.053401 0.343669 1.608824
v -1.053401 0.354427 1.641934
v -1.053401 0.382593 1.662397
v -1.053401 0.417408 1.662397
v -1.053401 0.445573 1.641934
v -1.053401 0.660990 1.419203
v -1.053401 0.722601 1.608824
v -1.053401 0.499689 1.302012
v -1.053401 0.300311 1.302012
v -1.053401 0.139010 1.419203
v -1.053401 0.077399 1.608824
v -1.053401 0.139010 1.798444
v -1.053401 0.300311 1.915635
v -1.053401 0.499689 1.915635
v -1.053401 0.660990 1.798444
v -1.105747 0.499689 1.302012
v -1.105747 0.660990 1.419203
v -1.105747 0.139010 1.419203
v -1.105747 0.300311 1.302012
v -1.105747 0.139010 1.798444
v -1.105747 0.077399 1.608824
v -1.105747 0.499689 1.915635
v -1.105747 0.300311 1.915635
v -1.105747 0.722601 1.608824
v -1.105747 0.660990 1.798444
v -1.105747 0.445573 1.575713
v -1.105747 0.456331 1.608824
v -1.105747 0.417407 1.555250
v -1.105747 0.382593 1.555250
v -1.105747 0.354427 1.575713
v -1.105747 0.343669 1.608824
v -1.105747 0.354427 1.641934
v -1.105747 0.382593 1.662397
v -1.105747 0.417408 1.662397
v -1.105747 0.445573 1.641934
vt 0.063240 0.179917
vt 0.063240 0.179917
vt 0.063240 0.179917
vt 0.072824 0.191020
vt 0.072824 0.191020
vt 0.072824 0.191020
vt 0.063240 0.179917
vt 0.063240 0.179917
vt 0.063240 0.179917
vt 0.063240 0.179917
vt 0.063240 0.179917
vt 0.063240 0.179917
vt 0.063240 0.179917
vt 0.063240 0.179917
vt 0.063240 0.179917
vt 0.063240 0.179917
vt 0.072824 0.191020
vt 0.072824 0.191020
vt 0.072824 0.191020
vt 0.072824 0.191020
vt 0.072824 0.191020
vt 0.072824 0.191020
vt 0.072824 0.191020
vt 0.072824 0.191020
vt 0.072824 0.191020
vt 0.072824 0.191020
vt 0.072824 0.191020
vt 0.072824 0.191020
vt 0.072824 0.191020
vt 0.072824 0.191020
vt 0.072824 0.191020
vt 0.072824 0.191020
vt 0.072824 0.191020
vt 0.072824 0.191020
vt 0.072824 0.191020
vt 0.072824 0.191020
vt 0.072824 0.191020
vt 0.072824 0.191020
vt 0.072824 0.191020
vt 0.072824 0.191020
vt 0.072824 0.191020
vt 0.072824 0.191020
vt 0.063240 0.179917
vt 0.072824 0.191020
vt 0.072824 0.191020
vt 0.072824 0.191020
vt 0.072824 0.191020
vt 0.072824 0.191020
vt 0.072824 0.191020
vt 0.072824 0.191020
vt 0.072824 0.191020
vt 0.063240 0.179917
vt 0.063240 0.179917
vt 0.063240 0.179917
vt 0.063240 0.179917
vt 0.063240 0.179917
vt 0.063240 0.179917
vt 0.063240 0.179917
vt 0.063240 0.179917
vt 0.063240 0.179917
vt 0.063240 0.179917
vt 0.072824 0.191020
vt 0.072824 0.191020
vt 0.072824 0.191020
vt 0.063240 0.179917
vn -0.0046 0.5878 -0.8090
vn 0.0000 0.9511 -0.3090
vn -0.0046 -0.9510 0.3090
vn -0.0031 0.9511 0.3090
vn 0.0000 0.9511 0.3090
vn -0.0046 -0.5878 -0.8090
vn -0.0046 0.9510 -0.3090
vn 0.0000 -0.5878 0.8090
vn -1.0000 0.0000 0.0000
vn 0.0000 -0.0000 -1.0000
vn 0.0000 0.5878 0.8090
vn -0.0046 0.0000 -1.0000
vn 0.0000 -0.9511 -0.3090
vn -0.0061 0.9510 0.3090
vn -0.0061 0.5878 0.8090
vn 0.0000 0.2048 0.9788
vn -0.0035 -0.0014 1.0000
vn 0.0000 0.0000 1.0000
vn -0.0046 -0.5878 0.8090
vn -0.0046 -0.9510 -0.3090
vn 1.0000 -0.0000 0.0000
vn -0.0032 -0.0007 1.0000
vn -0.0061 0.0000 1.0000
vn -0.0055 -0.0008 1.0000
usemtl wheels.003
s 1
f 15/1/1 14/2/1 16/3/1
f 51/4/2 22/5/2 21/6/2
f 3/7/3 2/8/3 4/9/3
f 36/10/4 10/11/5 12/12/5
f 19/13/6 18/14/6 20/15/6
f 13/16/7 12/12/7 14/2/7
f 55/17/8 35/18/8 25/19/8
f 58/20/8 27/21/8 28/22/8
f 44/23/2 24/24/2 34/25/2
f 53/26/9 55/17/9 59/27/9
f 51/4/9 41/28/9 53/26/9
f 44/23/9 55/17/9 54/29/9
f 56/30/9 45/31/9 57/32/9
f 48/33/9 59/27/9 58/20/9
f 50/34/9 52/35/9 60/36/9
f 46/37/10 26/38/10 36/39/10
f 60/36/11 29/40/11 30/41/11
f 57/32/11 37/42/11 27/21/11
f 17/43/12 16/3/12 18/14/12
f 54/29/10 23/44/10 24/24/10
f 48/33/13 28/22/13 38/45/13
f 52/35/10 32/46/10 22/5/10
f 59/27/2 39/47/2 29/40/2
f 42/48/11 21/6/11 31/49/11
f 56/30/13 25/19/13 26/38/13
f 50/34/8 30/41/8 40/50/8
f 53/26/13 33/51/13 23/44/13
f 36/10/4 9/52/14 35/53/4
f 9/52/15 34/54/15 35/53/15
f 43/55/16 8/56/11 10/11/11
f 6/57/17 8/56/18 44/58/18
f 5/59/19 4/9/19 6/57/19
f 1/60/20 20/15/20 2/8/20
f 21/6/21 33/51/21 31/49/21
f 34/25/21 25/19/21 35/18/21
f 26/38/21 37/42/21 36/39/21
f 38/45/21 29/40/21 39/47/21
f 40/50/21 22/5/21 32/46/21
f 23/44/21 21/6/21 28/22/21
f 15/1/1 13/16/1 14/2/1
f 51/4/2 52/35/2 22/5/2
f 3/7/3 1/60/3 2/8/3
f 36/10/4 35/53/4 10/11/5
f 19/13/6 17/43/6 18/14/6
f 13/16/7 11/61/7 12/12/7
f 55/17/8 43/62/8 35/18/8
f 58/20/8 57/32/8 27/21/8
f 44/23/2 54/29/2 24/24/2
f 52/35/9 51/4/9 53/26/9
f 53/26/9 54/29/9 55/17/9
f 55/17/9 56/30/9 57/32/9
f 57/32/9 58/20/9 55/17/9
f 58/20/9 59/27/9 55/17/9
f 59/27/9 60/36/9 52/35/9
f 52/35/9 53/26/9 59/27/9
f 51/4/9 42/48/9 41/28/9
f 44/23/9 43/62/9 55/17/9
f 56/30/9 46/37/9 45/31/9
f 48/33/9 47/63/9 59/27/9
f 50/34/9 49/64/9 52/35/9
f 46/37/10 56/30/10 26/38/10
f 60/36/11 59/27/11 29/40/11
f 57/32/11 45/31/11 37/42/11
f 17/43/12 15/1/12 16/3/12
f 54/29/10 53/26/10 23/44/10
f 48/33/13 58/20/13 28/22/13
f 52/35/10 49/64/10 32/46/10
f 59/27/2 47/63/2 39/47/2
f 42/48/11 51/4/11 21/6/11
f 56/30/13 55/17/13 25/19/13
f 50/34/8 60/36/8 30/41/8
f 53/26/13 41/28/13 33/51/13
f 36/10/4 11/61/14 9/52/14
f 9/52/15 7/65/15 34/54/15
f 10/11/11 35/53/18 43/55/16
f 43/55/16 44/58/11 8/56/11
f 44/58/18 34/54/22 6/57/17
f 34/54/22 7/65/23 5/59/24
f 6/57/17 34/54/22 5/59/24
f 5/59/19 3/7/19 4/9/19
f 1/60/20 19/13/20 20/15/20
f 21/6/21 23/44/21 33/51/21
f 34/25/21 24/24/21 25/19/21
f 26/38/21 27/21/21 37/42/21
f 38/45/21 28/22/21 29/40/21
f 40/50/21 30/41/21 22/5/21
f 21/6/21 22/5/21 30/41/21
f 30/41/21 29/40/21 21/6/21
f 29/40/21 28/22/21 21/6/21
f 28/22/21 27/21/21 26/38/21
f 26/38/21 25/19/21 28/22/21
f 25/19/21 24/24/21 28/22/21
f 24/24/21 23/44/21 28/22/21
