# Blender v2.92.0 OBJ File: 'police.blend'
# www.blender.org
mtllib police_white.mtl
o white_Cube.005
v 1.100000 0.300000 1.133333
v 1.100000 0.300000 -1.133333
v 1.038218 1.247938 -2.019122
v 1.039549 1.242942 1.107721
v 0.000000 1.200000 -2.033333
v 0.837198 1.652062 -1.251095
v 0.836307 1.857058 0.562496
v 0.000000 1.700000 -1.236884
v 0.000000 1.900000 0.230628
v 1.215063 0.885000 -1.133333
v 1.215063 0.885000 1.133333
v 0.550000 1.247938 -2.019122
v 0.550000 1.242942 1.107721
v 0.438831 1.652062 -1.251095
v 0.438831 1.857058 0.562496
v 0.000000 0.653291 2.845559
v 0.309869 0.653291 2.845559
v 0.000000 0.475342 2.845559
v 0.309869 0.475342 2.845559
v 0.000000 0.503938 -2.948395
v 0.000000 0.673368 -2.948395
v 0.273943 0.503938 -2.948395
v 0.273943 0.673368 -2.948395
v 1.100000 0.300000 -0.369433
v 1.100000 1.200000 -0.369433
v 0.571407 1.900000 -0.063177
v 1.215063 0.885000 -0.369433
v 0.438831 1.900000 -0.369433
v 0.000000 1.900000 -0.369433
v 0.000000 1.242942 1.107721
v 0.571407 1.900000 0.230628
v 0.138831 1.900000 0.230628
v 1.100000 1.200000 1.133333
v 0.000000 1.857058 0.562496
v 1.100000 1.200000 -2.033333
v 0.877663 1.700000 -1.236884
v 0.000000 1.652062 -1.251095
v 0.438831 1.700000 -1.236884
v 0.550000 1.200000 -2.033333
v 0.000000 1.247938 -2.019122
v 1.089148 1.248808 -0.419433
v 1.089148 1.248808 -1.502599
v 0.888515 1.651191 -1.199302
v 0.888515 1.851192 -0.419433
v 1.089148 1.248808 1.046364
v 1.089148 1.248808 -0.319433
v 0.888515 1.851192 -0.319433
v 0.888515 1.851192 0.508138
v 0.000000 1.233727 -1.971184
v 0.000000 1.637851 -1.203157
v 0.000000 1.217329 1.064779
v 0.000000 1.831446 0.519554
v 0.550000 1.233727 -1.971184
v 0.438831 1.637851 -1.203157
v 0.550000 1.217329 1.064779
v 0.438831 1.831446 0.519554
v 0.836307 1.831446 0.519554
v 1.039549 1.217329 1.064779
v 0.989396 1.245238 -1.965014
v 0.837198 1.637851 -1.203157
v 1.040340 1.237956 -1.466813
v 1.040340 1.237956 -0.419433
v 0.839706 1.840340 -0.419433
v 0.839706 1.640339 -1.199302
v 1.040340 1.237956 -0.319433
v 1.040340 1.237957 1.046364
v 0.839706 1.840340 0.508138
v 0.839706 1.840340 -0.319433
v 1.142635 1.040521 -0.071912
v 1.122326 1.096319 -0.071912
v 1.122326 1.096319 -0.238767
v 1.142635 1.040521 -0.238767
v 1.142635 1.040520 -1.238767
v 1.122326 1.096319 -1.238767
v 1.122326 1.096319 -1.071912
v 1.142635 1.040520 -1.071912
v 1.178798 1.053683 -1.238767
v 1.158489 1.109481 -1.238767
v 1.158489 1.109481 -1.071912
v 1.178798 1.053683 -1.071912
v 1.178798 1.053683 -0.238767
v 1.158489 1.109481 -0.238767
v 1.158489 1.109481 -0.071912
v 1.178798 1.053683 -0.071912
v 0.000000 1.200000 1.133333
v 0.550000 1.200000 1.133333
v 1.186297 0.963750 1.133333
v 1.186297 0.963750 -1.358333
v 1.186297 0.963750 -0.369433
v 0.877663 1.900000 -0.369433
v 0.877663 1.900000 0.536883
v 0.438831 1.900000 0.536883
v 0.000000 1.900000 0.536883
v 0.138831 1.900000 -0.063177
v 0.000000 1.900000 -0.063177
v 0.138831 2.078909 -0.025933
v 0.138831 2.078909 0.193383
v 0.000000 2.078909 -0.025933
v 0.000000 2.078909 0.193383
v -1.100000 0.300000 1.133333
v -1.100000 0.300000 -1.133333
v -1.038218 1.247938 -2.019122
v -1.039549 1.242942 1.107721
v -0.837198 1.652062 -1.251095
v -0.836307 1.857058 0.562496
v -1.215063 0.885000 -1.133333
v -1.215063 0.885000 1.133333
v -0.550000 1.247938 -2.019122
v -0.550000 1.242942 1.107721
v -0.438831 1.652062 -1.251095
v -0.438831 1.857058 0.562496
v -0.309869 0.653291 2.845559
v -0.309869 0.475342 2.845559
v -0.273943 0.503938 -2.948395
v -0.273943 0.673368 -2.948395
v -1.100000 0.300000 -0.369433
v -1.100000 1.200000 -0.369433
v -0.571407 1.900000 -0.063177
v -1.215063 0.885000 -0.369433
v -0.438831 1.900000 -0.369433
v -0.571407 1.900000 0.230628
v -0.138831 1.900000 0.230628
v -1.100000 1.200000 1.133333
v -1.100000 1.200000 -2.033333
v -0.877663 1.700000 -1.236884
v -0.438831 1.700000 -1.236884
v -0.550000 1.200000 -2.033333
v -1.089148 1.248808 -0.419433
v -1.089148 1.248808 -1.502599
v -0.888515 1.651191 -1.199302
v -0.888515 1.851192 -0.419433
v -1.089148 1.248808 1.046364
v -1.089148 1.248808 -0.319433
v -0.888515 1.851192 -0.319433
v -0.888515 1.851192 0.508138
v -0.550000 1.233727 -1.971184
v -0.438831 1.637851 -1.203157
v -0.550000 1.217329 1.064779
v -0.438831 1.831446 0.519554
v -0.836307 1.831446 0.519554
v -1.039549 1.217329 1.064779
v -0.989396 1.245238 -1.965014
v -0.837198 1.637851 -1.203157
v -1.040340 1.237956 -1.466813
v -1.040340 1.237956 -0.419433
v -0.839706 1.840340 -0.419433
v -0.839706 1.640339 -1.199302
v -1.040340 1.237956 -0.319433
v -1.040340 1.237957 1.046364
v -0.839706 1.840340 0.508138
v -0.839706 1.840340 -0.319433
v -1.142635 1.040521 -0.071912
v -1.122326 1.096319 -0.071912
v -1.122326 1.096319 -0.238767
v -1.142635 1.040521 -0.238767
v -1.142635 1.040520 -1.238767
v -1.122326 1.096319 -1.238767
v -1.122326 1.096319 -1.071912
v -1.142635 1.040520 -1.071912
v -1.178798 1.053683 -1.238767
v -1.158489 1.109481 -1.238767
v -1.158489 1.109481 -1.071912
v -1.178798 1.053683 -1.071912
v -1.178798 1.053683 -0.238767
v -1.158489 1.109481 -0.238767
v -1.158489 1.109481 -0.071912
v -1.178798 1.053683 -0.071912
v -0.550000 1.200000 1.133333
v -1.186297 0.963750 1.133333
v -1.186297 0.963750 -1.358333
v -1.186297 0.963750 -0.369433
v -0.877663 1.900000 -0.369433
v -0.877663 1.900000 0.536883
v -0.438831 1.900000 0.536883
v -0.138831 1.900000 -0.063177
v -0.138831 2.078909 -0.025933
v -0.138831 2.078909 0.193383
vt 0.932059 0.555098
vt 0.932059 0.555098
vt 0.932059 0.555098
vt 0.807059 0.680098
vt 0.807059 0.680098
vt 0.807059 0.680098
vt 0.807059 0.680098
vt 0.807059 0.680098
vt 0.807059 0.680098
vt 0.807059 0.680098
vt 0.807059 0.680098
vt 0.807059 0.680098
vt 0.807059 0.680098
vt 0.807059 0.680098
vt 0.807059 0.680098
vt 0.807059 0.680098
vt 0.807059 0.680098
vt 0.807059 0.680098
vt 0.807059 0.680098
vt 0.807059 0.680098
vt 0.807059 0.680098
vt 0.807059 0.680098
vt 0.807059 0.680098
vt 0.807059 0.680098
vt 0.807059 0.680098
vt 0.807059 0.680098
vt 0.807059 0.680098
vt 0.807059 0.680098
vt 0.807059 0.680098
vt 0.807059 0.680098
vt 0.807059 0.680098
vt 0.807059 0.680098
vt 0.807059 0.680098
vt 0.932059 0.555098
vt 0.932059 0.555098
vt 0.807059 0.680098
vt 0.807059 0.680098
vt 0.807059 0.680098
vt 0.807059 0.680098
vt 0.807059 0.680098
vt 0.807059 0.680098
vt 0.807059 0.680098
vt 0.807059 0.680098
vt 0.807059 0.680098
vt 0.807059 0.680098
vt 0.807059 0.680098
vt 0.807059 0.680098
vt 0.807059 0.680098
vt 0.807059 0.680098
vt 0.807059 0.680098
vt 0.807059 0.680098
vt 0.807059 0.680098
vt 0.807059 0.680098
vt 0.807059 0.680098
vt 0.807059 0.680098
vt 0.807059 0.680098
vt 0.807059 0.680098
vt 0.807059 0.680098
vt 0.807059 0.680098
vt 0.807059 0.680098
vt 0.807059 0.680098
vt 0.807059 0.680098
vt 0.807059 0.680098
vt 0.807059 0.680098
vt 0.932059 0.555098
vt 0.932059 0.555098
vt 0.932059 0.555098
vt 0.807059 0.680098
vt 0.807059 0.680098
vt 0.807059 0.680098
vt 0.807059 0.680098
vt 0.807059 0.680098
vt 0.807059 0.680098
vt 0.807059 0.680098
vt 0.807059 0.680098
vt 0.807059 0.680098
vt 0.807059 0.680098
vt 0.807059 0.680098
vt 0.807059 0.680098
vt 0.807059 0.680098
vt 0.807059 0.680098
vt 0.807059 0.680098
vt 0.807059 0.680098
vt 0.807059 0.680098
vt 0.807059 0.680098
vt 0.807059 0.680098
vt 0.807059 0.680098
vt 0.807059 0.680098
vt 0.807059 0.680098
vt 0.807059 0.680098
vt 0.807059 0.680098
vt 0.807059 0.680098
vt 0.807059 0.680098
vt 0.807059 0.680098
vt 0.807059 0.680098
vt 0.807059 0.680098
vt 0.807059 0.680098
vt 0.807059 0.680098
vt 0.807059 0.680098
vt 0.932059 0.555098
vt 0.932059 0.555098
vt 0.932059 0.555098
vt 0.807059 0.680098
vt 0.807059 0.680098
vt 0.807059 0.680098
vt 0.807059 0.680098
vt 0.807059 0.680098
vt 0.807059 0.680098
vt 0.807059 0.680098
vt 0.807059 0.680098
vt 0.807059 0.680098
vt 0.807059 0.680098
vt 0.807059 0.680098
vt 0.807059 0.680098
vt 0.807059 0.680098
vt 0.807059 0.680098
vt 0.807059 0.680098
vt 0.807059 0.680098
vt 0.807059 0.680098
vt 0.807059 0.680098
vt 0.807059 0.680098
vt 0.807059 0.680098
vt 0.807059 0.680098
vt 0.807059 0.680098
vt 0.807059 0.680098
vt 0.807059 0.680098
vt 0.807059 0.680098
vt 0.807059 0.680098
vt 0.807059 0.680098
vt 0.807059 0.680098
vt 0.807059 0.680098
vt 0.807059 0.680098
vt 0.807059 0.680098
vt 0.807059 0.680098
vt 0.807059 0.680098
vt 0.807059 0.680098
vt 0.807059 0.680098
vt 0.807059 0.680098
vt 0.807059 0.680098
vt 0.807059 0.680098
vt 0.807059 0.680098
vt 0.807059 0.680098
vt 0.807059 0.680098
vt 0.807059 0.680098
vt 0.807059 0.680098
vt 0.807059 0.680098
vt 0.807059 0.680098
vt 0.932059 0.555098
vt 0.932059 0.555098
vt 0.932059 0.555098
vt 0.807059 0.680098
vt 0.807059 0.680098
vt 0.932059 0.555098
vt 0.932059 0.555098
vt 0.932059 0.555098
vt 0.932059 0.555098
vt 0.932059 0.555098
vt 0.932059 0.555098
vt 0.932059 0.555098
vt 0.807059 0.680098
vt 0.807059 0.680098
vt 0.932059 0.555098
vt 0.932059 0.555098
vt 0.932059 0.555098
vt 0.932059 0.555098
vt 0.932059 0.555098
vt 0.932059 0.555098
vt 0.932059 0.555098
vt 0.807059 0.680098
vt 0.807059 0.680098
vt 0.807059 0.680098
vt 0.807059 0.680098
vt 0.807059 0.680098
vt 0.807059 0.680098
vt 0.932059 0.555098
vt 0.807059 0.680098
vt 0.807059 0.680098
vt 0.807059 0.680098
vt 0.807059 0.680098
vt 0.807059 0.680098
vt 0.932059 0.555098
vt 0.807059 0.680098
vt 0.932059 0.555098
vt 0.807059 0.680098
vt 0.807059 0.680098
vt 0.807059 0.680098
vt 0.807059 0.680098
vt 0.807059 0.680098
vt 0.932059 0.555098
vt 0.807059 0.680098
vt 0.932059 0.555098
vt 0.932059 0.555098
vn 0.0000 -0.9588 -0.2842
vn 0.0000 0.8588 -0.5123
vn 0.0000 0.8588 -0.5122
vn -0.2170 0.9762 -0.0000
vn 0.9812 -0.1930 0.0000
vn 0.0000 0.9588 0.2842
vn -0.0269 0.9635 0.2664
vn -0.0014 0.9981 0.0615
vn 0.0000 0.9988 0.0498
vn 0.0000 0.0000 1.0000
vn 0.0000 0.0000 -1.0000
vn 0.0000 0.9744 -0.2247
vn 0.9393 0.3431 -0.0000
vn 0.0000 0.5123 0.8588
vn 0.1616 0.6696 0.7249
vn -0.1530 0.6264 0.7644
vn -0.1721 0.6216 0.7642
vn 0.5028 0.7891 -0.3528
vn -0.5438 0.6734 -0.5008
vn 0.5256 0.7789 -0.3422
vn 0.0000 0.2842 -0.9588
vn 0.9762 0.2170 -0.0000
vn 0.9236 0.3664 0.1129
vn 0.9025 0.4305 -0.0127
vn 0.9003 0.4347 -0.0216
vn 0.9814 0.1862 -0.0475
vn 0.9589 0.2764 -0.0638
vn 0.9821 0.1824 -0.0468
vn 0.9511 0.3088 -0.0019
vn 0.9497 0.3021 -0.0824
vn 0.9631 0.2610 -0.0662
vn 0.9241 0.3712 0.0908
vn 0.9638 0.2567 -0.0720
vn 0.0000 -0.8588 0.5123
vn 0.1408 -0.6332 -0.7611
vn 0.1435 -0.5001 0.8540
vn 0.5893 -0.2752 0.7596
vn 0.6078 -0.2619 0.7496
vn 0.2105 -0.9469 0.2428
vn -0.9697 -0.2098 0.1251
vn 0.2170 -0.9762 0.0000
vn -0.9720 -0.2206 -0.0815
vn -0.5942 0.6378 -0.4901
vn -0.9686 -0.2384 -0.0707
vn 0.9397 0.3420 0.0000
vn 0.3420 -0.9397 0.0000
vn -0.3420 0.9397 -0.0000
vn -0.0000 1.0000 -0.0000
vn 0.0000 0.2038 -0.9790
vn 0.0000 0.2038 0.9790
vn 0.2170 0.9762 -0.0000
vn -0.9812 -0.1930 0.0000
vn 0.0014 0.9981 0.0615
vn 0.0269 0.9635 0.2664
vn -0.9393 0.3431 -0.0000
vn 0.1530 0.6264 0.7644
vn -0.1616 0.6696 0.7249
vn 0.1721 0.6216 0.7642
vn -0.5028 0.7891 -0.3528
vn 0.5438 0.6734 -0.5008
vn 0.5880 0.6422 -0.4918
vn -0.9762 0.2170 -0.0000
vn -0.9025 0.4305 -0.0127
vn -0.9236 0.3664 0.1129
vn -0.9003 0.4347 -0.0216
vn -0.9814 0.1862 -0.0475
vn -0.9589 0.2764 -0.0638
vn -0.9582 0.2789 -0.0643
vn -0.9497 0.3021 -0.0824
vn -0.9511 0.3088 -0.0019
vn -0.9631 0.2610 -0.0662
vn -0.9241 0.3712 0.0908
vn -0.9227 0.3737 0.0946
vn -0.1408 -0.6332 -0.7611
vn -0.5893 -0.2753 0.7596
vn -0.1435 -0.5001 0.8540
vn -0.6078 -0.2619 0.7496
vn -0.2105 -0.9469 0.2428
vn 0.9697 -0.2098 0.1251
vn -0.2170 -0.9762 0.0000
vn 0.9720 -0.2206 -0.0815
vn 0.5942 0.6378 -0.4901
vn 0.5819 0.6470 -0.4927
vn -0.9397 0.3420 0.0000
vn -0.3420 -0.9397 0.0000
vn 0.3420 0.9397 -0.0000
vn -0.0291 0.9584 0.2841
vn 0.1695 0.6698 0.7229
vn -0.5880 0.6422 -0.4918
vn 0.9269 0.3355 0.1681
vn 0.9582 0.2789 -0.0643
vn 0.9438 0.3144 0.1020
vn 0.9227 0.3737 0.0946
vn 0.1134 -0.5102 0.8525
vn -0.5819 0.6470 -0.4927
vn 0.0291 0.9584 0.2841
vn -0.1695 0.6698 0.7229
vn -0.5256 0.7789 -0.3422
vn -0.9269 0.3355 0.1681
vn -0.9821 0.1824 -0.0468
vn -0.9438 0.3144 0.1020
vn -0.9638 0.2567 -0.0720
vn -0.1134 -0.5102 0.8525
vn 0.9686 -0.2384 -0.0707
usemtl body_white.003
s 1
f 6/1/1 54/2/1 14/3/1
f 13/4/2 51/5/3 30/6/3
f 41/7/4 61/8/4 62/9/4
f 24/10/5 11/11/5 1/12/5
f 40/13/6 53/14/6 12/15/6
f 12/15/7 59/16/8 3/17/9
f 16/18/10 19/19/10 17/20/10
f 21/21/11 22/22/11 20/23/11
f 38/24/12 90/25/12 36/26/12
f 10/27/5 24/10/5 2/28/5
f 8/29/12 28/30/12 38/24/12
f 88/31/13 25/32/13 89/33/13
f 14/3/1 50/34/1 37/35/1
f 30/6/14 86/36/14 13/4/14
f 7/37/14 92/38/14 15/39/14
f 4/40/14 86/36/14 33/41/14
f 4/40/15 91/42/16 7/37/17
f 15/39/14 93/43/14 34/44/14
f 3/17/18 36/26/19 35/45/20
f 37/46/21 38/24/21 14/47/21
f 3/17/21 39/48/21 12/15/21
f 12/15/21 5/49/21 40/13/21
f 6/50/21 38/24/21 36/26/21
f 25/32/22 42/51/22 41/7/22
f 36/26/23 42/51/24 35/45/25
f 36/26/26 44/52/27 43/53/28
f 25/32/29 44/52/30 90/25/29
f 25/32/22 45/54/22 33/41/22
f 90/25/29 46/55/30 25/32/29
f 91/42/22 47/56/22 90/25/22
f 91/42/31 45/54/32 48/57/33
f 46/55/4 66/58/4 45/54/4
f 44/52/11 62/9/11 63/59/11
f 15/39/34 57/60/34 7/37/34
f 48/57/35 66/58/35 67/61/35
f 43/53/36 61/8/37 42/51/38
f 4/40/2 55/62/2 13/4/2
f 47/56/10 65/63/10 46/55/10
f 43/53/39 63/59/39 64/64/39
f 7/65/40 58/66/40 4/67/40
f 48/57/41 68/68/41 47/56/41
f 6/50/42 59/16/43 60/69/44
f 34/44/34 56/70/34 15/39/34
f 70/71/10 84/72/10 83/73/10
f 82/74/45 84/72/45 81/75/45
f 71/76/11 81/75/11 72/77/11
f 11/11/13 89/33/13 87/78/13
f 74/79/11 77/80/11 73/81/11
f 78/82/45 80/83/45 77/80/45
f 75/84/10 80/83/10 79/85/10
f 73/81/46 80/83/46 76/86/46
f 75/84/47 78/82/47 74/79/47
f 72/77/46 84/72/46 69/87/46
f 70/71/47 82/74/47 71/76/47
f 87/78/13 25/32/13 33/41/13
f 10/27/13 89/33/13 27/88/13
f 31/89/48 90/25/48 26/90/48
f 31/89/48 92/38/48 91/42/48
f 32/91/48 93/43/48 92/38/48
f 26/90/48 28/30/48 94/92/48
f 94/92/48 29/93/48 95/94/48
f 98/95/48 97/96/48 96/97/48
f 95/94/49 96/97/49 94/92/49
f 9/98/50 97/96/50 99/99/50
f 137/100/1 104/101/1 110/102/1
f 51/5/3 109/103/2 30/6/3
f 128/104/51 144/105/51 129/106/51
f 116/107/52 107/108/52 119/109/52
f 136/110/6 40/13/6 108/111/6
f 142/112/53 108/111/54 102/113/9
f 113/114/10 16/18/10 112/115/10
f 114/116/11 21/21/11 20/23/11
f 172/117/12 126/118/12 125/119/12
f 116/107/52 106/120/52 101/121/52
f 120/122/12 8/29/12 126/118/12
f 170/123/55 117/124/55 124/125/55
f 50/34/1 110/102/1 37/35/1
f 168/126/14 30/6/14 109/103/14
f 174/127/14 105/128/14 111/129/14
f 103/130/14 168/126/14 109/103/14
f 173/131/56 103/130/57 105/128/58
f 93/43/14 111/129/14 34/44/14
f 102/113/59 125/119/60 104/132/61
f 126/118/21 37/46/21 110/133/21
f 127/134/21 102/113/21 108/111/21
f 5/49/21 108/111/21 40/13/21
f 104/132/21 126/118/21 110/133/21
f 117/124/62 129/106/62 124/125/62
f 129/106/63 125/119/64 124/125/65
f 125/119/66 131/135/67 172/117/68
f 131/135/69 117/124/70 172/117/70
f 132/136/62 117/124/62 123/137/62
f 133/138/69 172/117/70 117/124/70
f 134/139/62 173/131/62 172/117/62
f 173/131/71 132/136/72 123/137/73
f 149/140/51 133/138/51 132/136/51
f 131/135/11 145/141/11 128/104/11
f 140/142/34 111/129/34 105/128/34
f 135/143/74 149/140/74 132/136/74
f 144/105/75 130/144/76 129/106/77
f 138/145/2 103/130/2 109/103/2
f 148/146/10 134/139/10 133/138/10
f 130/144/78 146/147/78 131/135/78
f 141/148/79 105/149/79 103/150/79
f 151/151/80 135/143/80 134/139/80
f 104/132/81 142/112/82 102/113/83
f 139/152/34 34/44/34 111/129/34
f 153/153/10 167/154/10 152/155/10
f 167/154/84 165/156/84 164/157/84
f 164/157/11 154/158/11 155/159/11
f 171/160/55 107/108/55 169/161/55
f 160/162/11 157/163/11 156/164/11
f 163/165/84 161/166/84 160/162/84
f 158/167/10 163/165/10 159/168/10
f 163/165/85 156/164/85 159/168/85
f 161/166/86 158/167/86 157/163/86
f 167/154/85 155/159/85 152/155/85
f 165/156/86 153/153/86 154/158/86
f 117/124/55 169/161/55 123/137/55
f 106/120/55 171/160/55 170/123/55
f 172/117/48 121/169/48 118/170/48
f 121/169/48 174/127/48 122/171/48
f 122/171/48 93/43/48 9/98/48
f 120/122/48 118/170/48 175/172/48
f 29/93/48 175/172/48 95/94/48
f 177/173/48 98/95/48 176/174/48
f 176/174/49 95/94/49 175/172/49
f 9/98/50 177/173/50 122/171/50
f 6/1/1 60/175/1 54/2/1
f 13/4/2 55/62/2 51/5/3
f 41/7/4 42/51/4 61/8/4
f 24/10/5 27/88/5 11/11/5
f 40/13/6 49/176/6 53/14/6
f 12/15/7 53/14/87 59/16/8
f 16/18/10 18/177/10 19/19/10
f 21/21/11 23/178/11 22/22/11
f 38/24/12 28/30/12 90/25/12
f 10/27/5 27/88/5 24/10/5
f 8/29/12 29/93/12 28/30/12
f 88/31/13 35/45/13 25/32/13
f 14/3/1 54/2/1 50/34/1
f 30/6/14 85/179/14 86/36/14
f 7/37/14 91/42/14 92/38/14
f 4/40/14 13/4/14 86/36/14
f 4/40/15 33/41/88 91/42/16
f 15/39/14 92/38/14 93/43/14
f 3/17/18 6/50/89 36/26/19
f 37/46/21 8/29/21 38/24/21
f 3/17/21 35/45/21 39/48/21
f 12/15/21 39/48/21 5/49/21
f 6/50/21 14/47/21 38/24/21
f 25/32/22 35/45/22 42/51/22
f 36/26/23 43/53/90 42/51/24
f 36/26/26 90/25/91 44/52/27
f 25/32/29 41/7/92 44/52/30
f 25/32/22 46/55/22 45/54/22
f 90/25/29 47/56/92 46/55/30
f 91/42/22 48/57/22 47/56/22
f 91/42/31 33/41/93 45/54/32
f 46/55/4 65/63/4 66/58/4
f 44/52/11 41/7/11 62/9/11
f 15/39/34 56/70/34 57/60/34
f 48/57/35 45/54/35 66/58/35
f 43/53/36 64/64/94 61/8/37
f 4/40/2 58/180/2 55/62/2
f 47/56/10 68/68/10 65/63/10
f 43/53/39 44/52/39 63/59/39
f 7/65/40 57/181/40 58/66/40
f 48/57/41 67/61/41 68/68/41
f 6/50/42 3/17/95 59/16/43
f 34/44/34 52/182/34 56/70/34
f 70/71/10 69/87/10 84/72/10
f 82/74/45 83/73/45 84/72/45
f 71/76/11 82/74/11 81/75/11
f 11/11/13 27/88/13 89/33/13
f 74/79/11 78/82/11 77/80/11
f 78/82/45 79/85/45 80/83/45
f 75/84/10 76/86/10 80/83/10
f 73/81/46 77/80/46 80/83/46
f 75/84/47 79/85/47 78/82/47
f 72/77/46 81/75/46 84/72/46
f 70/71/47 83/73/47 82/74/47
f 87/78/13 89/33/13 25/32/13
f 10/27/13 88/31/13 89/33/13
f 31/89/48 91/42/48 90/25/48
f 31/89/48 32/91/48 92/38/48
f 32/91/48 9/98/48 93/43/48
f 26/90/48 90/25/48 28/30/48
f 94/92/48 28/30/48 29/93/48
f 98/95/48 99/99/48 97/96/48
f 95/94/49 98/95/49 96/97/49
f 9/98/50 32/91/50 97/96/50
f 137/100/1 143/183/1 104/101/1
f 51/5/3 138/145/2 109/103/2
f 128/104/51 145/141/51 144/105/51
f 116/107/52 100/184/52 107/108/52
f 136/110/6 49/176/6 40/13/6
f 142/112/53 136/110/96 108/111/54
f 113/114/10 18/177/10 16/18/10
f 114/116/11 115/185/11 21/21/11
f 172/117/12 120/122/12 126/118/12
f 116/107/52 119/109/52 106/120/52
f 120/122/12 29/93/12 8/29/12
f 170/123/55 171/160/55 117/124/55
f 50/34/1 137/100/1 110/102/1
f 168/126/14 85/179/14 30/6/14
f 174/127/14 173/131/14 105/128/14
f 103/130/14 123/137/14 168/126/14
f 173/131/56 123/137/97 103/130/57
f 93/43/14 174/127/14 111/129/14
f 102/113/59 124/125/98 125/119/60
f 126/118/21 8/29/21 37/46/21
f 127/134/21 124/125/21 102/113/21
f 5/49/21 127/134/21 108/111/21
f 104/132/21 125/119/21 126/118/21
f 117/124/62 128/104/62 129/106/62
f 129/106/63 130/144/99 125/119/64
f 125/119/66 130/144/100 131/135/67
f 131/135/69 128/104/101 117/124/70
f 132/136/62 133/138/62 117/124/62
f 133/138/69 134/139/101 172/117/70
f 134/139/62 135/143/62 173/131/62
f 173/131/71 135/143/102 132/136/72
f 149/140/51 148/146/51 133/138/51
f 131/135/11 146/147/11 145/141/11
f 140/142/34 139/152/34 111/129/34
f 135/143/74 150/186/74 149/140/74
f 144/105/75 147/187/103 130/144/76
f 138/145/2 141/188/2 103/130/2
f 148/146/10 151/151/10 134/139/10
f 130/144/78 147/187/78 146/147/78
f 141/148/79 140/189/79 105/149/79
f 151/151/80 150/186/80 135/143/80
f 104/132/81 143/190/104 142/112/82
f 139/152/34 52/182/34 34/44/34
f 153/153/10 166/191/10 167/154/10
f 167/154/84 166/191/84 165/156/84
f 164/157/11 165/156/11 154/158/11
f 171/160/55 119/109/55 107/108/55
f 160/162/11 161/166/11 157/163/11
f 163/165/84 162/192/84 161/166/84
f 158/167/10 162/192/10 163/165/10
f 163/165/85 160/162/85 156/164/85
f 161/166/86 162/192/86 158/167/86
f 167/154/85 164/157/85 155/159/85
f 165/156/86 166/191/86 153/153/86
f 117/124/55 171/160/55 169/161/55
f 106/120/55 119/109/55 171/160/55
f 172/117/48 173/131/48 121/169/48
f 121/169/48 173/131/48 174/127/48
f 122/171/48 174/127/48 93/43/48
f 120/122/48 172/117/48 118/170/48
f 29/93/48 120/122/48 175/172/48
f 177/173/48 99/99/48 98/95/48
f 176/174/49 98/95/49 95/94/49
f 9/98/50 99/99/50 177/173/50
