# Blender 3.5.1
# www.blender.org
mtllib 4misc-avion2.mtl
o Text
v 4.707844 0.719969 -0.175184
v 4.609844 0.719969 -0.175184
v 4.609844 0.813623 0.500355
v 4.707844 0.813623 0.500355
v 4.311844 0.719969 -0.175184
v 4.008844 0.719969 -0.175184
v 4.008844 0.768718 0.176453
v 4.045057 0.767776 0.169655
v 4.078631 0.767393 0.166892
v 4.109469 0.767528 0.167863
v 4.137474 0.768139 0.172271
v 4.162548 0.769184 0.179815
v 4.184594 0.770624 0.190196
v 4.203516 0.772415 0.203116
v 4.219214 0.774516 0.218275
v 4.231594 0.776887 0.235374
v 4.240557 0.779485 0.254113
v 4.246006 0.782269 0.274193
v 4.247844 0.785197 0.295316
v 4.246541 0.787462 0.311655
v 4.242747 0.789643 0.327384
v 4.236641 0.791718 0.342351
v 4.228400 0.793665 0.356399
v 4.218200 0.795464 0.369373
v 4.206220 0.797093 0.381120
v 4.192635 0.798529 0.391485
v 4.177622 0.799753 0.400312
v 4.161360 0.800742 0.407447
v 4.144025 0.801475 0.412735
v 4.125794 0.801931 0.416021
v 4.106844 0.802088 0.417151
v 4.094345 0.802039 0.416801
v 4.081849 0.801894 0.415752
v 4.069360 0.801652 0.414009
v 4.056881 0.801315 0.411575
v 4.044416 0.800882 0.408452
v 4.031969 0.800354 0.404645
v 4.019543 0.799732 0.400158
v 4.007141 0.799016 0.394992
v 3.994766 0.798206 0.389153
v 3.982423 0.797304 0.382643
v 3.970114 0.796309 0.375466
v 3.957844 0.795222 0.367625
v 3.957844 0.809091 0.467668
v 3.972358 0.810070 0.474729
v 3.986455 0.810949 0.481067
v 4.000219 0.811730 0.486704
v 4.013733 0.812417 0.491660
v 4.027081 0.813013 0.495956
v 4.040344 0.813520 0.499612
v 4.053608 0.813941 0.502649
v 4.066956 0.814279 0.505088
v 4.080470 0.814537 0.506948
v 4.094234 0.814717 0.508252
v 4.108331 0.814824 0.509019
v 4.122844 0.814859 0.509270
v 4.154331 0.814600 0.507405
v 4.184155 0.813843 0.501942
v 4.212110 0.812614 0.493081
v 4.237992 0.810942 0.481021
v 4.261597 0.808855 0.465963
v 4.282719 0.806379 0.448105
v 4.301154 0.803543 0.427647
v 4.316696 0.800374 0.404788
v 4.329141 0.796899 0.379728
v 4.338284 0.793148 0.352666
v 4.343920 0.789146 0.323802
v 4.345844 0.784922 0.293335
v 4.343905 0.780686 0.262776
v 4.338168 0.776652 0.233679
v 4.328751 0.772857 0.206308
v 4.315770 0.769339 0.180929
v 4.299346 0.766133 0.157805
v 4.279594 0.763277 0.137203
v 4.256635 0.760807 0.119387
v 4.230585 0.758760 0.104621
v 4.201563 0.757173 0.093171
v 4.169687 0.756082 0.085302
v 4.135075 0.755524 0.081277
v 4.097844 0.755535 0.081362
v 4.097844 0.732053 -0.088018
v 4.311844 0.732053 -0.088018
v 3.867844 0.776958 0.235884
v 3.624844 0.776958 0.235884
v 3.624844 0.789729 0.328003
v 3.867844 0.789729 0.328003
v 3.144844 0.719969 -0.175184
v 3.144844 0.813623 0.500355
v 3.242844 0.813623 0.500355
v 3.242844 0.773113 0.208150
v 3.344844 0.773113 0.208150
v 3.382561 0.772877 0.206451
v 3.416742 0.772190 0.201496
v 3.447438 0.771081 0.193493
v 3.474696 0.769578 0.182653
v 3.498565 0.767711 0.169185
v 3.519094 0.765508 0.153299
v 3.536332 0.763000 0.135206
v 3.550326 0.760215 0.115114
v 3.561126 0.757181 0.093233
v 3.568779 0.753929 0.069774
v 3.573336 0.750487 0.044946
v 3.574844 0.746884 0.018959
v 3.573420 0.743239 -0.007333
v 3.569118 0.739741 -0.032567
v 3.561891 0.736422 -0.056507
v 3.551696 0.733315 -0.078920
v 3.538487 0.730452 -0.099572
v 3.522219 0.727865 -0.118229
v 3.502847 0.725587 -0.134657
v 3.480326 0.723651 -0.148623
v 3.454610 0.722089 -0.159893
v 3.425655 0.720933 -0.168232
v 3.393414 0.720215 -0.173407
v 3.357844 0.719969 -0.175184
v 3.242844 0.732053 -0.088018
v 3.357844 0.732053 -0.088018
v 3.378823 0.732203 -0.086937
v 3.397340 0.732634 -0.083826
v 3.413516 0.733319 -0.078886
v 3.427474 0.734230 -0.072316
v 3.439334 0.735339 -0.064315
v 3.449219 0.736619 -0.055083
v 3.457250 0.738042 -0.044819
v 3.463548 0.739581 -0.033722
v 3.468235 0.741207 -0.021993
v 3.471432 0.742893 -0.009830
v 3.473261 0.744612 0.002566
v 3.473844 0.746335 0.014997
v 3.472877 0.748586 0.031232
v 3.470025 0.750666 0.046235
v 3.465360 0.752570 0.059973
v 3.458955 0.754295 0.072411
v 3.450884 0.755834 0.083514
v 3.441219 0.757183 0.093249
v 3.430034 0.758338 0.101580
v 3.417400 0.759294 0.108473
v 3.403391 0.760046 0.113895
v 3.388081 0.760588 0.117810
v 3.371541 0.760918 0.120184
v 3.353844 0.761028 0.120983
v 3.242844 0.761028 0.120983
v 3.002844 0.719969 -0.175184
v 2.911844 0.719969 -0.175184
v 2.684844 0.758419 0.102163
v 2.458844 0.719969 -0.175184
v 2.366844 0.719969 -0.175184
v 2.366844 0.813623 0.500355
v 2.464844 0.813623 0.500355
v 2.464844 0.740705 -0.025615
v 2.466844 0.740705 -0.025615
v 2.676844 0.776958 0.235884
v 2.692844 0.776958 0.235884
v 2.902844 0.740705 -0.025615
v 2.904844 0.740705 -0.025615
v 2.904844 0.813623 0.500355
v 3.002844 0.813623 0.500355
vn -0.0000 0.9905 -0.1373
vt 0.000000 0.000000
vt 0.333333 0.000000
vt 0.666667 0.000000
vt 1.000000 0.000000
vt 0.000000 0.000000
vt 0.012987 0.000000
vt 0.025974 0.000000
vt 0.038961 0.000000
vt 0.051948 0.000000
vt 0.064935 0.000000
vt 0.077922 0.000000
vt 0.090909 0.000000
vt 0.103896 0.000000
vt 0.116883 0.000000
vt 0.129870 0.000000
vt 0.142857 0.000000
vt 0.155844 0.000000
vt 0.168831 0.000000
vt 0.181818 0.000000
vt 0.194805 0.000000
vt 0.207792 0.000000
vt 0.220779 0.000000
vt 0.233766 0.000000
vt 0.246753 0.000000
vt 0.259740 0.000000
vt 0.272727 0.000000
vt 0.285714 0.000000
vt 0.298701 0.000000
vt 0.311688 0.000000
vt 0.324675 0.000000
vt 0.337662 0.000000
vt 0.350649 0.000000
vt 0.363636 0.000000
vt 0.376623 0.000000
vt 0.389610 0.000000
vt 0.402597 0.000000
vt 0.415584 0.000000
vt 0.428571 0.000000
vt 0.441558 0.000000
vt 0.454545 0.000000
vt 0.467532 0.000000
vt 0.480519 0.000000
vt 0.493506 0.000000
vt 0.506494 0.000000
vt 0.519481 0.000000
vt 0.532468 0.000000
vt 0.545455 0.000000
vt 0.558442 0.000000
vt 0.571429 0.000000
vt 0.584416 0.000000
vt 0.597403 0.000000
vt 0.610390 0.000000
vt 0.623377 0.000000
vt 0.636364 0.000000
vt 0.649351 0.000000
vt 0.662338 0.000000
vt 0.675325 0.000000
vt 0.688312 0.000000
vt 0.701299 0.000000
vt 0.714286 0.000000
vt 0.727273 0.000000
vt 0.740260 0.000000
vt 0.753247 0.000000
vt 0.766234 0.000000
vt 0.779221 0.000000
vt 0.792208 0.000000
vt 0.805195 0.000000
vt 0.818182 0.000000
vt 0.831169 0.000000
vt 0.844156 0.000000
vt 0.857143 0.000000
vt 0.870130 0.000000
vt 0.883117 0.000000
vt 0.896104 0.000000
vt 0.909091 0.000000
vt 0.922078 0.000000
vt 0.935065 0.000000
vt 0.948052 0.000000
vt 0.961039 0.000000
vt 0.974026 0.000000
vt 0.987013 0.000000
vt 1.000000 0.000000
vt 0.000000 0.000000
vt 0.333333 0.000000
vt 0.666667 0.000000
vt 1.000000 0.000000
vt 0.000000 0.000000
vt 0.018182 0.000000
vt 0.036364 0.000000
vt 0.054545 0.000000
vt 0.072727 0.000000
vt 0.090909 0.000000
vt 0.109091 0.000000
vt 0.127273 0.000000
vt 0.145455 0.000000
vt 0.163636 0.000000
vt 0.181818 0.000000
vt 0.200000 0.000000
vt 0.218182 0.000000
vt 0.236364 0.000000
vt 0.254545 0.000000
vt 0.272727 0.000000
vt 0.290909 0.000000
vt 0.309091 0.000000
vt 0.327273 0.000000
vt 0.345455 0.000000
vt 0.363636 0.000000
vt 0.381818 0.000000
vt 0.400000 0.000000
vt 0.418182 0.000000
vt 0.436364 0.000000
vt 0.454545 0.000000
vt 0.472727 0.000000
vt 0.490909 0.000000
vt 0.509091 0.000000
vt 0.527273 0.000000
vt 0.545455 0.000000
vt 0.563636 0.000000
vt 0.581818 0.000000
vt 0.600000 0.000000
vt 0.618182 0.000000
vt 0.636364 0.000000
vt 0.654545 0.000000
vt 0.672727 0.000000
vt 0.690909 0.000000
vt 0.709091 0.000000
vt 0.727273 0.000000
vt 0.745455 0.000000
vt 0.763636 0.000000
vt 0.781818 0.000000
vt 0.800000 0.000000
vt 0.818182 0.000000
vt 0.836364 0.000000
vt 0.854545 0.000000
vt 0.872727 0.000000
vt 0.890909 0.000000
vt 0.909091 0.000000
vt 0.927273 0.000000
vt 0.945455 0.000000
vt 0.963636 0.000000
vt 0.981818 0.000000
vt 1.000000 0.000000
vt 0.000000 0.000000
vt 0.071429 0.000000
vt 0.142857 0.000000
vt 0.214286 0.000000
vt 0.285714 0.000000
vt 0.357143 0.000000
vt 0.428571 0.000000
vt 0.500000 0.000000
vt 0.571429 0.000000
vt 0.642857 0.000000
vt 0.714286 0.000000
vt 0.785714 0.000000
vt 0.857143 0.000000
vt 0.928571 0.000000
vt 1.000000 0.000000
s 0
usemtl Material.001
f 3/3/1 1/1/1 2/2/1
f 3/3/1 4/4/1 1/1/1
f 7/7/1 81/81/1 6/6/1
f 81/81/1 5/5/1 6/6/1
f 81/81/1 82/82/1 5/5/1
f 7/7/1 80/80/1 81/81/1
f 80/80/1 78/78/1 79/79/1
f 7/7/1 78/78/1 80/80/1
f 7/7/1 77/77/1 78/78/1
f 7/7/1 76/76/1 77/77/1
f 7/7/1 75/75/1 76/76/1
f 7/7/1 8/8/1 75/75/1
f 8/8/1 74/74/1 75/75/1
f 8/8/1 9/9/1 74/74/1
f 9/9/1 73/73/1 74/74/1
f 9/9/1 10/10/1 73/73/1
f 10/10/1 72/72/1 73/73/1
f 11/11/1 72/72/1 10/10/1
f 12/12/1 72/72/1 11/11/1
f 13/13/1 72/72/1 12/12/1
f 13/13/1 71/71/1 72/72/1
f 14/14/1 71/71/1 13/13/1
f 15/15/1 71/71/1 14/14/1
f 15/15/1 70/70/1 71/71/1
f 16/16/1 70/70/1 15/15/1
f 16/16/1 69/69/1 70/70/1
f 17/17/1 69/69/1 16/16/1
f 18/18/1 69/69/1 17/17/1
f 18/18/1 68/68/1 69/69/1
f 19/19/1 68/68/1 18/18/1
f 19/19/1 67/67/1 68/68/1
f 20/20/1 67/67/1 19/19/1
f 21/21/1 67/67/1 20/20/1
f 21/21/1 66/66/1 67/67/1
f 22/22/1 66/66/1 21/21/1
f 23/23/1 66/66/1 22/22/1
f 23/23/1 65/65/1 66/66/1
f 24/24/1 65/65/1 23/23/1
f 44/44/1 42/42/1 43/43/1
f 25/25/1 65/65/1 24/24/1
f 44/44/1 41/41/1 42/42/1
f 25/25/1 64/64/1 65/65/1
f 26/26/1 64/64/1 25/25/1
f 44/44/1 40/40/1 41/41/1
f 44/44/1 39/39/1 40/40/1
f 27/27/1 64/64/1 26/26/1
f 44/44/1 38/38/1 39/39/1
f 44/44/1 37/37/1 38/38/1
f 28/28/1 64/64/1 27/27/1
f 44/44/1 36/36/1 37/37/1
f 28/28/1 63/63/1 64/64/1
f 29/29/1 63/63/1 28/28/1
f 44/44/1 35/35/1 36/36/1
f 44/44/1 34/34/1 35/35/1
f 30/30/1 63/63/1 29/29/1
f 44/44/1 33/33/1 34/34/1
f 44/44/1 32/32/1 33/33/1
f 31/31/1 63/63/1 30/30/1
f 44/44/1 31/31/1 32/32/1
f 44/44/1 63/63/1 31/31/1
f 44/44/1 62/62/1 63/63/1
f 44/44/1 61/61/1 62/62/1
f 44/44/1 60/60/1 61/61/1
f 45/45/1 60/60/1 44/44/1
f 46/46/1 60/60/1 45/45/1
f 46/46/1 59/59/1 60/60/1
f 47/47/1 59/59/1 46/46/1
f 48/48/1 59/59/1 47/47/1
f 49/49/1 59/59/1 48/48/1
f 49/49/1 58/58/1 59/59/1
f 50/50/1 58/58/1 49/49/1
f 51/51/1 58/58/1 50/50/1
f 51/51/1 57/57/1 58/58/1
f 52/52/1 57/57/1 51/51/1
f 53/53/1 57/57/1 52/52/1
f 54/54/1 57/57/1 53/53/1
f 54/54/1 56/56/1 57/57/1
f 55/55/1 56/56/1 54/54/1
f 85/85/1 83/83/1 84/84/1
f 85/85/1 86/86/1 83/83/1
f 88/88/1 116/116/1 87/87/1
f 116/116/1 115/115/1 87/87/1
f 116/116/1 114/114/1 115/115/1
f 116/116/1 113/113/1 114/114/1
f 116/116/1 112/112/1 113/113/1
f 116/116/1 111/111/1 112/112/1
f 116/116/1 110/110/1 111/111/1
f 116/116/1 109/109/1 110/110/1
f 116/116/1 108/108/1 109/109/1
f 116/116/1 117/117/1 108/108/1
f 117/117/1 107/107/1 108/108/1
f 88/88/1 142/142/1 116/116/1
f 118/118/1 107/107/1 117/117/1
f 119/119/1 107/107/1 118/118/1
f 120/120/1 107/107/1 119/119/1
f 120/120/1 106/106/1 107/107/1
f 121/121/1 106/106/1 120/120/1
f 122/122/1 106/106/1 121/121/1
f 123/123/1 106/106/1 122/122/1
f 123/123/1 105/105/1 106/106/1
f 124/124/1 105/105/1 123/123/1
f 125/125/1 105/105/1 124/124/1
f 126/126/1 105/105/1 125/125/1
f 126/126/1 104/104/1 105/105/1
f 127/127/1 104/104/1 126/126/1
f 128/128/1 104/104/1 127/127/1
f 128/128/1 103/103/1 104/104/1
f 129/129/1 103/103/1 128/128/1
f 130/130/1 103/103/1 129/129/1
f 130/130/1 102/102/1 103/103/1
f 131/131/1 102/102/1 130/130/1
f 131/131/1 101/101/1 102/102/1
f 132/132/1 101/101/1 131/131/1
f 133/133/1 101/101/1 132/132/1
f 133/133/1 100/100/1 101/101/1
f 134/134/1 100/100/1 133/133/1
f 135/135/1 100/100/1 134/134/1
f 135/135/1 99/99/1 100/100/1
f 136/136/1 99/99/1 135/135/1
f 137/137/1 99/99/1 136/136/1
f 138/138/1 99/99/1 137/137/1
f 139/139/1 99/99/1 138/138/1
f 139/139/1 98/98/1 99/99/1
f 140/140/1 98/98/1 139/139/1
f 141/141/1 98/98/1 140/140/1
f 88/88/1 90/90/1 142/142/1
f 90/90/1 141/141/1 142/142/1
f 90/90/1 98/98/1 141/141/1
f 90/90/1 97/97/1 98/98/1
f 90/90/1 96/96/1 97/97/1
f 90/90/1 95/95/1 96/96/1
f 90/90/1 94/94/1 95/95/1
f 90/90/1 93/93/1 94/94/1
f 90/90/1 92/92/1 93/93/1
f 90/90/1 91/91/1 92/92/1
f 88/88/1 89/89/1 90/90/1
f 148/148/1 146/146/1 147/147/1
f 148/148/1 150/150/1 146/146/1
f 150/150/1 151/151/1 146/146/1
f 151/151/1 145/145/1 146/146/1
f 145/145/1 143/143/1 144/144/1
f 145/145/1 154/154/1 143/143/1
f 154/154/1 155/155/1 143/143/1
f 155/155/1 157/157/1 143/143/1
f 148/148/1 149/149/1 150/150/1
f 152/152/1 145/145/1 151/151/1
f 145/145/1 153/153/1 154/154/1
f 156/156/1 157/157/1 155/155/1
f 152/152/1 153/153/1 145/145/1
o Hélice
v -1.692056 2.027224 4.260315
v -0.609991 -0.408366 4.260315
v 0.743533 3.109288 4.259437
v 1.825598 0.673698 4.259436
v -1.048872 1.549419 4.260315
v 0.059096 1.381485 4.260315
v -0.495027 0.457971 4.260315
v 1.196809 1.157897 4.259436
v 0.102679 1.383348 4.259436
v 0.703753 2.345298 4.259437
v 0.257729 2.445313 4.259656
v 0.062891 1.359194 4.259876
v -0.894485 1.950653 4.260096
v -0.084189 0.359560 4.260096
v 0.074165 1.372614 4.259876
v 1.005632 0.723082 4.259656
v -0.812642 1.688842 4.260096
v 0.064859 1.354765 4.259876
v 0.405152 2.229874 4.259656
v 0.049676 1.377339 4.260096
v 0.066771 1.350461 4.259876
v 0.115865 1.406744 4.259656
v -0.271610 0.471047 4.260096
v 0.075079 1.331761 4.259876
v 0.946184 1.012079 4.259656
vn 0.0004 0.0003 1.0000
vn 0.0005 0.0001 1.0000
vn 0.0018 -0.0009 1.0000
vn 0.0007 0.0022 1.0000
vn 0.0021 -0.0010 1.0000
vn 0.0054 -0.0018 1.0000
vn 0.0011 0.0023 1.0000
vn 0.0006 0.0023 1.0000
vn 0.0047 0.0129 -0.9999
vn 0.0067 -0.0023 1.0000
vn 0.0004 0.0004 1.0000
vn 0.0003 0.0001 1.0000
vn 0.0002 0.0002 1.0000
vn 0.0005 -0.0000 1.0000
vn 0.0001 0.0002 1.0000
vt 0.000000 0.000001
vt 0.992941 0.000000
vt 0.000000 1.000000
vt 0.992941 0.999999
vt 0.259972 0.147758
vt 0.484747 0.502094
vt 0.715363 0.171399
vt 0.732969 0.858152
vt 0.490705 0.517323
vt 0.254104 0.869973
vt 0.152583 0.732269
vt 0.492910 0.500000
vt 0.146715 0.261821
vt 0.811015 0.297282
vt 0.490046 0.505910
vt 0.852095 0.726358
vt 1.000000 0.353554
vt 0.248235 0.250000
vt 0.998759 0.001250
vt 0.494716 0.500000
vt 0.248235 0.750000
vt 0.484733 0.498233
vt 0.992941 0.009608
vt 1.000000 0.000000
vt 0.496470 0.500000
vt 0.484733 0.525409
vt 0.744705 0.250000
vt 0.504094 0.500000
vt 0.744706 0.750000
s 0
f 182/186/2 173/173/2 161/161/2 165/165/2
f 168/168/3 176/178/3 167/167/3 160/160/3
f 176/178/4 179/183/4 166/166/4 167/167/4
f 179/183/5 182/186/5 165/165/5 166/166/5
f 163/163/6 164/164/6 180/184/6 177/179/6
f 177/179/7 180/184/7 181/185/7 178/182/7
f 178/182/8 181/185/8 182/186/8 179/183/8
f 162/162/9 163/163/9 177/179/9 174/175/9
f 174/174/10 177/180/10 178/181/10 175/176/10
f 175/177/11 178/182/11 179/183/11 176/178/11
f 158/158/12 162/162/12 174/175/12 170/170/12
f 170/170/13 174/175/13 175/177/13 169/169/13
f 169/169/14 175/177/14 176/178/14 168/168/14
f 164/164/15 159/159/15 171/171/15 180/184/15
f 180/184/16 171/171/16 172/172/16 181/185/16
f 181/185/13 172/172/13 173/173/13 182/186/13
