# Blender 3.5.1
# www.blender.org
mtllib 4misc-stairs.mtl
o Texture_set_orange
v 43.702526 12.600809 -30.682856
v 40.662193 15.198860 -26.571007
v 43.028423 15.077681 -24.824490
v 46.066750 12.539730 -28.935705
v 40.597134 15.015589 -26.499559
v 42.963364 14.894413 -24.753036
v 43.028423 15.077681 -24.824490
v 40.662193 15.198860 -26.571007
v 46.002232 12.356439 -28.863855
v 42.963364 14.894413 -24.753036
v 40.597134 15.015589 -26.499559
v 43.638016 12.417521 -30.611010
v 43.028423 15.077681 -24.824490
v 42.963364 14.894413 -24.753036
v 46.002232 12.356439 -28.863855
v 46.066750 12.539730 -28.935705
v 40.662193 15.198860 -26.571007
v 43.702526 12.600809 -30.682856
v 43.638016 12.417521 -30.611010
v 40.597134 15.015589 -26.499559
v 43.638016 12.417521 -30.611010
v 43.702526 12.600809 -30.682856
v 46.066750 12.539730 -28.935705
v 46.002232 12.356439 -28.863855
v 11.451909 15.817314 47.247814
v 10.991281 17.411783 41.801334
v 8.031370 17.305424 42.005711
v 8.492639 15.769663 47.439266
v 10.994300 17.213745 41.741623
v 8.034389 17.107388 41.946007
v 8.031370 17.305424 42.005711
v 10.991281 17.411783 41.801334
v 8.494980 15.571600 47.379612
v 8.034389 17.107388 41.946007
v 10.994300 17.213745 41.741623
v 11.454248 15.619254 47.188160
v 8.031370 17.305424 42.005711
v 8.034389 17.107388 41.946007
v 8.494980 15.571600 47.379612
v 8.492639 15.769663 47.439266
v 10.991281 17.411783 41.801334
v 11.451909 15.817314 47.247814
v 11.454248 15.619254 47.188160
v 10.994300 17.213745 41.741623
v 11.454248 15.619254 47.188160
v 11.451909 15.817314 47.247814
v 8.492639 15.769663 47.439266
v 8.494980 15.571600 47.379612
v -59.320248 22.228056 22.810675
v -59.725681 21.932011 17.097052
v -65.829910 20.135700 17.605904
v -65.491364 20.123575 23.321861
v -59.672661 21.771332 17.101286
v -59.267231 22.067377 22.814907
v -65.444000 19.979851 23.324800
v -65.782532 19.991972 17.608837
v -65.491364 20.123575 23.321861
v -65.829910 20.135700 17.605904
v -65.782532 19.991972 17.608837
v -65.444000 19.979851 23.324800
v -59.267231 22.067377 22.814907
v -59.320248 22.228056 22.810675
v -65.491364 20.123575 23.321861
v -65.444000 19.979851 23.324800
v -59.672661 21.771332 17.101286
v -59.725681 21.932011 17.097052
v -59.320248 22.228056 22.810675
v -59.267231 22.067377 22.814907
v -59.672661 21.771332 17.101286
v -65.782532 19.991972 17.608837
v -65.829910 20.135700 17.605904
v -59.725681 21.932011 17.097052
vn 0.2888 0.8933 -0.3445
vn 0.2888 0.8933 -0.3444
vn -0.5107 0.4636 0.7241
vn -0.2888 -0.8933 0.3444
vn 0.7912 -0.0411 0.6102
vn -0.7908 0.0409 -0.6107
vn 0.5187 -0.4640 -0.7181
vn 0.5187 -0.4641 -0.7181
vn -0.0065 0.9608 0.2770
vn -0.0065 0.9609 0.2770
vn -0.0762 0.2868 -0.9550
vn -0.0762 0.2867 -0.9550
vn 0.0065 -0.9609 -0.2770
vn 0.0065 -0.9608 -0.2770
vn -0.9966 -0.0359 0.0744
vn 0.9966 0.0358 -0.0738
vn 0.9966 0.0356 -0.0738
vn 0.0664 -0.2870 0.9556
vn -0.3031 0.9529 -0.0039
vn -0.3032 0.9529 -0.0039
vn 0.3005 -0.9538 0.0041
vn -0.9486 -0.3115 0.0555
vn -0.9486 -0.3116 0.0555
vn 0.0669 0.0456 0.9967
vn 0.0670 0.0455 0.9967
vn 0.9470 0.3103 -0.0833
vn -0.0693 -0.0464 -0.9965
vn -0.0694 -0.0463 -0.9965
vt 0.233465 0.468507
vt 0.233465 0.937286
vt 0.005446 0.937286
vt 0.005446 0.468507
vt 0.942338 0.976460
vt 0.709289 0.976460
vt 0.709289 0.959997
vt 0.942338 0.959997
vt 0.928782 0.469463
vt 0.928782 0.928839
vt 0.700767 0.928839
vt 0.700767 0.469463
vt 0.951681 0.455080
vt 0.935490 0.455080
vt 0.935490 0.009417
vt 0.951681 0.009417
vt 0.977408 0.009527
vt 0.977408 0.457478
vt 0.961219 0.457478
vt 0.961219 0.009527
vt 0.695811 0.980170
vt 0.695811 0.996346
vt 0.467997 0.996346
vt 0.467997 0.980170
vt 0.465030 0.468507
vt 0.465030 0.937286
vt 0.237012 0.937286
vt 0.237012 0.468507
vt 0.697207 0.974042
vt 0.469144 0.974042
vt 0.469144 0.957857
vt 0.697207 0.957857
vt 0.697216 0.469464
vt 0.697216 0.928840
vt 0.469202 0.928840
vt 0.469202 0.469464
vt 0.951679 0.919531
vt 0.935488 0.919531
vt 0.935488 0.473868
vt 0.951679 0.473868
vt 0.977406 0.471029
vt 0.977406 0.918981
vt 0.961217 0.918981
vt 0.961217 0.471029
vt 0.941457 0.979781
vt 0.941457 0.995986
vt 0.705956 0.995986
vt 0.705956 0.979781
vt 0.468518 0.467916
vt 0.926263 0.467916
vt 0.926428 0.000002
vt 0.468589 0.000002
vt 0.463262 0.467264
vt 0.000000 0.467265
vt 0.000000 0.000002
vt 0.463262 0.000002
vt 0.995971 0.009991
vt 0.995971 0.460671
vt 0.984170 0.460671
vt 0.984170 0.009991
vt 0.462352 0.943752
vt 0.462352 0.956269
vt 0.003265 0.956269
vt 0.003265 0.943752
vt 0.981744 0.472935
vt 0.994960 0.472935
vt 0.994960 0.924412
vt 0.981744 0.924412
vt 0.005835 0.963180
vt 0.460462 0.963180
vt 0.460462 0.976874
vt 0.005835 0.976874
s 0
usemtl Platform_texture_set.001
f 4/4/1 1/1/1 2/2/1
f 2/2/2 3/3/2 4/4/2
f 8/8/3 5/5/3 6/6/3
f 6/6/3 7/7/3 8/8/3
f 12/12/4 9/9/4 10/10/4
f 10/10/4 11/11/4 12/12/4
f 16/16/5 13/13/5 14/14/5
f 14/14/5 15/15/5 16/16/5
f 20/20/6 17/17/6 18/18/6
f 18/18/6 19/19/6 20/20/6
f 24/24/7 21/21/7 22/22/7
f 22/22/8 23/23/8 24/24/8
f 28/28/9 25/25/9 26/26/9
f 26/26/10 27/27/10 28/28/10
f 32/32/11 29/29/11 30/30/11
f 30/30/12 31/31/12 32/32/12
f 36/36/13 33/33/13 34/34/13
f 34/34/14 35/35/14 36/36/14
f 40/40/15 37/37/15 38/38/15
f 38/38/15 39/39/15 40/40/15
f 44/44/16 41/41/16 42/42/16
f 42/42/17 43/43/17 44/44/17
f 48/48/18 45/45/18 46/46/18
f 46/46/18 47/47/18 48/48/18
f 52/52/19 49/49/19 50/50/19
f 50/50/20 51/51/20 52/52/20
f 56/56/21 53/53/21 54/54/21
f 54/54/21 55/55/21 56/56/21
f 60/60/22 57/57/22 58/58/22
f 58/58/23 59/59/23 60/60/23
f 64/64/24 61/61/24 62/62/24
f 62/62/25 63/63/25 64/64/25
f 68/68/26 65/65/26 66/66/26
f 66/66/26 67/67/26 68/68/26
f 72/72/27 69/69/27 70/70/27
f 70/70/28 71/71/28 72/72/28
