# Blender 3.5.1
# www.blender.org
mtllib 4tower-roof.mtl
o instance_4.180
v -0.350683 4.207210 0.060682
v -0.029001 4.452300 0.009622
v -0.350683 4.207210 0.009622
v -0.072190 4.419394 0.060682
v -0.029001 4.452300 0.017494
v -0.029001 4.452300 0.017494
v -0.072190 4.419394 0.060682
v -0.029001 4.452300 0.009622
v -0.350683 4.207210 0.060682
v -0.350683 4.207210 0.009622
v -0.130909 4.374656 0.119402
v -0.350683 4.207210 0.068341
v -0.350683 4.207210 0.119402
v -0.079849 4.413559 0.068341
v -0.079849 4.413559 0.068341
v -0.130909 4.374656 0.119402
v -0.350683 4.207210 0.068341
v -0.350683 4.207210 0.119402
v -0.189629 4.329916 0.178122
v -0.350683 4.207210 0.127061
v -0.350683 4.207210 0.178122
v -0.138569 4.368822 0.127061
v -0.138569 4.368822 0.127061
v -0.189629 4.329916 0.178122
v -0.350683 4.207210 0.127061
v -0.350683 4.207210 0.178122
v -0.307068 4.240440 0.295561
v -0.350683 4.207210 0.244501
v -0.350683 4.207210 0.295561
v -0.256008 4.279343 0.244501
v -0.256008 4.279343 0.244501
v -0.307068 4.240440 0.295561
v -0.350683 4.207210 0.244501
v -0.350683 4.207210 0.295561
v -0.016236 4.207210 0.344069
v -0.067296 4.419395 0.065576
v -0.067296 4.207210 0.344069
v -0.024108 4.452301 0.022387
v -0.016236 4.452301 0.022387
v -0.016236 4.452301 0.022387
v -0.016236 4.207210 0.344069
v -0.024108 4.452301 0.022387
v -0.067296 4.419395 0.065576
v -0.067296 4.207210 0.344069
v -0.350683 4.207210 -0.056757
v -0.072190 4.419395 -0.107818
v -0.350683 4.207210 -0.107818
v -0.029001 4.452301 -0.056757
v -0.029001 4.452301 -0.064629
v -0.029001 4.452301 -0.064629
v -0.029001 4.452301 -0.056757
v -0.072190 4.419395 -0.107818
v -0.350683 4.207210 -0.056757
v -0.350683 4.207210 -0.107818
v -0.133675 4.368822 -0.179090
v -0.184736 4.207210 -0.391204
v -0.184736 4.329916 -0.230150
v -0.133675 4.207210 -0.391204
v -0.133675 4.207210 -0.391204
v -0.133675 4.368822 -0.179090
v -0.184736 4.207210 -0.391204
v -0.184736 4.329916 -0.230150
v -0.251115 4.279343 -0.296529
v -0.302175 4.207210 -0.391204
v -0.302175 4.240440 -0.347590
v -0.251115 4.207210 -0.391204
v -0.251115 4.207210 -0.391204
v -0.251115 4.279343 -0.296529
v -0.302175 4.207210 -0.391204
v -0.302175 4.240440 -0.347590
v 0.050143 4.452301 -0.069522
v 0.101204 4.207210 -0.391204
v 0.050143 4.207210 -0.391204
v 0.058015 4.452301 -0.069522
v 0.101204 4.419395 -0.112711
v 0.101204 4.419395 -0.112711
v 0.058015 4.452301 -0.069522
v 0.101204 4.207210 -0.391204
v 0.050143 4.452301 -0.069522
v 0.050143 4.207210 -0.391204
v 0.384590 4.207210 -0.350355
v 0.384590 4.207210 -0.386311
v 0.348635 4.234604 -0.350355
v 0.348635 4.234604 -0.350355
v 0.384590 4.207210 -0.386311
v 0.384590 4.207210 -0.350355
v 0.384590 4.207210 -0.291636
v 0.340976 4.240440 -0.342696
v 0.289915 4.279343 -0.291636
v 0.384590 4.207210 -0.342696
v 0.384590 4.207210 -0.342696
v 0.384590 4.207210 -0.291636
v 0.340976 4.240440 -0.342696
v 0.289915 4.279343 -0.291636
v 0.384590 4.207210 -0.115477
v 0.164817 4.374656 -0.166537
v 0.113756 4.413559 -0.115477
v 0.384590 4.207210 -0.166537
v 0.384590 4.207210 -0.166537
v 0.384590 4.207210 -0.115477
v 0.164817 4.374656 -0.166537
v 0.113756 4.413559 -0.115477
v 0.336082 4.207210 0.344069
v 0.285022 4.279343 0.249394
v 0.285022 4.207210 0.344069
v 0.336082 4.240440 0.300454
v 0.336082 4.240440 0.300454
v 0.336082 4.207210 0.344069
v 0.285022 4.279343 0.249394
v 0.285022 4.207210 0.344069
v 0.159923 4.207210 0.344069
v 0.108863 4.413559 0.073235
v 0.108863 4.207210 0.344069
v 0.159923 4.374656 0.124295
v 0.159923 4.374656 0.124295
v 0.159923 4.207210 0.344069
v 0.108863 4.413559 0.073235
v 0.108863 4.207210 0.344069
v 0.277363 4.207210 0.344069
v 0.226302 4.324083 0.190674
v 0.226302 4.207210 0.344069
v 0.277363 4.285179 0.241735
v 0.277363 4.285179 0.241735
v 0.277363 4.207210 0.344069
v 0.226302 4.324083 0.190674
v 0.226302 4.207210 0.344069
v 0.218643 4.207210 0.344069
v 0.167582 4.368822 0.131955
v 0.167582 4.207210 0.344069
v 0.218643 4.329916 0.183015
v 0.218643 4.329916 0.183015
v 0.218643 4.207210 0.344069
v 0.167582 4.368822 0.131955
v 0.167582 4.207210 0.344069
v 0.101204 4.207210 0.344069
v 0.050143 4.452301 0.022387
v 0.050143 4.207210 0.344069
v 0.058015 4.452301 0.022387
v 0.101204 4.419395 0.065576
v 0.101204 4.419395 0.065576
v 0.101204 4.207210 0.344069
v 0.058015 4.452301 0.022387
v 0.050143 4.452301 0.022387
v 0.050143 4.207210 0.344069
v -0.350683 4.207210 -0.115477
v -0.130909 4.374656 -0.166537
v -0.350683 4.207210 -0.166537
v -0.079849 4.413559 -0.115477
v -0.079849 4.413559 -0.115477
v -0.350683 4.207210 -0.115477
v -0.130909 4.374656 -0.166537
v -0.350683 4.207210 -0.166537
v -0.314728 4.234604 -0.350355
v -0.350683 4.207210 -0.386311
v -0.350683 4.207210 -0.350355
v -0.350683 4.207210 -0.350355
v -0.350683 4.207210 -0.386311
v -0.314728 4.234604 -0.350355
v -0.138569 4.368822 -0.174196
v -0.350683 4.207210 -0.225257
v -0.350683 4.207210 -0.174196
v -0.189629 4.329916 -0.225257
v -0.189629 4.329916 -0.225257
v -0.138569 4.368822 -0.174196
v -0.350683 4.207210 -0.225257
v -0.350683 4.207210 -0.174196
v -0.197288 4.324083 -0.232916
v -0.350683 4.207210 -0.283977
v -0.350683 4.207210 -0.232916
v -0.248349 4.285179 -0.283977
v -0.248349 4.285179 -0.283977
v -0.197288 4.324083 -0.232916
v -0.350683 4.207210 -0.283977
v -0.350683 4.207210 -0.232916
v 0.285022 4.279343 -0.296529
v 0.336082 4.207210 -0.391204
v 0.285022 4.207210 -0.391204
v 0.336082 4.240440 -0.347590
v 0.336082 4.240440 -0.347590
v 0.285022 4.279343 -0.296529
v 0.336082 4.207210 -0.391204
v 0.285022 4.207210 -0.391204
v 0.226302 4.324083 -0.237809
v 0.277363 4.207210 -0.391204
v 0.226302 4.207210 -0.391204
v 0.277363 4.285179 -0.288870
v 0.277363 4.285179 -0.288870
v 0.226302 4.324083 -0.237809
v 0.277363 4.207210 -0.391204
v 0.226302 4.207210 -0.391204
v 0.167582 4.368822 -0.179090
v 0.218643 4.207210 -0.391204
v 0.167582 4.207210 -0.391204
v 0.218643 4.329916 -0.230150
v 0.218643 4.329916 -0.230150
v 0.167582 4.368822 -0.179090
v 0.218643 4.207210 -0.391204
v 0.167582 4.207210 -0.391204
v -0.024108 4.452301 -0.069522
v -0.067296 4.207210 -0.391204
v -0.067296 4.419395 -0.112711
v -0.016236 4.207210 -0.391204
v -0.016236 4.452301 -0.069522
v -0.016236 4.452301 -0.069522
v -0.024108 4.452301 -0.069522
v -0.016236 4.207210 -0.391204
v -0.067296 4.207210 -0.391204
v -0.067296 4.419395 -0.112711
v 0.340976 4.240440 0.295561
v 0.384590 4.207210 0.244501
v 0.289915 4.279343 0.244501
v 0.384590 4.207210 0.295561
v 0.384590 4.207210 0.295561
v 0.340976 4.240440 0.295561
v 0.384590 4.207210 0.244501
v 0.289915 4.279343 0.244501
v -0.251115 4.207210 0.344069
v -0.302175 4.240440 0.300454
v -0.302175 4.207210 0.344069
v -0.251115 4.279343 0.249394
v -0.251115 4.279343 0.249394
v -0.251115 4.207210 0.344069
v -0.302175 4.240440 0.300454
v -0.302175 4.207210 0.344069
v -0.192395 4.207210 0.344069
v -0.243455 4.285179 0.241735
v -0.243455 4.207210 0.344069
v -0.192395 4.324083 0.190674
v -0.192395 4.324083 0.190674
v -0.192395 4.207210 0.344069
v -0.243455 4.285179 0.241735
v -0.243455 4.207210 0.344069
v -0.074955 4.207210 0.344069
v -0.126016 4.374656 0.124295
v -0.126016 4.207210 0.344069
v -0.074955 4.413559 0.073235
v -0.074955 4.413559 0.073235
v -0.074955 4.207210 0.344069
v -0.126016 4.374656 0.124295
v -0.126016 4.207210 0.344069
v -0.133675 4.207210 0.344069
v -0.184736 4.329916 0.183015
v -0.184736 4.207210 0.344069
v -0.133675 4.368822 0.131955
v -0.133675 4.368822 0.131955
v -0.133675 4.207210 0.344069
v -0.184736 4.329916 0.183015
v -0.184736 4.207210 0.344069
vn -0.6060 0.7954 -0.0000
vn -0.6061 0.7954 -0.0000
vn 0.6061 -0.7954 -0.0000
vn 0.6060 -0.7954 -0.0000
vn -0.0000 0.7954 0.6060
vn -0.0000 -0.7954 -0.6060
vn -0.0000 0.7954 -0.6060
vn -0.0000 -0.7954 0.6060
vn 0.0001 -0.7954 0.6060
vn -0.0000 0.7954 -0.6061
vn -0.0000 -0.7954 0.6061
vn 0.6060 0.7954 -0.0000
vn -0.6060 -0.7954 -0.0000
vn 0.6061 0.7954 -0.0000
vn -0.6061 -0.7954 -0.0000
vn -0.0000 0.7954 0.6061
vn -0.0000 -0.7954 -0.6061
vn 0.0001 0.7954 0.6060
vn -0.0001 -0.7954 -0.6060
vn -0.0001 -0.7954 0.6060
vt -197.250000 718.502075
vt -198.916702 731.702454
vt -198.916702 718.502075
vt -197.250000 729.930176
vt -198.659698 731.702454
vt -198.659698 731.702454
vt -197.250000 729.930176
vt -198.916702 731.702454
vt -197.250000 718.502075
vt -198.916702 718.502075
vt 0.000000 0.000000
vt 0.000000 0.000000
vt 0.000000 0.000000
vt 0.000000 0.000000
vt 0.000000 0.000000
vt 0.000000 0.000000
vt 0.000000 0.000000
vt 0.000000 0.000000
vt 0.000000 0.000000
vt 0.000000 0.000000
vt 0.000000 0.000000
vt 0.000000 0.000000
vt 0.000000 0.000000
vt 0.000000 0.000000
vt 0.000000 0.000000
vt 0.000000 0.000000
vt 0.000000 0.000000
vt 0.000000 0.000000
vt 0.000000 0.000000
vt 0.000000 0.000000
vt 0.000000 0.000000
vt 0.000000 0.000000
vt 0.000000 0.000000
vt 0.000000 0.000000
vt 0.000000 0.000000
vt 0.000000 0.000000
vt 0.000000 0.000000
vt 0.000000 0.000000
vt 0.000000 0.000000
vt 0.000000 0.000000
vt 0.000000 0.000000
vt 0.000000 0.000000
vt 0.000000 0.000000
vt 0.000000 0.000000
vt 0.000000 0.000000
vt 0.000000 0.000000
vt 0.000000 0.000000
vt 0.000000 0.000000
vt 0.000000 0.000000
vt 0.000000 0.000000
vt 0.000000 0.000000
vt 0.000000 0.000000
vt 0.000000 0.000000
vt 0.000000 0.000000
vt 0.000000 0.000000
vt 0.000000 0.000000
vt 0.000000 0.000000
vt 0.000000 0.000000
vt 0.000000 0.000000
vt 0.000000 0.000000
vt 0.000000 0.000000
vt 0.000000 0.000000
vt 0.000000 0.000000
vt 0.000000 0.000000
vt 0.000000 0.000000
vt 0.000000 0.000000
vt 0.000000 0.000000
vt 0.000000 0.000000
vt 0.000000 0.000000
vt 0.000000 0.000000
vt 0.000000 0.000000
vt 0.000000 0.000000
vt 0.000000 0.000000
vt 0.000000 0.000000
vt 0.000000 0.000000
vt 0.000000 0.000000
vt 0.000000 0.000000
vt 0.000000 0.000000
vt 0.000000 0.000000
vt 0.000000 0.000000
vt 0.000000 0.000000
vt 0.000000 0.000000
vt 0.000000 0.000000
vt 0.000000 0.000000
vt 0.000000 0.000000
vt 0.000000 0.000000
vt 0.000000 0.000000
vt 0.000000 0.000000
vt 0.000000 0.000000
vt 0.000000 0.000000
vt 0.000000 0.000000
vt 0.000000 0.000000
vt 0.000000 0.000000
vt 0.000000 0.000000
vt 0.000000 0.000000
vt 0.000000 0.000000
vt 0.000000 0.000000
vt 0.000000 0.000000
vt 0.000000 0.000000
vt 0.000000 0.000000
vt 0.000000 0.000000
vt 0.000000 0.000000
vt 0.000000 0.000000
vt 0.000000 0.000000
vt 0.000000 0.000000
vt 0.000000 0.000000
vt 0.000000 0.000000
vt 0.000000 0.000000
vt 0.000000 0.000000
vt 0.000000 0.000000
vt 0.000000 0.000000
vt 0.000000 0.000000
vt 0.000000 0.000000
vt 0.000000 0.000000
vt 0.000000 0.000000
vt 0.000000 0.000000
vt 0.000000 0.000000
vt 0.000000 0.000000
vt 0.000000 0.000000
vt 0.000000 0.000000
vt 0.000000 0.000000
vt 0.000000 0.000000
vt 0.000000 0.000000
vt 0.000000 0.000000
vt 0.000000 0.000000
vt 0.000000 0.000000
vt 0.000000 0.000000
vt 0.000000 0.000000
vt 0.000000 0.000000
vt 0.000000 0.000000
vt 0.000000 0.000000
vt 0.000000 0.000000
vt 0.000000 0.000000
vt 0.000000 0.000000
vt 0.000000 0.000000
vt 0.000000 0.000000
vt 0.000000 0.000000
vt 0.000000 0.000000
vt 0.000000 0.000000
vt 0.000000 0.000000
vt 0.000000 0.000000
vt 0.000000 0.000000
vt 0.000000 0.000000
vt 0.000000 0.000000
vt 0.000000 0.000000
vt 0.000000 0.000000
vt 0.000000 0.000000
vt 0.000000 0.000000
vt 0.000000 0.000000
vt 0.000000 0.000000
vt 0.000000 0.000000
vt 0.000000 0.000000
vt 0.000000 0.000000
vt 0.000000 0.000000
vt 0.000000 0.000000
vt 0.000000 0.000000
vt 0.000000 0.000000
vt 0.000000 0.000000
vt 0.000000 0.000000
vt 0.000000 0.000000
vt 0.000000 0.000000
vt 0.000000 0.000000
vt 0.000000 0.000000
vt 0.000000 0.000000
vt 0.000000 0.000000
vt 0.000000 0.000000
vt 0.000000 0.000000
vt 0.000000 0.000000
vt 0.000000 0.000000
vt 0.000000 0.000000
vt 0.000000 0.000000
vt 0.000000 0.000000
vt 0.000000 0.000000
vt 0.000000 0.000000
vt 0.000000 0.000000
vt 0.000000 0.000000
vt 0.000000 0.000000
vt 0.000000 0.000000
vt 0.000000 0.000000
vt 0.000000 0.000000
vt 0.000000 0.000000
vt 0.000000 0.000000
vt 0.000000 0.000000
vt 0.000000 0.000000
vt 0.000000 0.000000
vt 0.000000 0.000000
vt 0.000000 0.000000
vt 0.000000 0.000000
vt 0.000000 0.000000
vt 0.000000 0.000000
vt 0.000000 0.000000
vt 0.000000 0.000000
vt 0.000000 0.000000
vt 0.000000 0.000000
vt 0.000000 0.000000
vt 0.000000 0.000000
vt 0.000000 0.000000
vt 0.000000 0.000000
vt 0.000000 0.000000
vt 0.000000 0.000000
vt 0.000000 0.000000
vt 0.000000 0.000000
vt 0.000000 0.000000
vt 0.000000 0.000000
vt 0.000000 0.000000
vt 0.000000 0.000000
vt 0.000000 0.000000
vt 0.000000 0.000000
vt 0.000000 0.000000
vt 0.000000 0.000000
vt 0.000000 0.000000
vt 0.000000 0.000000
vt 0.000000 0.000000
vt 0.000000 0.000000
vt 0.000000 0.000000
vt 0.000000 0.000000
vt 0.000000 0.000000
vt 0.000000 0.000000
vt 0.000000 0.000000
vt 0.000000 0.000000
vt 0.000000 0.000000
vt 0.000000 0.000000
vt 0.000000 0.000000
vt 0.000000 0.000000
vt 0.000000 0.000000
vt 0.000000 0.000000
vt 0.000000 0.000000
vt 0.000000 0.000000
vt 0.000000 0.000000
vt 0.000000 0.000000
vt 0.000000 0.000000
vt 0.000000 0.000000
vt 0.000000 0.000000
vt 0.000000 0.000000
vt 0.000000 0.000000
vt 0.000000 0.000000
vt 0.000000 0.000000
vt 0.000000 0.000000
vt 0.000000 0.000000
vt 0.000000 0.000000
vt 0.000000 0.000000
vt 0.000000 0.000000
vt 0.000000 0.000000
vt 0.000000 0.000000
vt 0.000000 0.000000
vt 0.000000 0.000000
vt 0.000000 0.000000
vt 0.000000 0.000000
s 0
usemtl material_42.001
f 1/1/1 2/2/1 3/3/1
f 2/2/1 1/1/1 4/4/1
f 2/2/2 4/4/2 5/5/2
f 6/6/3 7/7/3 8/8/3
f 7/7/4 9/9/4 8/8/4
f 10/10/4 8/8/4 9/9/4
f 11/11/1 12/12/1 13/13/1
f 12/12/1 11/11/1 14/14/1
f 15/15/4 16/16/4 17/17/4
f 18/18/4 17/17/4 16/16/4
f 19/19/1 20/20/1 21/21/1
f 20/20/1 19/19/1 22/22/1
f 23/23/4 24/24/4 25/25/4
f 26/26/4 25/25/4 24/24/4
f 27/27/2 28/28/2 29/29/2
f 28/28/1 27/27/1 30/30/1
f 31/31/4 32/32/4 33/33/4
f 34/34/3 33/33/3 32/32/3
f 35/35/5 36/36/5 37/37/5
f 36/36/5 35/35/5 38/38/5
f 38/38/5 35/35/5 39/39/5
f 40/40/6 41/41/6 42/42/6
f 42/42/6 41/41/6 43/43/6
f 44/44/6 43/43/6 41/41/6
f 45/45/1 46/46/1 47/47/1
f 46/46/1 45/45/1 48/48/1
f 46/46/2 48/48/2 49/49/2
f 50/50/3 51/51/3 52/52/3
f 51/51/4 53/53/4 52/52/4
f 54/54/4 52/52/4 53/53/4
f 55/55/7 56/56/7 57/57/7
f 56/56/7 55/55/7 58/58/7
f 59/59/8 60/60/8 61/61/8
f 62/62/9 61/61/9 60/60/9
f 63/63/10 64/64/10 65/65/10
f 64/64/7 63/63/7 66/66/7
f 67/67/8 68/68/8 69/69/8
f 70/70/11 69/69/11 68/68/11
f 71/71/7 72/72/7 73/73/7
f 72/72/7 71/71/7 74/74/7
f 72/72/7 74/74/7 75/75/7
f 76/76/8 77/77/8 78/78/8
f 77/77/8 79/79/8 78/78/8
f 80/80/8 78/78/8 79/79/8
f 81/81/12 82/82/12 83/83/12
f 84/84/13 85/85/13 86/86/13
f 87/87/12 88/88/12 89/89/12
f 88/88/14 87/87/14 90/90/14
f 91/91/15 92/92/15 93/93/15
f 94/94/13 93/93/13 92/92/13
f 95/95/12 96/96/12 97/97/12
f 96/96/12 95/95/12 98/98/12
f 99/99/13 100/100/13 101/101/13
f 102/102/13 101/101/13 100/100/13
f 103/103/5 104/104/5 105/105/5
f 104/104/16 103/103/16 106/106/16
f 107/107/17 108/108/17 109/109/17
f 110/110/6 109/109/6 108/108/6
f 111/111/5 112/112/5 113/113/5
f 112/112/5 111/111/5 114/114/5
f 115/115/6 116/116/6 117/117/6
f 118/118/6 117/117/6 116/116/6
f 119/119/5 120/120/5 121/121/5
f 120/120/5 119/119/5 122/122/5
f 123/123/6 124/124/6 125/125/6
f 126/126/6 125/125/6 124/124/6
f 127/127/5 128/128/5 129/129/5
f 128/128/18 127/127/18 130/130/18
f 131/131/19 132/132/19 133/133/19
f 134/134/6 133/133/6 132/132/6
f 135/135/5 136/136/5 137/137/5
f 136/136/5 135/135/5 138/138/5
f 138/138/5 135/135/5 139/139/5
f 140/140/6 141/141/6 142/142/6
f 142/142/6 141/141/6 143/143/6
f 144/144/6 143/143/6 141/141/6
f 145/145/1 146/146/1 147/147/1
f 146/146/1 145/145/1 148/148/1
f 149/149/4 150/150/4 151/151/4
f 152/152/4 151/151/4 150/150/4
f 153/153/1 154/154/1 155/155/1
f 156/156/4 157/157/4 158/158/4
f 159/159/1 160/160/1 161/161/1
f 160/160/1 159/159/1 162/162/1
f 163/163/4 164/164/4 165/165/4
f 166/166/4 165/165/4 164/164/4
f 167/167/1 168/168/1 169/169/1
f 168/168/1 167/167/1 170/170/1
f 171/171/4 172/172/4 173/173/4
f 174/174/4 173/173/4 172/172/4
f 175/175/7 176/176/7 177/177/7
f 176/176/10 175/175/10 178/178/10
f 179/179/11 180/180/11 181/181/11
f 182/182/8 181/181/8 180/180/8
f 183/183/7 184/184/7 185/185/7
f 184/184/7 183/183/7 186/186/7
f 187/187/8 188/188/8 189/189/8
f 190/190/8 189/189/8 188/188/8
f 191/191/7 192/192/7 193/193/7
f 192/192/7 191/191/7 194/194/7
f 195/195/20 196/196/20 197/197/20
f 198/198/8 197/197/8 196/196/8
f 199/199/7 200/200/7 201/201/7
f 200/200/7 199/199/7 202/202/7
f 202/202/7 199/199/7 203/203/7
f 204/204/8 205/205/8 206/206/8
f 206/206/8 205/205/8 207/207/8
f 208/208/8 207/207/8 205/205/8
f 209/209/12 210/210/12 211/211/12
f 210/210/14 209/209/14 212/212/14
f 213/213/15 214/214/15 215/215/15
f 216/216/13 215/215/13 214/214/13
f 217/217/16 218/218/16 219/219/16
f 218/218/5 217/217/5 220/220/5
f 221/221/6 222/222/6 223/223/6
f 224/224/17 223/223/17 222/222/17
f 225/225/5 226/226/5 227/227/5
f 226/226/5 225/225/5 228/228/5
f 229/229/6 230/230/6 231/231/6
f 232/232/6 231/231/6 230/230/6
f 233/233/5 234/234/5 235/235/5
f 234/234/5 233/233/5 236/236/5
f 237/237/6 238/238/6 239/239/6
f 240/240/6 239/239/6 238/238/6
f 241/241/5 242/242/5 243/243/5
f 242/242/5 241/241/5 244/244/5
f 245/245/6 246/246/6 247/247/6
f 248/248/6 247/247/6 246/246/6
