# Blender 3.5.1
# www.blender.org
mtllib 4tower-window.mtl
o instance_4.001
v 0.369272 0.959755 -0.176749
v 0.369272 3.257482 0.129614
v 0.369272 0.959755 0.129614
v 0.369272 3.257482 -0.176749
v 0.369272 3.257482 -0.176749
v 0.369272 0.959755 -0.176749
v 0.369272 3.257482 0.129614
v 0.369272 0.959755 0.129614
v -0.136228 3.257483 -0.375886
v 0.170135 0.959755 -0.375886
v -0.136228 0.959755 -0.375886
v 0.170135 3.257483 -0.375886
v 0.170135 3.257483 -0.375886
v -0.136228 3.257483 -0.375886
v 0.170135 0.959755 -0.375886
v -0.136228 0.959755 -0.375886
v -0.335365 3.257483 -0.176749
v -0.335365 0.959755 0.129614
v -0.335365 3.257483 0.129614
v -0.335365 0.959755 -0.176749
v -0.335365 0.959755 -0.176749
v -0.335365 3.257483 -0.176749
v -0.335365 0.959755 0.129614
v -0.335365 3.257483 0.129614
v 0.170135 3.257483 0.328751
v -0.136228 0.959755 0.328751
v 0.170135 0.959755 0.328751
v -0.136228 3.257483 0.328751
v -0.136228 3.257483 0.328751
v 0.170135 3.257483 0.328751
v -0.136228 0.959755 0.328751
v 0.170135 0.959755 0.328751
vn 1.0000 -0.0000 -0.0000
vn -1.0000 -0.0000 -0.0000
vn -0.0000 -0.0000 -1.0000
vn -0.0000 -0.0000 1.0000
vt 2.000000 4.000000
vt 1.000000 9.000000
vt 1.000000 4.000000
vt 2.000000 9.000000
vt 2.000000 9.000000
vt 2.000000 4.000000
vt 1.000000 9.000000
vt 1.000000 4.000000
vt 0.000000 0.000000
vt 0.000000 0.000000
vt 0.000000 0.000000
vt 0.000000 0.000000
vt 0.000000 0.000000
vt 0.000000 0.000000
vt 0.000000 0.000000
vt 0.000000 0.000000
vt 0.000000 0.000000
vt 0.000000 0.000000
vt 0.000000 0.000000
vt 0.000000 0.000000
vt 0.000000 0.000000
vt 0.000000 0.000000
vt 0.000000 0.000000
vt 0.000000 0.000000
vt 0.000000 0.000000
vt 0.000000 0.000000
vt 0.000000 0.000000
vt 0.000000 0.000000
vt 0.000000 0.000000
vt 0.000000 0.000000
vt 0.000000 0.000000
vt 0.000000 0.000000
s 0
usemtl material_10.001
f 1/1/1 2/2/1 3/3/1
f 2/2/1 1/1/1 4/4/1
f 5/5/2 6/6/2 7/7/2
f 8/8/2 7/7/2 6/6/2
f 9/9/3 10/10/3 11/11/3
f 10/10/3 9/9/3 12/12/3
f 13/13/4 14/14/4 15/15/4
f 16/16/4 15/15/4 14/14/4
f 17/17/2 18/18/2 19/19/2
f 18/18/2 17/17/2 20/20/2
f 21/21/1 22/22/1 23/23/1
f 24/24/1 23/23/1 22/22/1
f 25/25/4 26/26/4 27/27/4
f 26/26/4 25/25/4 28/28/4
f 29/29/3 30/30/3 31/31/3
f 32/32/3 31/31/3 30/30/3
