# Blender 3.5.1
# www.blender.org
mtllib 4tower-door.mtl
o instance_4.179
v -0.350683 3.926130 0.236841
v -0.197288 4.043003 0.185781
v -0.350683 3.926130 0.185781
v -0.248349 4.004099 0.236841
v -0.248349 4.004099 0.236841
v -0.350683 3.926130 0.236841
v -0.197288 4.043003 0.185781
v -0.350683 3.926130 0.185781
vn -0.6060 0.7954 -0.0000
vn 0.6060 -0.7954 -0.0000
vt -191.500000 718.502075
vt -193.166702 724.796692
vt -193.166702 718.502075
vt -191.500000 722.701355
vt -191.500000 722.701355
vt -191.500000 718.502075
vt -193.166702 724.796692
vt -193.166702 718.502075
s 0
usemtl material_42
f 1/1/1 2/2/1 3/3/1
f 2/2/1 1/1/1 4/4/1
f 5/5/2 6/6/2 7/7/2
f 8/8/2 7/7/2 6/6/2
o instance_4.154
v -0.350683 3.926130 -0.291636
v -0.307068 3.959361 -0.342696
v -0.350683 3.926130 -0.342696
v -0.256008 3.998263 -0.291636
v -0.256008 3.998263 -0.291636
v -0.350683 3.926130 -0.291636
v -0.307068 3.959361 -0.342696
v -0.350683 3.926130 -0.342696
vn -0.6060 0.7954 -0.0000
vn 0.6060 -0.7954 -0.0000
vt -208.750000 718.502075
vt -210.416702 720.291809
vt -210.416702 718.502075
vt -208.750000 722.387085
vt -208.750000 722.387085
vt -208.750000 718.502075
vt -210.416702 720.291809
vt -210.416702 718.502075
s 0
usemtl material_42
f 9/9/3 10/10/3 11/11/3
f 10/10/3 9/9/3 12/12/3
f 13/13/4 14/14/4 15/15/4
f 16/16/4 15/15/4 14/14/4
o instance_4.117
v -0.396637 0.530846 -0.176749
v -0.396637 0.101937 0.129614
v -0.396637 0.530846 0.129614
v -0.396637 0.071301 0.129614
v -0.396637 0.071301 -0.176749
v -0.396637 0.101937 -0.176749
v -0.396637 0.101937 -0.176749
v -0.396637 0.530846 -0.176749
v -0.396637 0.071301 -0.176749
v -0.396637 0.071301 0.129614
v -0.396637 0.101937 0.129614
v -0.396637 0.530846 0.129614
v -0.136228 0.101937 -0.437158
v 0.170135 0.071301 -0.437158
v -0.136228 0.071301 -0.437158
v 0.170135 0.101937 -0.437158
v -0.136228 0.530846 -0.437158
v 0.170135 0.530846 -0.437158
v 0.170135 0.530846 -0.437158
v -0.136228 0.530846 -0.437158
v 0.170135 0.101937 -0.437158
v -0.136228 0.101937 -0.437158
v 0.170135 0.071301 -0.437158
v -0.136228 0.071301 -0.437158
v 0.430545 0.071301 -0.176749
v 0.430545 0.101937 0.129614
v 0.430545 0.071301 0.129614
v 0.430545 0.530846 0.129614
v 0.430545 0.530846 -0.176749
v 0.430545 0.101937 -0.176749
v 0.430545 0.101937 -0.176749
v 0.430545 0.071301 -0.176749
v 0.430545 0.530846 -0.176749
v 0.430545 0.530846 0.129614
v 0.430545 0.101937 0.129614
v 0.430545 0.071301 0.129614
v 0.170135 0.101937 0.390023
v -0.136228 0.071301 0.390023
v 0.170135 0.071301 0.390023
v -0.136228 0.101937 0.390023
v 0.170135 0.530846 0.390023
v -0.136228 0.530846 0.390023
v -0.136228 0.530846 0.390023
v 0.170135 0.530846 0.390023
v -0.136228 0.101937 0.390023
v 0.170135 0.101937 0.390023
v -0.136228 0.071301 0.390023
v 0.170135 0.071301 0.390023
vn -1.0000 -0.0000 -0.0000
vn -0.0000 -0.0000 -0.0000
vn 1.0000 -0.0000 -0.0000
vn -0.0000 -0.0000 -1.0000
vn -0.0000 -0.0000 1.0000
vn -0.0000 -0.3827 -0.9239
vn -0.0000 0.3827 -0.9239
vn 0.2706 -0.2706 -0.9239
vt -20.000000 3.000000
vt -19.000000 2.066667
vt -19.000000 3.000000
vt -19.000000 2.000000
vt -20.000000 2.000000
vt -20.000000 2.066667
vt -20.000000 2.066667
vt -20.000000 3.000000
vt -20.000000 2.000000
vt -19.000000 2.000000
vt -19.000000 2.066667
vt -19.000000 3.000000
vt 0.000000 0.000000
vt 0.000000 0.000000
vt 0.000000 0.000000
vt 0.000000 0.000000
vt 0.000000 0.000000
vt 0.000000 0.000000
vt 0.000000 0.000000
vt 0.000000 0.000000
vt 0.000000 0.000000
vt 0.000000 0.000000
vt 0.000000 0.000000
vt 0.000000 0.000000
vt 0.000000 0.000000
vt 0.000000 0.000000
vt 0.000000 0.000000
vt 0.000000 0.000000
vt 0.000000 0.000000
vt 0.000000 0.000000
vt 0.000000 0.000000
vt 0.000000 0.000000
vt 0.000000 0.000000
vt 0.000000 0.000000
vt 0.000000 0.000000
vt 0.000000 0.000000
vt 0.000000 0.000000
vt 0.000000 0.000000
vt 0.000000 0.000000
vt 0.000000 0.000000
vt 0.000000 0.000000
vt 0.000000 0.000000
vt 0.000000 0.000000
vt 0.000000 0.000000
vt 0.000000 0.000000
vt 0.000000 0.000000
vt 0.000000 0.000000
vt 0.000000 0.000000
s 0
usemtl material_10
f 17/17/5 18/18/5 19/19/5
f 18/18/5 17/17/5 20/20/5
f 20/20/5 17/17/5 21/21/5
f 21/21/6 17/17/6 22/22/6
f 23/23/6 24/24/6 25/25/6
f 25/25/7 24/24/7 26/26/7
f 26/26/7 24/24/7 27/27/7
f 28/28/7 27/27/7 24/24/7
f 29/29/8 30/30/8 31/31/8
f 30/30/8 29/29/8 32/32/8
f 32/32/8 29/29/8 33/33/8
f 32/32/8 33/33/8 34/34/8
f 35/35/9 36/36/9 37/37/9
f 36/36/9 38/38/9 37/37/9
f 37/37/9 38/38/9 39/39/9
f 40/40/9 39/39/9 38/38/9
f 41/41/7 42/42/7 43/43/7
f 42/42/7 41/41/7 44/44/7
f 44/44/7 41/41/7 45/45/7
f 45/45/10 41/41/11 46/46/12
f 47/47/6 48/48/6 49/49/6
f 49/49/5 48/48/5 50/50/5
f 50/50/5 48/48/5 51/51/5
f 52/52/5 51/51/5 48/48/5
f 53/53/9 54/54/9 55/55/9
f 54/54/9 53/53/9 56/56/9
f 56/56/9 53/53/9 57/57/9
f 56/56/9 57/57/9 58/58/9
f 59/59/8 60/60/8 61/61/8
f 60/60/8 62/62/8 61/61/8
f 61/61/8 62/62/8 63/63/8
f 64/64/8 63/63/8 62/62/8
