# Blender 3.5.1
# www.blender.org
mtllib 4tower-wallBottom.mtl
o instance_4.051
v -0.411955 0.530846 0.129614
v -0.396637 0.101937 0.129614
v -0.411955 0.101937 0.129614
v -0.396637 0.530846 0.129614
v -0.396637 0.530846 0.129614
v -0.411955 0.530846 0.129614
v -0.396637 0.101937 0.129614
v -0.411955 0.101937 0.129614
v -0.411955 0.714664 0.405341
v -0.411955 0.592119 0.129614
v -0.411955 0.101937 0.405341
v -0.411955 0.714664 -0.452477
v -0.411955 0.592119 -0.176749
v -0.411955 0.530846 -0.176749
v -0.411955 0.101937 -0.176749
v -0.411955 0.101937 -0.452477
v -0.411955 0.101937 0.129614
v -0.411955 0.530846 0.129614
v -0.411955 0.530846 0.129614
v -0.411955 0.592119 0.129614
v -0.411955 0.101937 0.129614
v -0.411955 0.101937 0.405341
v -0.411955 0.101937 -0.452477
v -0.411955 0.714664 -0.452477
v -0.411955 0.101937 -0.176749
v -0.411955 0.530846 -0.176749
v -0.411955 0.592119 -0.176749
v -0.411955 0.714664 0.405341
v -0.396637 0.530846 -0.176749
v -0.411955 0.101937 -0.176749
v -0.396637 0.101937 -0.176749
v -0.411955 0.530846 -0.176749
v -0.411955 0.530846 -0.176749
v -0.396637 0.530846 -0.176749
v -0.411955 0.101937 -0.176749
v -0.396637 0.101937 -0.176749
v 0.445863 0.714664 0.405341
v 0.170135 0.101937 0.405341
v 0.445863 0.101937 0.405341
v 0.170135 0.530846 0.405341
v 0.170135 0.592119 0.405341
v -0.136228 0.592119 0.405341
v -0.136228 0.530846 0.405341
v -0.411955 0.101937 0.405341
v -0.136228 0.101937 0.405341
v -0.411955 0.714664 0.405341
v 0.445863 0.714664 0.405341
v -0.136228 0.592119 0.405341
v -0.411955 0.714664 0.405341
v -0.136228 0.530846 0.405341
v -0.411955 0.101937 0.405341
v -0.136228 0.101937 0.405341
v 0.170135 0.592119 0.405341
v 0.170135 0.530846 0.405341
v 0.170135 0.101937 0.405341
v 0.445863 0.101937 0.405341
v -0.411955 0.714664 -0.452477
v -0.136228 0.101937 -0.452477
v -0.411955 0.101937 -0.452477
v -0.136228 0.530846 -0.452477
v -0.136228 0.592119 -0.452477
v 0.170135 0.592119 -0.452477
v 0.170135 0.530846 -0.452477
v 0.445863 0.101937 -0.452477
v 0.170135 0.101937 -0.452477
v 0.445863 0.714664 -0.452477
v -0.411955 0.714664 -0.452477
v 0.170135 0.592119 -0.452477
v 0.445863 0.714664 -0.452477
v 0.170135 0.530846 -0.452477
v 0.445863 0.101937 -0.452477
v 0.170135 0.101937 -0.452477
v -0.136228 0.592119 -0.452477
v -0.136228 0.530846 -0.452477
v -0.136228 0.101937 -0.452477
v -0.411955 0.101937 -0.452477
v -0.136228 0.101937 0.390023
v -0.136228 0.530846 0.405341
v -0.136228 0.101937 0.405341
v -0.136228 0.530846 0.390023
v -0.136228 0.530846 0.390023
v -0.136228 0.101937 0.390023
v -0.136228 0.530846 0.405341
v -0.136228 0.101937 0.405341
v 0.170135 0.530846 0.390023
v 0.170135 0.101937 0.405341
v 0.170135 0.530846 0.405341
v 0.170135 0.101937 0.390023
v 0.170135 0.101937 0.390023
v 0.170135 0.530846 0.390023
v 0.170135 0.101937 0.405341
v 0.170135 0.530846 0.405341
v 0.445863 0.101937 -0.452477
v 0.445863 0.530846 -0.176749
v 0.445863 0.101937 -0.176749
v 0.445863 0.592119 -0.176749
v 0.445863 0.101937 0.129614
v 0.445863 0.714664 0.405341
v 0.445863 0.101937 0.405341
v 0.445863 0.592119 0.129614
v 0.445863 0.714664 -0.452477
v 0.445863 0.530846 0.129614
v 0.445863 0.101937 -0.452477
v 0.445863 0.592119 -0.176749
v 0.445863 0.714664 -0.452477
v 0.445863 0.592119 0.129614
v 0.445863 0.530846 0.129614
v 0.445863 0.101937 0.129614
v 0.445863 0.714664 0.405341
v 0.445863 0.101937 0.405341
v 0.445863 0.530846 -0.176749
v 0.445863 0.101937 -0.176749
v 0.170135 0.530846 -0.452477
v 0.170135 0.101937 -0.437158
v 0.170135 0.530846 -0.437158
v 0.170135 0.101937 -0.452477
v 0.170135 0.101937 -0.452477
v 0.170135 0.530846 -0.452477
v 0.170135 0.101937 -0.437158
v 0.170135 0.530846 -0.437158
v -0.136228 0.101937 -0.452477
v -0.136228 0.530846 -0.437158
v -0.136228 0.101937 -0.437158
v -0.136228 0.530846 -0.452477
v -0.136228 0.530846 -0.452477
v -0.136228 0.101937 -0.452477
v -0.136228 0.530846 -0.437158
v -0.136228 0.101937 -0.437158
v 0.430544 0.530846 0.129614
v 0.445863 0.101937 0.129614
v 0.430544 0.101937 0.129614
v 0.445863 0.530846 0.129614
v 0.445863 0.530846 0.129614
v 0.430544 0.530846 0.129614
v 0.445863 0.101937 0.129614
v 0.430544 0.101937 0.129614
v 0.445863 0.530846 -0.176749
v 0.430544 0.101937 -0.176749
v 0.445863 0.101937 -0.176749
v 0.430544 0.530846 -0.176749
v 0.430544 0.530846 -0.176749
v 0.445863 0.530846 -0.176749
v 0.430544 0.101937 -0.176749
v 0.445863 0.101937 -0.176749
v 0.445863 0.101937 -0.176749
v 0.430545 0.071301 -0.176749
v 0.445863 0.071301 -0.176749
v 0.430545 0.101937 -0.176749
v 0.430545 0.101937 -0.176749
v 0.445863 0.101937 -0.176749
v 0.430545 0.071301 -0.176749
v 0.445863 0.071301 -0.176749
v 0.445863 0.071301 -0.452477
v 0.445863 0.101937 -0.176749
v 0.445863 0.071301 -0.176749
v 0.445863 0.101937 -0.452477
v 0.445863 0.101937 -0.452477
v 0.445863 0.071301 -0.452477
v 0.445863 0.101937 -0.176749
v 0.445863 0.071301 -0.176749
v 0.170135 0.101937 -0.452477
v 0.445863 0.071301 -0.452477
v 0.170135 0.071301 -0.452477
v 0.445863 0.101937 -0.452477
v 0.445863 0.101937 -0.452477
v 0.170135 0.101937 -0.452477
v 0.445863 0.071301 -0.452477
v 0.170135 0.071301 -0.452477
v 0.170135 0.101937 -0.452477
v 0.170135 0.071301 -0.437158
v 0.170135 0.101937 -0.437158
v 0.170135 0.071301 -0.452477
v 0.170135 0.071301 -0.452477
v 0.170135 0.101937 -0.452477
v 0.170135 0.071301 -0.437158
v 0.170135 0.101937 -0.437158
v -0.396637 0.101937 -0.176749
v -0.411955 0.071301 -0.176749
v -0.396637 0.071301 -0.176749
v -0.411955 0.101937 -0.176749
v -0.411955 0.101937 -0.176749
v -0.396637 0.101937 -0.176749
v -0.411955 0.071301 -0.176749
v -0.396637 0.071301 -0.176749
v -0.411955 0.101937 -0.452477
v -0.411955 0.071301 -0.176749
v -0.411955 0.101937 -0.176749
v -0.411955 0.071301 -0.452477
v -0.411955 0.071301 -0.452477
v -0.411955 0.101937 -0.452477
v -0.411955 0.071301 -0.176749
v -0.411955 0.101937 -0.176749
v -0.411955 0.101937 -0.452477
v -0.136228 0.071301 -0.452477
v -0.411955 0.071301 -0.452477
v -0.136228 0.101937 -0.452477
v -0.136228 0.101937 -0.452477
v -0.411955 0.101937 -0.452477
v -0.136228 0.071301 -0.452477
v -0.411955 0.071301 -0.452477
v -0.136228 0.071301 -0.452477
v -0.136228 0.101937 -0.437158
v -0.136228 0.071301 -0.437158
v -0.136228 0.101937 -0.452477
v -0.136228 0.101937 -0.452477
v -0.136228 0.071301 -0.452477
v -0.136228 0.101937 -0.437158
v -0.136228 0.071301 -0.437158
v -0.136228 0.101937 0.405342
v -0.411955 0.071301 0.405342
v -0.136228 0.071301 0.405342
v -0.411955 0.101937 0.405342
v -0.411955 0.101937 0.405342
v -0.136228 0.101937 0.405342
v -0.411955 0.071301 0.405342
v -0.136228 0.071301 0.405342
v -0.136228 0.071301 0.390023
v -0.136228 0.101937 0.405342
v -0.136228 0.071301 0.405342
v -0.136228 0.101937 0.390023
v -0.136228 0.101937 0.390023
v -0.136228 0.071301 0.390023
v -0.136228 0.101937 0.405342
v -0.136228 0.071301 0.405342
v -0.411955 0.101937 0.129614
v -0.411955 0.071301 0.405342
v -0.411955 0.101937 0.405342
v -0.411955 0.071301 0.129614
v -0.411955 0.071301 0.129614
v -0.411955 0.101937 0.129614
v -0.411955 0.071301 0.405342
v -0.411955 0.101937 0.405342
v -0.411955 0.101937 0.129614
v -0.396637 0.071301 0.129614
v -0.411955 0.071301 0.129614
v -0.396637 0.101937 0.129614
v -0.396637 0.101937 0.129614
v -0.411955 0.101937 0.129614
v -0.396637 0.071301 0.129614
v -0.411955 0.071301 0.129614
v 0.445863 0.101937 0.405342
v 0.170136 0.071301 0.405342
v 0.445863 0.071301 0.405342
v 0.170136 0.101937 0.405342
v 0.170136 0.101937 0.405342
v 0.445863 0.101937 0.405342
v 0.170136 0.071301 0.405342
v 0.445863 0.071301 0.405342
v 0.445863 0.071301 0.129614
v 0.445863 0.101937 0.405342
v 0.445863 0.071301 0.405342
v 0.445863 0.101937 0.129614
v 0.445863 0.101937 0.129614
v 0.445863 0.071301 0.129614
v 0.445863 0.101937 0.405342
v 0.445863 0.071301 0.405342
v 0.170136 0.101937 0.390023
v 0.170136 0.071301 0.405342
v 0.170136 0.101937 0.405342
v 0.170136 0.071301 0.390023
v 0.170136 0.071301 0.390023
v 0.170136 0.101937 0.390023
v 0.170136 0.071301 0.405342
v 0.170136 0.101937 0.405342
v 0.430545 0.101937 0.129614
v 0.445863 0.071301 0.129614
v 0.430545 0.071301 0.129614
v 0.445863 0.101937 0.129614
v 0.445863 0.101937 0.129614
v 0.430545 0.101937 0.129614
v 0.445863 0.071301 0.129614
v 0.430545 0.071301 0.129614
vn -0.0000 -0.0000 -1.0000
vn -0.0000 -0.0000 1.0000
vn -1.0000 -0.0000 -0.0000
vn -0.0000 -0.0000 -0.0000
vn 1.0000 -0.0000 -0.0000
vt -132.612900 59.000000
vt -132.951599 45.000000
vt -132.612900 45.000000
vt -132.951599 59.000000
vt -132.951599 57.000000
vt -132.612900 57.000000
vt -132.951599 43.000000
vt -132.612900 43.000000
vt -126.516098 63.000000
vt -132.612900 59.000000
vt -126.516098 43.000000
vt -145.483902 63.000000
vt -139.387100 59.000000
vt -139.387100 57.000000
vt -139.387100 43.000000
vt -145.483902 43.000000
vt -132.612900 43.000000
vt -132.612900 57.000000
vt -132.612900 57.000000
vt -132.612900 59.000000
vt -132.612900 43.000000
vt -126.516098 43.000000
vt -145.483902 43.000000
vt -145.483902 63.000000
vt -139.387100 43.000000
vt -139.387100 57.000000
vt -139.387100 59.000000
vt -126.516098 63.000000
vt -139.048401 59.000000
vt -139.387100 45.000000
vt -139.048401 45.000000
vt -139.387100 59.000000
vt -139.387100 57.000000
vt -139.048401 57.000000
vt -139.387100 43.000000
vt -139.048401 43.000000
vt -126.516098 63.000000
vt -132.612900 43.000000
vt -126.516098 43.000000
vt -132.612900 57.000000
vt -132.612900 59.000000
vt -139.387100 59.000000
vt -139.387100 57.000000
vt -145.483902 43.000000
vt -139.387100 43.000000
vt -145.483902 63.000000
vt -126.516098 63.000000
vt -139.387100 59.000000
vt -145.483902 63.000000
vt -139.387100 57.000000
vt -145.483902 43.000000
vt -139.387100 43.000000
vt -132.612900 59.000000
vt -132.612900 57.000000
vt -132.612900 43.000000
vt -126.516098 43.000000
vt -126.516098 63.000000
vt -132.612900 43.000000
vt -126.516098 43.000000
vt -132.612900 57.000000
vt -132.612900 59.000000
vt -139.387100 59.000000
vt -139.387100 57.000000
vt -145.483902 43.000000
vt -139.387100 43.000000
vt -145.483902 63.000000
vt -126.516098 63.000000
vt -139.387100 59.000000
vt -145.483902 63.000000
vt -139.387100 57.000000
vt -145.483902 43.000000
vt -139.387100 43.000000
vt -132.612900 59.000000
vt -132.612900 57.000000
vt -132.612900 43.000000
vt -126.516098 43.000000
vt -139.048401 45.000000
vt -139.387100 59.000000
vt -139.387100 45.000000
vt -139.048401 59.000000
vt -139.048401 57.000000
vt -139.048401 43.000000
vt -139.387100 57.000000
vt -139.387100 43.000000
vt -132.951599 59.000000
vt -132.612900 45.000000
vt -132.612900 59.000000
vt -132.951599 45.000000
vt -132.951599 43.000000
vt -132.951599 57.000000
vt -132.612900 43.000000
vt -132.612900 57.000000
vt -126.516098 43.000000
vt -132.612900 57.000000
vt -132.612900 43.000000
vt -132.612900 59.000000
vt -139.387100 43.000000
vt -145.483902 63.000000
vt -145.483902 43.000000
vt -139.387100 59.000000
vt -126.516098 63.000000
vt -139.387100 57.000000
vt -126.516098 43.000000
vt -132.612900 59.000000
vt -126.516098 63.000000
vt -139.387100 59.000000
vt -139.387100 57.000000
vt -139.387100 43.000000
vt -145.483902 63.000000
vt -145.483902 43.000000
vt -132.612900 57.000000
vt -132.612900 43.000000
vt -139.387100 59.000000
vt -139.048401 45.000000
vt -139.048401 59.000000
vt -139.387100 45.000000
vt -139.387100 43.000000
vt -139.387100 57.000000
vt -139.048401 43.000000
vt -139.048401 57.000000
vt -132.612900 45.000000
vt -132.951599 59.000000
vt -132.951599 45.000000
vt -132.612900 59.000000
vt -132.612900 57.000000
vt -132.612900 43.000000
vt -132.951599 57.000000
vt -132.951599 43.000000
vt -139.048401 59.000000
vt -139.387100 45.000000
vt -139.048401 45.000000
vt -139.387100 59.000000
vt -139.387100 57.000000
vt -139.048401 57.000000
vt -139.387100 43.000000
vt -139.048401 43.000000
vt -132.612900 59.000000
vt -132.951599 45.000000
vt -132.612900 45.000000
vt -132.951599 59.000000
vt -132.951599 57.000000
vt -132.612900 57.000000
vt -132.951599 43.000000
vt -132.612900 43.000000
vt 0.000000 0.000000
vt 0.000000 0.000000
vt 0.000000 0.000000
vt 0.000000 0.000000
vt 0.000000 0.000000
vt 0.000000 0.000000
vt 0.000000 0.000000
vt 0.000000 0.000000
vt 0.000000 0.000000
vt 0.000000 0.000000
vt 0.000000 0.000000
vt 0.000000 0.000000
vt 0.000000 0.000000
vt 0.000000 0.000000
vt 0.000000 0.000000
vt 0.000000 0.000000
vt 0.000000 0.000000
vt 0.000000 0.000000
vt 0.000000 0.000000
vt 0.000000 0.000000
vt 0.000000 0.000000
vt 0.000000 0.000000
vt 0.000000 0.000000
vt 0.000000 0.000000
vt 0.000000 0.000000
vt 0.000000 0.000000
vt 0.000000 0.000000
vt 0.000000 0.000000
vt 0.000000 0.000000
vt 0.000000 0.000000
vt 0.000000 0.000000
vt 0.000000 0.000000
vt 0.000000 0.000000
vt 0.000000 0.000000
vt 0.000000 0.000000
vt 0.000000 0.000000
vt 0.000000 0.000000
vt 0.000000 0.000000
vt 0.000000 0.000000
vt 0.000000 0.000000
vt 0.000000 0.000000
vt 0.000000 0.000000
vt 0.000000 0.000000
vt 0.000000 0.000000
vt 0.000000 0.000000
vt 0.000000 0.000000
vt 0.000000 0.000000
vt 0.000000 0.000000
vt 0.000000 0.000000
vt 0.000000 0.000000
vt 0.000000 0.000000
vt 0.000000 0.000000
vt 0.000000 0.000000
vt 0.000000 0.000000
vt 0.000000 0.000000
vt 0.000000 0.000000
vt 0.000000 0.000000
vt 0.000000 0.000000
vt 0.000000 0.000000
vt 0.000000 0.000000
vt 0.000000 0.000000
vt 0.000000 0.000000
vt 0.000000 0.000000
vt 0.000000 0.000000
vt 0.000000 0.000000
vt 0.000000 0.000000
vt 0.000000 0.000000
vt 0.000000 0.000000
vt 0.000000 0.000000
vt 0.000000 0.000000
vt 0.000000 0.000000
vt 0.000000 0.000000
vt 0.000000 0.000000
vt 0.000000 0.000000
vt 0.000000 0.000000
vt 0.000000 0.000000
vt 0.000000 0.000000
vt 0.000000 0.000000
vt 0.000000 0.000000
vt 0.000000 0.000000
vt 0.000000 0.000000
vt 0.000000 0.000000
vt 0.000000 0.000000
vt 0.000000 0.000000
vt 0.000000 0.000000
vt 0.000000 0.000000
vt 0.000000 0.000000
vt 0.000000 0.000000
vt 0.000000 0.000000
vt 0.000000 0.000000
vt 0.000000 0.000000
vt 0.000000 0.000000
vt 0.000000 0.000000
vt 0.000000 0.000000
vt 0.000000 0.000000
vt 0.000000 0.000000
vt 0.000000 0.000000
vt 0.000000 0.000000
vt 0.000000 0.000000
vt 0.000000 0.000000
vt 0.000000 0.000000
vt 0.000000 0.000000
vt 0.000000 0.000000
vt 0.000000 0.000000
vt 0.000000 0.000000
vt 0.000000 0.000000
vt 0.000000 0.000000
vt 0.000000 0.000000
vt 0.000000 0.000000
vt 0.000000 0.000000
vt 0.000000 0.000000
vt 0.000000 0.000000
vt 0.000000 0.000000
vt 0.000000 0.000000
vt 0.000000 0.000000
vt 0.000000 0.000000
vt 0.000000 0.000000
vt 0.000000 0.000000
vt 0.000000 0.000000
vt 0.000000 0.000000
vt 0.000000 0.000000
vt 0.000000 0.000000
vt 0.000000 0.000000
vt 0.000000 0.000000
vt 0.000000 0.000000
vt 0.000000 0.000000
vt 0.000000 0.000000
vt 0.000000 0.000000
s 0
usemtl material_12.001
f 1/1/1 2/2/1 3/3/1
f 2/2/1 1/1/1 4/4/1
f 5/5/2 6/6/2 7/7/2
f 8/8/2 7/7/2 6/6/2
f 9/9/3 10/10/3 11/11/3
f 10/10/3 9/9/3 12/12/3
f 10/10/3 12/12/3 13/13/3
f 13/13/3 12/12/3 14/14/3
f 14/14/3 12/12/3 15/15/3
f 15/15/3 12/12/3 16/16/3
f 10/10/3 17/17/3 11/11/3
f 17/17/4 10/10/4 18/18/4
f 19/19/4 20/20/4 21/21/4
f 22/22/5 21/21/5 20/20/5
f 23/23/5 24/24/5 25/25/5
f 25/25/5 24/24/5 26/26/5
f 26/26/5 24/24/5 27/27/5
f 27/27/5 24/24/5 20/20/5
f 24/24/5 28/28/5 20/20/5
f 22/22/5 20/20/5 28/28/5
f 29/29/2 30/30/2 31/31/2
f 30/30/2 29/29/2 32/32/2
f 33/33/1 34/34/1 35/35/1
f 36/36/1 35/35/1 34/34/1
f 37/37/2 38/38/2 39/39/2
f 38/38/2 37/37/2 40/40/2
f 40/40/2 37/37/2 41/41/2
f 41/41/2 37/37/2 42/42/2
f 43/43/2 44/44/2 45/45/2
f 44/44/2 43/43/2 46/46/2
f 46/46/2 43/43/2 42/42/2
f 46/46/2 42/42/2 37/37/2
f 47/47/1 48/48/1 49/49/1
f 48/48/1 50/50/1 49/49/1
f 49/49/1 50/50/1 51/51/1
f 52/52/1 51/51/1 50/50/1
f 48/48/1 47/47/1 53/53/1
f 53/53/1 47/47/1 54/54/1
f 54/54/1 47/47/1 55/55/1
f 56/56/1 55/55/1 47/47/1
f 57/57/1 58/58/1 59/59/1
f 58/58/1 57/57/1 60/60/1
f 60/60/1 57/57/1 61/61/1
f 61/61/1 57/57/1 62/62/1
f 63/63/1 64/64/1 65/65/1
f 64/64/1 63/63/1 66/66/1
f 66/66/1 63/63/1 62/62/1
f 66/66/1 62/62/1 57/57/1
f 67/67/2 68/68/2 69/69/2
f 68/68/2 70/70/2 69/69/2
f 69/69/2 70/70/2 71/71/2
f 72/72/2 71/71/2 70/70/2
f 68/68/2 67/67/2 73/73/2
f 73/73/2 67/67/2 74/74/2
f 74/74/2 67/67/2 75/75/2
f 76/76/2 75/75/2 67/67/2
f 77/77/5 78/78/5 79/79/5
f 78/78/5 77/77/5 80/80/5
f 81/81/3 82/82/3 83/83/3
f 84/84/3 83/83/3 82/82/3
f 85/85/3 86/86/3 87/87/3
f 86/86/3 85/85/3 88/88/3
f 89/89/5 90/90/5 91/91/5
f 92/92/5 91/91/5 90/90/5
f 93/93/5 94/94/5 95/95/5
f 94/94/5 93/93/5 96/96/5
f 97/97/5 98/98/5 99/99/5
f 98/98/5 97/97/5 100/100/5
f 98/98/5 100/100/5 101/101/5
f 100/100/4 97/97/4 102/102/4
f 101/101/5 100/100/5 96/96/5
f 101/101/5 96/96/5 93/93/5
f 103/103/3 104/104/3 105/105/3
f 104/104/3 106/106/3 105/105/3
f 107/107/4 108/108/4 106/106/4
f 105/105/3 106/106/3 109/109/3
f 106/106/3 108/108/3 109/109/3
f 110/110/3 109/109/3 108/108/3
f 104/104/3 103/103/3 111/111/3
f 112/112/3 111/111/3 103/103/3
f 113/113/3 114/114/3 115/115/3
f 114/114/3 113/113/3 116/116/3
f 117/117/5 118/118/5 119/119/5
f 120/120/5 119/119/5 118/118/5
f 121/121/5 122/122/5 123/123/5
f 122/122/5 121/121/5 124/124/5
f 125/125/3 126/126/3 127/127/3
f 128/128/3 127/127/3 126/126/3
f 129/129/1 130/130/1 131/131/1
f 130/130/1 129/129/1 132/132/1
f 133/133/2 134/134/2 135/135/2
f 136/136/2 135/135/2 134/134/2
f 137/137/2 138/138/2 139/139/2
f 138/138/2 137/137/2 140/140/2
f 141/141/1 142/142/1 143/143/1
f 144/144/1 143/143/1 142/142/1
usemtl material_9.001
f 145/145/2 146/146/2 147/147/2
f 146/146/2 145/145/2 148/148/2
f 149/149/1 150/150/1 151/151/1
f 152/152/1 151/151/1 150/150/1
f 153/153/5 154/154/5 155/155/5
f 154/154/5 153/153/5 156/156/5
f 157/157/3 158/158/3 159/159/3
f 160/160/3 159/159/3 158/158/3
f 161/161/1 162/162/1 163/163/1
f 162/162/1 161/161/1 164/164/1
f 165/165/2 166/166/2 167/167/2
f 168/168/2 167/167/2 166/166/2
f 169/169/3 170/170/3 171/171/3
f 170/170/3 169/169/3 172/172/3
f 173/173/5 174/174/5 175/175/5
f 176/176/5 175/175/5 174/174/5
f 177/177/2 178/178/2 179/179/2
f 178/178/2 177/177/2 180/180/2
f 181/181/1 182/182/1 183/183/1
f 184/184/1 183/183/1 182/182/1
f 185/185/3 186/186/3 187/187/3
f 186/186/3 185/185/3 188/188/3
f 189/189/5 190/190/5 191/191/5
f 192/192/5 191/191/5 190/190/5
f 193/193/1 194/194/1 195/195/1
f 194/194/1 193/193/1 196/196/1
f 197/197/2 198/198/2 199/199/2
f 200/200/2 199/199/2 198/198/2
f 201/201/5 202/202/5 203/203/5
f 202/202/5 201/201/5 204/204/5
f 205/205/3 206/206/3 207/207/3
f 208/208/3 207/207/3 206/206/3
f 209/209/2 210/210/2 211/211/2
f 210/210/2 209/209/2 212/212/2
f 213/213/1 214/214/1 215/215/1
f 216/216/1 215/215/1 214/214/1
f 217/217/5 218/218/5 219/219/5
f 218/218/5 217/217/5 220/220/5
f 221/221/3 222/222/3 223/223/3
f 224/224/3 223/223/3 222/222/3
f 225/225/3 226/226/3 227/227/3
f 226/226/3 225/225/3 228/228/3
f 229/229/5 230/230/5 231/231/5
f 232/232/5 231/231/5 230/230/5
f 233/233/1 234/234/1 235/235/1
f 234/234/1 233/233/1 236/236/1
f 237/237/2 238/238/2 239/239/2
f 240/240/2 239/239/2 238/238/2
f 241/241/2 242/242/2 243/243/2
f 242/242/2 241/241/2 244/244/2
f 245/245/1 246/246/1 247/247/1
f 248/248/1 247/247/1 246/246/1
f 249/249/5 250/250/5 251/251/5
f 250/250/5 249/249/5 252/252/5
f 253/253/3 254/254/3 255/255/3
f 256/256/3 255/255/3 254/254/3
f 257/257/3 258/258/3 259/259/3
f 258/258/3 257/257/3 260/260/3
f 261/261/5 262/262/5 263/263/5
f 264/264/5 263/263/5 262/262/5
f 265/265/1 266/266/1 267/267/1
f 266/266/1 265/265/1 268/268/1
f 269/269/2 270/270/2 271/271/2
f 272/272/2 271/271/2 270/270/2
