# Blender 3.5.1
# www.blender.org
mtllib 4tower-wallMiddle.mtl
o instance_4.010
v 0.384590 0.775937 0.344069
v 0.170135 0.898482 0.344069
v -0.350683 0.775937 0.344069
v 0.384590 3.441300 0.344069
v 0.170135 0.959755 0.344069
v 0.170135 3.257482 0.344069
v 0.170135 3.318755 0.344069
v -0.136228 3.318755 0.344069
v -0.136228 0.898482 0.344069
v -0.350683 3.441300 0.344069
v -0.136228 0.959755 0.344069
v -0.136228 3.257482 0.344069
v 0.384590 3.441300 0.344069
v -0.136228 3.318755 0.344069
v -0.350683 3.441300 0.344069
v -0.136228 3.257482 0.344069
v -0.136228 0.959755 0.344069
v -0.136228 0.898482 0.344069
v 0.170135 0.898482 0.344069
v -0.350683 0.775937 0.344069
v 0.170135 3.318755 0.344069
v 0.170135 3.257482 0.344069
v 0.170135 0.959755 0.344069
v 0.384590 0.775937 0.344069
v 0.384590 0.775937 0.344069
v 0.384590 0.898482 0.129614
v 0.384590 3.441300 0.344069
v 0.384590 0.775937 -0.391204
v 0.384590 0.898482 -0.176749
v 0.384590 0.959755 -0.176749
v 0.384590 3.257482 -0.176749
v 0.384590 3.318755 -0.176749
v 0.384590 3.318755 0.129614
v 0.384590 3.441300 -0.391204
v 0.384590 0.959755 0.129614
v 0.384590 3.257482 0.129614
v 0.384590 0.775937 -0.391204
v 0.384590 3.318755 -0.176749
v 0.384590 3.441300 -0.391204
v 0.384590 3.318755 0.129614
v 0.384590 3.257482 0.129614
v 0.384590 0.959755 0.129614
v 0.384590 0.898482 0.129614
v 0.384590 3.441300 0.344069
v 0.384590 3.257482 -0.176749
v 0.384590 0.959755 -0.176749
v 0.384590 0.898482 -0.176749
v 0.384590 0.775937 0.344069
v -0.350683 3.441300 0.344069
v -0.350683 3.318755 0.129614
v -0.350683 0.775937 0.344069
v -0.350683 3.441300 -0.391204
v -0.350683 3.318755 -0.176749
v -0.350683 3.257482 -0.176749
v -0.350683 0.959755 -0.176749
v -0.350683 0.898482 -0.176749
v -0.350683 0.898482 0.129614
v -0.350683 0.775937 -0.391204
v -0.350683 3.257482 0.129614
v -0.350683 0.959755 0.129614
v -0.350683 3.441300 -0.391204
v -0.350683 0.898482 -0.176749
v -0.350683 0.775937 -0.391204
v -0.350683 0.898482 0.129614
v -0.350683 0.959755 0.129614
v -0.350683 3.257482 0.129614
v -0.350683 3.318755 0.129614
v -0.350683 0.775937 0.344069
v -0.350683 0.959755 -0.176749
v -0.350683 3.257482 -0.176749
v -0.350683 3.318755 -0.176749
v -0.350683 3.441300 0.344069
v -0.350683 0.775937 -0.391204
v -0.136228 0.898482 -0.391204
v 0.384590 0.775937 -0.391204
v -0.350683 3.441300 -0.391204
v -0.136228 0.959755 -0.391204
v -0.136228 3.257482 -0.391204
v -0.136228 3.318755 -0.391204
v 0.170135 3.318755 -0.391204
v 0.170135 0.898482 -0.391204
v 0.384590 3.441300 -0.391204
v 0.170135 0.959755 -0.391204
v 0.170135 3.257482 -0.391204
v -0.350683 3.441300 -0.391204
v 0.170135 3.318755 -0.391204
v 0.384590 3.441300 -0.391204
v 0.170135 3.257482 -0.391204
v 0.170135 0.959755 -0.391204
v 0.170135 0.898482 -0.391204
v -0.136228 0.898482 -0.391204
v 0.384590 0.775937 -0.391204
v -0.136228 3.318755 -0.391204
v -0.136228 3.257482 -0.391204
v -0.136228 0.959755 -0.391204
v -0.350683 0.775937 -0.391204
vn -0.0000 -0.0000 1.0000
vn -0.0000 -0.0000 -1.0000
vn 1.0000 -0.0000 -0.0000
vn -0.0000 -0.0000 -0.0000
vn -1.0000 -0.0000 -0.0000
vt 17.129030 64.000000
vt 12.387099 68.000000
vt 0.870968 64.000000
vt 17.129030 151.000000
vt 12.387099 70.000000
vt 12.387099 145.000000
vt 12.387099 147.000000
vt 5.612903 147.000000
vt 5.612903 68.000000
vt 0.870968 151.000000
vt 5.612903 70.000000
vt 5.612903 145.000000
vt 17.129030 151.000000
vt 5.612903 147.000000
vt 0.870968 151.000000
vt 5.612903 145.000000
vt 5.612903 70.000000
vt 5.612903 68.000000
vt 12.387099 68.000000
vt 0.870968 64.000000
vt 12.387099 147.000000
vt 12.387099 145.000000
vt 12.387099 70.000000
vt 17.129030 64.000000
vt 0.870968 64.000000
vt 5.612903 68.000000
vt 0.870968 151.000000
vt 17.129030 64.000000
vt 12.387099 68.000000
vt 12.387099 70.000000
vt 12.387099 145.000000
vt 12.387099 147.000000
vt 5.612903 147.000000
vt 17.129030 151.000000
vt 5.612903 70.000000
vt 5.612903 145.000000
vt 17.129030 64.000000
vt 12.387099 147.000000
vt 17.129030 151.000000
vt 5.612903 147.000000
vt 5.612903 145.000000
vt 5.612903 70.000000
vt 5.612903 68.000000
vt 0.870968 151.000000
vt 12.387099 145.000000
vt 12.387099 70.000000
vt 12.387099 68.000000
vt 0.870968 64.000000
vt 17.129030 151.000000
vt 12.387099 147.000000
vt 17.129030 64.000000
vt 0.870968 151.000000
vt 5.612903 147.000000
vt 5.612903 145.000000
vt 5.612903 70.000000
vt 5.612903 68.000000
vt 12.387099 68.000000
vt 0.870968 64.000000
vt 12.387099 145.000000
vt 12.387099 70.000000
vt 0.870968 151.000000
vt 5.612903 68.000000
vt 0.870968 64.000000
vt 12.387099 68.000000
vt 12.387099 70.000000
vt 12.387099 145.000000
vt 12.387099 147.000000
vt 17.129030 64.000000
vt 5.612903 70.000000
vt 5.612903 145.000000
vt 5.612903 147.000000
vt 17.129030 151.000000
vt 17.129030 64.000000
vt 12.387099 68.000000
vt 0.870968 64.000000
vt 17.129030 151.000000
vt 12.387099 70.000000
vt 12.387099 145.000000
vt 12.387099 147.000000
vt 5.612903 147.000000
vt 5.612903 68.000000
vt 0.870968 151.000000
vt 5.612903 70.000000
vt 5.612903 145.000000
vt 17.129030 151.000000
vt 5.612903 147.000000
vt 0.870968 151.000000
vt 5.612903 145.000000
vt 5.612903 70.000000
vt 5.612903 68.000000
vt 12.387099 68.000000
vt 0.870968 64.000000
vt 12.387099 147.000000
vt 12.387099 145.000000
vt 12.387099 70.000000
vt 17.129030 64.000000
s 0
usemtl material_12.001
f 1/1/1 2/2/1 3/3/1
f 2/2/1 1/1/1 4/4/1
f 2/2/1 4/4/1 5/5/1
f 5/5/1 4/4/1 6/6/1
f 6/6/1 4/4/1 7/7/1
f 7/7/1 4/4/1 8/8/1
f 3/3/1 9/9/1 10/10/1
f 9/9/1 3/3/1 2/2/1
f 10/10/1 9/9/1 11/11/1
f 10/10/1 11/11/1 12/12/1
f 10/10/1 12/12/1 8/8/1
f 10/10/1 8/8/1 4/4/1
f 13/13/2 14/14/2 15/15/2
f 14/14/2 16/16/2 15/15/2
f 16/16/2 17/17/2 15/15/2
f 17/17/2 18/18/2 15/15/2
f 19/19/2 20/20/2 18/18/2
f 15/15/2 18/18/2 20/20/2
f 14/14/2 13/13/2 21/21/2
f 21/21/2 13/13/2 22/22/2
f 22/22/2 13/13/2 23/23/2
f 23/23/2 13/13/2 19/19/2
f 13/13/2 24/24/2 19/19/2
f 20/20/2 19/19/2 24/24/2
f 25/25/3 26/26/3 27/27/3
f 26/26/3 25/25/3 28/28/3
f 26/26/3 28/28/3 29/29/3
f 29/29/3 28/28/3 30/30/3
f 30/30/3 28/28/3 31/31/3
f 31/31/3 28/28/3 32/32/3
f 27/27/3 33/33/3 34/34/3
f 33/33/3 27/27/3 26/26/3
f 33/33/4 26/26/4 35/35/4
f 33/33/4 35/35/4 36/36/4
f 34/34/3 33/33/3 32/32/3
f 34/34/3 32/32/3 28/28/3
f 37/37/5 38/38/5 39/39/5
f 38/38/5 40/40/5 39/39/5
f 41/41/4 42/42/4 40/40/4
f 42/42/4 43/43/4 40/40/4
f 43/43/5 44/44/5 40/40/5
f 39/39/5 40/40/5 44/44/5
f 38/38/5 37/37/5 45/45/5
f 45/45/5 37/37/5 46/46/5
f 46/46/5 37/37/5 47/47/5
f 47/47/5 37/37/5 43/43/5
f 37/37/5 48/48/5 43/43/5
f 44/44/5 43/43/5 48/48/5
f 49/49/5 50/50/5 51/51/5
f 50/50/5 49/49/5 52/52/5
f 50/50/5 52/52/5 53/53/5
f 53/53/5 52/52/5 54/54/5
f 54/54/5 52/52/5 55/55/5
f 55/55/5 52/52/5 56/56/5
f 51/51/5 57/57/5 58/58/5
f 57/57/5 51/51/5 50/50/5
f 57/57/4 50/50/4 59/59/4
f 57/57/4 59/59/4 60/60/4
f 58/58/5 57/57/5 56/56/5
f 58/58/5 56/56/5 52/52/5
f 61/61/3 62/62/3 63/63/3
f 62/62/3 64/64/3 63/63/3
f 65/65/4 66/66/4 64/64/4
f 66/66/4 67/67/4 64/64/4
f 67/67/3 68/68/3 64/64/3
f 63/63/3 64/64/3 68/68/3
f 62/62/3 61/61/3 69/69/3
f 69/69/3 61/61/3 70/70/3
f 70/70/3 61/61/3 71/71/3
f 71/71/3 61/61/3 67/67/3
f 61/61/3 72/72/3 67/67/3
f 68/68/3 67/67/3 72/72/3
f 73/73/2 74/74/2 75/75/2
f 74/74/2 73/73/2 76/76/2
f 74/74/2 76/76/2 77/77/2
f 77/77/2 76/76/2 78/78/2
f 78/78/2 76/76/2 79/79/2
f 79/79/2 76/76/2 80/80/2
f 75/75/2 81/81/2 82/82/2
f 81/81/2 75/75/2 74/74/2
f 82/82/2 81/81/2 83/83/2
f 82/82/2 83/83/2 84/84/2
f 82/82/2 84/84/2 80/80/2
f 82/82/2 80/80/2 76/76/2
f 85/85/1 86/86/1 87/87/1
f 86/86/1 88/88/1 87/87/1
f 88/88/1 89/89/1 87/87/1
f 89/89/1 90/90/1 87/87/1
f 91/91/1 92/92/1 90/90/1
f 87/87/1 90/90/1 92/92/1
f 86/86/1 85/85/1 93/93/1
f 93/93/1 85/85/1 94/94/1
f 94/94/1 85/85/1 95/95/1
f 95/95/1 85/85/1 91/91/1
f 85/85/1 96/96/1 91/91/1
f 92/92/1 91/91/1 96/96/1
