# Blender 3.5.1
# www.blender.org
mtllib 4tower-penyangga2.mtl
o instance_4.013
v -0.411955 0.745301 -0.452477
v -0.411955 0.714664 0.405341
v -0.411955 0.745301 0.405341
v -0.411955 0.714664 -0.452477
v -0.411955 0.714664 -0.452477
v -0.411955 0.745301 -0.452477
v -0.411955 0.714664 0.405341
v -0.411955 0.745301 0.405341
v -0.411955 0.745301 -0.452477
v 0.445863 0.714664 -0.452477
v -0.411955 0.714664 -0.452477
v 0.445863 0.745301 -0.452477
v 0.445863 0.745301 -0.452477
v -0.411955 0.745301 -0.452477
v 0.445863 0.714664 -0.452477
v -0.411955 0.714664 -0.452477
v 0.445863 0.745301 0.405341
v -0.411955 0.714664 0.405341
v 0.445863 0.714664 0.405341
v -0.411955 0.745301 0.405341
v -0.411955 0.745301 0.405341
v 0.445863 0.745301 0.405341
v -0.411955 0.714664 0.405341
v 0.445863 0.714664 0.405341
v -0.350683 0.775937 0.344069
v -0.411955 0.745301 -0.452477
v -0.411955 0.745301 0.405341
v -0.350683 0.775937 -0.391204
v -0.350683 0.775937 -0.391204
v -0.350683 0.775937 0.344069
v -0.411955 0.745301 -0.452477
v -0.411955 0.745301 0.405341
v 0.445863 0.714664 -0.452477
v 0.445863 0.745301 0.405341
v 0.445863 0.714664 0.405341
v 0.445863 0.745301 -0.452477
v 0.445863 0.745301 -0.452477
v 0.445863 0.714664 -0.452477
v 0.445863 0.745301 0.405341
v 0.445863 0.714664 0.405341
v -0.350683 0.775937 -0.391204
v 0.445863 0.745301 -0.452477
v -0.411955 0.745301 -0.452477
v 0.384590 0.775937 -0.391204
v 0.384590 0.775937 -0.391204
v -0.350683 0.775937 -0.391204
v 0.445863 0.745301 -0.452477
v -0.411955 0.745301 -0.452477
v 0.445863 0.745301 0.405341
v -0.350683 0.775937 0.344069
v -0.411955 0.745301 0.405341
v 0.384590 0.775937 0.344069
v 0.384590 0.775937 0.344069
v 0.445863 0.745301 0.405341
v -0.350683 0.775937 0.344069
v -0.411955 0.745301 0.405341
v 0.445863 0.745301 0.405341
v 0.384590 0.775937 -0.391204
v 0.384590 0.775937 0.344069
v 0.445863 0.745301 -0.452477
v 0.445863 0.745301 -0.452477
v 0.445863 0.745301 0.405341
v 0.384590 0.775937 -0.391204
v 0.384590 0.775937 0.344069
v 0.384590 3.471937 0.344069
v 0.323317 3.502573 -0.329931
v 0.323317 3.502573 0.282796
v 0.384590 3.471937 -0.391204
v 0.384590 3.471937 -0.391204
v 0.384590 3.471937 0.344069
v 0.323317 3.502573 -0.329931
v 0.323317 3.502573 0.282796
v -0.289410 3.502573 -0.329931
v 0.384590 3.471937 -0.391204
v -0.350683 3.471937 -0.391204
v 0.323317 3.502573 -0.329931
v 0.323317 3.502573 -0.329931
v -0.289410 3.502573 -0.329931
v 0.384590 3.471937 -0.391204
v -0.350683 3.471937 -0.391204
v 0.384590 3.471937 0.344069
v -0.289410 3.502573 0.282796
v -0.350683 3.471937 0.344069
v 0.323317 3.502573 0.282796
v 0.323317 3.502573 0.282796
v 0.384590 3.471937 0.344069
v -0.289410 3.502573 0.282796
v -0.350683 3.471937 0.344069
v 0.384590 3.441301 -0.391204
v 0.384590 3.471937 0.344069
v 0.384590 3.441301 0.344069
v 0.384590 3.471937 -0.391204
v 0.384590 3.471937 -0.391204
v 0.384590 3.441301 -0.391204
v 0.384590 3.471937 0.344069
v 0.384590 3.441301 0.344069
v -0.289410 3.502573 0.282796
v -0.350683 3.471937 -0.391204
v -0.350683 3.471937 0.344069
v -0.289410 3.502573 -0.329931
v -0.289410 3.502573 -0.329931
v -0.289410 3.502573 0.282796
v -0.350683 3.471937 -0.391204
v -0.350683 3.471937 0.344069
v -0.350683 3.471937 -0.391204
v 0.384590 3.441301 -0.391204
v -0.350683 3.441301 -0.391204
v 0.384590 3.471937 -0.391204
v 0.384590 3.471937 -0.391204
v -0.350683 3.471937 -0.391204
v 0.384590 3.441301 -0.391204
v -0.350683 3.441301 -0.391204
v 0.384590 3.471937 0.344069
v -0.350683 3.441301 0.344069
v 0.384590 3.441301 0.344069
v -0.350683 3.471937 0.344069
v -0.350683 3.471937 0.344069
v 0.384590 3.471937 0.344069
v -0.350683 3.441301 0.344069
v 0.384590 3.441301 0.344069
v -0.350683 3.471937 -0.391204
v -0.350683 3.441301 0.344069
v -0.350683 3.471937 0.344069
v -0.350683 3.441301 -0.391204
v -0.350683 3.441301 -0.391204
v -0.350683 3.471937 -0.391204
v -0.350683 3.441301 0.344069
v -0.350683 3.471937 0.344069
vn -1.0000 -0.0000 -0.0000
vn 1.0000 -0.0000 -0.0000
vn -0.0000 -0.0000 -1.0000
vn -0.0000 -0.0000 1.0000
vn -0.4472 0.8944 -0.0000
vn 0.4472 -0.8944 -0.0000
vn -0.0000 0.8944 -0.4472
vn -0.0000 -0.8944 0.4472
vn -0.0000 0.8944 0.4472
vn -0.0000 -0.8944 -0.4472
vn 0.4472 0.8944 -0.0000
vn -0.4472 -0.8944 -0.0000
vt -214.000000 55.000000
vt -186.000000 54.000000
vt -186.000000 55.000000
vt -214.000000 54.000000
vt -214.000000 54.000000
vt -214.000000 55.000000
vt -186.000000 54.000000
vt -186.000000 55.000000
vt -186.000000 55.000000
vt -214.000000 54.000000
vt -186.000000 54.000000
vt -214.000000 55.000000
vt -214.000000 55.000000
vt -186.000000 55.000000
vt -214.000000 54.000000
vt -186.000000 54.000000
vt -186.000000 55.000000
vt -214.000000 54.000000
vt -186.000000 54.000000
vt -214.000000 55.000000
vt -214.000000 55.000000
vt -186.000000 55.000000
vt -214.000000 54.000000
vt -186.000000 54.000000
vt -188.000000 716.734253
vt -214.000000 714.498291
vt -186.000000 714.498291
vt -212.000000 716.734253
vt -212.000000 716.734253
vt -188.000000 716.734253
vt -214.000000 714.498291
vt -186.000000 714.498291
vt -186.000000 54.000000
vt -214.000000 55.000000
vt -214.000000 54.000000
vt -186.000000 55.000000
vt -186.000000 55.000000
vt -186.000000 54.000000
vt -214.000000 55.000000
vt -214.000000 54.000000
vt -188.000000 716.734253
vt -214.000000 714.498291
vt -186.000000 714.498291
vt -212.000000 716.734253
vt -212.000000 716.734253
vt -188.000000 716.734253
vt -214.000000 714.498291
vt -186.000000 714.498291
vt -186.000000 714.498291
vt -212.000000 716.734253
vt -214.000000 714.498291
vt -188.000000 716.734253
vt -188.000000 716.734253
vt -186.000000 714.498291
vt -212.000000 716.734253
vt -214.000000 714.498291
vt -214.000000 714.498291
vt -188.000000 716.734253
vt -212.000000 716.734253
vt -186.000000 714.498291
vt -186.000000 714.498291
vt -214.000000 714.498291
vt -188.000000 716.734253
vt -212.000000 716.734253
vt 0.000000 0.000000
vt 0.000000 0.000000
vt 0.000000 0.000000
vt 0.000000 0.000000
vt 0.000000 0.000000
vt 0.000000 0.000000
vt 0.000000 0.000000
vt 0.000000 0.000000
vt 0.000000 0.000000
vt 0.000000 0.000000
vt 0.000000 0.000000
vt 0.000000 0.000000
vt 0.000000 0.000000
vt 0.000000 0.000000
vt 0.000000 0.000000
vt 0.000000 0.000000
vt 0.000000 0.000000
vt 0.000000 0.000000
vt 0.000000 0.000000
vt 0.000000 0.000000
vt 0.000000 0.000000
vt 0.000000 0.000000
vt 0.000000 0.000000
vt 0.000000 0.000000
vt 0.000000 0.000000
vt 0.000000 0.000000
vt 0.000000 0.000000
vt 0.000000 0.000000
vt 0.000000 0.000000
vt 0.000000 0.000000
vt 0.000000 0.000000
vt 0.000000 0.000000
vt 0.000000 0.000000
vt 0.000000 0.000000
vt 0.000000 0.000000
vt 0.000000 0.000000
vt 0.000000 0.000000
vt 0.000000 0.000000
vt 0.000000 0.000000
vt 0.000000 0.000000
vt 0.000000 0.000000
vt 0.000000 0.000000
vt 0.000000 0.000000
vt 0.000000 0.000000
vt 0.000000 0.000000
vt 0.000000 0.000000
vt 0.000000 0.000000
vt 0.000000 0.000000
vt 0.000000 0.000000
vt 0.000000 0.000000
vt 0.000000 0.000000
vt 0.000000 0.000000
vt 0.000000 0.000000
vt 0.000000 0.000000
vt 0.000000 0.000000
vt 0.000000 0.000000
vt 0.000000 0.000000
vt 0.000000 0.000000
vt 0.000000 0.000000
vt 0.000000 0.000000
vt 0.000000 0.000000
vt 0.000000 0.000000
vt 0.000000 0.000000
vt 0.000000 0.000000
s 0
usemtl material_9.001
f 1/1/1 2/2/1 3/3/1
f 2/2/1 1/1/1 4/4/1
f 5/5/2 6/6/2 7/7/2
f 8/8/2 7/7/2 6/6/2
f 9/9/3 10/10/3 11/11/3
f 10/10/3 9/9/3 12/12/3
f 13/13/4 14/14/4 15/15/4
f 16/16/4 15/15/4 14/14/4
f 17/17/4 18/18/4 19/19/4
f 18/18/4 17/17/4 20/20/4
f 21/21/3 22/22/3 23/23/3
f 24/24/3 23/23/3 22/22/3
f 25/25/5 26/26/5 27/27/5
f 26/26/5 25/25/5 28/28/5
f 29/29/6 30/30/6 31/31/6
f 32/32/6 31/31/6 30/30/6
f 33/33/2 34/34/2 35/35/2
f 34/34/2 33/33/2 36/36/2
f 37/37/1 38/38/1 39/39/1
f 40/40/1 39/39/1 38/38/1
f 41/41/7 42/42/7 43/43/7
f 42/42/7 41/41/7 44/44/7
f 45/45/8 46/46/8 47/47/8
f 48/48/8 47/47/8 46/46/8
f 49/49/9 50/50/9 51/51/9
f 50/50/9 49/49/9 52/52/9
f 53/53/10 54/54/10 55/55/10
f 56/56/10 55/55/10 54/54/10
f 57/57/11 58/58/11 59/59/11
f 58/58/11 57/57/11 60/60/11
f 61/61/12 62/62/12 63/63/12
f 64/64/12 63/63/12 62/62/12
f 65/65/11 66/66/11 67/67/11
f 66/66/11 65/65/11 68/68/11
f 69/69/12 70/70/12 71/71/12
f 72/72/12 71/71/12 70/70/12
f 73/73/7 74/74/7 75/75/7
f 74/74/7 73/73/7 76/76/7
f 77/77/8 78/78/8 79/79/8
f 80/80/8 79/79/8 78/78/8
f 81/81/9 82/82/9 83/83/9
f 82/82/9 81/81/9 84/84/9
f 85/85/10 86/86/10 87/87/10
f 88/88/10 87/87/10 86/86/10
f 89/89/2 90/90/2 91/91/2
f 90/90/2 89/89/2 92/92/2
f 93/93/1 94/94/1 95/95/1
f 96/96/1 95/95/1 94/94/1
f 97/97/5 98/98/5 99/99/5
f 98/98/5 97/97/5 100/100/5
f 101/101/6 102/102/6 103/103/6
f 104/104/6 103/103/6 102/102/6
f 105/105/3 106/106/3 107/107/3
f 106/106/3 105/105/3 108/108/3
f 109/109/4 110/110/4 111/111/4
f 112/112/4 111/111/4 110/110/4
f 113/113/4 114/114/4 115/115/4
f 114/114/4 113/113/4 116/116/4
f 117/117/3 118/118/3 119/119/3
f 120/120/3 119/119/3 118/118/3
f 121/121/1 122/122/1 123/123/1
f 122/122/1 121/121/1 124/124/1
f 125/125/2 126/126/2 127/127/2
f 128/128/2 127/127/2 126/126/2
