# Blender v2.92.0 OBJ File: 'coupe.blend'
# www.blender.org
mtllib coupe_interior.mtl
o inter_Cube.143
v 0.730099 1.207597 -1.042685
v 0.000000 1.189348 -1.046763
v 0.730099 0.267196 -1.042685
v 0.000000 0.248947 -1.046763
v 0.678607 0.382229 -0.934814
v 0.103764 0.382229 -0.934814
v 0.678607 1.215103 -0.934814
v 0.103764 1.215103 -0.934814
v 0.103764 1.215103 -1.034814
v 0.678607 1.215103 -1.034814
v 0.103764 0.382229 -1.034814
v 0.678607 0.382229 -1.034814
v 0.678607 0.565448 -1.034814
v 0.103764 0.565448 -1.034814
v 0.103764 0.565448 -0.634814
v 0.678607 0.565448 -0.634814
v 0.103764 0.565448 -0.134814
v 0.103764 0.382229 -0.134814
v 0.678607 0.382229 -0.134814
v 0.678607 0.565448 -0.134814
v 0.000000 1.218867 0.665186
v 0.782371 1.218867 0.665186
v 0.000000 0.278466 0.665186
v 0.782371 0.278466 0.665186
v 0.588799 1.554812 -0.934814
v 0.193572 1.554812 -0.934814
v 0.193572 1.554812 -1.034814
v 0.588799 1.554812 -1.034814
v 0.347487 1.289905 -1.005435
v 0.434884 1.289905 -1.005435
v 0.347487 1.289905 -0.964194
v 0.434884 1.289905 -0.964194
v 0.193572 1.289905 -1.034814
v 0.588799 1.289905 -1.034814
v 0.193572 1.289905 -0.934814
v 0.588799 1.289905 -0.934814
v 0.347487 1.189905 -1.005435
v 0.434884 1.189905 -1.005435
v 0.347487 1.189905 -0.964194
v 0.434884 1.189905 -0.964194
v 0.000000 1.218867 0.420906
v 0.782371 1.218867 0.420906
v 0.782371 0.278466 0.420906
v 0.254723 1.306495 0.217146
v 0.392516 1.349282 0.230328
v 0.169562 1.194477 0.182633
v 0.169562 1.056016 0.139973
v 0.254723 0.943999 0.105461
v 0.392516 0.901212 0.092278
v 0.530308 0.943999 0.105461
v 0.615469 1.056016 0.139973
v 0.615469 1.194477 0.182633
v 0.530308 1.306495 0.217146
v 0.273115 1.282302 0.209692
v 0.392516 1.319378 0.221115
v 0.199322 1.185237 0.179786
v 0.199322 1.065257 0.142820
v 0.273115 0.968192 0.112915
v 0.392516 0.931116 0.101492
v 0.511916 0.968192 0.112915
v 0.585709 1.065257 0.142820
v 0.585709 1.185237 0.179786
v 0.511916 1.282302 0.209692
v 0.254723 1.316001 0.186292
v 0.392516 1.358788 0.199474
v 0.169562 1.203984 0.151779
v 0.169562 1.065523 0.109119
v 0.254723 0.953505 0.074607
v 0.392516 0.910718 0.061424
v 0.530308 0.953505 0.074607
v 0.615469 1.065523 0.109119
v 0.615469 1.203984 0.151779
v 0.530308 1.316001 0.186292
v 0.273115 1.291808 0.178838
v 0.392516 1.328884 0.190261
v 0.199322 1.194743 0.148932
v 0.199322 1.074763 0.111966
v 0.273115 0.977698 0.082060
v 0.392516 0.940622 0.070637
v 0.511916 0.977698 0.082060
v 0.585709 1.074763 0.111966
v 0.585709 1.194743 0.148932
v 0.511916 1.291808 0.178838
v 0.782371 0.748666 0.420906
v 0.000000 0.748666 0.420906
v 0.000000 1.218867 0.320906
v 0.782371 1.218867 0.320906
v 0.782371 0.748666 0.320906
v 0.000000 0.748666 0.320906
v 0.326891 1.221468 0.174205
v 0.392516 1.241846 0.180483
v 0.286332 1.162698 0.160635
v 0.286332 1.105043 0.142872
v 0.360968 1.038295 0.117592
v 0.424064 1.038295 0.117592
v 0.498699 1.105043 0.142872
v 0.498699 1.162698 0.160635
v 0.458141 1.221468 0.174205
v 0.326891 1.164006 0.261140
v 0.392516 1.184383 0.267418
v 0.286332 1.157320 0.178091
v 0.286332 1.099665 0.160328
v 0.360968 1.031129 0.140852
v 0.392516 1.021333 0.137834
v 0.424064 1.031129 0.140852
v 0.498699 1.099665 0.160328
v 0.498699 1.157320 0.178091
v 0.458141 1.164006 0.261140
v 0.286332 1.102176 0.137451
v 0.286332 1.168119 0.157768
v 0.498699 1.168119 0.157768
v 0.498699 1.102176 0.137451
v 0.286332 1.044713 0.224386
v 0.286332 1.110656 0.244703
v 0.498699 1.110656 0.244703
v 0.498699 1.044713 0.224386
v 0.187190 1.105043 0.142872
v 0.187190 1.162698 0.160635
v 0.597841 1.162698 0.160635
v 0.597841 1.105043 0.142872
v 0.187190 1.099665 0.160328
v 0.187190 1.157320 0.178091
v 0.597841 1.157320 0.178091
v 0.597841 1.099665 0.160328
v 0.392516 1.028449 0.114736
v 0.326891 1.048827 0.121014
v 0.458141 1.048827 0.121014
v 0.392516 0.970986 0.201670
v 0.326891 0.991364 0.207949
v 0.458141 0.991364 0.207949
v 0.392516 0.928266 0.109160
v 0.392516 0.935432 0.085900
v 0.360968 0.945228 0.088918
v 0.424064 0.945228 0.088918
v 0.360968 0.938062 0.112178
v 0.424064 0.938062 0.112178
v 0.289181 1.107958 0.764515
v 0.392516 1.141534 0.764515
v 0.225317 1.020057 0.764515
v 0.225317 0.911405 0.764515
v 0.289181 0.823503 0.764515
v 0.392516 0.789928 0.764515
v 0.495850 0.823503 0.764515
v 0.559714 0.911405 0.764515
v 0.559714 1.020057 0.764515
v 0.495850 1.107958 0.764515
v 0.117356 0.278466 0.420906
v 0.117356 0.748666 0.420906
v 0.000000 0.278466 -0.522396
v 0.000000 0.599639 -0.522396
v 0.117356 0.278466 -0.522396
v 0.117356 0.599639 -0.522396
v -0.730099 1.207597 -1.042685
v -0.730099 0.267196 -1.042685
v -0.678607 0.382229 -0.934814
v -0.103764 0.382229 -0.934814
v -0.678607 1.215103 -0.934814
v -0.103764 1.215103 -0.934814
v -0.103764 1.215103 -1.034814
v -0.678607 1.215103 -1.034814
v -0.103764 0.382229 -1.034814
v -0.678607 0.382229 -1.034814
v -0.678607 0.565448 -1.034814
v -0.103764 0.565448 -1.034814
v -0.103764 0.565448 -0.634814
v -0.678607 0.565448 -0.634814
v -0.103764 0.565448 -0.134814
v -0.103764 0.382229 -0.134814
v -0.678607 0.382229 -0.134814
v -0.678607 0.565448 -0.134814
v -0.782371 1.218867 0.665186
v -0.782371 0.278466 0.665186
v -0.588799 1.554812 -0.934814
v -0.193572 1.554812 -0.934814
v -0.193572 1.554812 -1.034814
v -0.588799 1.554812 -1.034814
v -0.347487 1.289905 -1.005435
v -0.434884 1.289905 -1.005435
v -0.347487 1.289905 -0.964194
v -0.434884 1.289905 -0.964194
v -0.193572 1.289905 -1.034814
v -0.588799 1.289905 -1.034814
v -0.193572 1.289905 -0.934814
v -0.588799 1.289905 -0.934814
v -0.347487 1.189905 -1.005435
v -0.434884 1.189905 -1.005435
v -0.347487 1.189905 -0.964194
v -0.434884 1.189905 -0.964194
v -0.782371 1.218867 0.420906
v -0.782371 0.278466 0.420906
v -0.782371 0.748666 0.420906
v -0.782371 1.218867 0.320906
v -0.782371 0.748666 0.320906
v -0.117356 0.278466 0.420906
v -0.117356 0.748666 0.420906
v -0.117356 0.278466 -0.522396
v -0.117356 0.599639 -0.522396
vt 0.932059 0.680098
vt 0.932059 0.680098
vt 0.932059 0.680098
vt 0.932059 0.680098
vt 0.932059 0.680098
vt 0.932059 0.680098
vt 0.932059 0.680098
vt 0.932059 0.680098
vt 0.932059 0.680098
vt 0.932059 0.680098
vt 0.932059 0.680098
vt 0.932059 0.680098
vt 0.932059 0.680098
vt 0.932059 0.680098
vt 0.932059 0.680098
vt 0.932059 0.680098
vt 0.932059 0.680098
vt 0.932059 0.680098
vt 0.932059 0.680098
vt 0.932059 0.680098
vt 0.932059 0.680098
vt 0.932059 0.680098
vt 0.932059 0.680098
vt 0.932059 0.680098
vt 0.932059 0.680098
vt 0.932059 0.680098
vt 0.932059 0.680098
vt 0.932059 0.680098
vt 0.932059 0.680098
vt 0.932059 0.680098
vt 0.932059 0.680098
vt 0.932059 0.680098
vt 0.932059 0.680098
vt 0.932059 0.680098
vt 0.932059 0.680098
vt 0.932059 0.680098
vt 0.932059 0.680098
vt 0.932059 0.680098
vt 0.932059 0.680098
vt 0.932059 0.680098
vt 0.947401 0.680657
vt 0.947401 0.680657
vt 0.947401 0.680657
vt 0.947401 0.680657
vt 0.947401 0.680657
vt 0.947401 0.680657
vt 0.947401 0.680657
vt 0.947401 0.680657
vt 0.947401 0.680657
vt 0.947401 0.680657
vt 0.947401 0.680657
vt 0.947401 0.680657
vt 0.947401 0.680657
vt 0.947401 0.680657
vt 0.947401 0.680657
vt 0.947401 0.680657
vt 0.947401 0.680657
vt 0.947401 0.680657
vt 0.947401 0.680657
vt 0.947401 0.680657
vt 0.947401 0.680657
vt 0.947401 0.680657
vt 0.947401 0.680657
vt 0.947401 0.680657
vt 0.947401 0.680657
vt 0.947401 0.680657
vt 0.947401 0.680657
vt 0.947401 0.680657
vt 0.947401 0.680657
vt 0.947401 0.680657
vt 0.947401 0.680657
vt 0.947401 0.680657
vt 0.947401 0.680657
vt 0.947401 0.680657
vt 0.947401 0.680657
vt 0.947401 0.680657
vt 0.947401 0.680657
vt 0.947401 0.680657
vt 0.947401 0.680657
vt 0.947401 0.680657
vt 0.932059 0.680098
vt 0.932059 0.680098
vt 0.932059 0.680098
vt 0.932059 0.680098
vt 0.932059 0.680098
vt 0.932059 0.680098
vt 0.932059 0.680098
vt 0.932059 0.680098
vt 0.947401 0.680657
vt 0.947401 0.680657
vt 0.947401 0.680657
vt 0.947401 0.680657
vt 0.947401 0.680657
vt 0.947401 0.680657
vt 0.947401 0.680657
vt 0.947401 0.680657
vt 0.947401 0.680657
vt 0.947401 0.680657
vt 0.947401 0.680657
vt 0.947401 0.680657
vt 0.947401 0.680657
vt 0.947401 0.680657
vt 0.947401 0.680657
vt 0.947401 0.680657
vt 0.947401 0.680657
vt 0.947401 0.680657
vt 0.947401 0.680657
vt 0.947401 0.680657
vt 0.947401 0.680657
vt 0.947401 0.680657
vt 0.947401 0.680657
vt 0.947401 0.680657
vt 0.947401 0.680657
vt 0.947401 0.680657
vt 0.947401 0.680657
vt 0.947401 0.680657
vt 0.947401 0.680657
vt 0.947401 0.680657
vt 0.947401 0.680657
vt 0.947401 0.680657
vt 0.947401 0.680657
vt 0.947401 0.680657
vt 0.947401 0.680657
vt 0.947401 0.680657
vt 0.947401 0.680657
vt 0.947401 0.680657
vt 0.947401 0.680657
vt 0.947401 0.680657
vt 0.947401 0.680657
vt 0.947401 0.680657
vt 0.947401 0.680657
vt 0.947401 0.680657
vt 0.947401 0.680657
vt 0.947401 0.680657
vt 0.947401 0.680657
vt 0.947401 0.680657
vt 0.947401 0.680657
vt 0.947401 0.680657
vt 0.947401 0.680657
vt 0.947401 0.680657
vt 0.947401 0.680657
vt 0.947401 0.680657
vt 0.947401 0.680657
vt 0.947401 0.680657
vt 0.947401 0.680657
vt 0.932059 0.680098
vt 0.932059 0.680098
vt 0.932059 0.680098
vt 0.932059 0.680098
vt 0.932059 0.680098
vt 0.932059 0.680098
vt 0.932059 0.680098
vt 0.932059 0.680098
vt 0.932059 0.680098
vt 0.932059 0.680098
vt 0.932059 0.680098
vt 0.932059 0.680098
vt 0.932059 0.680098
vt 0.932059 0.680098
vt 0.932059 0.680098
vt 0.932059 0.680098
vt 0.932059 0.680098
vt 0.932059 0.680098
vt 0.932059 0.680098
vt 0.932059 0.680098
vt 0.932059 0.680098
vt 0.932059 0.680098
vt 0.932059 0.680098
vt 0.932059 0.680098
vt 0.932059 0.680098
vt 0.932059 0.680098
vt 0.932059 0.680098
vt 0.932059 0.680098
vt 0.932059 0.680098
vt 0.932059 0.680098
vt 0.932059 0.680098
vt 0.932059 0.680098
vt 0.932059 0.680098
vt 0.932059 0.680098
vt 0.932059 0.680098
vt 0.932059 0.680098
vt 0.932059 0.680098
vt 0.932059 0.680098
vt 0.932059 0.680098
vt 0.932059 0.680098
vt 0.932059 0.680098
vt 0.932059 0.680098
vt 0.932059 0.680098
vt 0.932059 0.680098
vt 0.932059 0.680098
vt 0.932059 0.680098
vt 0.932059 0.680098
vt 0.932059 0.680098
vt 0.932059 0.680098
vt 0.932059 0.680098
vt 0.932059 0.680098
vt 0.932059 0.680098
vn 0.0000 0.0000 1.0000
vn -0.0056 0.0000 1.0000
vn -0.9995 -0.0000 0.0306
vn -0.0182 0.9997 -0.0144
vn -0.0064 0.9999 -0.0093
vn 0.0000 1.0000 -0.0066
vn 0.0000 -0.0000 -1.0000
vn 0.0000 1.0000 0.0000
vn 1.0000 0.0000 0.0000
vn 0.0000 -1.0000 0.0000
vn -1.0000 0.0000 0.0000
vn -0.0000 0.4192 0.9079
vn -0.0000 -0.2944 0.9557
vn 0.0000 0.2944 -0.9557
vn -0.3090 -0.9089 -0.2800
vn 0.3090 -0.9089 -0.2800
vn 0.8090 0.5617 0.1731
vn 0.8090 -0.5617 -0.1731
vn 0.3090 0.9089 0.2800
vn -0.3090 0.9089 0.2800
vn -0.8090 0.5617 0.1731
vn -0.8090 -0.5617 -0.1731
vn -0.7988 0.6016 0.0075
vn -0.8081 0.5890 0.0075
vn -0.7972 0.6037 0.0075
vn 0.2977 0.7964 0.5264
vn 0.7973 -0.5036 -0.3328
vn -0.7973 -0.5036 -0.3329
vn -0.7973 -0.5036 -0.3328
vn -0.2977 0.7964 0.5264
vn -0.7973 0.5036 0.3328
vn 0.7973 0.5036 0.3328
vn 0.0000 0.9557 0.2945
vn 0.0000 0.9557 0.2944
vn 0.0000 -0.9557 -0.2944
vn 0.3091 0.9093 0.2786
vn -0.3091 0.9091 0.2791
vn -0.2900 -0.7514 -0.5926
vn 0.2900 -0.7514 -0.5926
vn 0.1832 -0.8687 -0.4602
vn 0.1923 -0.8729 -0.4485
vn 0.1116 -0.8290 -0.5480
vn -0.1832 -0.8687 -0.4602
vn -0.1923 -0.8729 -0.4485
vn -0.0000 0.2947 -0.9556
vn -0.0015 0.2958 -0.9552
vn -0.0000 0.2961 -0.9552
vn 0.0015 0.2958 -0.9552
vn 0.0054 0.2944 -0.9557
vn 0.7988 0.6016 0.0075
vn 0.8081 0.5890 0.0075
vn 0.8090 0.5878 0.0075
vn 0.3074 -0.9051 -0.2936
vn 0.2965 -0.9091 -0.2926
vn 0.2955 -0.9094 -0.2926
vn -0.9934 0.0297 -0.1109
vn -0.9937 0.0025 -0.1121
vn -0.9933 0.0341 -0.1106
vn 0.3034 0.9493 0.0819
vn 0.3075 0.9480 0.0824
vn 0.3080 0.9478 0.0825
vn 0.8054 -0.5481 -0.2257
vn 0.7895 -0.5706 -0.2261
vn 0.7881 -0.5726 -0.2261
vn -0.8054 -0.5481 -0.2257
vn -0.7895 -0.5706 -0.2261
vn -0.8078 -0.5446 -0.2257
vn -0.3034 0.9493 0.0819
vn -0.3075 0.9480 0.0824
vn -0.3027 0.9496 0.0819
vn 0.9934 0.0297 -0.1109
vn 0.9937 0.0025 -0.1121
vn 0.9937 -0.0000 -0.1122
vn -0.3074 -0.9051 -0.2936
vn -0.2965 -0.9091 -0.2926
vn -0.3090 -0.9046 -0.2938
vn 0.0000 0.9877 -0.1560
vn 0.0056 0.0000 1.0000
vn 0.9995 -0.0000 0.0306
vn 0.0182 0.9997 -0.0144
vn 0.0064 0.9999 -0.0093
vn 0.0249 0.9995 -0.0172
vn -0.0249 0.9995 -0.0172
vn -0.8090 0.5878 0.0075
vn 0.7973 -0.5036 -0.3329
vn -0.1116 -0.8290 -0.5480
vn -0.0054 0.2944 -0.9557
vn 0.7972 0.6037 0.0075
vn 0.3090 -0.9046 -0.2938
vn -0.9937 -0.0000 -0.1122
vn 0.3027 0.9496 0.0819
vn 0.8078 -0.5446 -0.2257
vn -0.7881 -0.5726 -0.2261
vn -0.3080 0.9478 0.0825
vn 0.9933 0.0341 -0.1106
vn -0.2955 -0.9094 -0.2926
usemtl body_beige.001
s 1
f 2/1/1 3/2/2 1/3/2
f 1/3/3 24/4/3 22/5/3
f 3/2/4 23/6/5 24/4/6
f 13/7/7 11/8/7 14/9/7
f 8/10/8 10/11/8 9/12/8
f 13/7/9 5/13/9 12/14/9
f 5/13/10 11/8/10 12/14/10
f 19/15/10 6/16/10 5/13/10
f 14/9/11 8/10/11 9/12/11
f 6/16/11 14/9/11 11/8/11
f 15/17/12 7/18/12 8/10/12
f 7/18/9 13/7/9 10/11/9
f 10/11/7 14/9/7 9/12/7
f 18/19/1 20/20/1 17/21/1
f 18/19/11 15/17/11 6/16/11
f 17/21/8 16/22/8 15/17/8
f 16/22/9 19/15/9 5/13/9
f 22/5/8 41/23/8 21/24/8
f 26/25/8 28/26/8 27/27/8
f 32/28/9 38/29/9 30/30/9
f 26/25/1 36/31/1 25/32/1
f 27/27/11 35/33/11 26/25/11
f 25/32/9 34/34/9 28/26/9
f 28/26/7 33/35/7 27/27/7
f 29/36/10 34/34/10 30/30/10
f 31/37/10 33/35/10 29/36/10
f 30/30/10 36/31/10 32/28/10
f 32/28/10 35/33/10 31/37/10
f 38/29/10 39/38/10 37/39/10
f 30/30/7 37/39/7 29/36/7
f 31/37/1 40/40/1 32/28/1
f 29/36/11 39/38/11 31/37/11
f 44/41/13 55/42/13 45/43/13
f 52/44/13 61/45/13 51/46/13
f 59/47/13 48/48/13 49/49/13
f 46/50/13 54/51/13 44/41/13
f 63/52/13 52/44/13 53/53/13
f 60/54/13 49/49/13 50/55/13
f 47/56/13 56/57/13 46/50/13
f 55/42/13 53/53/13 45/43/13
f 51/46/13 60/54/13 50/55/13
f 58/58/13 47/56/13 48/48/13
f 64/59/14 75/60/14 74/61/14
f 72/62/14 81/63/14 82/64/14
f 68/65/14 79/66/14 69/67/14
f 64/59/14 76/68/14 66/69/14
f 73/70/14 82/64/14 83/71/14
f 69/67/14 80/72/14 70/73/14
f 66/69/14 77/74/14 67/75/14
f 73/70/14 75/60/14 65/76/14
f 71/77/14 80/72/14 81/63/14
f 67/75/14 78/78/14 68/65/14
f 48/48/15 69/67/15 49/49/15
f 55/42/15 83/71/15 63/52/15
f 56/57/9 77/74/9 76/68/9
f 49/49/16 70/73/16 50/55/16
f 57/79/17 78/78/17 77/74/17
f 50/55/18 71/77/18 51/46/18
f 59/47/19 78/78/19 58/58/19
f 51/46/9 72/62/9 52/44/9
f 45/43/20 64/59/20 44/41/20
f 60/54/20 79/66/20 59/47/20
f 52/44/17 73/70/17 53/53/17
f 46/50/21 64/59/21 66/69/21
f 61/45/21 80/72/21 60/54/21
f 53/53/19 65/76/19 45/43/19
f 47/56/11 66/69/11 67/75/11
f 61/45/11 82/64/11 81/63/11
f 55/42/16 74/61/16 75/60/16
f 48/48/22 67/75/22 68/65/22
f 62/80/22 83/71/22 82/64/22
f 56/57/18 74/61/18 54/51/18
f 147/81/9 152/82/9 148/83/9
f 89/84/7 87/85/7 88/86/7
f 148/83/10 89/84/10 88/86/10
f 42/87/8 86/88/8 41/23/8
f 110/89/14 91/90/14 111/91/14
f 114/92/23 137/93/24 99/94/25
f 104/95/13 136/96/13 105/97/13
f 93/98/14 118/99/14 92/100/14
f 98/101/26 100/102/26 108/103/26
f 127/104/27 116/105/27 130/106/27
f 126/107/28 113/108/29 109/109/28
f 90/110/30 100/102/30 91/90/30
f 102/111/13 122/112/13 121/113/13
f 94/114/11 135/115/11 103/116/11
f 110/89/31 99/94/31 90/110/31
f 111/91/32 108/103/32 115/117/32
f 93/98/11 110/89/11 109/109/11
f 96/118/9 111/91/9 97/119/9
f 102/111/11 114/92/11 101/120/11
f 106/121/9 115/117/9 116/105/9
f 102/111/11 109/109/11 113/108/11
f 92/100/11 114/92/9 110/89/11
f 106/121/9 112/122/9 96/118/9
f 107/123/11 111/91/9 115/117/11
f 118/99/11 121/113/11 122/112/11
f 119/124/9 124/125/9 120/126/9
f 107/123/33 119/124/34 97/119/33
f 101/120/34 118/99/34 122/112/34
f 106/121/13 123/127/13 107/123/13
f 97/119/14 120/126/14 96/118/14
f 96/118/35 124/125/35 106/121/35
f 102/111/35 117/128/35 93/98/35
f 125/129/36 94/114/36 126/107/36
f 95/130/37 125/129/37 127/104/37
f 103/116/38 128/131/38 129/132/38
f 105/97/39 128/131/39 104/95/39
f 105/97/40 127/104/41 130/106/42
f 103/116/43 126/107/44 94/114/15
f 134/133/16 131/134/16 132/135/16
f 132/135/15 135/115/15 133/136/15
f 125/129/45 134/133/46 132/135/47
f 95/130/9 136/96/9 134/133/9
f 104/95/13 135/115/13 131/134/13
f 125/129/45 133/136/48 94/114/49
f 115/117/50 146/137/51 145/138/52
f 128/131/53 143/139/54 142/140/55
f 113/108/56 139/141/57 114/92/58
f 108/103/59 138/142/60 146/137/61
f 130/106/62 144/143/63 143/139/64
f 129/132/65 140/144/66 113/108/67
f 99/94/68 138/142/69 100/102/70
f 116/105/71 145/138/72 144/143/73
f 128/131/74 141/145/75 129/132/76
f 147/81/7 84/146/7 43/147/7
f 149/148/7 152/82/7 151/149/7
f 148/83/77 150/150/77 85/151/77
f 154/152/78 2/1/1 153/153/78
f 172/154/79 153/153/79 171/155/79
f 154/152/80 23/6/81 4/156/82
f 161/157/7 163/158/7 164/159/7
f 160/160/8 158/161/8 159/162/8
f 163/158/11 155/163/11 166/164/11
f 161/157/10 155/163/10 162/165/10
f 156/166/10 169/167/10 155/163/10
f 164/159/9 158/161/9 165/168/9
f 164/159/9 156/166/9 161/157/9
f 157/169/12 165/168/12 158/161/12
f 163/158/11 157/169/11 160/160/11
f 164/159/7 160/160/7 159/162/7
f 170/170/1 168/171/1 167/172/1
f 165/168/9 168/171/9 156/166/9
f 166/164/8 167/172/8 165/168/8
f 166/164/11 169/167/11 170/170/11
f 41/23/8 171/155/8 21/24/8
f 176/173/8 174/174/8 175/175/8
f 186/176/11 180/177/11 178/178/11
f 184/179/1 174/174/1 173/180/1
f 183/181/9 175/175/9 174/174/9
f 182/182/11 173/180/11 176/173/11
f 181/183/7 176/173/7 175/175/7
f 182/182/10 177/184/10 178/178/10
f 181/183/10 179/185/10 177/184/10
f 184/179/10 178/178/10 180/177/10
f 183/181/10 180/177/10 179/185/10
f 187/186/10 186/176/10 185/187/10
f 185/187/7 178/178/7 177/184/7
f 188/188/1 179/185/1 180/177/1
f 187/186/9 177/184/9 179/185/9
f 197/189/11 194/190/11 195/191/11
f 192/192/7 89/84/7 193/193/7
f 89/84/10 85/151/10 195/191/10
f 86/88/8 189/194/8 41/23/8
f 191/195/7 194/190/7 190/196/7
f 197/189/7 149/148/7 196/197/7
f 150/150/77 195/191/77 85/151/77
f 2/1/1 4/156/1 3/2/2
f 1/3/3 3/2/3 24/4/3
f 3/2/4 4/156/83 23/6/5
f 13/7/7 12/14/7 11/8/7
f 8/10/8 7/18/8 10/11/8
f 13/7/9 16/22/9 5/13/9
f 5/13/10 6/16/10 11/8/10
f 19/15/10 18/19/10 6/16/10
f 14/9/11 15/17/11 8/10/11
f 6/16/11 15/17/11 14/9/11
f 15/17/12 16/22/12 7/18/12
f 7/18/9 16/22/9 13/7/9
f 10/11/7 13/7/7 14/9/7
f 18/19/1 19/15/1 20/20/1
f 18/19/11 17/21/11 15/17/11
f 17/21/8 20/20/8 16/22/8
f 16/22/9 20/20/9 19/15/9
f 22/5/8 42/87/8 41/23/8
f 26/25/8 25/32/8 28/26/8
f 32/28/9 40/40/9 38/29/9
f 26/25/1 35/33/1 36/31/1
f 27/27/11 33/35/11 35/33/11
f 25/32/9 36/31/9 34/34/9
f 28/26/7 34/34/7 33/35/7
f 29/36/10 33/35/10 34/34/10
f 31/37/10 35/33/10 33/35/10
f 30/30/10 34/34/10 36/31/10
f 32/28/10 36/31/10 35/33/10
f 38/29/10 40/40/10 39/38/10
f 30/30/7 38/29/7 37/39/7
f 31/37/1 39/38/1 40/40/1
f 29/36/11 37/39/11 39/38/11
f 44/41/13 54/51/13 55/42/13
f 52/44/13 62/80/13 61/45/13
f 59/47/13 58/58/13 48/48/13
f 46/50/13 56/57/13 54/51/13
f 63/52/13 62/80/13 52/44/13
f 60/54/13 59/47/13 49/49/13
f 47/56/13 57/79/13 56/57/13
f 55/42/13 63/52/13 53/53/13
f 51/46/13 61/45/13 60/54/13
f 58/58/13 57/79/13 47/56/13
f 64/59/14 65/76/14 75/60/14
f 72/62/14 71/77/14 81/63/14
f 68/65/14 78/78/14 79/66/14
f 64/59/14 74/61/14 76/68/14
f 73/70/14 72/62/14 82/64/14
f 69/67/14 79/66/14 80/72/14
f 66/69/14 76/68/14 77/74/14
f 73/70/14 83/71/14 75/60/14
f 71/77/14 70/73/14 80/72/14
f 67/75/14 77/74/14 78/78/14
f 48/48/15 68/65/15 69/67/15
f 55/42/15 75/60/15 83/71/15
f 56/57/9 57/79/9 77/74/9
f 49/49/16 69/67/16 70/73/16
f 57/79/17 58/58/17 78/78/17
f 50/55/18 70/73/18 71/77/18
f 59/47/19 79/66/19 78/78/19
f 51/46/9 71/77/9 72/62/9
f 45/43/20 65/76/20 64/59/20
f 60/54/20 80/72/20 79/66/20
f 52/44/17 72/62/17 73/70/17
f 46/50/21 44/41/21 64/59/21
f 61/45/21 81/63/21 80/72/21
f 53/53/19 73/70/19 65/76/19
f 47/56/11 46/50/11 66/69/11
f 61/45/11 62/80/11 82/64/11
f 55/42/16 54/51/16 74/61/16
f 48/48/22 47/56/22 67/75/22
f 62/80/22 63/52/22 83/71/22
f 56/57/18 76/68/18 74/61/18
f 147/81/9 151/149/9 152/82/9
f 89/84/7 86/88/7 87/85/7
f 88/86/10 84/146/10 148/83/10
f 148/83/10 85/151/10 89/84/10
f 42/87/8 87/85/8 86/88/8
f 110/89/14 90/110/14 91/90/14
f 91/90/14 98/101/14 111/91/14
f 111/91/14 112/122/14 126/107/14
f 112/122/14 127/104/14 126/107/14
f 127/104/14 125/129/14 126/107/14
f 126/107/14 109/109/14 111/91/14
f 109/109/14 110/89/14 111/91/14
f 114/92/23 139/141/84 137/93/24
f 104/95/13 131/134/13 136/96/13
f 93/98/14 117/128/14 118/99/14
f 98/101/26 91/90/26 100/102/26
f 127/104/27 112/122/85 116/105/27
f 126/107/28 129/132/29 113/108/29
f 90/110/30 99/94/30 100/102/30
f 102/111/13 101/120/13 122/112/13
f 94/114/11 133/136/11 135/115/11
f 110/89/31 114/92/31 99/94/31
f 111/91/32 98/101/32 108/103/32
f 93/98/11 92/100/11 110/89/11
f 96/118/9 112/122/9 111/91/9
f 102/111/11 113/108/11 114/92/11
f 106/121/9 107/123/9 115/117/9
f 102/111/11 93/98/11 109/109/11
f 92/100/11 101/120/9 114/92/9
f 106/121/9 116/105/9 112/122/9
f 107/123/11 97/119/9 111/91/9
f 118/99/11 117/128/11 121/113/11
f 119/124/9 123/127/9 124/125/9
f 107/123/33 123/127/34 119/124/34
f 101/120/34 92/100/34 118/99/34
f 106/121/13 124/125/13 123/127/13
f 97/119/14 119/124/14 120/126/14
f 96/118/35 120/126/35 124/125/35
f 102/111/35 121/113/35 117/128/35
f 103/116/38 104/95/38 128/131/38
f 105/97/39 130/106/39 128/131/39
f 105/97/40 95/130/16 127/104/41
f 103/116/43 129/132/86 126/107/44
f 134/133/16 136/96/16 131/134/16
f 132/135/15 131/134/15 135/115/15
f 125/129/45 95/130/87 134/133/46
f 95/130/9 105/97/9 136/96/9
f 104/95/13 103/116/13 135/115/13
f 125/129/45 132/135/47 133/136/48
f 115/117/50 108/103/88 146/137/51
f 128/131/53 130/106/89 143/139/54
f 113/108/56 140/144/90 139/141/57
f 108/103/59 100/102/91 138/142/60
f 130/106/62 116/105/92 144/143/63
f 129/132/65 141/145/93 140/144/66
f 99/94/68 137/93/94 138/142/69
f 116/105/71 115/117/95 145/138/72
f 128/131/74 142/140/96 141/145/75
f 147/81/7 148/83/7 84/146/7
f 149/148/7 150/150/7 152/82/7
f 148/83/77 152/82/77 150/150/77
f 154/152/78 4/156/1 2/1/1
f 172/154/79 154/152/79 153/153/79
f 154/152/80 172/154/6 23/6/81
f 161/157/7 162/165/7 163/158/7
f 160/160/8 157/169/8 158/161/8
f 163/158/11 162/165/11 155/163/11
f 161/157/10 156/166/10 155/163/10
f 156/166/10 168/171/10 169/167/10
f 164/159/9 159/162/9 158/161/9
f 164/159/9 165/168/9 156/166/9
f 157/169/12 166/164/12 165/168/12
f 163/158/11 166/164/11 157/169/11
f 164/159/7 163/158/7 160/160/7
f 170/170/1 169/167/1 168/171/1
f 165/168/9 167/172/9 168/171/9
f 166/164/8 170/170/8 167/172/8
f 166/164/11 155/163/11 169/167/11
f 41/23/8 189/194/8 171/155/8
f 176/173/8 173/180/8 174/174/8
f 186/176/11 188/188/11 180/177/11
f 184/179/1 183/181/1 174/174/1
f 183/181/9 181/183/9 175/175/9
f 182/182/11 184/179/11 173/180/11
f 181/183/7 182/182/7 176/173/7
f 182/182/10 181/183/10 177/184/10
f 181/183/10 183/181/10 179/185/10
f 184/179/10 182/182/10 178/178/10
f 183/181/10 184/179/10 180/177/10
f 187/186/10 188/188/10 186/176/10
f 185/187/7 186/176/7 178/178/7
f 188/188/1 187/186/1 179/185/1
f 187/186/9 185/187/9 177/184/9
f 197/189/11 196/197/11 194/190/11
f 192/192/7 86/88/7 89/84/7
f 195/191/10 191/195/10 193/193/10
f 193/193/10 89/84/10 195/191/10
f 86/88/8 192/192/8 189/194/8
f 191/195/7 195/191/7 194/190/7
f 197/189/7 150/150/7 149/148/7
f 150/150/77 197/189/77 195/191/77
