# Blender v2.92.0 OBJ File: 'coupe.blend'
# www.blender.org
mtllib coupe_white.mtl
o white_Cube.149
v 0.000000 0.860430 -2.759377
v 0.000000 0.737276 -2.759377
v 0.229511 0.860430 -2.759377
v 0.230818 0.737276 -2.759377
v 0.000000 0.587868 2.846860
v 0.000000 0.475276 2.846860
v 0.294668 0.475262 2.846860
v 0.292872 0.587851 2.846860
v -0.229511 0.860430 -2.759377
v -0.230818 0.737276 -2.759377
v -0.294668 0.475262 2.846860
v -0.292872 0.587851 2.846860
v -0.837781 0.815666 1.608825
v -1.142219 0.788377 1.608825
v -0.837781 0.736280 1.364503
v -1.142219 0.714204 1.380542
v -0.837781 0.528448 1.213503
v -1.142219 0.520015 1.239456
v -0.837781 0.271552 1.213503
v -1.142219 0.279985 1.239456
v -0.837781 0.063720 1.364503
v -1.142219 0.085796 1.380542
v -0.837781 -0.015666 1.608825
v -1.142219 0.011623 1.608825
v -0.837781 0.063720 1.853147
v -1.142219 0.085796 1.837107
v -0.837781 0.271552 2.004146
v -1.142219 0.279985 1.978193
v -0.837781 0.528448 2.004146
v -1.142219 0.520015 1.978193
v -0.837781 0.736281 1.853147
v -1.142219 0.714204 1.837107
v -1.066328 0.445573 1.575714
v -1.066328 0.456331 1.608825
v -1.066328 0.417407 1.555251
v -1.066328 0.382593 1.555251
v -1.066328 0.354427 1.575714
v -1.066328 0.343669 1.608825
v -1.066328 0.354427 1.641935
v -1.066328 0.382593 1.662398
v -1.066328 0.417407 1.662398
v -1.066328 0.445573 1.641935
v -1.066328 0.714204 1.380542
v -1.066328 0.790286 1.611370
v -1.066328 0.520015 1.239456
v -1.066328 0.279985 1.239456
v -1.066328 0.085796 1.380542
v -1.066328 0.006713 1.613121
v -1.066328 0.080887 1.841403
v -1.066328 0.279985 1.978193
v -1.066328 0.520015 1.978193
v -1.066328 0.716113 1.839652
v -1.116336 0.520015 1.239456
v -1.116336 0.714204 1.380542
v -1.116336 0.085796 1.380542
v -1.116336 0.279985 1.239456
v -1.116336 0.080887 1.841403
v -1.116336 0.006713 1.613121
v -1.116336 0.520015 1.978193
v -1.116336 0.279985 1.978193
v -1.116336 0.790286 1.611370
v -1.116336 0.716113 1.839652
v -1.116336 0.445573 1.575714
v -1.116336 0.456331 1.608825
v -1.116336 0.417407 1.555251
v -1.116336 0.382593 1.555251
v -1.116336 0.354427 1.575714
v -1.116336 0.343669 1.608825
v -1.116336 0.354427 1.641935
v -1.116336 0.382593 1.662398
v -1.116336 0.417407 1.662398
v -1.116336 0.445573 1.641935
v 0.837781 0.815666 1.608825
v 1.142219 0.788377 1.608825
v 0.837781 0.736280 1.364503
v 1.142219 0.714204 1.380542
v 0.837781 0.528448 1.213503
v 1.142219 0.520015 1.239456
v 0.837781 0.271552 1.213503
v 1.142219 0.279985 1.239456
v 0.837781 0.063720 1.364503
v 1.142219 0.085796 1.380542
v 0.837781 -0.015666 1.608825
v 1.142219 0.011623 1.608825
v 0.837781 0.063720 1.853147
v 1.142219 0.085796 1.837107
v 0.837781 0.271552 2.004146
v 1.142219 0.279985 1.978193
v 0.837781 0.528448 2.004146
v 1.142219 0.520015 1.978193
v 0.837781 0.736281 1.853147
v 1.142219 0.714204 1.837107
v 1.066328 0.445573 1.575714
v 1.066328 0.456331 1.608825
v 1.066328 0.417407 1.555251
v 1.066328 0.382593 1.555251
v 1.066328 0.354427 1.575714
v 1.066328 0.343669 1.608825
v 1.066328 0.354427 1.641935
v 1.066328 0.382593 1.662398
v 1.066328 0.417407 1.662398
v 1.066328 0.445573 1.641935
v 1.066328 0.714204 1.380542
v 1.066328 0.790286 1.611370
v 1.066328 0.520015 1.239456
v 1.066328 0.279985 1.239456
v 1.066328 0.085796 1.380542
v 1.066328 0.006713 1.613121
v 1.066328 0.080887 1.841403
v 1.066328 0.279985 1.978193
v 1.066328 0.520015 1.978193
v 1.066328 0.716113 1.839652
v 1.116336 0.520015 1.239456
v 1.116336 0.714204 1.380542
v 1.116336 0.085796 1.380542
v 1.116336 0.279985 1.239456
v 1.116336 0.080887 1.841403
v 1.116336 0.006713 1.613121
v 1.116336 0.520015 1.978193
v 1.116336 0.279985 1.978193
v 1.116336 0.790286 1.611370
v 1.116336 0.716113 1.839652
v 1.116336 0.445573 1.575714
v 1.116336 0.456331 1.608825
v 1.116336 0.417407 1.555251
v 1.116336 0.382593 1.555251
v 1.116336 0.354427 1.575714
v 1.116336 0.343669 1.608825
v 1.116336 0.354427 1.641935
v 1.116336 0.382593 1.662398
v 1.116336 0.417407 1.662398
v 1.116336 0.445573 1.641935
v -0.837781 0.815666 -1.611176
v -1.142219 0.788377 -1.611176
v -0.837781 0.736280 -1.855498
v -1.142219 0.714204 -1.839459
v -0.837781 0.528448 -2.006498
v -1.142219 0.520015 -1.980545
v -0.837781 0.271552 -2.006498
v -1.142219 0.279985 -1.980545
v -0.837781 0.063720 -1.855498
v -1.142219 0.085796 -1.839459
v -0.837781 -0.015665 -1.611176
v -1.142219 0.011623 -1.611176
v -0.837781 0.063720 -1.366854
v -1.142219 0.085796 -1.382894
v -0.837781 0.271552 -1.215855
v -1.142219 0.279985 -1.241808
v -0.837781 0.528448 -1.215855
v -1.142219 0.520015 -1.241808
v -0.837781 0.736281 -1.366854
v -1.142219 0.714204 -1.382894
v -1.066328 0.445573 -1.644287
v -1.066328 0.456331 -1.611176
v -1.066328 0.417407 -1.664750
v -1.066328 0.382593 -1.664750
v -1.066328 0.354427 -1.644287
v -1.066328 0.343669 -1.611176
v -1.066328 0.354427 -1.578066
v -1.066328 0.382593 -1.557603
v -1.066328 0.417408 -1.557603
v -1.066328 0.445573 -1.578066
v -1.066328 0.714204 -1.839459
v -1.066328 0.790286 -1.608631
v -1.066328 0.520015 -1.980545
v -1.066328 0.279985 -1.980545
v -1.066328 0.085796 -1.839459
v -1.066328 0.006713 -1.606880
v -1.066328 0.080887 -1.378598
v -1.066328 0.279985 -1.241808
v -1.066328 0.520015 -1.241808
v -1.066328 0.716113 -1.380349
v -1.116336 0.520015 -1.980545
v -1.116336 0.714204 -1.839459
v -1.116336 0.085796 -1.839459
v -1.116336 0.279985 -1.980545
v -1.116336 0.080887 -1.378598
v -1.116336 0.006713 -1.606880
v -1.116336 0.520015 -1.241808
v -1.116336 0.279985 -1.241808
v -1.116336 0.790286 -1.608631
v -1.116336 0.716113 -1.380349
v -1.116336 0.445573 -1.644287
v -1.116336 0.456331 -1.611176
v -1.116336 0.417407 -1.664750
v -1.116336 0.382593 -1.664750
v -1.116336 0.354427 -1.644287
v -1.116336 0.343669 -1.611176
v -1.116336 0.354427 -1.578066
v -1.116336 0.382593 -1.557603
v -1.116336 0.417408 -1.557603
v -1.116336 0.445573 -1.578066
v 0.837781 0.815666 -1.611176
v 1.142219 0.788377 -1.611176
v 0.837781 0.736280 -1.855498
v 1.142219 0.714204 -1.839459
v 0.837781 0.528448 -2.006498
v 1.142219 0.520015 -1.980545
v 0.837781 0.271552 -2.006498
v 1.142219 0.279985 -1.980545
v 0.837781 0.063720 -1.855498
v 1.142219 0.085796 -1.839459
v 0.837781 -0.015665 -1.611176
v 1.142219 0.011623 -1.611176
v 0.837781 0.063720 -1.366854
v 1.142219 0.085796 -1.382894
v 0.837781 0.271552 -1.215855
v 1.142219 0.279985 -1.241808
v 0.837781 0.528448 -1.215855
v 1.142219 0.520015 -1.241808
v 0.837781 0.736281 -1.366854
v 1.142219 0.714204 -1.382894
v 1.066328 0.445573 -1.644287
v 1.066328 0.456331 -1.611176
v 1.066328 0.417407 -1.664750
v 1.066328 0.382593 -1.664750
v 1.066328 0.354427 -1.644287
v 1.066328 0.343669 -1.611176
v 1.066328 0.354427 -1.578066
v 1.066328 0.382593 -1.557603
v 1.066328 0.417408 -1.557603
v 1.066328 0.445573 -1.578066
v 1.066328 0.714204 -1.839459
v 1.066328 0.790286 -1.608631
v 1.066328 0.520015 -1.980545
v 1.066328 0.279985 -1.980545
v 1.066328 0.085796 -1.839459
v 1.066328 0.006713 -1.606880
v 1.066328 0.080887 -1.378598
v 1.066328 0.279985 -1.241808
v 1.066328 0.520015 -1.241808
v 1.066328 0.716113 -1.380349
v 1.116336 0.520015 -1.980545
v 1.116336 0.714204 -1.839459
v 1.116336 0.085796 -1.839459
v 1.116336 0.279985 -1.980545
v 1.116336 0.080887 -1.378598
v 1.116336 0.006713 -1.606880
v 1.116336 0.520015 -1.241808
v 1.116336 0.279985 -1.241808
v 1.116336 0.790286 -1.608631
v 1.116336 0.716113 -1.380349
v 1.116336 0.445573 -1.644287
v 1.116336 0.456331 -1.611176
v 1.116336 0.417407 -1.664750
v 1.116336 0.382593 -1.664750
v 1.116336 0.354427 -1.644287
v 1.116336 0.343669 -1.611176
v 1.116336 0.354427 -1.578066
v 1.116336 0.382593 -1.557603
v 1.116336 0.417408 -1.557603
v 1.116336 0.445573 -1.578066
vt 0.812721 0.688279
vt 0.812721 0.688279
vt 0.812721 0.688279
vt 0.807059 0.680098
vt 0.807059 0.680098
vt 0.807059 0.680098
vt 0.812721 0.688279
vt 0.812721 0.688279
vt 0.807059 0.680098
vt 0.807059 0.680098
vt 0.812721 0.688279
vt 0.807059 0.680098
vt 0.063240 0.179917
vt 0.063240 0.179917
vt 0.063240 0.179917
vt 0.072824 0.191020
vt 0.072824 0.191020
vt 0.072824 0.191020
vt 0.063240 0.179917
vt 0.063240 0.179917
vt 0.063240 0.179917
vt 0.063240 0.179917
vt 0.063240 0.179917
vt 0.063240 0.179917
vt 0.063240 0.179917
vt 0.063240 0.179917
vt 0.072824 0.191020
vt 0.072824 0.191020
vt 0.072824 0.191020
vt 0.072824 0.191020
vt 0.072824 0.191020
vt 0.072824 0.191020
vt 0.072824 0.191020
vt 0.072824 0.191020
vt 0.072824 0.191020
vt 0.072824 0.191020
vt 0.072824 0.191020
vt 0.072824 0.191020
vt 0.072824 0.191020
vt 0.072824 0.191020
vt 0.072824 0.191020
vt 0.072824 0.191020
vt 0.072824 0.191020
vt 0.072824 0.191020
vt 0.072824 0.191020
vt 0.072824 0.191020
vt 0.072824 0.191020
vt 0.072824 0.191020
vt 0.072824 0.191020
vt 0.072824 0.191020
vt 0.072824 0.191020
vt 0.072824 0.191020
vt 0.072824 0.191020
vt 0.072824 0.191020
vt 0.072824 0.191020
vt 0.072824 0.191020
vt 0.072824 0.191020
vt 0.072824 0.191020
vt 0.072824 0.191020
vt 0.072824 0.191020
vt 0.062500 0.192500
vt 0.062500 0.192500
vt 0.062500 0.192500
vt 0.062500 0.192500
vt 0.063240 0.179917
vt 0.063240 0.179917
vt 0.063240 0.179917
vt 0.063240 0.179917
vt 0.063240 0.179917
vt 0.063240 0.179917
vt 0.072824 0.191020
vt 0.072824 0.191020
vt 0.072824 0.191020
vt 0.063240 0.179917
vt 0.063240 0.179917
vt 0.063240 0.179917
vt 0.063240 0.179917
vt 0.063240 0.179917
vt 0.063240 0.179917
vt 0.063240 0.179917
vt 0.063240 0.179917
vt 0.072824 0.191020
vt 0.072824 0.191020
vt 0.072824 0.191020
vt 0.072824 0.191020
vt 0.072824 0.191020
vt 0.072824 0.191020
vt 0.072824 0.191020
vt 0.072824 0.191020
vt 0.072824 0.191020
vt 0.072824 0.191020
vt 0.072824 0.191020
vt 0.072824 0.191020
vt 0.072824 0.191020
vt 0.072824 0.191020
vt 0.072824 0.191020
vt 0.072824 0.191020
vt 0.072824 0.191020
vt 0.072824 0.191020
vt 0.072824 0.191020
vt 0.072824 0.191020
vt 0.072824 0.191020
vt 0.072824 0.191020
vt 0.072824 0.191020
vt 0.072824 0.191020
vt 0.072824 0.191020
vt 0.072824 0.191020
vt 0.072824 0.191020
vt 0.063240 0.179917
vt 0.072824 0.191020
vt 0.072824 0.191020
vt 0.072824 0.191020
vt 0.072824 0.191020
vt 0.072824 0.191020
vt 0.072824 0.191020
vt 0.072824 0.191020
vt 0.062500 0.192500
vt 0.063240 0.179917
vt 0.062500 0.192500
vt 0.062500 0.192500
vt 0.063240 0.179917
vt 0.063240 0.179917
vt 0.063240 0.179917
vt 0.062500 0.192500
vt 0.063240 0.179917
vt 0.063240 0.179917
vt 0.063240 0.179917
vt 0.072824 0.191020
vt 0.072824 0.191020
vt 0.072824 0.191020
vt 0.063240 0.179917
vt 0.063240 0.179917
vt 0.063240 0.179917
vt 0.063240 0.179917
vt 0.063240 0.179917
vt 0.063240 0.179917
vt 0.063240 0.179917
vt 0.063240 0.179917
vt 0.072824 0.191020
vt 0.072824 0.191020
vt 0.072824 0.191020
vt 0.072824 0.191020
vt 0.072824 0.191020
vt 0.072824 0.191020
vt 0.072824 0.191020
vt 0.072824 0.191020
vt 0.072824 0.191020
vt 0.072824 0.191020
vt 0.072824 0.191020
vt 0.072824 0.191020
vt 0.072824 0.191020
vt 0.072824 0.191020
vt 0.072824 0.191020
vt 0.072824 0.191020
vt 0.072824 0.191020
vt 0.072824 0.191020
vt 0.072824 0.191020
vt 0.072824 0.191020
vt 0.072824 0.191020
vt 0.072824 0.191020
vt 0.072824 0.191020
vt 0.072824 0.191020
vt 0.072824 0.191020
vt 0.072824 0.191020
vt 0.072824 0.191020
vt 0.072824 0.191020
vt 0.072824 0.191020
vt 0.072824 0.191020
vt 0.072824 0.191020
vt 0.072824 0.191020
vt 0.072824 0.191020
vt 0.072824 0.191020
vt 0.072824 0.191020
vt 0.062500 0.192500
vt 0.062500 0.192500
vt 0.062500 0.192500
vt 0.063240 0.179917
vt 0.063240 0.179917
vt 0.063240 0.179917
vt 0.062500 0.192500
vt 0.063240 0.179917
vt 0.063240 0.179917
vt 0.063240 0.179917
vt 0.072824 0.191020
vt 0.072824 0.191020
vt 0.072824 0.191020
vt 0.063240 0.179917
vt 0.063240 0.179917
vt 0.063240 0.179917
vt 0.063240 0.179917
vt 0.063240 0.179917
vt 0.063240 0.179917
vt 0.063240 0.179917
vt 0.063240 0.179917
vt 0.072824 0.191020
vt 0.072824 0.191020
vt 0.072824 0.191020
vt 0.072824 0.191020
vt 0.072824 0.191020
vt 0.072824 0.191020
vt 0.072824 0.191020
vt 0.072824 0.191020
vt 0.072824 0.191020
vt 0.072824 0.191020
vt 0.072824 0.191020
vt 0.072824 0.191020
vt 0.072824 0.191020
vt 0.072824 0.191020
vt 0.072824 0.191020
vt 0.072824 0.191020
vt 0.072824 0.191020
vt 0.072824 0.191020
vt 0.072824 0.191020
vt 0.072824 0.191020
vt 0.072824 0.191020
vt 0.072824 0.191020
vt 0.072824 0.191020
vt 0.072824 0.191020
vt 0.072824 0.191020
vt 0.072824 0.191020
vt 0.072824 0.191020
vt 0.072824 0.191020
vt 0.063240 0.179917
vt 0.072824 0.191020
vt 0.072824 0.191020
vt 0.072824 0.191020
vt 0.072824 0.191020
vt 0.072824 0.191020
vt 0.072824 0.191020
vt 0.072824 0.191020
vt 0.062500 0.192500
vt 0.063240 0.179917
vt 0.062500 0.192500
vt 0.062500 0.192500
vt 0.063240 0.179917
vt 0.063240 0.179917
vt 0.063240 0.179917
vt 0.062500 0.192500
vt 0.063240 0.179917
vt 0.063240 0.179917
vt 0.072824 0.191020
vt 0.072824 0.191020
vt 0.072824 0.191020
vt 0.062500 0.192500
vt 0.072824 0.191020
vt 0.072824 0.191020
vt 0.072824 0.191020
vt 0.062500 0.192500
vt 0.063240 0.179917
vt 0.063240 0.179917
vt 0.072824 0.191020
vt 0.072824 0.191020
vt 0.062500 0.192500
vt 0.072824 0.191020
vt 0.072824 0.191020
vt 0.062500 0.192500
vn 0.0000 0.0000 -1.0000
vn 0.0000 0.0000 1.0000
vn 0.0849 0.5857 -0.8061
vn 0.0000 0.9511 -0.3090
vn 0.0849 -0.9476 0.3079
vn 0.0849 -0.5857 -0.8061
vn 0.0849 0.9476 -0.3079
vn 0.0000 -0.5878 0.8090
vn -1.0000 -0.0000 -0.0000
vn 0.0000 -0.0127 -0.9999
vn 0.0000 0.5878 0.8090
vn 0.0000 0.5892 0.8080
vn 0.0849 0.0000 -0.9964
vn 0.0000 -0.9511 -0.3090
vn 0.0000 0.0076 -1.0000
vn 0.0000 -0.5900 0.8074
vn 0.0849 0.9476 0.3079
vn 0.0849 0.5857 0.8061
vn 0.0849 -0.5857 0.8061
vn 0.0849 -0.9476 -0.3079
vn 0.0849 0.0000 0.9964
vn 1.0000 0.0000 0.0000
vn -0.0849 0.5857 -0.8061
vn -0.0849 -0.9476 0.3079
vn -0.0849 -0.5857 -0.8061
vn -0.0849 0.9476 -0.3079
vn -0.0849 0.0000 -0.9964
vn -0.0849 0.9476 0.3079
vn -0.0849 0.5857 0.8061
vn -0.0849 -0.5857 0.8061
vn -0.0849 -0.9476 -0.3079
vn -0.0849 0.0000 0.9964
usemtl body_white.002
s 1
f 2/1/1 3/2/1 4/3/1
f 8/4/2 6/5/2 7/6/2
f 9/7/1 2/1/1 10/8/1
f 6/5/2 12/9/2 11/10/2
f 2/1/1 1/11/1 3/2/1
f 8/4/2 5/12/2 6/5/2
f 9/7/1 1/11/1 2/1/1
f 6/5/2 5/12/2 12/9/2
usemtl wheels.002
f 27/13/3 26/14/3 28/15/3
f 63/16/4 34/17/4 33/18/4
f 15/19/5 14/20/5 16/21/5
f 32/22/6 29/23/6 30/24/6
f 25/25/7 24/26/7 26/14/7
f 67/27/8 47/28/8 37/29/8
f 70/30/8 39/31/8 40/32/8
f 56/33/4 36/34/4 46/35/4
f 65/36/9 67/27/9 71/37/9
f 63/16/9 53/38/9 65/36/9
f 56/33/9 67/27/9 66/39/9
f 58/40/9 69/41/9 68/42/9
f 60/43/9 71/37/9 70/30/9
f 72/44/9 61/45/9 64/46/9
f 58/40/10 38/47/10 48/48/10
f 72/44/11 41/49/11 42/50/11
f 69/41/12 49/51/12 39/31/12
f 29/23/13 28/15/13 30/24/13
f 66/39/1 35/52/1 36/34/1
f 60/43/14 40/32/14 50/53/14
f 64/46/15 44/54/15 34/17/15
f 71/37/4 51/55/4 41/49/4
f 54/56/11 33/18/11 43/57/11
f 38/47/14 67/27/14 37/29/14
f 62/58/16 42/50/16 52/59/16
f 65/36/14 45/60/14 35/52/14
f 24/26/17 21/61/17 22/62/17
f 22/62/18 19/63/18 20/64/18
f 17/65/19 16/21/19 18/66/19
f 13/67/20 32/22/20 14/20/20
f 19/63/21 18/66/21 20/64/21
f 48/48/22 39/31/22 49/51/22
f 46/35/22 37/29/22 47/28/22
f 33/18/22 45/60/22 43/57/22
f 44/54/22 42/50/22 34/17/22
f 50/53/22 41/49/22 51/55/22
f 35/52/22 33/18/22 40/32/22
f 86/68/23 87/69/23 88/70/23
f 94/71/4 123/72/4 93/73/4
f 74/74/24 75/75/24 76/76/24
f 92/77/25 89/78/25 91/79/25
f 84/80/26 85/81/26 86/68/26
f 107/82/8 127/83/8 97/84/8
f 99/85/8 130/86/8 100/87/8
f 96/88/4 116/89/4 106/90/4
f 125/91/22 124/92/22 131/93/22
f 123/72/22 113/94/22 114/95/22
f 127/83/22 116/89/22 126/96/22
f 129/97/22 118/98/22 128/99/22
f 131/93/22 120/100/22 130/86/22
f 132/101/22 121/102/22 122/103/22
f 98/104/10 118/98/10 108/105/10
f 101/106/11 132/101/11 102/107/11
f 109/108/12 129/97/12 99/85/12
f 90/109/27 87/69/27 89/78/27
f 95/110/1 126/96/1 96/88/1
f 100/87/14 120/100/14 110/111/14
f 104/112/15 124/92/15 94/71/15
f 111/113/4 131/93/4 101/106/4
f 93/73/11 114/95/11 103/114/11
f 98/104/14 127/83/14 128/99/14
f 102/107/16 122/103/16 112/115/16
f 105/116/14 125/91/14 95/110/14
f 84/80/28 81/117/28 83/118/28
f 82/119/29 79/120/29 81/117/29
f 76/76/30 77/121/30 78/122/30
f 92/77/31 73/123/31 74/74/31
f 78/122/32 79/120/32 80/124/32
f 108/105/9 99/85/9 98/104/9
f 106/90/9 97/84/9 96/88/9
f 105/116/9 93/73/9 103/114/9
f 104/112/9 102/107/9 112/115/9
f 111/113/9 100/87/9 110/111/9
f 101/106/9 102/107/9 96/88/9
f 147/125/3 146/126/3 148/127/3
f 183/128/4 154/129/4 153/130/4
f 135/131/5 134/132/5 136/133/5
f 152/134/6 149/135/6 150/136/6
f 145/137/7 144/138/7 146/126/7
f 187/139/8 167/140/8 157/141/8
f 190/142/8 159/143/8 160/144/8
f 176/145/4 156/146/4 166/147/4
f 185/148/9 187/139/9 191/149/9
f 183/128/9 173/150/9 185/148/9
f 186/151/9 175/152/9 187/139/9
f 178/153/9 189/154/9 188/155/9
f 180/156/9 191/149/9 190/142/9
f 192/157/9 181/158/9 184/159/9
f 178/153/10 158/160/10 168/161/10
f 192/157/11 161/162/11 162/163/11
f 189/154/12 169/164/12 159/143/12
f 149/135/13 148/127/13 150/136/13
f 186/151/1 155/165/1 156/146/1
f 180/156/14 160/144/14 170/166/14
f 184/159/15 164/167/15 154/129/15
f 191/149/4 171/168/4 161/162/4
f 174/169/11 153/130/11 163/170/11
f 158/160/14 187/139/14 157/141/14
f 182/171/16 162/163/16 172/172/16
f 185/148/14 165/173/14 155/165/14
f 144/138/17 141/174/17 142/175/17
f 141/174/18 140/176/18 142/175/18
f 137/177/19 136/133/19 138/178/19
f 133/179/20 152/134/20 134/132/20
f 139/180/21 138/178/21 140/176/21
f 168/161/22 159/143/22 169/164/22
f 156/146/22 167/140/22 166/147/22
f 153/130/22 165/173/22 163/170/22
f 164/167/22 162/163/22 154/129/22
f 170/166/22 161/162/22 171/168/22
f 155/165/22 153/130/22 160/144/22
f 206/181/23 207/182/23 208/183/23
f 214/184/4 243/185/4 213/186/4
f 194/187/24 195/188/24 196/189/24
f 212/190/25 209/191/25 211/192/25
f 204/193/26 205/194/26 206/181/26
f 227/195/8 247/196/8 217/197/8
f 219/198/8 250/199/8 220/200/8
f 216/201/4 236/202/4 226/203/4
f 245/204/22 244/205/22 251/206/22
f 243/185/22 233/207/22 234/208/22
f 246/209/22 235/210/22 236/202/22
f 249/211/22 238/212/22 248/213/22
f 251/206/22 240/214/22 250/199/22
f 252/215/22 241/216/22 242/217/22
f 218/218/10 238/212/10 228/219/10
f 221/220/11 252/215/11 222/221/11
f 229/222/12 249/211/12 219/198/12
f 210/223/27 207/182/27 209/191/27
f 215/224/1 246/209/1 216/201/1
f 220/200/14 240/214/14 230/225/14
f 224/226/15 244/205/15 214/184/15
f 231/227/4 251/206/4 221/220/4
f 213/186/11 234/208/11 223/228/11
f 218/218/14 247/196/14 248/213/14
f 222/221/16 242/217/16 232/229/16
f 225/230/14 245/204/14 215/224/14
f 202/231/28 203/232/28 204/193/28
f 200/233/29 201/234/29 202/231/29
f 196/189/30 197/235/30 198/236/30
f 212/190/31 193/237/31 194/187/31
f 198/236/32 199/238/32 200/233/32
f 228/219/9 219/198/9 218/218/9
f 227/195/9 216/201/9 226/203/9
f 225/230/9 213/186/9 223/228/9
f 224/226/9 222/221/9 232/229/9
f 231/227/9 220/200/9 230/225/9
f 221/220/9 222/221/9 216/201/9
f 27/13/3 25/25/3 26/14/3
f 63/16/4 64/46/4 34/17/4
f 15/19/5 13/67/5 14/20/5
f 32/22/6 31/239/6 29/23/6
f 25/25/7 23/240/7 24/26/7
f 67/27/8 55/241/8 47/28/8
f 70/30/8 69/41/8 39/31/8
f 56/33/4 66/39/4 36/34/4
f 64/46/9 63/16/9 65/36/9
f 65/36/9 66/39/9 67/27/9
f 67/27/9 68/42/9 69/41/9
f 69/41/9 70/30/9 67/27/9
f 70/30/9 71/37/9 67/27/9
f 71/37/9 72/44/9 64/46/9
f 64/46/9 65/36/9 71/37/9
f 63/16/9 54/56/9 53/38/9
f 56/33/9 55/241/9 67/27/9
f 58/40/9 57/242/9 69/41/9
f 60/43/9 59/243/9 71/37/9
f 72/44/9 62/58/9 61/45/9
f 58/40/10 68/42/10 38/47/10
f 72/44/11 71/37/11 41/49/11
f 69/41/12 57/242/12 49/51/12
f 29/23/13 27/13/13 28/15/13
f 66/39/1 65/36/1 35/52/1
f 60/43/14 70/30/14 40/32/14
f 64/46/15 61/45/15 44/54/15
f 71/37/4 59/243/4 51/55/4
f 54/56/11 63/16/11 33/18/11
f 38/47/14 68/42/14 67/27/14
f 62/58/16 72/44/16 42/50/16
f 65/36/14 53/38/14 45/60/14
f 24/26/17 23/240/17 21/61/17
f 22/62/18 21/61/18 19/63/18
f 17/65/19 15/19/19 16/21/19
f 13/67/20 31/239/20 32/22/20
f 19/63/21 17/244/21 18/66/21
f 48/48/22 38/47/22 39/31/22
f 46/35/22 36/34/22 37/29/22
f 33/18/22 35/52/22 45/60/22
f 44/54/22 52/59/22 42/50/22
f 50/53/22 40/32/22 41/49/22
f 33/18/22 34/17/22 42/50/22
f 42/50/22 41/49/22 33/18/22
f 41/49/22 40/32/22 33/18/22
f 40/32/22 39/31/22 38/47/22
f 38/47/22 37/29/22 40/32/22
f 37/29/22 36/34/22 40/32/22
f 36/34/22 35/52/22 40/32/22
f 86/68/23 85/81/23 87/69/23
f 94/71/4 124/92/4 123/72/4
f 74/74/24 73/123/24 75/75/24
f 92/77/25 90/109/25 89/78/25
f 84/80/26 83/118/26 85/81/26
f 107/82/8 115/245/8 127/83/8
f 99/85/8 129/97/8 130/86/8
f 96/88/4 126/96/4 116/89/4
f 125/91/22 123/72/22 124/92/22
f 124/92/22 132/101/22 131/93/22
f 131/93/22 130/86/22 127/83/22
f 130/86/22 129/97/22 127/83/22
f 129/97/22 128/99/22 127/83/22
f 127/83/22 126/96/22 131/93/22
f 126/96/22 125/91/22 131/93/22
f 123/72/22 125/91/22 113/94/22
f 127/83/22 115/245/22 116/89/22
f 129/97/22 117/246/22 118/98/22
f 131/93/22 119/247/22 120/100/22
f 132/101/22 124/92/22 121/102/22
f 98/104/10 128/99/10 118/98/10
f 101/106/11 131/93/11 132/101/11
f 109/108/12 117/246/12 129/97/12
f 90/109/27 88/70/27 87/69/27
f 95/110/1 125/91/1 126/96/1
f 100/87/14 130/86/14 120/100/14
f 104/112/15 121/102/15 124/92/15
f 111/113/4 119/247/4 131/93/4
f 93/73/11 123/72/11 114/95/11
f 98/104/14 97/84/14 127/83/14
f 102/107/16 132/101/16 122/103/16
f 105/116/14 113/94/14 125/91/14
f 84/80/28 82/119/28 81/117/28
f 82/119/29 80/124/29 79/120/29
f 76/76/30 75/75/30 77/121/30
f 92/77/31 91/79/31 73/123/31
f 78/122/32 77/248/32 79/120/32
f 108/105/9 109/108/9 99/85/9
f 106/90/9 107/82/9 97/84/9
f 105/116/9 95/110/9 93/73/9
f 104/112/9 94/71/9 102/107/9
f 111/113/9 101/106/9 100/87/9
f 102/107/9 94/71/9 93/73/9
f 93/73/9 95/110/9 102/107/9
f 95/110/9 96/88/9 102/107/9
f 96/88/9 97/84/9 100/87/9
f 97/84/9 98/104/9 100/87/9
f 98/104/9 99/85/9 100/87/9
f 100/87/9 101/106/9 96/88/9
f 147/125/3 145/137/3 146/126/3
f 183/128/4 184/159/4 154/129/4
f 135/131/5 133/179/5 134/132/5
f 152/134/6 151/249/6 149/135/6
f 145/137/7 143/250/7 144/138/7
f 187/139/8 175/152/8 167/140/8
f 190/142/8 189/154/8 159/143/8
f 176/145/4 186/151/4 156/146/4
f 184/159/9 183/128/9 185/148/9
f 185/148/9 186/151/9 187/139/9
f 187/139/9 188/155/9 189/154/9
f 189/154/9 190/142/9 187/139/9
f 190/142/9 191/149/9 187/139/9
f 191/149/9 192/157/9 184/159/9
f 184/159/9 185/148/9 191/149/9
f 183/128/9 174/169/9 173/150/9
f 186/151/9 176/145/9 175/152/9
f 178/153/9 177/251/9 189/154/9
f 180/156/9 179/252/9 191/149/9
f 192/157/9 182/171/9 181/158/9
f 178/153/10 188/155/10 158/160/10
f 192/157/11 191/149/11 161/162/11
f 189/154/12 177/251/12 169/164/12
f 149/135/13 147/125/13 148/127/13
f 186/151/1 185/148/1 155/165/1
f 180/156/14 190/142/14 160/144/14
f 184/159/15 181/158/15 164/167/15
f 191/149/4 179/252/4 171/168/4
f 174/169/11 183/128/11 153/130/11
f 158/160/14 188/155/14 187/139/14
f 182/171/16 192/157/16 162/163/16
f 185/148/14 173/150/14 165/173/14
f 144/138/17 143/250/17 141/174/17
f 141/174/18 139/180/18 140/176/18
f 137/177/19 135/131/19 136/133/19
f 133/179/20 151/249/20 152/134/20
f 139/180/21 137/253/21 138/178/21
f 168/161/22 158/160/22 159/143/22
f 156/146/22 157/141/22 167/140/22
f 153/130/22 155/165/22 165/173/22
f 164/167/22 172/172/22 162/163/22
f 170/166/22 160/144/22 161/162/22
f 153/130/22 154/129/22 162/163/22
f 162/163/22 161/162/22 153/130/22
f 161/162/22 160/144/22 153/130/22
f 160/144/22 159/143/22 158/160/22
f 158/160/22 157/141/22 160/144/22
f 157/141/22 156/146/22 160/144/22
f 156/146/22 155/165/22 160/144/22
f 206/181/23 205/194/23 207/182/23
f 214/184/4 244/205/4 243/185/4
f 194/187/24 193/237/24 195/188/24
f 212/190/25 210/223/25 209/191/25
f 204/193/26 203/232/26 205/194/26
f 227/195/8 235/210/8 247/196/8
f 219/198/8 249/211/8 250/199/8
f 216/201/4 246/209/4 236/202/4
f 245/204/22 243/185/22 244/205/22
f 244/205/22 252/215/22 251/206/22
f 251/206/22 250/199/22 247/196/22
f 250/199/22 249/211/22 247/196/22
f 249/211/22 248/213/22 247/196/22
f 247/196/22 246/209/22 251/206/22
f 246/209/22 245/204/22 251/206/22
f 243/185/22 245/204/22 233/207/22
f 246/209/22 247/196/22 235/210/22
f 249/211/22 237/254/22 238/212/22
f 251/206/22 239/255/22 240/214/22
f 252/215/22 244/205/22 241/216/22
f 218/218/10 248/213/10 238/212/10
f 221/220/11 251/206/11 252/215/11
f 229/222/12 237/254/12 249/211/12
f 210/223/27 208/183/27 207/182/27
f 215/224/1 245/204/1 246/209/1
f 220/200/14 250/199/14 240/214/14
f 224/226/15 241/216/15 244/205/15
f 231/227/4 239/255/4 251/206/4
f 213/186/11 243/185/11 234/208/11
f 218/218/14 217/197/14 247/196/14
f 222/221/16 252/215/16 242/217/16
f 225/230/14 233/207/14 245/204/14
f 202/231/28 201/234/28 203/232/28
f 200/233/29 199/238/29 201/234/29
f 196/189/30 195/188/30 197/235/30
f 212/190/31 211/192/31 193/237/31
f 198/236/32 197/256/32 199/238/32
f 228/219/9 229/222/9 219/198/9
f 227/195/9 217/197/9 216/201/9
f 225/230/9 215/224/9 213/186/9
f 224/226/9 214/184/9 222/221/9
f 231/227/9 221/220/9 220/200/9
f 222/221/9 214/184/9 213/186/9
f 213/186/9 215/224/9 222/221/9
f 215/224/9 216/201/9 222/221/9
f 216/201/9 217/197/9 220/200/9
f 217/197/9 218/218/9 220/200/9
f 218/218/9 219/198/9 220/200/9
f 220/200/9 221/220/9 216/201/9
