# Blender v2.92.0 OBJ File: 'coupe.blend'
# www.blender.org
mtllib coupe_screen.mtl
o screen_Cube.137
v 1.288319 1.406114 0.611324
v 1.288319 1.214746 0.611324
v 1.044610 1.406114 0.725750
v 1.044610 1.214746 0.725750
v 1.141875 1.406114 0.670142
v 1.141875 1.214746 0.670142
v 0.000000 1.731853 0.318017
v 0.551435 1.731853 0.318017
v 0.000000 1.218867 0.665186
v 0.782371 1.218867 0.665186
v -1.288319 1.406114 0.611324
v -1.288319 1.214746 0.611324
v -1.044610 1.406114 0.725750
v -1.044610 1.214746 0.725750
v -1.141875 1.406114 0.670142
v -1.141875 1.214746 0.670142
v -0.551435 1.731853 0.318017
v -0.782371 1.218867 0.665186
v 0.000000 1.209659 0.651580
v 0.782371 1.209659 0.651580
v 0.551435 1.722645 0.304411
v 0.000000 1.722645 0.304411
v -0.782371 1.209659 0.651580
v -0.551435 1.722645 0.304411
vt 0.062721 0.313279
vt 0.062721 0.313279
vt 0.062721 0.313279
vt 0.062721 0.313279
vt 0.062721 0.313279
vt 0.062721 0.313279
vt 0.062721 0.313279
vt 0.062721 0.313279
vt 0.062721 0.313279
vt 0.062721 0.313279
vt 0.057059 0.305098
vt 0.057059 0.305098
vt 0.057059 0.305098
vt 0.057059 0.305098
vt 0.057059 0.305098
vt 0.000000 0.000000
vt 0.000000 0.000000
vt 0.000000 0.000000
vt 0.000000 0.000000
vt 0.062721 0.313279
vt 0.062721 0.313279
vt 0.057059 0.305098
vt 0.000000 0.000000
vt 0.000000 0.000000
vn -0.4963 0.0000 -0.8681
vn -0.3727 0.0000 -0.9280
vn 0.4963 0.0000 -0.8681
vn 0.3727 0.0000 -0.9280
vn 0.0000 -0.5605 -0.8282
vn 0.0000 0.5605 0.8282
usemtl windows.002
s 1
f 6/1/1 3/2/1 5/3/1
f 2/4/2 5/3/2 1/5/2
f 13/6/3 16/7/3 15/8/3
f 15/8/4 12/9/4 11/10/4
f 19/11/5 21/12/5 20/13/5
f 19/11/5 24/14/5 22/15/5
f 9/16/6 8/17/6 7/18/6
f 17/19/6 9/16/6 7/18/6
f 6/1/1 4/20/1 3/2/1
f 2/4/2 6/1/2 5/3/2
f 13/6/3 14/21/3 16/7/3
f 15/8/4 16/7/4 12/9/4
f 19/11/5 22/15/5 21/12/5
f 19/11/5 23/22/5 24/14/5
f 9/16/6 10/23/6 8/17/6
f 17/19/6 18/24/6 9/16/6
