# Blender v2.92.0 OBJ File: 'coupe.blend'
# www.blender.org
mtllib coupe_flight.mtl
o white.001_Cube.001
v 0.850868 0.877585 2.461739
v 0.892519 0.808097 2.463976
v 0.888457 0.969993 2.207043
v 0.942557 0.842627 2.206545
v 0.446371 0.687040 2.717506
v 0.440181 0.666658 2.723089
v -0.850868 0.877585 2.461739
v -0.892519 0.808097 2.463976
v -0.888457 0.969993 2.207043
v -0.942557 0.842627 2.206545
v -0.446371 0.687040 2.717506
v -0.440181 0.666658 2.723089
vt 0.807059 0.680098
vt 0.807059 0.680098
vt 0.807059 0.680098
vt 0.807059 0.680098
vt 0.807059 0.680098
vt 0.807059 0.680098
vt 0.807059 0.680098
vt 0.807059 0.680098
vt 0.807059 0.680098
vt 0.807059 0.680098
vt 0.807059 0.680098
vt 0.807059 0.680098
vn 0.8784 0.4007 0.2607
vn 0.8490 0.4704 0.2406
vn 0.8316 0.5058 0.2295
vn 0.4181 0.2733 0.8663
vn 0.4687 0.1088 0.8767
vn 0.4718 0.0968 0.8764
vn -0.8784 0.4007 0.2607
vn -0.8490 0.4704 0.2406
vn -0.8873 0.3758 0.2673
vn -0.4181 0.2733 0.8663
vn -0.4687 0.1088 0.8767
vn -0.4166 0.2776 0.8657
vn 0.8873 0.3758 0.2673
vn 0.4166 0.2776 0.8657
vn -0.8316 0.5058 0.2295
vn -0.4718 0.0968 0.8764
usemtl headlights.002
s 1
f 4/1/1 1/2/2 2/3/3
f 2/3/4 5/4/5 6/5/6
f 10/6/7 7/7/8 9/8/9
f 8/9/10 11/10/11 7/7/12
f 4/1/1 3/11/13 1/2/2
f 2/3/4 1/2/14 5/4/5
f 10/6/7 8/9/15 7/7/8
f 8/9/10 12/12/16 11/10/11
