# Blender v2.92.0 OBJ File: 'uploads_files_1947863_island.blend'
# www.blender.org
mtllib nis-yellow.mtl
o yellow_model.007
v 1.075228 0.266369 -3.004434
v 1.071080 0.258628 -2.975843
v 1.068043 0.237480 -2.954914
v 1.066932 0.208590 -2.947253
v 1.068043 0.179701 -2.954914
v 1.071080 0.158552 -2.975843
v 1.075228 0.150811 -3.004433
v 1.079376 0.158552 -3.033024
v 1.082413 0.179701 -3.053953
v 1.083524 0.208590 -3.061614
v 1.082413 0.237480 -3.053953
v 1.079376 0.258628 -3.033024
v 1.044606 0.279922 -3.009143
v 1.039705 0.270366 -2.973816
v 1.054496 0.270366 -2.971539
v 1.059504 0.279922 -3.006852
v 1.036117 0.244256 -2.947954
v 1.050830 0.244256 -2.945688
v 1.034804 0.208590 -2.938488
v 1.049487 0.208590 -2.936227
v 1.036117 0.172924 -2.947954
v 1.050830 0.172924 -2.945688
v 1.039705 0.146815 -2.973815
v 1.054496 0.146815 -2.971539
v 1.044606 0.137258 -3.009143
v 1.059504 0.137258 -3.006852
v 1.049508 0.146815 -3.044471
v 1.064512 0.146815 -3.042165
v 1.053096 0.172924 -3.070333
v 1.068179 0.172924 -3.068015
v 1.054409 0.208590 -3.079799
v 1.069521 0.208590 -3.077477
v 1.053096 0.244256 -3.070333
v 1.068179 0.244256 -3.068015
v 1.049508 0.270366 -3.044471
v 1.064512 0.270366 -3.042165
v -0.286852 0.573176 -2.895035
v -0.230837 0.573176 -2.917067
v -0.230837 0.604879 -2.917067
v -0.286852 0.604879 -2.895035
v -0.193144 0.573176 -2.964888
v -0.193144 0.604879 -2.964888
v -0.183871 0.573176 -3.025674
v -0.183871 0.604879 -3.025674
v -0.206383 0.573176 -3.083035
v -0.206383 0.604879 -3.083035
v -0.255529 0.573176 -3.121499
v -0.255529 0.604879 -3.121499
v -0.318138 0.573176 -3.130741
v -0.318138 0.604879 -3.130741
v -0.376553 0.573176 -3.108389
v -0.376553 0.604879 -3.108389
v -0.414246 0.573176 -3.060563
v -0.414246 0.604879 -3.060563
v -0.421118 0.573176 -3.000093
v -0.421118 0.604879 -3.000093
v -0.396206 0.573176 -2.943053
v -0.396206 0.604879 -2.943053
v -0.347060 0.573176 -2.904595
v -0.347060 0.604879 -2.904595
v -0.332004 0.668285 -2.941799
v -0.364249 0.668285 -2.967030
v -0.380324 0.668285 -3.004495
v -0.375545 0.668285 -3.044209
v -0.350814 0.668285 -3.075586
v -0.312758 0.668285 -3.090212
v -0.271952 0.668285 -3.084115
v -0.239708 0.668285 -3.058882
v -0.224666 0.668285 -3.021278
v -0.230478 0.668285 -2.981428
v -0.255209 0.668285 -2.950053
v -0.292232 0.668285 -2.935565
v -0.288938 0.557324 -2.910749
v -0.240252 0.557324 -2.929860
v -0.240252 0.573176 -2.929860
v -0.288938 0.573176 -2.910749
v -0.207585 0.557324 -2.971304
v -0.207585 0.573176 -2.971304
v -0.199687 0.557324 -3.023970
v -0.199687 0.573176 -3.023970
v -0.219337 0.557324 -3.073667
v -0.219337 0.573176 -3.073667
v -0.261930 0.557324 -3.107001
v -0.261930 0.573176 -3.107000
v -0.316052 0.557324 -3.115028
v -0.316052 0.573176 -3.115028
v -0.366540 0.557324 -3.095676
v -0.366540 0.573176 -3.095676
v -0.399207 0.557324 -3.054228
v -0.399207 0.573176 -3.054228
v -0.405302 0.557324 -3.001800
v -0.405302 0.573176 -3.001800
v -0.383849 0.557324 -2.952344
v -0.383849 0.573176 -2.952344
v -0.341256 0.557324 -2.919014
v -0.341257 0.573176 -2.919014
v -0.284450 0.478067 -2.876938
v -0.220047 0.478067 -2.902326
v -0.176567 0.478067 -2.957491
v -0.165658 0.478067 -3.027633
v -0.191413 0.478067 -3.093825
v -0.248105 0.478067 -3.138196
v -0.320539 0.478067 -3.148833
v -0.388135 0.478067 -3.123018
v -0.431614 0.478067 -3.067846
v -0.439330 0.478067 -2.998125
v -0.410381 0.478067 -2.932360
v -0.353690 0.478067 -2.887995
v -0.270862 0.668286 -3.016299
v -0.277100 0.668285 -3.031567
v -0.277100 0.731692 -3.031567
v -0.270862 0.731692 -3.016299
v -0.290206 0.668285 -3.041822
v -0.290206 0.731692 -3.041822
v -0.306666 0.668285 -3.044316
v -0.306666 0.731692 -3.044316
v -0.322010 0.668285 -3.038388
v -0.322009 0.731692 -3.038389
v -0.332061 0.668285 -3.025637
v -0.332061 0.731692 -3.025637
v -0.334128 0.668285 -3.009478
v -0.334128 0.731692 -3.009478
v -0.327719 0.668285 -2.994233
v -0.327719 0.731692 -2.994232
v -0.314613 0.668285 -2.983978
v -0.314613 0.731692 -2.983978
v -0.298323 0.668285 -2.981461
v -0.298323 0.731692 -2.981461
v -0.283151 0.668285 -2.987366
v -0.283151 0.731692 -2.987366
v -0.273100 0.668285 -3.000118
v -0.273100 0.731692 -3.000118
v -0.293129 0.747543 -2.996298
v -0.319001 0.747543 -3.003967
v -0.311910 0.747543 -3.029473
v -0.285940 0.747543 -3.021816
v -0.296238 0.699989 -2.965748
v -0.273543 0.699989 -2.974596
v -0.273543 0.715840 -2.974596
v -0.296238 0.715840 -2.965748
v -0.258466 0.699989 -2.993723
v -0.258466 0.715840 -2.993723
v -0.255045 0.699989 -3.018004
v -0.255045 0.715840 -3.018004
v -0.264339 0.699989 -3.040914
v -0.264339 0.715840 -3.040914
v -0.283997 0.699989 -3.056297
v -0.283997 0.715840 -3.056297
v -0.308752 0.699989 -3.060030
v -0.308752 0.715840 -3.060030
v -0.331831 0.699989 -3.051130
v -0.331831 0.715840 -3.051131
v -0.346908 0.699989 -3.032002
v -0.346908 0.715840 -3.032002
v -0.349944 0.699989 -3.007771
v -0.349944 0.715840 -3.007771
v -0.340267 0.699989 -2.984913
v -0.340267 0.715840 -2.984913
v -0.320609 0.699989 -2.969531
v -0.320609 0.715840 -2.969531
vn -0.0394 0.9659 0.2558
vn -0.0393 0.9659 0.2558
vn -0.1076 0.7071 0.6989
vn -0.1470 0.2588 0.9547
vn -0.1470 -0.2588 0.9547
vn -0.1076 -0.7071 0.6989
vn -0.0394 -0.9659 0.2558
vn 0.0393 -0.9659 -0.2558
vn 0.1074 -0.7071 -0.6989
vn 0.1467 -0.2588 -0.9547
vn 0.1467 0.2588 -0.9547
vn 0.1466 0.2588 -0.9547
vn 0.1074 0.7071 -0.6989
vn 0.0393 0.9659 -0.2558
vn 0.7063 0.5460 -0.4506
vn 0.7067 0.5460 -0.4500
vn 0.7073 0.5460 -0.4491
vn -0.9905 -0.0000 -0.1374
vn 0.7348 0.1998 -0.6482
vn 0.7349 0.1999 -0.6480
vn 0.7351 0.2000 -0.6477
vn 0.7348 -0.1998 -0.6482
vn 0.7349 -0.1999 -0.6480
vn 0.7346 -0.1997 -0.6485
vn 0.7063 -0.5460 -0.4506
vn 0.7067 -0.5460 -0.4500
vn 0.7058 -0.5460 -0.4514
vn 0.6571 -0.7460 -0.1080
vn 0.6577 -0.7456 -0.1073
vn 0.6564 -0.7465 -0.1089
vn 0.6004 -0.7462 0.2877
vn 0.6010 -0.7455 0.2882
vn 0.5996 -0.7470 0.2872
vn 0.5513 -0.5463 0.6306
vn 0.5518 -0.5457 0.6306
vn 0.5507 -0.5469 0.6305
vn 0.5231 -0.1999 0.8285
vn 0.5233 -0.1998 0.8284
vn 0.5229 -0.2001 0.8286
vn 0.5231 0.1999 0.8285
vn 0.5233 0.1998 0.8284
vn 0.5236 0.1995 0.8283
vn 0.5513 0.5463 0.6306
vn 0.5518 0.5457 0.6307
vn 0.5525 0.5449 0.6307
vn 0.6004 0.7462 0.2877
vn 0.6010 0.7455 0.2882
vn 0.6019 0.7445 0.2889
vn 0.6571 0.7460 -0.1080
vn 0.6577 0.7456 -0.1073
vn 0.6585 0.7451 -0.1062
vn 0.3660 0.0000 0.9306
vn 0.7854 0.0000 0.6190
vn 0.9886 0.0000 0.1508
vn 0.9309 0.0000 -0.3653
vn 0.6163 0.0000 -0.7875
vn 0.1460 0.0000 -0.9893
vn -0.3574 0.0000 -0.9340
vn -0.7854 0.0000 -0.6190
vn -0.9936 0.0000 -0.1129
vn -0.9164 0.0000 0.4002
vn -0.6163 -0.0000 0.7875
vn -0.1568 -0.0000 0.9876
vn -0.5265 0.5198 0.6728
vn -0.0000 -1.0000 0.0000
vn -0.7820 0.5236 0.3381
vn -0.7811 0.5243 0.3392
vn -0.7837 0.5222 0.3363
vn -0.8393 0.5346 -0.0986
vn -0.8390 0.5354 -0.0971
vn -0.8399 0.5333 -0.1011
vn -0.6618 0.5385 -0.5216
vn -0.3034 0.5316 -0.7908
vn -0.3030 0.5318 -0.7908
vn -0.3026 0.5320 -0.7908
vn 0.1249 0.5274 -0.8404
vn 0.1246 0.5272 -0.8406
vn 0.1241 0.5269 -0.8408
vn 0.5229 0.5293 -0.6681
vn 0.5229 0.5294 -0.6681
vn 0.7874 0.5313 -0.3124
vn 0.7884 0.5306 -0.3113
vn 0.7858 0.5327 -0.3143
vn 0.8390 0.5296 0.1248
vn 0.8393 0.5288 0.1262
vn 0.8385 0.5310 0.1223
vn 0.6663 0.5293 0.5252
vn 0.3095 0.5304 0.7892
vn 0.3099 0.5302 0.7892
vn 0.3104 0.5299 0.7892
vn -0.1325 0.5252 0.8406
vn -0.1329 0.5254 0.8404
vn -0.1334 0.5257 0.8401
vn -0.0000 1.0000 0.0000
vn 0.3654 0.0000 0.9309
vn 0.9889 0.0000 0.1483
vn 0.9299 0.0000 -0.3677
vn 0.1467 0.0000 -0.9892
vn -0.3579 0.0000 -0.9338
vn -0.9933 0.0000 -0.1155
vn -0.9174 0.0000 0.3979
vn -0.1560 0.0000 0.9878
vn -0.1560 0.0000 0.9877
vn 0.3380 0.3849 0.8588
vn 0.3377 0.3851 0.8588
vn 0.3372 0.3855 0.8589
vn 0.7253 0.3835 0.5717
vn 0.9129 0.3833 0.1402
vn 0.9128 0.3840 0.1391
vn 0.9131 0.3821 0.1420
vn 0.8591 0.3860 -0.3362
vn 0.8584 0.3867 -0.3371
vn 0.8602 0.3848 -0.3347
vn 0.5688 0.3852 -0.7267
vn 0.5687 0.3852 -0.7267
vn 0.1347 0.3827 -0.9140
vn 0.1350 0.3828 -0.9139
vn 0.1355 0.3832 -0.9137
vn -0.3294 0.3866 -0.8614
vn -0.3296 0.3864 -0.8614
vn -0.3301 0.3861 -0.8614
vn -0.7222 0.3931 -0.5691
vn -0.7222 0.3931 -0.5692
vn -0.9149 0.3902 -0.1031
vn -0.9151 0.3895 -0.1042
vn -0.9146 0.3914 -0.1012
vn -0.8475 0.3794 0.3711
vn -0.8482 0.3788 0.3703
vn -0.8464 0.3806 0.3726
vn -0.5712 0.3753 0.7300
vn -0.1453 0.3808 0.9132
vn -0.1450 0.3806 0.9133
vn -0.1443 0.3802 0.9136
vn 0.9921 0.0000 -0.1258
vn 0.7991 0.0000 -0.6012
vn 0.4006 0.0000 -0.9162
vn 0.4006 0.0000 -0.9163
vn -0.1067 0.0000 -0.9943
vn -0.5984 -0.0000 -0.8012
vn -0.5984 -0.0001 -0.8012
vn -0.9253 0.0001 -0.3793
vn -0.9253 0.0000 -0.3793
vn -0.9907 -0.0000 0.1358
vn -0.9907 -0.0000 0.1357
vn -0.7991 -0.0000 0.6012
vn -0.4032 0.0000 0.9151
vn -0.4032 -0.0001 0.9151
vn 0.1091 0.0000 0.9940
vn 0.1092 -0.0000 0.9940
vn 0.5983 0.0000 0.8012
vn 0.9214 -0.0000 0.3887
vn 0.9214 -0.0001 0.3887
vn 0.6004 0.6446 0.4733
vn 0.2897 0.6017 0.7443
vn -0.0975 0.7693 0.6314
vn -0.4759 0.6353 0.6082
vn -0.7393 0.5974 0.3108
vn -0.6257 0.7760 -0.0800
vn -0.5988 0.6470 -0.4720
vn -0.2877 0.6022 -0.7447
vn 0.0955 0.7702 -0.6306
vn 0.4746 0.6378 -0.6066
vn 0.7410 0.5994 -0.3028
vn 0.7040 0.7035 0.0974
vn -0.2019 0.7037 0.6812
vn 0.6313 0.7549 0.1778
vn -0.6770 0.7115 -0.1882
vn 0.2008 0.7042 -0.6811
vn 0.3633 -0.0000 0.9317
vn 0.7853 -0.0000 0.6191
vn 0.9902 0.0000 0.1395
vn 0.9267 0.0000 -0.3759
vn 0.1491 -0.0000 -0.9888
vn -0.3598 -0.0000 -0.9330
vn -0.9922 0.0000 -0.1243
vn -0.9209 0.0000 0.3899
vn -0.6163 0.0000 0.7876
vn -0.1534 0.0000 0.9882
vn -0.1075 -0.7071 0.6989
vn 0.7058 0.5460 -0.4514
vn 0.7346 0.1997 -0.6485
vn 0.7351 -0.2000 -0.6477
vn 0.7073 -0.5460 -0.4491
vn 0.6585 -0.7450 -0.1062
vn 0.6019 -0.7445 0.2889
vn 0.5525 -0.5449 0.6307
vn 0.5236 -0.1995 0.8283
vn 0.5229 0.2001 0.8286
vn 0.5507 0.5470 0.6305
vn 0.5997 0.7469 0.2872
vn 0.6564 0.7465 -0.1089
vn -0.7798 0.5253 0.3406
vn -0.8386 0.5364 -0.0953
vn -0.3039 0.5313 -0.7908
vn 0.1255 0.5278 -0.8400
vn 0.7896 0.5295 -0.3099
vn 0.8396 0.5278 0.1281
vn 0.3089 0.5307 0.7893
vn -0.1318 0.5248 0.8410
vn 0.3385 0.3846 0.8588
vn 0.9125 0.3855 0.1368
vn 0.8570 0.3881 -0.3389
vn 0.1343 0.3823 -0.9142
vn -0.3290 0.3868 -0.8615
vn -0.9155 0.3881 -0.1064
vn -0.8496 0.3773 0.3685
vn -0.1458 0.3812 0.9129
vn -0.1066 -0.0000 -0.9943
vn -0.6162 0.0000 0.7876
usemtl mat12
s 1
f 14//1 16//1 13//2
f 17//3 15//3 14//3
f 19//4 18//4 17//4
f 19//5 22//5 20//5
f 21//6 24//6 22//6
f 23//7 26//7 24//7
f 25//8 28//8 26//8
f 27//9 30//9 28//9
f 29//10 32//10 30//10
f 33//11 32//11 31//12
f 35//13 34//13 33//13
f 13//14 36//14 35//14
f 11//15 36//16 12//17
f 21//18 17//18 13//18
f 10//19 34//20 11//21
f 10//22 30//23 32//24
f 9//25 28//26 30//27
f 8//28 26//29 28//30
f 7//31 24//32 26//33
f 6//34 22//35 24//36
f 5//37 20//38 22//39
f 3//40 20//41 4//42
f 2//43 18//44 3//45
f 1//46 15//47 2//48
f 12//49 16//50 1//51
f 38//52 40//52 37//52
f 38//53 42//53 39//53
f 43//54 42//54 41//54
f 45//55 44//55 43//55
f 47//56 46//56 45//56
f 47//57 50//57 48//57
f 51//58 50//58 49//58
f 51//59 54//59 52//59
f 53//60 56//60 54//60
f 57//61 56//61 55//61
f 59//62 58//62 57//62
f 59//63 40//63 60//63
f 61//64 58//64 60//64
f 41//65 38//65 59//65
f 63//66 58//67 62//68
f 64//69 56//70 63//71
f 64//72 52//72 54//72
f 65//73 50//74 52//75
f 66//76 48//77 50//78
f 68//79 48//79 67//80
f 69//81 46//82 68//83
f 70//84 44//85 69//86
f 71//87 42//87 70//87
f 71//88 40//89 39//90
f 72//91 60//92 40//93
f 62//94 61//94 67//94
f 74//95 76//95 73//95
f 74//53 78//53 75//53
f 79//96 78//96 77//96
f 79//97 82//97 80//97
f 81//56 84//56 82//56
f 83//98 86//98 84//98
f 87//99 86//99 85//99
f 87//59 90//59 88//59
f 91//100 90//100 89//100
f 91//101 94//101 92//101
f 93//62 96//62 94//62
f 95//102 76//102 96//103
f 94//94 96//94 84//94
f 97//104 74//105 73//106
f 99//107 74//107 98//107
f 100//108 77//109 99//110
f 101//111 79//112 100//113
f 102//114 81//115 101//114
f 102//116 85//117 83//118
f 103//119 87//120 85//121
f 104//122 89//122 87//123
f 106//124 89//125 105//126
f 107//127 91//128 106//129
f 107//130 95//130 93//130
f 108//131 73//132 95//133
f 102//65 100//65 108//65
f 109//134 111//134 112//134
f 113//135 111//135 110//135
f 113//136 116//137 114//137
f 115//138 118//138 116//138
f 119//139 118//139 117//140
f 119//141 122//142 120//142
f 123//143 122//144 121//143
f 125//145 124//145 123//145
f 127//146 126//146 125//147
f 129//148 128//149 127//148
f 131//150 130//150 129//150
f 109//151 132//151 131//152
f 133//153 130//153 132//153
f 110//65 109//65 125//65
f 133//154 128//154 130//154
f 134//155 126//155 128//155
f 134//156 124//156 126//156
f 134//157 122//157 124//157
f 135//158 120//158 122//158
f 135//159 118//159 120//159
f 135//160 116//160 118//160
f 136//161 114//161 116//161
f 136//162 111//162 114//162
f 136//163 112//163 111//163
f 136//164 132//164 112//164
f 136//94 134//94 133//94
f 128//165 133//165 134//165
f 136//166 133//166 132//166
f 122//167 134//167 135//167
f 116//168 135//168 136//168
f 138//169 140//169 137//169
f 141//170 139//170 138//170
f 141//171 144//171 142//171
f 143//172 146//172 144//172
f 145//56 148//56 146//56
f 147//173 150//173 148//173
f 149//174 152//174 150//174
f 151//59 154//59 152//59
f 153//175 156//175 154//175
f 157//176 156//176 155//176
f 159//177 158//62 157//62
f 137//178 160//178 159//178
f 158//94 160//94 148//94
f 141//65 138//65 137//65
f 14//1 15//1 16//1
f 17//3 18//3 15//3
f 19//4 20//4 18//4
f 19//5 21//5 22//5
f 21//6 23//179 24//6
f 23//7 25//7 26//7
f 25//8 27//8 28//8
f 27//9 29//9 30//9
f 29//10 31//10 32//10
f 33//11 34//11 32//11
f 35//13 36//13 34//13
f 13//14 16//14 36//14
f 11//15 34//180 36//16
f 13//18 35//18 29//18
f 35//18 33//18 29//18
f 33//18 31//18 29//18
f 29//18 27//18 25//18
f 25//18 23//18 21//18
f 21//18 19//18 17//18
f 17//18 14//18 13//18
f 29//18 25//18 13//18
f 25//18 21//18 13//18
f 10//19 32//181 34//20
f 10//22 9//182 30//23
f 9//25 8//183 28//26
f 8//28 7//184 26//29
f 7//31 6//185 24//32
f 6//34 5//186 22//35
f 5//37 4//187 20//38
f 3//40 18//188 20//41
f 2//43 15//189 18//44
f 1//46 16//190 15//47
f 12//49 36//191 16//50
f 38//52 39//52 40//52
f 38//53 41//53 42//53
f 43//54 44//54 42//54
f 45//55 46//55 44//55
f 47//56 48//56 46//56
f 47//57 49//57 50//57
f 51//58 52//58 50//58
f 51//59 53//59 54//59
f 53//60 55//60 56//60
f 57//61 58//61 56//61
f 59//62 60//62 58//62
f 59//63 37//63 40//63
f 61//64 62//64 58//64
f 37//65 59//65 38//65
f 59//65 57//65 47//65
f 45//65 59//65 47//65
f 57//65 55//65 49//65
f 55//65 53//65 51//65
f 49//65 55//65 51//65
f 49//65 47//65 57//65
f 45//65 43//65 59//65
f 43//65 41//65 59//65
f 63//66 56//192 58//67
f 64//69 54//193 56//70
f 64//72 65//72 52//72
f 65//73 66//194 50//74
f 66//76 67//195 48//77
f 68//79 46//79 48//79
f 69//81 44//196 46//82
f 70//84 42//197 44//85
f 71//87 39//87 42//87
f 71//88 72//198 40//89
f 72//91 61//199 60//92
f 61//94 72//94 70//94
f 72//94 71//94 70//94
f 70//94 69//94 61//94
f 69//94 68//94 61//94
f 68//94 67//94 61//94
f 67//94 66//94 62//94
f 66//94 65//94 63//94
f 62//94 66//94 63//94
f 65//94 64//94 63//94
f 74//95 75//95 76//95
f 74//53 77//53 78//53
f 79//96 80//96 78//96
f 79//97 81//97 82//97
f 81//56 83//56 84//56
f 83//98 85//98 86//98
f 87//99 88//99 86//99
f 87//59 89//59 90//59
f 91//100 92//100 90//100
f 91//101 93//101 94//101
f 93//62 95//62 96//62
f 95//102 73//102 76//102
f 96//94 76//94 75//94
f 75//94 78//94 96//94
f 78//94 80//94 96//94
f 80//94 82//94 96//94
f 82//94 84//94 96//94
f 84//94 86//94 94//94
f 86//94 88//94 92//94
f 94//94 86//94 92//94
f 88//94 90//94 92//94
f 97//104 98//200 74//105
f 99//107 77//107 74//107
f 100//108 79//201 77//109
f 101//111 81//202 79//112
f 102//114 83//115 81//115
f 102//116 103//203 85//117
f 103//119 104//204 87//120
f 104//122 105//122 89//122
f 106//124 91//205 89//125
f 107//127 93//206 91//128
f 107//130 108//130 95//130
f 108//131 97//207 73//132
f 97//65 108//65 98//65
f 108//65 107//65 102//65
f 100//65 102//65 101//65
f 107//65 106//65 103//65
f 106//65 105//65 104//65
f 103//65 106//65 104//65
f 103//65 102//65 107//65
f 100//65 99//65 108//65
f 99//65 98//65 108//65
f 109//134 110//134 111//134
f 113//135 114//135 111//135
f 113//136 115//136 116//137
f 115//138 117//208 118//138
f 119//139 120//139 118//139
f 119//141 121//142 122//142
f 123//143 124//144 122//144
f 125//145 126//145 124//145
f 127//146 128//146 126//146
f 129//148 130//149 128//149
f 131//150 132//150 130//150
f 109//151 112//151 132//151
f 109//65 131//65 127//65
f 131//65 129//65 127//65
f 127//65 125//65 109//65
f 125//65 123//65 113//65
f 123//65 121//65 115//65
f 115//65 121//65 117//65
f 121//65 119//65 117//65
f 115//65 113//65 123//65
f 113//65 110//65 125//65
f 136//94 135//94 134//94
f 138//169 139//169 140//169
f 141//170 142//53 139//170
f 141//171 143//171 144//171
f 143//172 145//172 146//172
f 145//56 147//56 148//56
f 147//173 149//173 150//173
f 149//174 151//174 152//174
f 151//59 153//59 154//59
f 153//175 155//175 156//175
f 157//176 158//176 156//176
f 159//177 160//209 158//62
f 137//178 140//178 160//178
f 160//94 140//94 144//94
f 140//94 139//94 142//94
f 144//94 140//94 142//94
f 144//94 146//94 160//94
f 146//94 148//94 160//94
f 148//94 150//94 158//94
f 150//94 152//94 156//94
f 158//94 150//94 156//94
f 152//94 154//94 156//94
f 137//65 159//65 143//65
f 159//65 157//65 147//65
f 145//65 159//65 147//65
f 157//65 155//65 149//65
f 155//65 153//65 151//65
f 149//65 155//65 151//65
f 149//65 147//65 157//65
f 145//65 143//65 159//65
f 143//65 141//65 137//65
