# Blender v2.92.0 OBJ File: 'uploads_files_1947863_island.blend'
# www.blender.org
mtllib nis-green.mtl
o green_Icosphere.003
v 5.652699 -7.561542 1.019055
v 1.434305 -1.313981 -0.188498
v 6.538895 -6.595369 0.721559
v 4.558522 -5.067501 5.276445
v 0.955549 -6.939828 -6.637965
v 6.481764 -7.111366 1.944997
v 10.923007 -5.803005 -1.403140
v 5.447298 -5.650083 4.805452
v 1.073024 -2.139600 -0.657391
v 4.347688 -5.018195 3.899001
v 6.179012 -5.532259 -2.227287
v 6.295309 -6.790758 0.008656
v 2.262319 -5.073401 -3.117349
v 0.209870 -6.660749 -6.620302
v 6.362817 -6.506855 -0.551167
v 6.188643 -5.936764 -1.565600
v 1.204421 -5.275120 -4.025720
v 2.295178 -3.696972 -1.123101
v 2.069729 -3.216544 -0.868668
v 7.649707 -5.340387 -1.059537
v 1.254198 -6.634680 -6.333204
v 0.566496 -1.293869 -0.268109
v 7.453405 -4.938413 2.203795
v 4.432236 -5.363266 4.471692
v 4.111839 -4.331724 3.936591
v 7.456055 -5.355835 1.696925
v 7.648517 -5.458423 0.680177
v 1.248568 -3.850162 -3.874521
v 7.014623 -5.877072 -2.259686
v 2.372730 -4.034993 -1.591067
v 5.925499 -7.519842 0.400813
v 6.330836 -7.014400 1.222565
v 11.295137 -5.634304 -0.229635
v 7.132050 -5.348382 -1.692829
v 0.290248 -6.154811 -6.292333
v 0.894734 -6.294020 -6.149343
v 0.935529 -4.631840 -4.272904
v 1.952394 -2.399628 -0.241087
v 1.475305 -4.797282 -3.638597
v 7.105266 -5.847443 0.583202
v 6.595415 -6.200220 0.136461
v 1.890023 -3.291754 -1.521041
v 6.812653 -5.617901 -0.040552
v 2.502000 -5.690034 -3.129446
v 6.769337 -6.712830 1.521472
v 15.075099 -8.122983 0.015964
v 15.080868 -8.157198 -0.677566
v 7.034781 -5.123405 -0.600927
v 3.978683 -3.546551 2.630085
v 3.862895 -3.306212 1.905346
v 0.060771 -7.866059 -6.561830
v 4.155583 -4.761202 4.691820
v 7.180638 -5.270776 2.378392
v 7.595926 -5.489990 1.054382
v 9.492700 -4.728925 -5.426639
v 14.969602 -8.083342 0.755887
v 10.404318 -8.372994 -7.022285
v 9.553982 -9.516443 -6.892833
v 10.558507 -9.056552 -6.576220
v 9.990900 -9.009497 -6.909339
v 1.292711 -6.198795 -4.683679
v 1.721665 -5.946518 -3.901753
v 6.460867 -5.479844 -0.925939
v 8.882425 -3.805962 1.597652
v 14.989609 -8.742426 -0.342025
v 12.205199 -6.124494 -0.821981
v 0.097481 -2.029053 -0.424513
v 10.846882 -7.976218 -6.918021
v 10.922529 -4.950755 -2.929214
v 9.684372 -7.851776 -7.555371
v 7.553398 -3.984031 -7.152541
v 7.098460 -4.867299 -1.132743
v 4.977112 -4.543123 5.761358
v 3.837011 -2.898819 3.248363
v 8.146505 -3.830114 2.268955
v 7.587752 -5.296229 0.178615
v 9.385965 -3.453243 1.568191
v 9.419637 -8.955952 -7.224082
v 10.652262 -9.640635 -6.162501
v 6.554288 -4.905527 -1.624510
v 9.870665 -8.462836 -7.257521
v 8.984179 -9.458274 -7.215638
v 10.117964 -9.565393 -6.561195
v 11.512958 -5.876953 -1.570888
v 15.118645 -5.704496 -1.288191
v 14.814093 -5.876784 -1.917801
v 10.671823 -4.989319 0.409246
v 9.122200 -4.762651 0.679524
v 15.263841 -6.164924 -1.727166
v 15.203904 -5.621373 -0.558462
v 9.696342 -4.584303 0.819773
v 15.316765 -6.802794 -1.382693
v 15.305937 -6.853103 -0.675026
v 15.077060 -7.512515 0.419387
v 15.173635 -7.523586 -0.320487
v 15.179097 -7.516739 -1.020234
v 5.722316 -4.306253 5.605684
v 15.040590 -8.157652 -1.354608
v 7.748792 -4.527608 2.096759
v 8.618086 -4.592611 1.088983
v 9.216233 -4.354453 -5.448808
v 15.137098 -7.480013 -1.703382
v 15.296272 -6.225120 -0.272489
v 15.178234 -6.898660 0.078822
v 11.636726 -5.562526 -2.513098
v 4.122063 -4.361344 2.825628
v 7.028882 -6.181228 1.165568
v 2.726723 -4.050532 -0.780841
v 5.320351 -5.083986 5.209636
v 4.588871 -3.207298 7.727317
v 9.935722 -3.656880 1.279965
v 4.557692 -5.609376 4.976582
v 0.614691 -8.020502 -6.818372
v 8.582332 -3.506168 2.054735
v 4.006121 -4.363415 5.529718
v 0.356255 -7.345639 -6.726458
v 7.740576 -5.625690 -7.795687
v 8.014292 -4.917600 1.423548
v 10.673656 -7.338231 -7.244750
v 8.046709 -5.138830 0.780811
v 3.861671 -2.927677 2.365903
v 7.753676 -4.473487 -7.962885
v 6.796278 -3.923995 -7.959441
v 7.126772 -5.543579 -8.376344
v 3.891623 -3.834146 4.643738
v 4.367548 -3.716356 8.385232
v 6.071142 -4.980714 -7.900786
v 8.344450 -4.211113 1.754704
v 6.114359 -4.645453 -7.340169
v 11.120424 -5.606761 -4.578348
v 11.335961 -5.314260 -2.849266
v 12.244336 -5.738831 -3.260888
v 11.703235 -6.091286 -0.909985
v 10.586094 -4.553588 -3.070424
v 10.682121 -5.566911 -4.899219
v 6.789871 -4.905556 -8.552140
v 10.713972 -5.008178 -3.274912
v 12.057867 -5.807213 -2.213118
v 1.063955 -7.547432 -6.740888
v 11.101572 -5.077218 -2.576076
v 8.045111 -4.084972 -7.664511
v 14.544729 -5.691935 -1.404515
v 11.133347 -5.836616 -0.703491
v 6.789406 -4.020296 -7.272757
v 11.558532 -5.660207 -3.219424
v 12.744761 -5.961276 -2.083097
v 12.488274 -5.859390 -2.683316
v 8.324109 -3.788296 -7.158453
v 9.638388 -4.223503 -5.200564
v 7.402089 -3.980485 -7.951150
v 9.214621 -4.802806 -5.765472
v 7.437879 -4.966038 -8.109468
v 6.622763 -4.361893 -8.343008
v 10.460288 -5.419691 -3.968699
v 9.293735 -4.153776 1.185717
v 10.840533 -5.509751 -3.579239
v 10.124713 -5.222414 -4.385103
v 8.452162 -5.014769 0.223243
v 11.129676 -5.780067 -1.684442
v 11.642136 -5.723783 -1.871733
v 12.259809 -5.932611 -1.637007
v 9.878311 -4.545187 -4.427165
v 13.331407 -5.755681 -0.950058
v 11.183937 -5.468401 -2.128254
v 12.400714 -6.011638 -1.093246
v 8.009018 -5.155545 -7.533008
v 11.580910 -5.608888 -4.237562
v 3.959244 -3.702097 3.686121
v 14.730514 -5.469926 -0.727659
v 11.015728 -8.568268 -6.594646
v 13.154026 -5.828549 -1.564859
v 15.437149 -6.141218 -1.034209
v 10.730954 -5.563643 -0.318517
v 12.055075 -5.574007 -3.874680
v -0.175303 -6.393291 -6.373041
v 14.956454 -8.688887 0.355782
v 10.208354 -4.596077 -3.779376
v 3.664887 -3.184560 7.961440
v 15.263841 -6.164924 -1.727166
v 15.121654 -6.791424 -2.069621
v 15.179097 -7.516739 -1.020234
v 15.040590 -8.157652 -1.354608
v 15.137098 -7.480013 -1.703382
vt 0.000000 0.000000
vt 0.000000 0.000000
vt 0.000000 0.000000
vt 0.000000 0.000000
vt 0.000000 0.000000
vt 0.000000 0.000000
vt 0.000000 0.000000
vt 0.000000 0.000000
vt 0.000000 0.000000
vt 0.000000 0.000000
vt 0.000000 0.000000
vt 0.000000 0.000000
vt 0.000000 0.000000
vt 0.000000 0.000000
vt 0.000000 0.000000
vt 0.000000 0.000000
vt 0.000000 0.000000
vt 0.000000 0.000000
vt 0.000000 0.000000
vt 0.000000 0.000000
vt 0.000000 0.000000
vt 0.000000 0.000000
vt 0.000000 0.000000
vt 0.000000 0.000000
vt 0.000000 0.000000
vt 0.000000 0.000000
vt 0.000000 0.000000
vt 0.000000 0.000000
vt 0.000000 0.000000
vt 0.000000 0.000000
vt 0.000000 0.000000
vt 0.000000 0.000000
vt 0.000000 0.000000
vt 0.000000 0.000000
vt 0.000000 0.000000
vt 0.000000 0.000000
vt 0.000000 0.000000
vt 0.000000 0.000000
vt 0.000000 0.000000
vt 0.000000 0.000000
vt 0.000000 0.000000
vt 0.000000 0.000000
vt 0.000000 0.000000
vt 0.000000 0.000000
vt 0.000000 0.000000
vt 0.000000 0.000000
vt 0.000000 0.000000
vt 0.000000 0.000000
vt 0.000000 0.000000
vt 0.000000 0.000000
vt 0.000000 0.000000
vt 0.000000 0.000000
vt 0.000000 0.000000
vt 0.000000 0.000000
vt 0.000000 0.000000
vt 0.000000 0.000000
vt 0.000000 0.000000
vt 0.000000 0.000000
vt 0.000000 0.000000
vt 0.000000 0.000000
vt 0.000000 0.000000
vt 0.000000 0.000000
vt 0.000000 0.000000
vt 0.000000 0.000000
vt 0.000000 0.000000
vt 0.000000 0.000000
vt 0.000000 0.000000
vt 0.000000 0.000000
vt 0.000000 0.000000
vt 0.000000 0.000000
vt 0.000000 0.000000
vt 0.000000 0.000000
vt 0.000000 0.000000
vt 0.000000 0.000000
vt 0.000000 0.000000
vt 0.000000 0.000000
vt 0.000000 0.000000
vt 0.000000 0.000000
vt 0.000000 0.000000
vt 0.000000 0.000000
vt 0.000000 0.000000
vt 0.000000 0.000000
vt 0.000000 0.000000
vt 0.000000 0.000000
vt 0.000000 0.000000
vt 0.000000 0.000000
vt 0.000000 0.000000
vt 0.000000 0.000000
vt 0.000000 0.000000
vt 0.000000 0.000000
vt 0.000000 0.000000
vt 0.000000 0.000000
vt 0.000000 0.000000
vt 0.000000 0.000000
vt 0.000000 0.000000
vt 0.000000 0.000000
vt 0.000000 0.000000
vt 0.000000 0.000000
vt 0.000000 0.000000
vt 0.000000 0.000000
vt 0.000000 0.000000
vt 0.000000 0.000000
vt 0.000000 0.000000
vt 0.000000 0.000000
vt 0.000000 0.000000
vt 0.000000 0.000000
vt 0.000000 0.000000
vt 0.000000 0.000000
vt 0.000000 0.000000
vt 0.000000 0.000000
vt 0.000000 0.000000
vt 0.000000 0.000000
vt 0.000000 0.000000
vt 0.000000 0.000000
vt 0.000000 0.000000
vt 0.000000 0.000000
vt 0.000000 0.000000
vt 0.000000 0.000000
vt 0.000000 0.000000
vt 0.000000 0.000000
vt 0.000000 0.000000
vt 0.000000 0.000000
vt 0.000000 0.000000
vt 0.000000 0.000000
vt 0.000000 0.000000
vt 0.000000 0.000000
vt 0.000000 0.000000
vt 0.000000 0.000000
vt 0.000000 0.000000
vt 0.000000 0.000000
vt 0.000000 0.000000
vt 0.000000 0.000000
vt 0.000000 0.000000
vt 0.000000 0.000000
vt 0.000000 0.000000
vt 0.000000 0.000000
vt 0.000000 0.000000
vt 0.000000 0.000000
vt 0.000000 0.000000
vt 0.000000 0.000000
vt 0.000000 0.000000
vt 0.000000 0.000000
vt 0.000000 0.000000
vt 0.000000 0.000000
vt 0.000000 0.000000
vt 0.000000 0.000000
vt 0.000000 0.000000
vt 0.000000 0.000000
vt 0.000000 0.000000
vt 0.000000 0.000000
vt 0.000000 0.000000
vt 0.000000 0.000000
vt 0.000000 0.000000
vt 0.000000 0.000000
vt 0.000000 0.000000
vt 0.000000 0.000000
vt 0.000000 0.000000
vt 0.000000 0.000000
vt 0.000000 0.000000
vt 0.000000 0.000000
vt 0.000000 0.000000
vt 0.000000 0.000000
vt 0.000000 0.000000
vt 0.000000 0.000000
vt 0.000000 0.000000
vt 0.000000 0.000000
vt 0.000000 0.000000
vt 0.000000 0.000000
vt 0.000000 0.000000
vt 0.000000 0.000000
vt 0.000000 0.000000
vt 0.000000 0.000000
vt 0.000000 0.000000
vt 0.000000 0.000000
vt 0.000000 0.000000
vt 0.000000 0.000000
vt 0.000000 0.000000
vt 0.000000 0.000000
vt 0.000000 0.000000
vt 0.000000 0.000000
vt 0.000000 0.000000
vt 0.000000 0.000000
vt 0.000000 0.000000
vn 0.9404 0.3162 0.1254
vn -0.9155 0.3372 0.2194
vn -0.6649 0.5020 -0.5530
vn 0.3272 0.5459 -0.7713
vn -0.5893 0.7451 0.3123
vn 0.2541 0.6805 -0.6873
vn 0.5698 0.2976 -0.7660
vn -0.8027 0.4583 -0.3816
vn 0.9174 0.3860 0.0972
vn -0.6887 0.6044 0.4005
vn 0.9561 0.2736 0.1052
vn 0.1943 0.6167 -0.7628
vn 0.7434 0.6458 -0.1740
vn -0.6418 0.7035 0.3053
vn 0.7692 0.0778 -0.6343
vn 0.0368 0.1607 -0.9863
vn -0.0475 0.6984 -0.7142
vn 0.3054 0.4833 -0.8204
vn -0.8955 0.4311 0.1107
vn 0.9059 0.4231 -0.0188
vn -0.7928 0.4685 -0.3899
vn 0.7134 0.4505 -0.5367
vn 0.8535 0.2513 -0.4565
vn 0.6344 0.2609 -0.7276
vn 0.6014 0.6235 -0.4995
vn -0.7227 0.6363 0.2699
vn -0.8470 0.5101 0.1496
vn -0.3090 0.9510 -0.0131
vn -0.0594 0.5712 -0.8187
vn -0.1417 0.5542 -0.8202
vn 0.9553 0.2773 0.1024
vn 0.7643 0.0224 -0.6445
vn -0.1446 0.4793 -0.8657
vn -0.5806 0.8141 -0.0129
vn 0.0917 0.4611 -0.8826
vn 0.3852 0.9200 -0.0716
vn -0.6747 0.6793 -0.2887
vn -0.6225 0.7823 -0.0215
vn 0.8026 0.5258 -0.2817
vn -0.9285 0.3380 0.1537
vn -0.6539 0.7197 0.2332
vn 0.4601 0.6870 -0.5625
vn 0.9716 0.2365 0.0026
vn -0.7627 0.5795 -0.2870
vn -0.1862 0.3166 -0.9301
vn 0.5976 0.2985 -0.7442
vn -0.7481 0.5969 -0.2898
vn 0.2065 0.9512 0.2293
vn 0.7471 0.5490 -0.3748
vn 0.2010 0.5867 -0.7844
vn 0.0290 0.1720 -0.9847
vn -0.6517 0.6928 0.3088
vn -0.6305 0.6888 0.3579
vn 0.4758 0.2676 -0.8379
vn -0.8911 0.4114 0.1917
vn -0.7182 0.6068 0.3405
vn 0.7984 0.5431 -0.2599
vn 0.4749 -0.3137 -0.8222
vn 0.9875 -0.0892 0.1302
vn 0.9836 -0.1703 0.0598
vn 0.9887 -0.1494 0.0083
vn -0.6460 0.4730 -0.5991
vn 0.6451 0.4393 -0.6252
vn -0.2707 0.5852 -0.7644
vn 0.9807 0.1944 0.0210
vn 0.4268 0.2639 -0.8650
vn -0.5906 0.7641 -0.2594
vn 0.4264 -0.2879 -0.8575
vn 0.4266 -0.4193 -0.8014
vn 0.4255 -0.3827 -0.8201
vn 0.4381 -0.4031 -0.8035
vn 0.4220 -0.2942 -0.8575
vn 0.4088 -0.4155 -0.8126
vn 0.4458 -0.3738 -0.8133
vn -0.6156 0.5011 -0.6082
vn 0.4930 -0.4488 -0.7453
vn 0.4653 -0.3001 -0.8327
vn -0.0458 0.9013 -0.4307
vn 0.9854 -0.1081 0.1313
vn -0.6113 0.5517 -0.5674
vn -0.5738 0.7651 -0.2923
vn 0.4057 -0.4259 -0.8087
vn 0.9920 -0.1120 -0.0589
vn 0.4295 -0.4321 -0.7929
vn -0.3294 0.6568 -0.6783
vn 0.1793 0.8812 -0.4374
vn 0.9839 0.1735 0.0437
vn 0.9810 -0.1093 0.1606
vn 0.9885 -0.1496 0.0229
vn -0.6878 0.6750 -0.2670
vn 0.1917 0.7780 -0.5984
vn 0.4244 -0.4182 -0.8031
vn 0.7206 0.6560 0.2244
vn 0.9790 -0.0990 0.1780
vn -0.5940 0.5680 -0.5697
vn 0.6744 0.7359 -0.0599
vn 0.9849 -0.0983 0.1425
vn 0.9873 -0.0905 0.1302
vn 0.6295 0.6101 -0.4811
vn 0.9768 -0.2140 0.0055
vn -0.2455 0.9681 0.0508
vn 0.0815 0.9506 -0.2996
vn 0.9841 0.1386 -0.1113
vn 0.1847 0.8415 0.5077
vn 0.3653 0.9035 0.2241
vn 0.0093 0.9520 0.3060
vn 0.9807 -0.0945 0.1710
vn 0.7343 0.6566 -0.1721
vn 0.6490 0.7391 0.1804
vn 0.6664 0.7421 -0.0721
vn 0.9720 -0.2239 -0.0718
vn 0.9828 -0.1844 -0.0065
vn 0.9493 0.2410 0.2021
vn 0.9820 0.1836 0.0451
vn -0.2492 0.4813 -0.8404
vn -0.3361 0.5595 -0.7576
vn 0.9828 -0.1843 0.0103
vn -0.0496 0.9987 0.0138
vn 0.2956 0.9413 -0.1629
vn -0.3868 0.8481 0.3621
vn 0.9693 -0.0496 -0.2407
vn -0.6160 0.5515 -0.5624
vn -0.0485 0.9341 0.3536
vn 0.4275 0.7072 -0.5631
vn -0.2869 0.9401 0.1843
vn 0.9816 -0.1906 0.0058
vn 0.3611 0.9037 0.2302
vn -0.3831 0.4810 -0.7886
vn 0.1630 0.9513 0.2616
vn 0.0879 0.9391 -0.3322
vn -0.4294 -0.0416 -0.9022
vn -0.0117 0.6412 -0.7673
vn -0.5577 0.4772 -0.6791
vn 0.7352 0.4391 -0.5165
vn 0.8174 0.3159 -0.4818
vn -0.0896 0.9026 0.4211
vn -0.6815 0.7256 0.0949
vn -0.6398 0.6334 0.4352
vn 0.9413 -0.0966 -0.3234
vn 0.0352 0.8158 0.5772
vn 0.5822 0.7945 -0.1728
vn 0.7813 0.5970 -0.1823
vn 0.3797 0.1602 -0.9111
vn -0.1277 0.9763 0.1750
vn 0.7751 -0.1027 -0.6234
vn 0.2988 0.9524 0.0610
vn -0.8054 0.5340 -0.2573
vn 0.1955 0.1625 -0.9671
vn 0.0205 0.1426 -0.9896
vn 0.0901 0.9862 0.1392
vn 0.0703 0.6414 -0.7640
vn 0.1243 0.9672 0.2214
vn 0.2040 0.9758 0.0785
vn 0.0577 0.7571 0.6507
vn -0.8022 0.5403 -0.2539
vn 0.6598 -0.2081 -0.7221
vn 0.1803 0.7476 0.6391
vn 0.5672 0.0735 -0.8203
vn 0.7086 -0.0104 -0.7055
vn 0.4286 0.3257 -0.8427
vn 0.1217 0.9807 0.1533
vn 0.5339 0.4415 -0.7212
vn 0.3861 0.6870 -0.6156
vn -0.1320 0.9579 0.2548
vn 0.4046 0.7767 -0.4826
vn 0.2951 0.9104 -0.2901
vn 0.0630 0.9949 -0.0789
vn 0.1013 0.9735 0.2049
vn 0.8028 0.3556 -0.4785
vn 0.8623 0.2878 -0.4167
vn 0.9318 0.3296 -0.1520
vn 0.7084 0.3567 -0.6091
vn 0.2528 0.9673 -0.0231
vn 0.3788 0.9165 0.1289
vn 0.2809 0.9535 0.1091
vn 0.2748 0.8568 -0.4364
vn 0.7891 0.4225 -0.4458
vn -0.2593 0.9650 -0.0396
vn 0.6425 0.5094 -0.5725
vn 0.0222 0.9920 -0.1244
vn 0.7871 0.4528 -0.4190
vn 0.9696 -0.0975 -0.2242
vn 0.9819 -0.1758 -0.0698
usemtl Material.002
s off
f 10/1/1 25/2/1 52/3/1
f 16/4/2 80/5/2 11/6/2
f 26/7/3 99/8/3 118/9/3
f 80/5/4 34/10/4 11/6/4
f 27/11/5 76/12/5 40/13/5
f 29/14/6 11/6/6 34/10/6
f 39/15/7 62/16/7 17/17/7
f 53/18/8 23/19/8 26/7/8
f 52/3/9 24/20/9 10/1/9
f 45/21/10 107/22/10 32/23/10
f 25/2/11 168/24/11 125/25/11
f 36/26/12 21/27/12 14/28/12
f 4/29/13 52/3/13 115/30/13
f 76/12/14 27/11/14 120/31/14
f 37/32/15 39/15/15 17/17/15
f 14/28/16 5/33/16 116/34/16
f 4/29/17 73/35/17 109/36/17
f 35/37/18 36/26/18 14/28/18
f 41/38/19 15/39/19 12/40/19
f 24/20/20 52/3/20 112/41/20
f 23/19/21 99/8/21 26/7/21
f 61/42/22 17/17/22 62/16/22
f 52/3/23 4/29/23 112/41/23
f 13/43/24 44/44/24 62/16/24
f 72/45/25 20/46/25 34/10/25
f 40/13/26 107/22/26 54/47/26
f 12/40/27 31/48/27 3/49/27
f 158/50/28 76/12/28 120/31/28
f 8/51/29 4/29/29 109/36/29
f 175/52/30 35/37/30 14/28/30
f 52/3/31 25/2/31 125/25/31
f 37/32/32 28/53/32 39/15/32
f 8/51/33 112/41/33 4/29/33
f 54/47/34 27/11/34 40/13/34
f 9/54/35 22/55/35 2/56/35
f 7/57/36 143/58/36 133/59/36
f 26/7/37 118/9/37 54/47/37
f 27/11/38 54/47/38 120/31/38
f 18/60/39 42/61/39 19/62/39
f 16/4/40 63/63/40 80/5/40
f 6/64/41 45/21/41 32/23/41
f 34/10/42 80/5/42 72/45/42
f 25/2/43 106/65/43 168/24/43
f 26/7/44 54/47/44 107/22/44
f 9/54/45 67/66/45 22/55/45
f 13/43/46 62/16/46 39/15/46
f 31/48/47 1/67/47 3/49/47
f 7/57/48 133/59/48 159/68/48
f 108/69/49 18/60/49 19/62/49
f 14/28/50 21/27/50 5/33/50
f 5/33/51 139/70/51 116/34/51
f 3/49/52 1/67/52 32/23/52
f 43/71/53 48/72/53 63/63/53
f 2/56/54 38/73/54 9/54/54
f 41/38/55 12/40/55 3/49/55
f 40/13/56 41/38/56 3/49/56
f 42/61/57 18/60/57 30/74/57
f 57/75/58 68/76/58 170/77/58
f 46/78/59 95/79/59 94/80/59
f 46/78/60 176/81/60 65/82/60
f 47/83/61 95/79/61 65/82/61
f 75/84/62 114/85/62 128/86/62
f 55/87/63 151/88/63 101/89/63
f 100/90/64 64/91/64 155/92/64
f 74/93/65 49/94/65 121/95/65
f 55/87/66 101/89/66 149/96/66
f 158/50/67 120/31/67 100/90/67
f 57/75/68 81/97/68 70/98/68
f 57/75/69 170/77/69 60/99/69
f 58/100/70 82/101/70 78/102/70
f 59/103/71 83/104/71 60/99/71
f 57/75/72 70/98/72 119/105/72
f 60/99/73 83/104/73 78/102/73
f 83/104/74 58/100/74 78/102/74
f 75/84/75 128/86/75 99/8/75
f 83/104/76 59/103/76 79/106/76
f 57/75/77 119/105/77 68/76/77
f 158/50/78 100/90/78 88/107/78
f 56/108/79 176/81/79 94/80/79
f 118/9/80 128/86/80 100/90/80
f 118/9/81 100/90/81 120/31/81
f 81/97/82 60/99/82 78/102/82
f 95/79/83 47/83/83 98/109/83
f 170/77/84 59/103/84 60/99/84
f 100/90/85 155/92/85 88/107/85
f 173/110/86 33/111/86 143/58/86
f 74/93/87 168/24/87 49/94/87
f 176/81/88 46/78/88 94/80/88
f 95/79/89 46/78/89 65/82/89
f 54/47/90 118/9/90 120/31/90
f 33/111/91 173/110/91 87/112/91
f 81/97/92 57/75/92 60/99/92
f 172/113/93 85/114/93 169/115/93
f 95/79/94 93/116/94 103/117/94
f 64/91/95 100/90/95 128/86/95
f 105/118/96 131/119/96 140/120/96
f 104/121/97 95/79/97 103/117/97
f 95/79/98 104/121/98 94/80/98
f 69/122/99 131/119/99 137/123/99
f 96/124/100 95/79/100 98/109/100
f 71/125/101 148/126/101 150/127/101
f 142/128/102 85/114/102 86/129/102
f 49/94/103 50/130/103 121/95/103
f 84/131/104 160/132/104 164/133/104
f 105/118/105 160/132/105 138/134/105
f 133/59/106 66/135/106 84/131/106
f 93/116/107 172/113/107 103/117/107
f 105/118/108 145/136/108 131/119/108
f 105/118/109 140/120/109 160/132/109
f 131/119/110 69/122/110 140/120/110
f 102/137/111 92/138/111 96/124/111
f 172/113/112 93/116/112 96/124/112
f 103/117/113 172/113/113 90/139/113
f 49/94/114 168/24/114 106/65/114
f 155/92/115 111/140/115 91/141/115
f 109/36/116 73/35/116 97/142/116
f 92/138/117 172/113/117 96/124/117
f 71/125/118 150/127/118 144/143/118
f 105/118/119 147/144/119 145/136/119
f 72/45/120 80/5/120 48/72/120
f 172/113/121 92/138/121 89/145/121
f 118/9/122 99/8/122 128/86/122
f 66/135/123 165/146/123 84/131/123
f 90/139/124 172/113/124 169/115/124
f 66/135/125 163/147/125 165/146/125
f 93/116/126 95/79/126 96/124/126
f 105/118/127 138/134/127 147/144/127
f 77/148/128 155/92/128 64/91/128
f 84/131/129 159/68/129 133/59/129
f 85/114/130 142/128/130 169/115/130
f 51/149/131 116/34/131 113/150/131
f 88/107/132 155/92/132 91/141/132
f 64/91/133 128/86/133 114/85/133
f 134/151/134 69/122/134 137/123/134
f 85/114/135 172/113/135 86/129/135
f 84/131/136 165/146/136 160/132/136
f 144/143/137 123/152/137 129/153/137
f 48/72/138 80/5/138 63/63/138
f 92/138/139 102/137/139 89/145/139
f 159/68/140 84/131/140 164/133/140
f 172/113/141 89/145/141 86/129/141
f 69/122/142 134/151/142 140/120/142
f 153/154/143 150/127/143 152/155/143
f 171/156/144 161/157/144 165/146/144
f 166/158/145 122/159/145 141/160/145
f 161/157/146 160/132/146 165/146/146
f 129/153/147 153/154/147 127/161/147
f 150/127/148 122/159/148 152/155/148
f 113/150/149 116/34/149 139/70/149
f 150/127/150 123/152/150 144/143/150
f 153/154/151 123/152/151 150/127/151
f 132/162/152 174/163/152 145/136/152
f 146/164/153 147/144/153 138/134/153
f 164/133/154 160/132/154 140/120/154
f 129/153/155 123/152/155 153/154/155
f 122/159/156 166/158/156 152/155/156
f 178/165/157 126/166/157 110/167/157
f 124/168/158 136/169/158 152/155/158
f 166/158/159 117/170/159 152/155/159
f 122/159/160 150/127/160 141/160/160
f 147/144/161 132/162/161 145/136/161
f 153/154/162 152/155/162 136/169/162
f 141/160/163 150/127/163 148/126/163
f 161/157/164 171/156/164 138/134/164
f 131/119/165 145/136/165 156/171/165
f 130/172/166 135/173/166 157/174/166
f 167/175/167 130/172/167 156/171/167
f 145/136/168 174/163/168 156/171/168
f 177/176/169 154/177/169 157/174/169
f 162/178/170 177/176/170 157/174/170
f 149/96/171 162/178/171 157/174/171
f 154/177/172 177/176/172 156/171/172
f 130/172/173 154/177/173 156/171/173
f 154/177/174 130/172/174 157/174/174
f 160/132/175 161/157/175 138/134/175
f 171/156/176 146/164/176 138/134/176
f 137/123/177 177/176/177 134/151/177
f 171/156/178 165/146/178 163/147/178
f 137/123/179 131/119/179 156/171/179
f 174/163/180 167/175/180 156/171/180
f 177/176/181 137/123/181 156/171/181
f 183/179/182 180/180/182 179/181/182
f 183/179/183 181/182/183 182/183/183
