# Blender v2.92.0 OBJ File: 'fire.blend'
# www.blender.org
mtllib firetruck_yellow.mtl
o yellow_Cube.009
v 1.292982 0.789316 4.700000
v 1.292982 0.912316 4.700000
v 1.215276 0.912316 4.700000
v 1.215276 0.789316 4.700000
v 1.292982 0.789316 4.730261
v 1.292982 0.912316 4.730261
v 1.215276 0.912316 4.730261
v 1.215276 0.789316 4.730261
v 1.272266 0.758552 -4.587395
v 1.272266 0.591446 -4.587395
v 0.998977 0.758552 -4.585669
v 0.998977 0.591446 -4.585669
v 1.272266 0.758552 -4.651532
v 1.272266 0.591446 -4.651532
v 0.998977 0.758552 -4.649807
v 0.998977 0.591446 -4.649807
v -1.292982 0.789316 4.700000
v -1.292982 0.912316 4.700000
v -1.215276 0.912316 4.700000
v -1.215276 0.789316 4.700000
v -1.292982 0.789316 4.730261
v -1.292982 0.912316 4.730261
v -1.215276 0.912316 4.730261
v -1.215276 0.789316 4.730261
v -1.272266 0.758552 -4.587395
v -1.272266 0.591446 -4.587395
v -0.998977 0.758552 -4.585669
v -0.998977 0.591446 -4.585669
v -1.272266 0.758552 -4.651532
v -1.272266 0.591446 -4.651532
v -0.998977 0.758552 -4.649807
v -0.998977 0.591446 -4.649807
vt 0.932059 0.930098
vt 0.932059 0.930098
vt 0.932059 0.930098
vt 0.932059 0.930098
vt 0.932059 0.930098
vt 0.932059 0.930098
vt 0.932059 0.930098
vt 0.932059 0.930098
vt 0.557059 0.930098
vt 0.557059 0.930098
vt 0.557059 0.930098
vt 0.557059 0.930098
vt 0.557059 0.930098
vt 0.557059 0.930098
vt 0.557059 0.930098
vt 0.557059 0.930098
vt 0.932059 0.930098
vt 0.932059 0.930098
vt 0.932059 0.930098
vt 0.932059 0.930098
vt 0.932059 0.930098
vt 0.932059 0.930098
vt 0.932059 0.930098
vt 0.932059 0.930098
vt 0.557059 0.930098
vt 0.557059 0.930098
vt 0.557059 0.930098
vt 0.557059 0.930098
vt 0.557059 0.930098
vt 0.557059 0.930098
vt 0.557059 0.930098
vt 0.557059 0.930098
vn 0.0000 1.0000 -0.0000
vn 0.0000 0.0000 1.0000
vn 1.0000 0.0000 0.0000
vn 0.0000 -1.0000 0.0000
vn -0.0063 0.0000 -1.0000
vn -1.0000 0.0000 0.0000
vn 0.0063 0.0000 -1.0000
usemtl body_dark_yellow.001
s 1
f 3/1/1 6/2/1 2/3/1
f 8/4/2 6/2/2 7/5/2
f 2/3/3 5/6/3 1/7/3
f 1/7/4 8/4/4 4/8/4
f 9/9/1 15/10/1 11/11/1
f 15/10/5 14/12/5 16/13/5
f 10/14/4 16/13/4 14/12/4
f 10/14/3 13/15/3 9/9/3
f 11/11/6 16/13/6 12/16/6
f 22/17/1 19/18/1 18/19/1
f 22/17/2 24/20/2 23/21/2
f 21/22/6 18/19/6 17/23/6
f 24/20/4 17/23/4 20/24/4
f 31/25/1 25/26/1 27/27/1
f 30/28/7 31/25/7 32/29/7
f 26/30/4 32/29/4 28/31/4
f 29/32/6 26/30/6 25/26/6
f 32/29/3 27/27/3 28/31/3
f 3/1/1 7/5/1 6/2/1
f 8/4/2 5/6/2 6/2/2
f 2/3/3 6/2/3 5/6/3
f 1/7/4 5/6/4 8/4/4
f 9/9/1 13/15/1 15/10/1
f 15/10/5 13/15/5 14/12/5
f 10/14/4 12/16/4 16/13/4
f 10/14/3 14/12/3 13/15/3
f 11/11/6 15/10/6 16/13/6
f 22/17/1 23/21/1 19/18/1
f 22/17/2 21/22/2 24/20/2
f 21/22/6 22/17/6 18/19/6
f 24/20/4 21/22/4 17/23/4
f 31/25/1 29/32/1 25/26/1
f 30/28/7 29/32/7 31/25/7
f 26/30/4 30/28/4 32/29/4
f 29/32/6 30/28/6 26/30/6
f 32/29/3 31/25/3 27/27/3
