# Blender v2.92.0 OBJ File: 'fire.blend'
# www.blender.org
mtllib firetruck_screen.mtl
o screen_Cube.056
v 1.678319 2.604396 4.311324
v 1.678319 2.114746 4.311324
v 1.434610 2.604396 4.425750
v 1.434610 2.114746 4.425750
v 1.531875 2.604396 4.370142
v 1.531875 2.114746 4.370142
v 1.400000 2.877798 1.836904
v 0.050000 2.860577 4.045590
v 0.050000 2.069572 4.632051
v 1.250000 2.860577 4.045590
v 1.250000 2.069572 4.632051
v 1.209456 2.309445 1.494918
v 1.209456 2.049983 1.495320
v 1.350000 2.879773 2.568522
v 1.350000 2.100000 1.836904
v 1.350000 2.100000 2.568522
v 1.350000 2.100000 4.454049
v 1.350000 2.879773 3.931821
v 1.350000 2.879773 3.103398
v 1.350000 2.100000 3.103398
v 1.209456 0.455204 1.496036
v 1.209456 1.077424 1.495757
v 1.209456 1.389751 1.495617
v 1.209456 1.985708 0.180328
v 1.209456 1.389762 0.180328
v 1.209457 2.309457 0.180328
v 1.209456 1.077435 0.180328
v 1.209456 0.455204 0.180328
v 0.000000 2.309457 1.494918
v 0.000000 2.309457 0.180328
v 1.294188 1.101313 1.300808
v 1.294188 1.231319 1.300781
v 1.294188 1.231322 1.175431
v 1.294188 1.101314 1.175431
v 1.172159 1.231319 1.300781
v 1.172159 1.231322 1.175431
v 1.172159 1.101313 1.300808
v 1.172159 1.101314 1.175431
v 1.294188 1.101313 0.900808
v 1.294188 1.231319 0.900781
v 1.294188 1.231322 0.775431
v 1.294188 1.101313 0.775431
v 1.172159 1.231319 0.900781
v 1.172159 1.231322 0.775431
v 1.172159 1.101313 0.900808
v 1.172159 1.101313 0.775431
v 1.294188 1.101313 0.500808
v 1.294188 1.231319 0.500781
v 1.294188 1.231322 0.375431
v 1.294188 1.101313 0.375431
v 1.172159 1.231319 0.500781
v 1.172159 1.231322 0.375431
v 1.172159 1.101313 0.500808
v 1.172159 1.101313 0.375431
v 1.294188 0.652674 1.247720
v 1.294188 0.879958 1.247674
v 1.294188 0.879962 1.028528
v 1.294188 0.652674 1.028528
v 1.172159 0.879958 1.247674
v 1.172159 0.879962 1.028528
v 1.172159 0.652674 1.247720
v 1.172159 0.652674 1.028528
v 1.294188 0.652674 0.647720
v 1.294188 0.879958 0.647674
v 1.294188 0.879962 0.428528
v 1.294188 0.652674 0.428528
v 1.172159 0.879958 0.647674
v 1.172159 0.879962 0.428528
v 1.172159 0.652674 0.647720
v 1.172159 0.652674 0.428528
v -1.678319 2.604396 4.311324
v -1.678319 2.114746 4.311324
v -1.434610 2.604396 4.425750
v -1.434610 2.114746 4.425750
v -1.531875 2.604396 4.370142
v -1.531875 2.114746 4.370142
v -1.400000 2.877798 1.836904
v -0.050000 2.860577 4.045590
v -0.050000 2.069572 4.632051
v -1.250000 2.860577 4.045590
v -1.250000 2.069572 4.632051
v -1.209456 2.309445 1.494918
v -1.209456 2.049983 1.495320
v -1.350000 2.879773 2.568522
v -1.350000 2.100000 1.836904
v -1.350000 2.100000 2.568522
v -1.350000 2.100000 4.454049
v -1.350000 2.879773 3.931821
v -1.350000 2.879773 3.103398
v -1.350000 2.100000 3.103398
v -1.209456 0.455204 1.496036
v -1.209456 1.077424 1.495757
v -1.209456 1.389751 1.495617
v -1.209456 1.985708 0.180328
v -1.209456 1.389762 0.180328
v -1.209457 2.309457 0.180328
v -1.209456 1.077435 0.180328
v -1.209456 0.455204 0.180328
v -1.294188 1.101313 1.300808
v -1.294188 1.231319 1.300781
v -1.294188 1.231322 1.175431
v -1.294188 1.101314 1.175431
v -1.172159 1.231319 1.300781
v -1.172159 1.231322 1.175431
v -1.172159 1.101313 1.300808
v -1.172159 1.101314 1.175431
v -1.294188 1.101313 0.900808
v -1.294188 1.231319 0.900781
v -1.294188 1.231322 0.775431
v -1.294188 1.101313 0.775431
v -1.172159 1.231319 0.900781
v -1.172159 1.231322 0.775431
v -1.172159 1.101313 0.900808
v -1.172159 1.101313 0.775431
v -1.294188 1.101313 0.500808
v -1.294188 1.231319 0.500781
v -1.294188 1.231322 0.375431
v -1.294188 1.101313 0.375431
v -1.172159 1.231319 0.500781
v -1.172159 1.231322 0.375431
v -1.172159 1.101313 0.500808
v -1.172159 1.101313 0.375431
v -1.294188 0.652674 1.247720
v -1.294188 0.879958 1.247674
v -1.294188 0.879962 1.028528
v -1.294188 0.652674 1.028528
v -1.172159 0.879958 1.247674
v -1.172159 0.879962 1.028528
v -1.172159 0.652674 1.247720
v -1.172159 0.652674 1.028528
v -1.294188 0.652674 0.647720
v -1.294188 0.879958 0.647674
v -1.294188 0.879962 0.428528
v -1.294188 0.652674 0.428528
v -1.172159 0.879958 0.647674
v -1.172159 0.879962 0.428528
v -1.172159 0.652674 0.647720
v -1.172159 0.652674 0.428528
vt 0.064422 0.317902
vt 0.064422 0.317902
vt 0.064422 0.317902
vt 0.064422 0.317902
vt 0.064422 0.317902
vt 0.057059 0.305098
vt 0.057059 0.305098
vt 0.057059 0.305098
vt 0.057059 0.305098
vt 0.057059 0.305098
vt 0.057059 0.305098
vt 0.057059 0.305098
vt 0.057059 0.305098
vt 0.057059 0.305098
vt 0.064422 0.317902
vt 0.064422 0.317902
vt 0.064422 0.317902
vt 0.064422 0.317902
vt 0.064422 0.317902
vt 0.057059 0.305098
vt 0.057059 0.305098
vt 0.057059 0.305098
vt 0.057059 0.305098
vt 0.057059 0.305098
vt 0.057059 0.305098
vt 0.057059 0.305098
vt 0.057059 0.305098
vt 0.057059 0.305098
vt 0.064422 0.317902
vt 0.057059 0.305098
vt 0.057059 0.305098
vt 0.057059 0.305098
vt 0.064422 0.317902
vt 0.057059 0.305098
vt 0.057059 0.305098
vt 0.057059 0.305098
vt 0.057059 0.305098
vt 0.057059 0.305098
vt 0.057059 0.305098
vt 0.057059 0.305098
vt 0.057059 0.305098
vt 0.057059 0.305098
vt 0.057059 0.305098
vt 0.057059 0.305098
vt 0.057059 0.305098
vt 0.057059 0.305098
vt 0.057059 0.305098
vt 0.057059 0.305098
vt 0.057059 0.305098
vt 0.057059 0.305098
vt 0.057059 0.305098
vt 0.057059 0.305098
vt 0.057059 0.305098
vt 0.057059 0.305098
vt 0.057059 0.305098
vt 0.057059 0.305098
vt 0.057059 0.305098
vt 0.057059 0.305098
vt 0.057059 0.305098
vt 0.057059 0.305098
vt 0.057059 0.305098
vt 0.057059 0.305098
vt 0.057059 0.305098
vt 0.057059 0.305098
vt 0.057059 0.305098
vt 0.057059 0.305098
vt 0.057059 0.305098
vt 0.057059 0.305098
vt 0.057059 0.305098
vt 0.057059 0.305098
vt 0.057059 0.305098
vt 0.057059 0.305098
vt 0.057059 0.305098
vt 0.057059 0.305098
vt 0.057059 0.305098
vt 0.057059 0.305098
vt 0.057059 0.305098
vt 0.057059 0.305098
vt 0.057059 0.305098
vt 0.057059 0.305098
vt 0.057059 0.305098
vt 0.057059 0.305098
vt 0.057059 0.305098
vt 0.057059 0.305098
vt 0.057059 0.305098
vt 0.057059 0.305098
vt 0.057059 0.305098
vt 0.057059 0.305098
vt 0.057059 0.305098
vt 0.057059 0.305098
vt 0.057059 0.305098
vt 0.057059 0.305098
vt 0.057059 0.305098
vt 0.057059 0.305098
vt 0.057059 0.305098
vt 0.057059 0.305098
vt 0.057059 0.305098
vt 0.057059 0.305098
vt 0.057059 0.305098
vt 0.057059 0.305098
vt 0.057059 0.305098
vt 0.057059 0.305098
vt 0.057059 0.305098
vt 0.057059 0.305098
vt 0.057059 0.305098
vt 0.057059 0.305098
vt 0.057059 0.305098
vt 0.057059 0.305098
vt 0.057059 0.305098
vt 0.057059 0.305098
vt 0.057059 0.305098
vt 0.057059 0.305098
vt 0.057059 0.305098
vt 0.057059 0.305098
vt 0.057059 0.305098
vt 0.057059 0.305098
vt 0.057059 0.305098
vt 0.057059 0.305098
vt 0.057059 0.305098
vt 0.057059 0.305098
vt 0.057059 0.305098
vt 0.057059 0.305098
vt 0.057059 0.305098
vt 0.057059 0.305098
vt 0.057059 0.305098
vt 0.057059 0.305098
vt 0.057059 0.305098
vt 0.057059 0.305098
vt 0.057059 0.305098
vt 0.057059 0.305098
vt 0.057059 0.305098
vt 0.057059 0.305098
vt 0.057059 0.305098
vt 0.057059 0.305098
vt 0.057059 0.305098
vt 0.057059 0.305098
vt 0.057059 0.305098
vt 0.057059 0.305098
vn -0.4963 0.0000 -0.8681
vn -0.3727 0.0000 -0.9280
vn 0.0000 0.5956 0.8033
vn 0.9989 -0.0334 0.0328
vn 0.9989 -0.0308 0.0355
vn 0.9977 0.0000 0.0682
vn 1.0000 0.0000 0.0000
vn 0.4963 0.0000 -0.8681
vn 0.3727 0.0000 -0.9280
vn -0.9989 -0.0334 0.0328
vn -0.9989 -0.0308 0.0355
vn -0.9979 -0.0642 0.0000
vn -1.0000 -0.0000 0.0000
vn 0.9979 -0.0642 0.0000
vn -0.9977 0.0000 0.0682
vn 0.0000 1.0000 0.0000
vn 0.0000 -1.0000 -0.0000
vn 0.0000 0.0000 -1.0000
vn 0.0000 0.0002 1.0000
usemtl windows.001
s 1
f 6/1/1 3/2/1 5/3/1
f 2/4/2 5/3/2 1/5/2
f 11/6/3 8/7/3 9/8/3
f 16/9/4 7/10/5 14/11/6
f 20/12/7 18/13/7 17/14/7
f 73/15/8 76/16/8 75/17/8
f 75/17/9 72/18/9 71/19/9
f 78/20/3 81/21/3 79/22/3
f 86/23/10 77/24/11 85/25/12
f 88/26/13 90/27/13 87/28/13
f 6/1/1 4/29/1 3/2/1
f 2/4/2 6/1/2 5/3/2
f 11/6/3 10/30/3 8/7/3
f 16/9/4 15/31/14 7/10/5
f 20/12/7 19/32/7 18/13/7
f 73/15/8 74/33/8 76/16/8
f 75/17/9 76/16/9 72/18/9
f 78/20/3 80/34/3 81/21/3
f 86/23/10 84/35/15 77/24/11
f 88/26/13 89/36/13 90/27/13
usemtl body_dark_grey.001
f 13/37/7 26/38/7 12/39/7
f 27/40/7 23/41/7 22/42/7
f 23/41/7 24/43/7 13/37/7
f 30/44/16 12/39/16 26/38/16
f 28/45/7 22/42/7 21/46/7
f 34/47/7 32/48/7 31/49/7
f 38/50/13 35/51/13 36/52/13
f 37/53/17 34/47/17 31/49/17
f 36/52/16 32/48/16 33/54/16
f 38/50/18 33/54/18 34/47/18
f 35/51/19 31/49/19 32/48/19
f 42/55/7 40/56/7 39/57/7
f 46/58/13 43/59/13 44/60/13
f 45/61/17 42/55/17 39/57/17
f 44/60/16 40/56/16 41/62/16
f 46/58/18 41/62/18 42/55/18
f 43/59/19 39/57/19 40/56/19
f 50/63/7 48/64/7 47/65/7
f 54/66/13 51/67/13 52/68/13
f 53/69/17 50/63/17 47/65/17
f 52/68/16 48/64/16 49/70/16
f 54/66/18 49/70/18 50/63/18
f 51/67/19 47/65/19 48/64/19
f 58/71/7 56/72/7 55/73/7
f 62/74/13 59/75/13 60/76/13
f 61/77/17 58/71/17 55/73/17
f 60/76/16 56/72/16 57/78/16
f 62/74/18 57/78/18 58/71/18
f 59/75/19 55/73/19 56/72/19
f 66/79/7 64/80/7 63/81/7
f 70/82/13 67/83/13 68/84/13
f 69/85/17 66/79/17 63/81/17
f 68/84/16 64/80/16 65/86/16
f 70/82/18 65/86/18 66/79/18
f 67/83/19 63/81/19 64/80/19
f 96/87/13 83/88/13 82/89/13
f 93/90/13 97/91/13 92/92/13
f 93/90/13 94/93/13 95/94/13
f 82/89/16 30/44/16 96/87/16
f 98/95/13 92/92/13 97/91/13
f 102/96/13 100/97/13 101/98/13
f 106/99/7 103/100/7 105/101/7
f 102/96/17 105/101/17 99/102/17
f 100/97/16 104/103/16 101/98/16
f 101/98/18 106/99/18 102/96/18
f 99/102/19 103/100/19 100/97/19
f 110/104/13 108/105/13 109/106/13
f 114/107/7 111/108/7 113/109/7
f 110/104/17 113/109/17 107/110/17
f 108/105/16 112/111/16 109/106/16
f 109/106/18 114/107/18 110/104/18
f 107/110/19 111/108/19 108/105/19
f 118/112/13 116/113/13 117/114/13
f 122/115/7 119/116/7 121/117/7
f 118/112/17 121/117/17 115/118/17
f 116/113/16 120/119/16 117/114/16
f 117/114/18 122/115/18 118/112/18
f 115/118/19 119/116/19 116/113/19
f 126/120/13 124/121/13 125/122/13
f 130/123/7 127/124/7 129/125/7
f 126/120/17 129/125/17 123/126/17
f 124/121/16 128/127/16 125/122/16
f 125/122/18 130/123/18 126/120/18
f 123/126/19 127/124/19 124/121/19
f 134/128/13 132/129/13 133/130/13
f 138/131/7 135/132/7 137/133/7
f 134/128/17 137/133/17 131/134/17
f 132/129/16 136/135/16 133/130/16
f 133/130/18 138/131/18 134/128/18
f 131/134/19 135/132/19 132/129/19
f 13/37/7 24/43/7 26/38/7
f 27/40/7 25/136/7 23/41/7
f 23/41/7 25/136/7 24/43/7
f 30/44/16 29/137/16 12/39/16
f 28/45/7 27/40/7 22/42/7
f 34/47/7 33/54/7 32/48/7
f 38/50/13 37/53/13 35/51/13
f 37/53/17 38/50/17 34/47/17
f 36/52/16 35/51/16 32/48/16
f 38/50/18 36/52/18 33/54/18
f 35/51/19 37/53/19 31/49/19
f 42/55/7 41/62/7 40/56/7
f 46/58/13 45/61/13 43/59/13
f 45/61/17 46/58/17 42/55/17
f 44/60/16 43/59/16 40/56/16
f 46/58/18 44/60/18 41/62/18
f 43/59/19 45/61/19 39/57/19
f 50/63/7 49/70/7 48/64/7
f 54/66/13 53/69/13 51/67/13
f 53/69/17 54/66/17 50/63/17
f 52/68/16 51/67/16 48/64/16
f 54/66/18 52/68/18 49/70/18
f 51/67/19 53/69/19 47/65/19
f 58/71/7 57/78/7 56/72/7
f 62/74/13 61/77/13 59/75/13
f 61/77/17 62/74/17 58/71/17
f 60/76/16 59/75/16 56/72/16
f 62/74/18 60/76/18 57/78/18
f 59/75/19 61/77/19 55/73/19
f 66/79/7 65/86/7 64/80/7
f 70/82/13 69/85/13 67/83/13
f 69/85/17 70/82/17 66/79/17
f 68/84/16 67/83/16 64/80/16
f 70/82/18 68/84/18 65/86/18
f 67/83/19 69/85/19 63/81/19
f 96/87/13 94/93/13 83/88/13
f 93/90/13 95/94/13 97/91/13
f 93/90/13 83/88/13 94/93/13
f 82/89/16 29/137/16 30/44/16
f 98/95/13 91/138/13 92/92/13
f 102/96/13 99/102/13 100/97/13
f 106/99/7 104/103/7 103/100/7
f 102/96/17 106/99/17 105/101/17
f 100/97/16 103/100/16 104/103/16
f 101/98/18 104/103/18 106/99/18
f 99/102/19 105/101/19 103/100/19
f 110/104/13 107/110/13 108/105/13
f 114/107/7 112/111/7 111/108/7
f 110/104/17 114/107/17 113/109/17
f 108/105/16 111/108/16 112/111/16
f 109/106/18 112/111/18 114/107/18
f 107/110/19 113/109/19 111/108/19
f 118/112/13 115/118/13 116/113/13
f 122/115/7 120/119/7 119/116/7
f 118/112/17 122/115/17 121/117/17
f 116/113/16 119/116/16 120/119/16
f 117/114/18 120/119/18 122/115/18
f 115/118/19 121/117/19 119/116/19
f 126/120/13 123/126/13 124/121/13
f 130/123/7 128/127/7 127/124/7
f 126/120/17 130/123/17 129/125/17
f 124/121/16 127/124/16 128/127/16
f 125/122/18 128/127/18 130/123/18
f 123/126/19 129/125/19 127/124/19
f 134/128/13 131/134/13 132/129/13
f 138/131/7 136/135/7 135/132/7
f 134/128/17 138/131/17 137/133/17
f 132/129/16 135/132/16 136/135/16
f 133/130/18 136/135/18 138/131/18
f 131/134/19 137/133/19 135/132/19
