# Blender v2.92.0 OBJ File: 'heli.blend'
# www.blender.org
mtllib heli_fan.mtl
o heli_fan_Propeller_1.002
v 0.003955 22.950537 -2.698859
v 1.351671 22.950537 -2.337740
v -2.330357 22.950537 -1.351143
v 2.699386 22.950537 -0.003428
v -2.691477 22.950537 -0.003428
v 2.338268 22.950537 1.344288
v -1.343761 22.950537 2.330885
v 0.003955 22.950537 2.692004
v 20.817953 23.211185 -78.570526
v 20.817953 23.392628 -78.570526
v 22.424353 23.392628 -78.140091
v 22.424358 23.211185 -78.140091
v 0.003955 23.653252 -2.698859
v 1.351671 23.653252 -2.337740
v -2.330357 23.653252 -1.351143
v 2.699386 23.653252 -0.003428
v -78.623642 23.211178 -19.609110
v -78.623642 23.392618 -19.609110
v -78.072189 23.392618 -21.667141
v -78.072189 23.211178 -21.667141
v 79.423248 23.253571 21.296883
v 79.423248 23.350212 21.296883
v 79.253426 23.350212 21.930658
v 79.253426 23.253571 21.930658
v -2.691477 23.653252 -0.003427
v 2.338268 23.653252 1.344288
v -1.343761 23.653252 2.330885
v 0.003955 23.653252 2.692004
v -19.996964 23.271824 79.500763
v -19.996964 23.331940 79.500763
v -21.264519 23.331940 79.161118
v -21.264519 23.271824 79.161118
v 4.654409 22.732624 -22.224602
v 7.423945 22.732624 -21.639591
v 7.423945 23.871172 -21.639591
v 4.654409 23.871172 -22.224602
v -22.510050 23.018547 -4.684833
v -22.089766 23.018549 -7.086945
v -22.089766 23.585243 -7.086945
v -22.510050 23.585241 -4.684833
v 25.112532 23.039351 5.782083
v 24.953474 23.039349 7.834880
v 24.953474 23.564436 7.834880
v 25.112532 23.564438 5.782083
v -3.462079 23.017859 18.695858
v -6.243134 23.017859 18.521391
v -6.243134 23.585922 18.521391
v -3.462079 23.585922 18.695858
vt 0.878053 -0.975378
vt 0.856989 -0.954315
vt 0.878053 -0.954315
vt 0.856989 -0.975378
vt 0.878053 -0.954315
vt 0.878053 -0.975378
vt 0.856989 -0.975378
vt 0.878053 -0.954315
vt 0.878053 -0.975378
vt 0.856989 -0.975378
vt 0.878053 -0.954315
vt 0.878053 -0.975378
vt 0.875876 -0.960954
vt 0.875876 -0.960954
vt 0.875876 -0.960954
vt 0.872661 -0.975378
vt 0.878053 -0.954315
vt 0.878053 -0.975378
vt 0.881085 -0.971166
vt 0.865413 -0.950103
vt 0.865413 -0.950103
vt 0.856989 -0.954315
vt 0.878053 -0.954315
vt 0.856989 -0.954315
vt 0.856989 -0.975378
vt 0.872556 -0.954315
vt 0.872556 -0.975378
vt 0.872556 -0.975378
vt 0.878053 -0.954315
vt 0.878053 -0.975378
vt 0.878053 -0.975378
vt 0.872556 -0.954315
vt 0.878053 -0.954315
vt 0.872556 -0.954315
vt 0.872556 -0.975378
vt 0.871879 -0.975378
vt 0.878053 -0.954315
vt 0.878053 -0.975378
vt 0.871879 -0.975378
vt 0.878053 -0.954315
vt 0.878053 -0.975378
vt 0.871879 -0.975378
vt 0.856989 -0.954315
vt 0.871879 -0.954315
vt 0.871879 -0.954315
vt 0.871879 -0.975378
vt 0.856989 -0.975378
vt 0.873639 -0.954315
vt 0.873639 -0.975378
vt 0.873639 -0.975378
vt 0.878053 -0.954315
vt 0.878053 -0.975378
vt 0.878053 -0.975378
vt 0.873639 -0.954315
vt 0.878053 -0.954315
vt 0.873639 -0.954315
vt 0.873639 -0.975378
vt 0.878053 -0.954315
vt 0.872661 -0.954315
vt 0.856989 -0.975378
vt 0.872661 -0.954315
vt 0.886477 -0.971166
vt 0.878053 -0.954315
vt 0.856989 -0.975378
vt 0.871879 -0.954315
vt 0.856989 -0.975378
vt 0.871879 -0.954315
vt 0.878053 -0.975378
vt 0.878053 -0.954315
vt 0.878053 -0.954315
vt 0.856989 -0.975378
vt 0.873639 -0.954315
vt 0.873639 -0.975378
vt 0.856989 -0.954315
vt 0.878053 -0.954315
vt 0.878053 -0.954315
vt 0.856989 -0.975378
vt 0.872556 -0.954315
vt 0.872556 -0.975378
vt 0.856989 -0.954315
vt 0.878053 -0.954315
vt 0.856989 -0.975378
vt 0.856989 -0.954315
vt 0.856989 -0.954315
vt 0.856989 -0.954315
vt 0.864355 -0.960954
vt 0.865413 -0.971166
vt 0.856989 -0.954315
vt 0.856989 -0.954315
vt 0.856989 -0.975378
vt 0.856989 -0.954315
vt 0.856989 -0.954315
vt 0.856989 -0.954315
vt 0.856989 -0.954315
vt 0.865413 -0.950103
vt 0.856989 -0.954315
vt 0.856989 -0.954315
vt 0.878053 -0.954315
vt 0.878053 -0.975378
vt 0.878053 -0.975378
vt 0.856989 -0.975378
vt 0.878053 -0.975378
vt 0.878053 -0.975378
vt 0.856989 -0.975378
vt 0.878053 -0.975378
vn 0.2588 0.0000 -0.9659
vn -0.9659 0.0000 -0.2588
vn 0.9659 0.0000 0.2588
vn -0.2588 0.0000 0.9659
vn -0.0028 -0.9999 0.0105
vn 0.9539 0.0000 0.3001
vn 0.0017 1.0000 -0.0080
vn -0.9612 0.0000 -0.2757
vn -0.0033 -1.0000 -0.0006
vn 0.2788 -0.0000 -0.9604
vn -0.0032 1.0000 -0.0009
vn -0.2570 0.0000 0.9664
vn 0.0037 -1.0000 0.0010
vn -0.2759 0.0000 0.9612
vn 0.0039 1.0000 0.0003
vn 0.2747 0.0000 -0.9615
vn -0.0003 -1.0000 0.0041
vn -0.9571 0.0000 -0.2896
vn -0.0011 1.0000 0.0040
vn 0.9650 0.0000 0.2624
vn 0.0017 -1.0000 -0.0080
vn 0.9665 0.0000 0.2566
vn -0.0022 0.9999 0.0106
vn -0.9728 0.0000 -0.2317
vn 0.0039 -1.0000 0.0003
vn -0.2513 0.0000 0.9679
vn 0.0038 1.0000 0.0003
vn 0.2499 0.0000 -0.9683
vn -0.9707 0.0000 -0.2404
vn -0.0003 1.0000 0.0041
vn 0.9773 0.0000 0.2117
vn 0.2520 0.0000 -0.9677
vn -0.0033 1.0000 -0.0006
vn -0.2299 0.0000 0.9732
vn -0.0022 -0.9999 0.0106
vn 0.0021 1.0000 -0.0079
vn -0.0032 -1.0000 -0.0009
vn 0.0038 -1.0000 0.0003
vn 0.0037 1.0000 0.0010
vn -0.0011 -1.0000 0.0039
vn 0.0021 -1.0000 -0.0079
vn -0.0028 0.9999 0.0105
vn -0.0011 -1.0000 0.0040
vn -0.0011 1.0000 0.0039
usemtl Palette.003
s off
f 9/1/1 11/2/1 12/3/1
f 18/4/2 20/5/2 17/6/2
f 22/7/3 24/8/3 21/9/3
f 30/10/4 32/11/4 29/12/4
f 33/13/5 2/14/5 1/15/5
f 34/16/6 14/17/6 2/18/6
f 35/19/7 10/20/7 36/21/7
f 10/22/8 33/23/8 36/24/8
f 17/25/9 38/26/9 37/27/9
f 38/28/10 15/29/10 3/30/10
f 15/31/11 40/32/11 25/33/11
f 18/4/12 37/34/12 40/35/12
f 41/36/13 6/37/13 4/38/13
f 42/39/14 26/40/14 6/41/14
f 43/42/15 22/43/15 44/44/15
f 22/7/16 41/45/16 44/46/16
f 29/47/17 46/48/17 45/49/17
f 46/50/18 27/51/18 7/52/18
f 27/53/19 48/54/19 28/55/19
f 30/10/20 45/56/20 48/57/20
f 9/58/21 34/59/21 33/23/21
f 12/60/22 35/61/22 34/16/22
f 36/21/23 14/62/23 35/19/23
f 1/63/24 36/24/24 33/23/24
f 21/64/25 42/65/25 41/36/25
f 24/66/26 43/67/26 42/39/26
f 44/44/27 26/68/27 43/42/27
f 4/69/28 44/46/28 41/45/28
f 7/70/17 45/49/17 46/48/17
f 32/71/29 47/72/29 46/50/29
f 47/73/30 30/74/30 48/54/30
f 8/75/31 48/57/31 45/56/31
f 3/76/9 37/27/9 38/26/9
f 20/77/32 39/78/32 38/28/32
f 39/79/33 18/80/33 40/32/33
f 5/81/34 40/35/34 37/34/34
f 9/1/1 10/82/1 11/2/1
f 18/4/2 19/83/2 20/5/2
f 22/7/3 23/84/3 24/8/3
f 30/10/4 31/85/4 32/11/4
f 33/13/35 34/86/35 2/14/35
f 34/16/6 35/61/6 14/17/6
f 35/19/36 11/87/36 10/20/36
f 10/22/8 9/58/8 33/23/8
f 17/25/37 20/88/37 38/26/37
f 38/28/10 39/78/10 15/29/10
f 15/31/33 39/79/33 40/32/33
f 18/4/12 17/89/12 37/34/12
f 41/36/38 42/65/38 6/37/38
f 42/39/14 43/67/14 26/40/14
f 43/42/39 23/90/39 22/43/39
f 22/7/16 21/91/16 41/45/16
f 29/47/40 32/92/40 46/48/40
f 46/50/18 47/72/18 27/51/18
f 27/53/30 47/73/30 48/54/30
f 30/10/20 29/93/20 45/56/20
f 9/58/41 12/94/41 34/59/41
f 12/60/22 11/2/22 35/61/22
f 36/21/42 13/95/42 14/62/42
f 1/63/24 13/96/24 36/24/24
f 21/64/13 24/97/13 42/65/13
f 24/66/26 23/84/26 43/67/26
f 44/44/39 16/98/39 26/68/39
f 4/69/28 16/99/28 44/46/28
f 7/70/43 8/100/43 45/49/43
f 32/71/29 31/85/29 47/72/29
f 47/73/44 31/101/44 30/74/44
f 8/75/31 28/102/31 48/57/31
f 3/76/37 5/103/37 37/27/37
f 20/77/32 19/83/32 39/78/32
f 39/79/11 19/104/11 18/80/11
f 5/81/34 25/105/34 40/35/34
