# Blender 3.5.1
# www.blender.org
mtllib 3thirdIsland-plane3.mtl
o Plane.063
v -104.766190 23.394297 54.037270
v -104.800102 22.701820 53.968994
v -104.917908 23.309570 53.286125
v -105.031181 22.659538 53.062542
v -104.800102 22.701820 53.968994
v -105.031181 22.659538 53.062542
v -104.917908 23.309570 53.286125
v -105.031181 22.659538 53.062542
vn 0.9804 -0.0288 -0.1948
vn 0.9549 -0.0913 -0.2826
vn 0.9664 -0.0850 -0.2424
vt 0.000000 0.000000
vt 1.000000 0.000000
vt 0.000000 1.000000
vt 1.000000 1.000000
vt 1.000000 0.000000
vt 1.000000 1.000000
vt 0.000000 1.000000
vt 1.000000 1.000000
s 0
usemtl Material.002
f 2/2/1 3/3/1 1/1/1
f 2/2/2 6/6/2 4/4/2
f 4/4/2 7/7/2 3/3/2
f 2/2/3 4/4/3 3/3/3
f 2/2/2 5/5/2 6/6/2
f 4/4/2 8/8/2 7/7/2
o Plane.048
v -92.017120 23.206635 13.134521
v -92.040634 22.514158 13.207034
v -92.434006 23.121908 13.777518
v -92.509407 22.471876 14.016543
v -92.040634 22.514158 13.207034
v -92.509407 22.471876 14.016543
v -92.434006 23.121908 13.777518
v -92.509407 22.471876 14.016543
vn -0.8370 -0.0288 -0.5465
vn -0.8802 -0.0913 -0.4658
vn -0.8603 -0.0850 -0.5026
vt 0.000000 0.000000
vt 1.000000 0.000000
vt 0.000000 1.000000
vt 1.000000 1.000000
vt 1.000000 0.000000
vt 1.000000 1.000000
vt 0.000000 1.000000
vt 1.000000 1.000000
s 0
usemtl Material.002
f 10/10/4 11/11/4 9/9/4
f 10/10/5 14/14/5 12/12/5
f 12/12/5 15/15/5 11/11/5
f 10/10/6 12/12/6 11/11/6
f 10/10/5 13/13/5 14/14/5
f 12/12/5 16/16/5 15/15/5
o Plane.034
v -88.796822 22.683729 53.851006
v -88.820335 21.991253 53.923519
v -89.213707 22.599003 54.494003
v -89.289108 21.948971 54.733028
v -88.820335 21.991253 53.923519
v -89.289108 21.948971 54.733028
v -89.213707 22.599003 54.494003
v -89.289108 21.948971 54.733028
vn -0.8370 -0.0288 -0.5465
vn -0.8802 -0.0913 -0.4658
vn -0.8603 -0.0850 -0.5026
vt 0.000000 0.000000
vt 1.000000 0.000000
vt 0.000000 1.000000
vt 1.000000 1.000000
vt 1.000000 0.000000
vt 1.000000 1.000000
vt 0.000000 1.000000
vt 1.000000 1.000000
s 0
usemtl Material.002
f 18/18/7 19/19/7 17/17/7
f 18/18/8 22/22/8 20/20/8
f 20/20/8 23/23/8 19/19/8
f 18/18/9 20/20/9 19/19/9
f 18/18/8 21/21/8 22/22/8
f 20/20/8 24/24/8 23/23/8
o Plane.024
v -97.839180 22.270380 28.628080
v -97.862694 21.577904 28.700594
v -98.256065 22.185654 29.271078
v -98.331467 21.535622 29.510103
v -97.862694 21.577904 28.700594
v -98.331467 21.535622 29.510103
v -98.256065 22.185654 29.271078
v -98.331467 21.535622 29.510103
vn -0.8370 -0.0288 -0.5465
vn -0.8802 -0.0913 -0.4658
vn -0.8603 -0.0850 -0.5026
vt 0.000000 0.000000
vt 1.000000 0.000000
vt 0.000000 1.000000
vt 1.000000 1.000000
vt 1.000000 0.000000
vt 1.000000 1.000000
vt 0.000000 1.000000
vt 1.000000 1.000000
s 0
usemtl Material.002
f 26/26/10 27/27/10 25/25/10
f 26/26/11 30/30/11 28/28/11
f 28/28/11 31/31/11 27/27/11
f 26/26/12 28/28/12 27/27/12
f 26/26/11 29/29/11 30/30/11
f 28/28/11 32/32/11 31/31/11
o Plane.020
v -91.060684 22.555712 27.767168
v -91.084198 21.863235 27.839682
v -91.477570 22.470985 28.410166
v -91.552971 21.820953 28.649191
v -91.084198 21.863235 27.839682
v -91.552971 21.820953 28.649191
v -91.477570 22.470985 28.410166
v -91.552971 21.820953 28.649191
vn -0.8370 -0.0288 -0.5465
vn -0.8802 -0.0913 -0.4658
vn -0.8603 -0.0850 -0.5026
vt 0.000000 0.000000
vt 1.000000 0.000000
vt 0.000000 1.000000
vt 1.000000 1.000000
vt 1.000000 0.000000
vt 1.000000 1.000000
vt 0.000000 1.000000
vt 1.000000 1.000000
s 0
usemtl Material.002
f 34/34/13 35/35/13 33/33/13
f 34/34/14 38/38/14 36/36/14
f 36/36/14 39/39/14 35/35/14
f 34/34/15 36/36/15 35/35/15
f 34/34/14 37/37/14 38/38/14
f 36/36/14 40/40/14 39/39/14
o Plane.011
v -89.985268 22.953777 40.906063
v -90.008781 22.261301 40.978577
v -90.402153 22.869051 41.549061
v -90.477554 22.219019 41.788086
v -90.008781 22.261301 40.978577
v -90.477554 22.219019 41.788086
v -90.402153 22.869051 41.549061
v -90.477554 22.219019 41.788086
vn -0.8370 -0.0288 -0.5465
vn -0.8802 -0.0913 -0.4658
vn -0.8603 -0.0850 -0.5026
vt 0.000000 0.000000
vt 1.000000 0.000000
vt 0.000000 1.000000
vt 1.000000 1.000000
vt 1.000000 0.000000
vt 1.000000 1.000000
vt 0.000000 1.000000
vt 1.000000 1.000000
s 0
usemtl Material.002
f 42/42/16 43/43/16 41/41/16
f 42/42/17 46/46/17 44/44/17
f 44/44/17 47/47/17 43/43/17
f 42/42/18 44/44/18 43/43/18
f 42/42/17 45/45/17 46/46/17
f 44/44/17 48/48/17 47/47/17
o Plane.006
v -96.763756 22.668446 41.766968
v -96.787270 21.975969 41.839481
v -97.180641 22.583719 42.409966
v -97.256042 21.933687 42.648991
v -96.787270 21.975969 41.839481
v -97.256042 21.933687 42.648991
v -97.180641 22.583719 42.409966
v -97.256042 21.933687 42.648991
vn -0.8370 -0.0288 -0.5465
vn -0.8802 -0.0913 -0.4658
vn -0.8603 -0.0850 -0.5026
vt 0.000000 0.000000
vt 1.000000 0.000000
vt 0.000000 1.000000
vt 1.000000 1.000000
vt 1.000000 0.000000
vt 1.000000 1.000000
vt 0.000000 1.000000
vt 1.000000 1.000000
s 0
usemtl Material.002
f 50/50/19 51/51/19 49/49/19
f 50/50/20 54/54/20 52/52/20
f 52/52/20 55/55/20 51/51/20
f 50/50/21 52/52/21 51/51/21
f 50/50/20 53/53/20 54/54/20
f 52/52/20 56/56/20 55/55/20
