# Blender 3.5.1
# www.blender.org
mtllib 3thirdIsland-plane1.mtl
o Plane.066
v -109.418388 22.760143 52.888344
v -101.223541 22.663769 50.682095
v -109.030869 23.010847 51.558132
v -102.291260 22.984108 49.793304
v -109.624016 23.715948 52.458714
v -101.429161 23.619574 50.252464
v -109.431381 23.850912 51.315498
v -102.238792 23.795067 49.337936
vn 0.0565 0.9780 0.2008
vn 0.0452 0.9912 0.1246
vn 0.0793 0.9644 0.2523
vn 0.0481 0.9880 0.1470
vt 0.000000 0.000000
vt 1.000000 0.000000
vt 0.000000 1.000000
vt 1.000000 1.000000
vt 0.000000 0.000000
vt 1.000000 0.000000
vt 0.000000 1.000000
vt 1.000000 1.000000
s 0
usemtl Material.002
f 1/1/1 4/4/1 3/3/1
f 6/6/2 7/7/2 5/5/2
f 1/1/3 2/2/3 4/4/3
f 6/6/4 8/8/4 7/7/4
o Plane.065
v -107.030746 24.276733 49.802807
v -106.464981 24.153229 49.594143
v -105.335724 22.515865 49.196758
v -104.801208 22.486000 49.030277
vn 0.2948 -0.0447 0.9545
vn 0.3527 0.0357 0.9351
vt 0.000000 0.000000
vt 1.000000 0.000000
vt 0.000000 1.000000
vt 1.000000 1.000000
s 0
usemtl Material.003
f 9/9/5 11/11/5 12/12/5
f 9/9/6 12/12/6 10/10/6
o Plane.064
v -106.283928 22.859537 54.640377
v -103.155228 22.585793 53.650417
v -106.390732 22.714123 53.735210
v -103.585617 22.496708 52.882500
vn 0.0349 0.9861 -0.1625
vn 0.0357 0.9902 -0.1349
vt 0.000000 0.000000
vt 1.000000 0.000000
vt 0.000000 1.000000
vt 1.000000 1.000000
s 0
usemtl Material.004
f 14/14/7 15/15/7 13/13/7
f 14/14/8 16/16/8 15/15/8
o Plane.051
v -89.495407 22.572483 17.209295
v -96.895782 22.476109 13.055080
v -90.702690 22.823187 17.889071
v -96.754196 22.796448 14.437082
v -89.648903 23.528288 17.660187
v -97.049278 23.431915 13.505971
v -90.586113 23.663252 18.342600
v -97.110168 23.607407 14.725869
vn 0.1001 0.9780 -0.1830
vn 0.0548 0.9912 -0.1207
vn 0.1198 0.9644 -0.2358
vn 0.0684 0.9880 -0.1387
vt 0.000000 0.000000
vt 1.000000 0.000000
vt 0.000000 1.000000
vt 1.000000 1.000000
vt 0.000000 0.000000
vt 1.000000 0.000000
vt 0.000000 1.000000
vt 1.000000 1.000000
s 0
usemtl Material.002
f 17/17/9 20/20/9 19/19/9
f 22/22/10 23/23/10 21/21/10
f 17/17/11 18/18/11 20/20/11
f 22/22/12 24/24/12 23/23/12
o Plane.050
v -93.359924 24.089071 17.744900
v -93.910248 23.965569 17.498367
v -94.995316 22.328203 16.992647
v -95.493805 22.298338 16.737820
vn 0.4568 -0.0447 -0.8884
vn 0.4019 0.0357 -0.9150
vt 0.000000 0.000000
vt 1.000000 0.000000
vt 0.000000 1.000000
vt 1.000000 1.000000
s 0
usemtl Material.003
f 25/25/13 27/27/13 28/28/13
f 25/25/14 28/28/14 26/26/14
o Plane.049
v -90.510513 22.671875 13.764878
v -93.439148 22.398130 12.284374
v -91.067215 22.526461 14.486556
v -93.668571 22.309046 13.134253
vn -0.1386 0.9861 0.0918
vn -0.1199 0.9902 0.0714
vt 0.000000 0.000000
vt 1.000000 0.000000
vt 0.000000 1.000000
vt 1.000000 1.000000
s 0
usemtl Material.004
f 30/30/15 31/31/15 29/29/15
f 30/30/16 32/32/16 31/31/16
o Plane.037
v -86.275093 22.049576 57.925797
v -93.675468 21.953201 53.771580
v -87.482376 22.300280 58.605572
v -93.533882 22.273540 55.153584
v -86.428589 23.005381 58.376686
v -93.828964 22.909008 54.222473
v -87.365799 23.140345 59.059101
v -93.889854 23.084499 55.442371
vn 0.1001 0.9780 -0.1830
vn 0.0548 0.9912 -0.1207
vn 0.1198 0.9644 -0.2358
vn 0.0684 0.9880 -0.1387
vt 0.000000 0.000000
vt 1.000000 0.000000
vt 0.000000 1.000000
vt 1.000000 1.000000
vt 0.000000 0.000000
vt 1.000000 0.000000
vt 0.000000 1.000000
vt 1.000000 1.000000
s 0
usemtl Material.002
f 33/33/17 36/36/17 35/35/17
f 38/38/18 39/39/18 37/37/18
f 33/33/19 34/34/19 36/36/19
f 38/38/20 40/40/20 39/39/20
o Plane.035
v -87.290199 22.148966 54.481365
v -90.218834 21.875221 53.000858
v -87.846901 22.003551 55.203041
v -90.448257 21.786137 53.850739
vn -0.1386 0.9861 0.0918
vn -0.1199 0.9902 0.0714
vt 0.000000 0.000000
vt 1.000000 0.000000
vt 0.000000 1.000000
vt 1.000000 1.000000
s 0
usemtl Material.004
f 42/42/21 43/43/21 41/41/21
f 42/42/22 44/44/22 43/43/22
o Plane.027
v -95.317444 21.636232 32.702862
v -102.717819 21.539858 28.548647
v -96.524727 21.886936 33.382637
v -102.576233 21.860197 29.930647
v -95.470940 22.592037 33.153751
v -102.871315 22.495663 28.999537
v -96.408150 22.727001 33.836166
v -102.932205 22.671156 30.219435
vn 0.1001 0.9780 -0.1830
vn 0.0548 0.9912 -0.1207
vn 0.1198 0.9644 -0.2358
vn 0.0684 0.9880 -0.1387
vt 0.000000 0.000000
vt 1.000000 0.000000
vt 0.000000 1.000000
vt 1.000000 1.000000
vt 0.000000 0.000000
vt 1.000000 0.000000
vt 0.000000 1.000000
vt 1.000000 1.000000
s 0
usemtl Material.002
f 45/45/23 48/48/23 47/47/23
f 50/50/24 51/51/24 49/49/24
f 45/45/25 46/46/25 48/48/25
f 50/50/26 52/52/26 51/51/26
o Plane.026
v -99.181984 23.152817 33.238461
v -99.732307 23.029314 32.991928
v -100.817375 21.391949 32.486206
v -101.315865 21.362083 32.231380
vn 0.4568 -0.0447 -0.8884
vn 0.4019 0.0357 -0.9150
vt 0.000000 0.000000
vt 1.000000 0.000000
vt 0.000000 1.000000
vt 1.000000 1.000000
s 0
usemtl Material.003
f 53/53/27 55/55/27 56/56/27
f 53/53/28 56/56/28 54/54/28
o Plane.025
v -96.332573 21.735620 29.258427
v -99.261208 21.461876 27.777924
v -96.889275 21.590206 29.980104
v -99.490631 21.372791 28.627800
vn -0.1386 0.9861 0.0918
vn -0.1199 0.9902 0.0714
vt 0.000000 0.000000
vt 1.000000 0.000000
vt 0.000000 1.000000
vt 1.000000 1.000000
s 0
usemtl Material.004
f 58/58/29 59/59/29 57/57/29
f 58/58/30 60/60/30 59/59/30
o Plane.023
v -88.538956 21.921560 31.841953
v -95.939331 21.825186 27.687738
v -89.746239 22.172264 32.521729
v -95.797745 22.145525 29.069738
v -88.692451 22.877365 32.292843
v -96.092827 22.780991 28.138628
v -89.629662 23.012329 32.975258
v -96.153717 22.956484 29.358526
vn 0.1001 0.9780 -0.1830
vn 0.0548 0.9912 -0.1207
vn 0.1198 0.9644 -0.2358
vn 0.0684 0.9880 -0.1387
vt 0.000000 0.000000
vt 1.000000 0.000000
vt 0.000000 1.000000
vt 1.000000 1.000000
vt 0.000000 0.000000
vt 1.000000 0.000000
vt 0.000000 1.000000
vt 1.000000 1.000000
s 0
usemtl Material.002
f 61/61/31 64/64/31 63/63/31
f 66/66/32 67/67/32 65/65/32
f 61/61/33 62/62/33 64/64/33
f 66/66/34 68/68/34 67/67/34
o Plane.022
v -92.403496 23.438145 32.377552
v -92.953819 23.314642 32.131023
v -94.038887 21.677277 31.625301
v -94.537376 21.647411 31.370476
vn 0.4568 -0.0447 -0.8884
vn 0.4019 0.0357 -0.9150
vt 0.000000 0.000000
vt 1.000000 0.000000
vt 0.000000 1.000000
vt 1.000000 1.000000
s 0
usemtl Material.003
f 69/69/35 71/71/35 72/72/35
f 69/69/36 72/72/36 70/70/36
o Plane.021
v -89.554077 22.020954 28.397514
v -92.482712 21.747210 26.917011
v -90.110779 21.875540 29.119192
v -92.712135 21.658125 27.766888
vn -0.1386 0.9861 0.0918
vn -0.1199 0.9902 0.0714
vt 0.000000 0.000000
vt 1.000000 0.000000
vt 0.000000 1.000000
vt 1.000000 1.000000
s 0
usemtl Material.004
f 74/74/37 75/75/37 73/73/37
f 74/74/38 76/76/38 75/75/38
o Plane.015
v -87.463539 22.319620 44.980854
v -94.863914 22.223246 40.826637
v -88.670822 22.570324 45.660629
v -94.722328 22.543585 42.208641
v -87.617035 23.275425 45.431744
v -95.017410 23.179050 41.277531
v -88.554245 23.410389 46.114159
v -95.078300 23.354544 42.497429
vn 0.1001 0.9780 -0.1830
vn 0.0548 0.9912 -0.1207
vn 0.1198 0.9644 -0.2358
vn 0.0684 0.9880 -0.1387
vt 0.000000 0.000000
vt 1.000000 0.000000
vt 0.000000 1.000000
vt 1.000000 1.000000
vt 0.000000 0.000000
vt 1.000000 0.000000
vt 0.000000 1.000000
vt 1.000000 1.000000
s 0
usemtl Material.002
f 77/77/39 80/80/39 79/79/39
f 82/82/40 83/83/40 81/81/40
f 77/77/41 78/78/41 80/80/41
f 82/82/42 84/84/42 83/83/42
o Plane.014
v -91.328072 23.836210 45.516457
v -91.878395 23.712708 45.269924
v -92.963463 22.075342 44.764202
v -93.461952 22.045477 44.509377
vn 0.4568 -0.0447 -0.8884
vn 0.4019 0.0357 -0.9150
vt 0.000000 0.000000
vt 1.000000 0.000000
vt 0.000000 1.000000
vt 1.000000 1.000000
s 0
usemtl Material.003
f 85/85/43 87/87/43 88/88/43
f 85/85/44 88/88/44 86/86/44
o Plane.012
v -88.478661 22.419020 41.536419
v -91.407295 22.145275 40.055912
v -89.035362 22.273605 42.258095
v -91.636719 22.056190 40.905792
vn -0.1386 0.9861 0.0918
vn -0.1199 0.9902 0.0714
vt 0.000000 0.000000
vt 1.000000 0.000000
vt 0.000000 1.000000
vt 1.000000 1.000000
s 0
usemtl Material.004
f 90/90/45 91/91/45 89/89/45
f 90/90/46 92/92/46 91/91/46
o Plane.009
v -94.242027 22.034292 45.841766
v -101.642403 21.937918 41.687550
v -95.449310 22.284996 46.521542
v -101.500816 22.258257 43.069553
v -94.395523 22.990097 46.292656
v -101.795898 22.893723 42.138443
v -95.332733 23.125061 46.975071
v -101.856789 23.069216 43.358341
vn 0.1001 0.9780 -0.1830
vn 0.0548 0.9912 -0.1207
vn 0.1198 0.9644 -0.2358
vn 0.0684 0.9880 -0.1387
vt 0.000000 0.000000
vt 1.000000 0.000000
vt 0.000000 1.000000
vt 1.000000 1.000000
vt 0.000000 0.000000
vt 1.000000 0.000000
vt 0.000000 1.000000
vt 1.000000 1.000000
s 0
usemtl Material.002
f 93/93/47 96/96/47 95/95/47
f 98/98/48 99/99/48 97/97/48
f 93/93/49 94/94/49 96/96/49
f 98/98/50 100/100/50 99/99/50
o Plane.008
v -98.106544 23.550882 46.377361
v -98.656868 23.427380 46.130829
v -99.741936 21.790014 45.625107
v -100.240425 21.760149 45.370281
vn 0.4568 -0.0447 -0.8884
vn 0.4019 0.0357 -0.9150
vt 0.000000 0.000000
vt 1.000000 0.000000
vt 0.000000 1.000000
vt 1.000000 1.000000
s 0
usemtl Material.003
f 101/101/51 103/103/51 104/104/51
f 101/101/52 104/104/52 102/102/52
o Plane.007
v -95.257118 22.133686 42.397327
v -98.185753 21.859941 40.916821
v -95.813820 21.988272 43.119003
v -98.415176 21.770857 41.766701
vn -0.1386 0.9861 0.0918
vn -0.1199 0.9902 0.0714
vt 0.000000 0.000000
vt 1.000000 0.000000
vt 0.000000 1.000000
vt 1.000000 1.000000
s 0
usemtl Material.004
f 106/106/53 107/107/53 105/105/53
f 106/106/54 108/108/54 107/107/54
