# Blender 3.5.1
# www.blender.org
mtllib 3thirdIsland-highway.mtl
o Plane.062
v -117.745758 21.851767 72.536308
v -114.827110 21.851767 -51.129017
v -127.770271 21.851767 72.299721
v -124.851624 21.851767 -51.365604
vn -0.0000 1.0000 -0.0000
vt 0.000000 0.000000
vt 1.000000 0.000000
vt 0.000000 1.000000
vt 1.000000 1.000000
s 0
usemtl Material.028
f 2/2/1 3/3/1 1/1/1
f 2/2/1 4/4/1 3/3/1
o Plane.061
v -112.302048 21.836658 21.505901
v -115.893074 21.836658 1.178567
v -118.477928 21.836658 22.596931
v -122.068954 21.836658 2.269599
vn -0.0000 1.0000 -0.0000
vt 0.000000 0.000000
vt 1.000000 0.000000
vt 0.000000 1.000000
vt 1.000000 1.000000
s 0
usemtl Material.029
f 6/6/2 7/7/2 5/5/2
f 6/6/2 8/8/2 7/7/2
