# Blender v2.92.0 OBJ File: 'uploads_files_1868604_floating+island.blend'
# www.blender.org
mtllib island_creamlight.mtl
o island_creamlight_Cube.059
v -1.775037 4.443326 -2.038326
v -1.775037 4.475471 -2.038326
v -1.775037 4.432911 -0.403035
v -1.775037 4.475471 -0.403035
v -1.379323 4.443326 -2.038326
v -1.379323 4.475471 -2.038326
v -1.379323 4.443326 -0.403035
v -1.379323 4.475471 -0.403035
v -1.775037 4.443326 -0.603035
v -1.775037 4.511923 -0.603035
v -1.379323 4.443326 -0.603035
v -1.379323 4.511923 -0.603035
v -1.775037 4.443326 -1.838326
v -1.379323 4.511923 -1.838326
v -1.775037 4.511923 -1.838326
v -1.379323 4.443326 -1.838326
v -1.715037 4.432911 -0.403035
v -1.715037 4.475471 -0.403035
v -1.715037 4.443326 -2.038326
v -1.715037 4.475471 -2.038326
v -1.715037 4.511923 -0.603035
v -1.715037 4.443326 -0.603035
v -1.715037 4.511923 -1.838326
v -1.715037 4.443326 -1.838326
v -1.439323 4.475471 -0.403035
v -1.439323 4.443326 -2.038326
v -1.439323 4.511923 -0.603035
v -1.439323 4.511923 -1.838326
v -1.439323 4.443326 -0.403035
v -1.439323 4.475471 -2.038326
v -1.439323 4.443326 -0.603035
v -1.439323 4.443326 -1.838326
v -1.775037 4.548281 -0.603035
v -1.775037 4.511828 -0.403035
v -1.439323 4.511828 -0.403035
v -1.379323 4.511828 -0.403035
v -1.379323 4.548281 -1.838326
v -1.379323 4.511828 -2.038326
v -1.715037 4.511828 -2.038326
v -1.775037 4.511828 -2.038326
v -1.775037 4.548281 -1.838326
v -1.379323 4.548281 -0.603035
v -1.439323 4.548281 -0.603035
v -1.439323 4.548281 -1.838326
v -1.715037 4.511828 -0.403035
v -1.715037 4.548281 -0.603035
v -1.715037 4.548281 -1.838326
v -1.439323 4.511828 -2.038326
vt 0.000000 0.000000
vt 0.000000 0.000000
vt 0.000000 0.000000
vt 0.000000 0.000000
vt 0.000000 0.000000
vt 0.000000 0.000000
vt 0.000000 0.000000
vt 0.000000 0.000000
vt 0.000000 0.000000
vt 0.000000 0.000000
vt 0.000000 0.000000
vt 0.000000 0.000000
vt 0.000000 0.000000
vt 0.000000 0.000000
vt 0.000000 0.000000
vt 0.000000 0.000000
vt 0.000000 0.000000
vt 0.000000 0.000000
vt 0.000000 0.000000
vt 0.000000 0.000000
vt 0.000000 0.000000
vt 0.000000 0.000000
vt 0.000000 0.000000
vt 0.000000 0.000000
vt 0.000000 0.000000
vt 0.000000 0.000000
vt 0.000000 0.000000
vt 0.000000 0.000000
vt 0.000000 0.000000
vt 0.000000 0.000000
vt 0.000000 0.000000
vt 0.000000 0.000000
vt 0.000000 0.000000
vt 0.000000 0.000000
vt 0.000000 0.000000
vt 0.000000 0.000000
vt 0.000000 0.000000
vt 0.000000 0.000000
vt 0.000000 0.000000
vt 0.000000 0.000000
vt 0.000000 0.000000
vt 0.000000 0.000000
vt 0.000000 0.000000
vt 0.000000 0.000000
vt 0.000000 0.000000
vt 0.000000 0.000000
vt 0.000000 0.000000
vt 0.000000 0.000000
vn -1.0000 0.0000 0.0000
vn 0.0000 0.0000 1.0000
vn 1.0000 0.0000 0.0000
vn 0.0000 0.0000 -1.0000
vn 0.0000 -1.0000 0.0000
vn 0.0000 -0.9986 -0.0520
vn 0.0377 -0.9979 -0.0520
vn 0.0000 0.9838 -0.1793
vn 0.0000 0.9838 0.1793
vn 0.0000 1.0000 0.0000
usemtl beige.002
s off
f 9/1/1 3/2/1 4/3/1
f 25/4/2 29/5/2 7/6/2
f 16/7/3 5/8/3 6/9/3
f 20/10/4 19/11/4 1/12/4
f 16/7/5 32/13/5 26/14/5
f 28/15/1 27/16/1 43/17/1
f 23/18/3 20/10/3 39/19/3
f 7/6/5 29/5/5 31/20/5
f 8/21/3 7/6/3 11/22/3
f 15/23/1 13/24/1 9/1/1
f 2/25/1 1/12/1 13/24/1
f 27/16/1 25/4/1 35/26/1
f 11/22/5 31/20/5 32/13/5
f 12/27/3 11/22/3 16/7/3
f 22/28/5 9/1/5 13/24/5
f 17/29/6 3/2/6 9/1/6
f 24/30/5 13/24/5 1/12/5
f 4/3/2 3/2/2 17/29/2
f 6/9/4 5/8/4 26/14/4
f 21/31/3 46/32/3 45/33/3
f 10/34/1 4/3/1 34/35/1
f 28/15/1 44/36/1 48/37/1
f 31/20/5 22/28/5 24/30/5
f 29/5/7 17/29/7 22/28/7
f 32/13/5 24/30/5 19/11/5
f 41/38/8 47/39/8 39/19/8
f 34/35/9 45/33/9 46/32/9
f 33/40/10 46/32/10 47/39/10
f 44/36/8 37/41/8 38/42/8
f 35/26/9 36/43/9 42/44/9
f 43/17/10 42/44/10 37/41/10
f 20/10/4 2/25/4 40/45/4
f 6/9/4 30/46/4 48/37/4
f 25/4/2 8/21/2 36/43/2
f 15/23/1 10/34/1 33/40/1
f 12/27/3 14/47/3 37/41/3
f 4/3/2 18/48/2 45/33/2
f 15/23/1 41/38/1 40/45/1
f 21/31/3 23/18/3 47/39/3
f 12/27/3 42/44/3 36/43/3
f 14/47/3 6/9/3 38/42/3
f 9/1/1 4/3/1 10/34/1
f 25/4/2 7/6/2 8/21/2
f 16/7/3 6/9/3 14/47/3
f 20/10/4 1/12/4 2/25/4
f 16/7/5 26/14/5 5/8/5
f 28/15/1 43/17/1 44/36/1
f 23/18/3 39/19/3 47/39/3
f 7/6/5 31/20/5 11/22/5
f 8/21/3 11/22/3 12/27/3
f 15/23/1 9/1/1 10/34/1
f 2/25/1 13/24/1 15/23/1
f 27/16/1 35/26/1 43/17/1
f 11/22/5 32/13/5 16/7/5
f 12/27/3 16/7/3 14/47/3
f 22/28/5 13/24/5 24/30/5
f 17/29/6 9/1/6 22/28/6
f 24/30/5 1/12/5 19/11/5
f 4/3/2 17/29/2 18/48/2
f 6/9/4 26/14/4 30/46/4
f 21/31/3 45/33/3 18/48/3
f 10/34/1 34/35/1 33/40/1
f 28/15/1 48/37/1 30/46/1
f 31/20/5 24/30/5 32/13/5
f 29/5/5 22/28/5 31/20/5
f 32/13/5 19/11/5 26/14/5
f 41/38/8 39/19/8 40/45/8
f 34/35/9 46/32/9 33/40/9
f 33/40/10 47/39/10 41/38/10
f 44/36/8 38/42/8 48/37/8
f 35/26/9 42/44/9 43/17/9
f 43/17/10 37/41/10 44/36/10
f 20/10/4 40/45/4 39/19/4
f 6/9/4 48/37/4 38/42/4
f 25/4/2 36/43/2 35/26/2
f 15/23/1 33/40/1 41/38/1
f 12/27/3 37/41/3 42/44/3
f 4/3/2 45/33/2 34/35/2
f 15/23/1 40/45/1 2/25/1
f 21/31/3 47/39/3 46/32/3
f 12/27/3 36/43/3 8/21/3
f 14/47/3 38/42/3 37/41/3
