# Blender v2.92.0 OBJ File: 'uploads_files_1868604_floating+island.blend'
# www.blender.org
mtllib island_green1.mtl
o island_green1_Cube.051
v -1.858591 4.305434 -2.461065
v -2.212927 4.305434 2.026043
v 2.490504 4.311996 -1.973958
v 2.945481 4.305434 2.625689
v -2.410646 4.305434 -1.778161
v -2.589252 4.300584 -0.176918
v -2.573015 4.305434 0.457275
v -2.390095 4.305434 1.045925
v 3.302349 4.305434 1.684115
v 3.286113 4.305434 1.187935
v 3.286113 4.305434 0.107227
v 3.172454 4.305434 -0.559439
v -1.696171 4.305434 2.462149
v -1.329327 4.305434 2.843742
v -0.948855 4.305434 3.647812
v 0.331086 4.305434 3.497901
v 1.535647 4.305434 3.321129
v 1.775126 4.305247 -2.436709
v 1.303302 4.304487 -2.655908
v 0.596043 4.303103 -2.542249
v -0.127453 4.305434 -2.810158
v -1.029555 4.305434 -2.785803
v -2.320875 4.471724 1.019468
v -2.148493 4.471724 1.973109
v 1.498816 4.471724 3.233209
v 2.870565 4.471724 2.556556
v 2.427879 4.524779 -1.918836
v -0.997089 4.471724 -2.708751
v -1.803729 4.471724 -2.392785
v -2.340871 4.471724 -1.728329
v -2.514652 4.470315 -0.170342
v -2.498854 4.471724 0.446719
v 3.217793 4.471724 1.640417
v 3.175178 4.517000 1.159170
v 3.201995 4.471724 0.106128
v 3.091407 4.471724 -0.542530
v 1.439559 4.471724 1.324451
v 1.439559 4.471724 0.675794
v 1.439559 4.471724 0.027136
v 1.423493 4.503151 -0.604319
v -1.645697 4.471724 2.397434
v -1.288763 4.471724 2.768718
v -0.918569 4.471724 3.551067
v 0.326795 4.471724 3.405206
v 1.731827 4.466529 -2.369087
v 1.272748 4.461275 -2.582365
v 0.584595 4.462228 -2.471776
v -0.119356 4.471724 -2.732448
v -1.155072 4.471724 1.324451
v -0.506414 4.471724 1.324451
v 0.119779 4.486942 1.308446
v 0.793923 4.421604 1.355024
v -1.150106 4.503666 0.552043
v -0.506414 4.471724 0.675794
v 0.142243 4.471724 0.675794
v 0.790901 4.433498 0.675794
v -1.155072 4.430893 0.027136
v -0.506414 4.471724 0.027136
v 0.142243 4.471724 0.027136
v 0.790901 4.471724 0.027136
v -1.155072 4.430573 -0.621521
v -0.489514 4.432620 -0.639617
v 0.142243 4.471724 -0.621521
v 0.790901 4.464520 -0.621521
v -0.506414 4.441156 -1.270179
v 0.128127 4.502316 -1.250555
v 0.541448 4.524467 -1.187454
v -1.662970 4.407974 -0.719953
v 1.599714 4.489954 -1.790033
v -1.821643 4.448565 -1.527718
v -2.504375 4.477829 -0.301174
v 0.709586 4.505011 -1.283269
v 1.165318 4.534425 -1.998322
v -2.429831 4.512382 -1.087117
v -1.104618 4.449005 -1.270179
v 0.198936 4.481019 -1.482152
v 0.519372 4.490498 -2.168064
v 2.572597 4.525127 -1.119030
v -2.580679 4.303133 -0.286051
v 2.526174 4.317751 -1.671999
v -0.394749 4.488947 -1.540904
v -0.260573 4.484960 -2.211147
v 2.458614 4.556941 -1.658654
v 2.648333 4.362391 -1.141842
v -1.155072 4.465898 -1.213828
v -1.065767 4.434604 -2.083374
v 0.835170 4.528245 -1.199633
v -2.508199 4.318627 -1.075014
v 1.439559 4.474082 -1.108898
v -0.142205 4.458038 -1.534089
v 0.225880 4.448053 -2.212717
v -1.466061 4.377138 -0.866490
v -1.917810 4.482002 -1.448404
v 1.102943 4.475690 -1.105023
v 2.285758 4.574806 -1.624510
v 1.765097 4.486534 -1.678108
v 0.408828 4.484235 -1.459996
v 0.965708 4.466131 -2.082317
v -0.790490 4.539765 -1.489124
v -0.590986 4.405476 -2.228730
v -1.191086 4.472423 -2.088880
v -2.124543 4.510972 -0.376456
v 1.711500 4.501176 -1.057909
v 2.293415 4.512887 -1.034938
v -2.425851 4.330425 -1.066936
v 2.581957 4.345494 -1.133763
v -2.427992 4.483210 -1.079039
v 2.574436 4.433176 -1.110952
v -1.819804 4.404429 -1.519640
v -1.153233 4.449234 -1.262101
v 0.903842 4.429958 -1.262101
v 1.441397 4.412336 -1.100819
v -1.153233 4.412704 -1.205750
v -1.661131 4.411376 -0.711874
v 1.571726 4.424869 -1.752127
v -2.502537 4.432788 -0.293096
v 0.809818 4.509683 -1.308607
v 1.052819 4.413572 -1.970359
v -1.102779 4.403200 -1.262101
v 0.246601 4.408766 -1.540580
v 0.459071 4.448670 -2.117731
v -2.498332 4.290454 -0.277972
v 2.459798 4.371750 -1.663921
v -0.416156 4.420879 -1.596139
v -0.264348 4.441706 -2.169657
v 2.460453 4.474377 -1.650576
v -1.063928 4.452024 -2.075296
v -0.254452 4.427336 -1.624089
v 0.258552 4.421918 -2.160062
v -1.464222 4.448988 -0.858411
v -1.915972 4.437894 -1.440326
v 1.100797 4.425967 -1.164682
v 2.287597 4.505963 -1.616432
v 1.766936 4.417872 -1.670029
v 0.388717 4.479243 -1.516894
v 0.947662 4.459245 -2.014584
v -0.874650 4.451141 -1.516894
v -0.576036 4.461476 -2.175376
v -1.173265 4.443991 -2.052868
v -2.122704 4.526481 -0.368378
v 1.713339 4.477333 -1.049831
v 2.295254 4.447425 -1.026860
v -0.110856 4.484450 1.547552
v -0.344658 4.481924 1.789941
v -1.500204 4.438607 -0.116543
v -1.784112 4.447570 -0.234734
v -1.186074 4.471724 1.659365
v -0.351892 4.475479 1.320502
v -1.449363 4.471724 1.516610
v -1.812858 4.435644 -0.068407
v -1.511522 4.402000 -0.024638
v -1.396650 4.496940 0.650475
v -1.673723 4.489380 0.761095
v -0.699942 4.471724 1.681717
v -1.709364 4.490421 0.508370
v -1.406309 4.497599 0.532036
v -1.508342 4.448827 0.137441
v -1.791423 4.451406 0.225831
v -1.293299 4.471724 1.626750
v -1.453222 4.379658 -0.411426
v -1.610301 4.471724 1.205360
v -0.215321 4.482871 1.787271
v -1.722352 4.470855 -0.413235
v -1.364552 4.478706 1.100533
v -0.150814 4.481850 1.426509
v -1.687032 4.469021 -2.334896
v -1.410313 4.472269 -2.197628
v -1.120708 4.305434 -2.750098
v -1.459497 4.305434 -2.617392
v -1.084483 4.471724 -2.674518
v -1.464277 4.471724 -2.525750
v -1.462168 4.398358 -2.566182
v -1.116633 4.324138 -2.741597
v -1.704245 4.469270 -2.027815
v -1.720172 4.469742 -2.252793
v -1.449402 4.450949 -2.017860
v -1.531031 4.470895 -2.467817
v -1.089037 4.460560 -2.497682
v -1.274197 4.467800 -2.304559
v 0.856830 4.447980 -1.285354
v 1.312272 4.498584 -1.861243
v -0.335304 4.387521 -1.610114
v -0.003925 4.445355 -1.582334
v 0.358812 4.428331 -2.138896
v -0.002898 4.430819 -2.164860
v -2.171982 4.466463 -1.259682
v 1.669331 4.429392 -1.711078
v 0.317659 4.441863 -1.528737
v 0.599267 4.472690 -1.412751
v 1.000241 4.502676 -1.992471
v 0.703366 4.431412 -2.066157
v -0.645403 4.471551 -1.556517
v -0.420192 4.445294 -2.172516
v -0.819982 4.442204 -2.125336
v -2.312620 4.385735 -0.330737
v -1.891917 4.366824 -0.540126
vt 0.000000 0.000000
vt 0.000000 0.000000
vt 0.000000 0.000000
vt 0.000000 0.000000
vt 0.000000 0.000000
vt 0.000000 0.000000
vt 0.000000 0.000000
vt 0.000000 0.000000
vt 0.000000 0.000000
vt 0.000000 0.000000
vt 0.000000 0.000000
vt 0.000000 0.000000
vt 0.000000 0.000000
vt 0.000000 0.000000
vt 0.000000 0.000000
vt 0.000000 0.000000
vt 0.000000 0.000000
vt 0.000000 0.000000
vt 0.000000 0.000000
vt 0.000000 0.000000
vt 0.000000 0.000000
vt 0.000000 0.000000
vt 0.000000 0.000000
vt 0.000000 0.000000
vt 0.000000 0.000000
vt 0.000000 0.000000
vt 0.000000 0.000000
vt 0.000000 0.000000
vt 0.000000 0.000000
vt 0.000000 0.000000
vt 0.000000 0.000000
vt 0.000000 0.000000
vt 0.000000 0.000000
vt 0.000000 0.000000
vt 0.000000 0.000000
vt 0.000000 0.000000
vt 0.000000 0.000000
vt 0.000000 0.000000
vt 0.000000 0.000000
vt 0.000000 0.000000
vt 0.000000 0.000000
vt 0.000000 0.000000
vt 0.000000 0.000000
vt 0.000000 0.000000
vt 0.000000 0.000000
vt 0.000000 0.000000
vt 0.000000 0.000000
vt 0.000000 0.000000
vt 0.000000 0.000000
vt 0.000000 0.000000
vt 0.000000 0.000000
vt 0.000000 0.000000
vt 0.000000 0.000000
vt 0.000000 0.000000
vt 0.000000 0.000000
vt 0.000000 0.000000
vt 0.000000 0.000000
vt 0.000000 0.000000
vt 0.000000 0.000000
vt 0.000000 0.000000
vt 0.000000 0.000000
vt 0.000000 0.000000
vt 0.000000 0.000000
vt 0.000000 0.000000
vt 0.000000 0.000000
vt 0.000000 0.000000
vt 0.000000 0.000000
vt 0.000000 0.000000
vt 0.000000 0.000000
vt 0.000000 0.000000
vt 0.000000 0.000000
vt 0.000000 0.000000
vt 0.000000 0.000000
vt 0.000000 0.000000
vt 0.000000 0.000000
vt 0.000000 0.000000
vt 0.000000 0.000000
vt 0.000000 0.000000
vt 0.000000 0.000000
vt 0.000000 0.000000
vt 0.000000 0.000000
vt 0.000000 0.000000
vt 0.000000 0.000000
vt 0.000000 0.000000
vt 0.000000 0.000000
vt 0.000000 0.000000
vt 0.000000 0.000000
vt 0.000000 0.000000
vt 0.000000 0.000000
vt 0.000000 0.000000
vt 0.000000 0.000000
vt 0.000000 0.000000
vt 0.000000 0.000000
vt 0.000000 0.000000
vt 0.000000 0.000000
vt 0.000000 0.000000
vt 0.000000 0.000000
vt 0.000000 0.000000
vt 0.000000 0.000000
vt 0.000000 0.000000
vt 0.000000 0.000000
vt 0.000000 0.000000
vt 0.000000 0.000000
vt 0.000000 0.000000
vt 0.000000 0.000000
vt 0.000000 0.000000
vt 0.000000 0.000000
vt 0.000000 0.000000
vt 0.000000 0.000000
vt 0.000000 0.000000
vt 0.000000 0.000000
vt 0.000000 0.000000
vt 0.000000 0.000000
vt 0.000000 0.000000
vt 0.000000 0.000000
vt 0.000000 0.000000
vt 0.000000 0.000000
vt 0.000000 0.000000
vt 0.000000 0.000000
vt 0.000000 0.000000
vt 0.000000 0.000000
vt 0.000000 0.000000
vt 0.000000 0.000000
vt 0.000000 0.000000
vt 0.000000 0.000000
vt 0.000000 0.000000
vt 0.000000 0.000000
vt 0.000000 0.000000
vt 0.000000 0.000000
vt 0.000000 0.000000
vt 0.000000 0.000000
vt 0.000000 0.000000
vt 0.000000 0.000000
vt 0.000000 0.000000
vt 0.000000 0.000000
vt 0.000000 0.000000
vt 0.000000 0.000000
vt 0.000000 0.000000
vt 0.000000 0.000000
vt 0.000000 0.000000
vt 0.000000 0.000000
vt 0.000000 0.000000
vt 0.000000 0.000000
vt 0.000000 0.000000
vt 0.000000 0.000000
vt 0.000000 0.000000
vt 0.000000 0.000000
vt 0.000000 0.000000
vt 0.000000 0.000000
vt 0.000000 0.000000
vt 0.000000 0.000000
vt 0.000000 0.000000
vt 0.000000 0.000000
vt 0.000000 0.000000
vt 0.000000 0.000000
vt 0.000000 0.000000
vt 0.000000 0.000000
vt 0.000000 0.000000
vt 0.000000 0.000000
vt 0.000000 0.000000
vt 0.000000 0.000000
vt 0.000000 0.000000
vt 0.000000 0.000000
vt 0.000000 0.000000
vt 0.000000 0.000000
vt 0.000000 0.000000
vt 0.000000 0.000000
vt 0.000000 0.000000
vt 0.000000 0.000000
vt 0.000000 0.000000
vt 0.000000 0.000000
vt 0.000000 0.000000
vt 0.000000 0.000000
vt 0.000000 0.000000
vt 0.000000 0.000000
vt 0.000000 0.000000
vt 0.000000 0.000000
vt 0.000000 0.000000
vt 0.000000 0.000000
vt 0.000000 0.000000
vt 0.000000 0.000000
vt 0.000000 0.000000
vt 0.000000 0.000000
vt 0.000000 0.000000
vt 0.000000 0.000000
vt 0.000000 0.000000
vt 0.000000 0.000000
vt 0.000000 0.000000
vt 0.000000 0.000000
vt 0.000000 0.000000
vt 0.000000 0.000000
vt 0.000000 0.000000
vt 0.000000 0.000000
vt 0.000000 0.000000
vt 0.000000 0.000000
vt 0.000000 0.000000
vn -0.3271 0.9450 0.0089
vn 0.3840 0.4966 0.7784
vn -0.7583 -0.1426 -0.6362
vn 0.1269 0.4855 0.8650
vn 0.8826 0.4455 -0.1505
vn -0.6915 0.4576 -0.5590
vn 0.1016 0.4864 0.8678
vn 0.8923 0.4514 0.0033
vn -0.9014 0.4011 0.1629
vn -0.8353 0.3821 0.3953
vn 0.8870 0.4603 -0.0352
vn -0.0244 0.4242 -0.9052
vn -0.3259 0.4491 -0.8319
vn -0.6477 0.4389 0.6227
vn 0.8129 0.4943 0.3081
vn 0.3211 0.3881 -0.8639
vn -0.5784 0.4423 0.6854
vn -0.8726 0.4064 0.2711
vn -0.1454 0.3919 -0.9085
vn 0.9440 0.3083 -0.1174
vn -0.9126 0.4083 0.0202
vn 0.3714 0.4526 -0.8107
vn -0.9128 0.4036 -0.0623
vn 0.4597 0.4455 -0.7683
vn -0.2000 0.8226 0.5324
vn 0.0000 1.0000 -0.0000
vn -0.0108 0.9991 0.0412
vn -0.0131 0.9910 -0.1330
vn 0.0159 0.9748 0.2223
vn -0.2134 0.9752 0.0582
vn -0.0195 0.9997 -0.0167
vn 0.1503 0.9814 0.1197
vn -0.0739 0.9878 0.1372
vn -0.0631 0.9968 0.0499
vn 0.0392 0.9992 0.0125
vn 0.0000 0.9988 0.0497
vn 0.0000 0.9999 -0.0111
vn -0.0627 0.9962 -0.0600
vn -0.0140 0.9990 -0.0433
vn -0.0588 0.9983 0.0000
vn 0.0587 0.9965 0.0587
vn 0.0496 0.9988 0.0000
vn -0.0169 0.9953 0.0951
vn 0.0953 0.9953 0.0170
vn -0.0249 0.9994 -0.0249
vn -0.0773 0.9970 0.0024
vn 0.0966 0.9953 -0.0023
vn -0.0072 1.0000 0.0034
vn -0.0886 0.9815 -0.1695
vn -0.0332 0.9909 -0.1301
vn -0.0937 0.9934 -0.0658
vn 0.1538 0.9603 0.2329
vn 0.1091 0.9939 -0.0153
vn -0.0223 0.9714 -0.2364
vn -0.2836 -0.0895 -0.9547
vn -0.0045 0.9988 0.0485
vn 0.2158 0.6961 -0.6848
vn -0.4755 0.8750 0.0913
vn 0.1358 0.9611 -0.2405
vn -0.0669 0.9974 -0.0257
vn 0.0329 -0.1215 -0.9920
vn -0.0002 1.0000 -0.0098
vn -0.4047 0.8922 0.2004
vn 0.0036 0.9910 0.1337
vn -0.3998 0.9079 -0.1262
vn -0.4459 0.5859 0.6767
vn 0.2436 -0.2943 -0.9241
vn -0.3336 0.4960 0.8017
vn 0.6973 0.4072 -0.5898
vn -0.1207 0.1128 0.9863
vn -0.9197 0.3626 -0.1506
vn 0.6079 0.6663 0.4319
vn 0.0546 0.6887 0.7230
vn -0.1759 0.2337 -0.9563
vn -0.0689 0.8063 0.5875
vn 0.1881 -0.1659 -0.9680
vn 0.5062 0.0951 0.8572
vn -0.5437 0.6733 -0.5010
vn 0.5830 -0.1055 0.8056
vn -0.1083 0.0770 0.9911
vn 0.0047 0.6292 -0.7772
vn -0.7224 -0.1282 -0.6795
vn -0.1316 0.7020 -0.6999
vn 0.6608 0.1618 0.7329
vn -0.2402 0.4291 -0.8707
vn 0.5688 0.2526 0.7827
vn 0.2227 0.8157 0.5338
vn 0.3182 0.7226 -0.6137
vn 0.6214 0.1660 0.7657
vn 0.1782 -0.1224 -0.9764
vn 0.4819 -0.4491 0.7524
vn 0.2043 0.1195 0.9716
vn 0.5164 0.6863 -0.5121
vn 0.0713 -0.9250 0.3731
vn -0.1397 0.5784 -0.8037
vn -0.7496 -0.1246 -0.6501
vn 0.8826 0.4454 -0.1505
vn 0.8856 0.4644 0.0000
vn 0.8941 0.4469 -0.0293
vn 0.3226 0.4026 -0.8566
vn -0.1464 0.3966 -0.9063
vn 0.9498 0.2764 -0.1464
vn -0.9156 0.4015 0.0225
vn 0.3773 0.4424 -0.8136
vn -0.9168 0.3962 -0.0493
vn 0.5059 0.3528 -0.7872
vn -0.1805 0.7595 0.6250
vn -0.0243 0.9997 0.0075
vn 0.0278 0.9996 -0.0030
vn -0.0709 0.9878 0.1388
vn -0.0767 0.9957 0.0512
vn 0.0808 0.9794 -0.1852
vn -0.0029 0.9778 -0.2096
vn -0.0125 0.9946 0.1034
vn -0.0878 0.9943 -0.0601
vn 0.0167 0.9983 0.0564
vn 0.0041 0.9983 -0.0574
vn -0.0083 0.9940 0.1089
vn -0.0605 0.9980 -0.0160
vn 0.0111 0.9988 0.0483
vn -0.0964 0.9952 0.0161
vn 0.0126 0.9609 -0.2768
vn -0.0015 0.9982 0.0595
vn 0.0170 0.9986 0.0493
vn -0.0606 0.9981 -0.0111
vn 0.0111 0.9999 0.0000
vn -0.0600 0.9964 -0.0600
vn -0.0031 1.0000 -0.0005
vn 0.0000 0.9983 0.0588
vn -0.0622 0.9887 -0.1365
vn -0.0261 0.9997 0.0000
vn -0.0765 0.9969 0.0178
vn 0.0588 0.9980 -0.0219
vn 0.0415 0.9983 0.0415
vn -0.0037 0.9997 -0.0253
vn 0.0008 1.0000 0.0072
vn -0.0246 0.9996 -0.0133
vn -0.0220 0.9966 -0.0797
vn 0.0244 0.9872 -0.1576
vn -0.0054 0.9956 -0.0932
vn -0.0506 0.9930 -0.1068
vn 0.1128 0.9695 0.2177
vn 0.0120 0.9175 0.3976
vn 0.0427 0.9923 -0.1164
vn -0.2920 -0.1252 -0.9482
vn -0.1245 0.9851 -0.1184
vn 0.0756 0.9971 -0.0048
vn -0.0182 0.9530 -0.3025
vn 0.0694 0.6546 -0.7528
vn 0.0161 0.9980 -0.0610
vn 0.0762 0.9884 -0.1312
vn -0.1395 0.9629 -0.2310
vn 0.0416 0.9987 -0.0309
vn 0.0438 -0.3176 -0.9472
vn -0.2558 0.9523 -0.1663
vn 0.0692 0.9946 -0.0777
vn 0.0958 0.6089 -0.7875
vn -0.2287 0.9697 -0.0866
vn 0.0818 0.9943 0.0680
vn 0.2843 0.9547 0.0879
vn 0.0694 0.9959 0.0575
vn 0.0340 0.9990 0.0274
vn -0.3895 0.1264 0.9123
vn 0.1946 -0.1215 -0.9733
vn 0.2298 0.4234 -0.8763
vn 0.7000 0.4013 -0.5907
vn -0.1206 0.1125 0.9863
vn -0.8992 0.4170 -0.1326
vn 0.0286 0.8890 0.4570
vn -0.4540 -0.0870 -0.8868
vn -0.0692 0.8003 0.5957
vn 0.0814 -0.1029 -0.9914
vn 0.0157 -0.1290 0.9915
vn -0.7228 -0.1481 -0.6750
vn 0.3797 -0.8804 0.2842
vn -0.4067 0.2199 0.8867
vn -0.0750 0.3624 -0.9290
vn 0.7368 -0.0941 0.6695
vn 0.0469 0.5937 0.8033
vn 0.6607 0.1617 0.7330
vn -0.0536 0.8976 -0.4376
vn 0.5748 0.1705 0.8003
vn -0.2116 0.4295 -0.8779
vn 0.3612 0.6667 -0.6519
vn 0.3734 0.8090 0.4540
vn -0.0037 0.7682 -0.6402
vn -0.1760 -0.1807 -0.9677
vn 0.2103 0.0998 0.9725
vn -0.0835 0.9854 -0.1484
vn -0.5915 -0.0402 -0.8053
vn 0.0969 0.9788 -0.1802
vn -0.1265 0.9268 0.3536
vn -0.0376 0.9602 -0.2767
vn -0.0127 0.9905 -0.1372
vn 0.1437 0.9850 0.0955
vn -0.0073 1.0000 0.0034
vn 0.0576 0.9967 -0.0576
vn -0.1687 0.9857 -0.0005
vn 0.1130 0.9795 0.1669
vn 0.3190 0.9387 -0.1307
vn 0.0112 0.9920 -0.1255
vn 0.0123 0.9996 -0.0261
vn 0.0102 0.9996 0.0261
vn 0.0249 0.9977 0.0636
vn 0.0119 0.9996 -0.0260
vn 0.0229 0.9997 0.0005
vn -0.0534 0.9929 0.1062
vn -0.0682 0.9974 0.0253
vn -0.1026 0.9920 -0.0731
vn 0.2344 0.8773 -0.4187
vn -0.0181 0.9530 -0.3026
vn -0.4224 0.9064 0.0015
vn 0.1027 0.5857 -0.8040
vn -0.0741 0.9938 0.0829
vn 0.5581 0.3981 0.7280
vn -0.2056 -0.0480 -0.9775
vn 0.8118 0.5143 -0.2765
vn -0.0107 0.2349 0.9720
vn -0.2637 0.8732 0.4098
vn -0.3759 0.0983 0.9214
vn -0.1847 0.5527 0.8126
vn 0.0227 0.9010 0.4331
vn -0.1269 0.9897 0.0668
vn 0.0027 0.6921 0.7218
vn -0.1957 0.7033 -0.6834
vn 0.2953 -0.4687 0.8325
usemtl green.002
s off
f 73/1/1 98/2/1 136/3/1
f 17/4/2 4/5/2 26/6/2
f 85/7/3 75/8/3 119/9/3
f 16/10/4 17/4/4 25/11/4
f 12/12/5 36/13/5 35/14/5
f 5/15/6 30/16/6 29/17/6
f 16/10/7 44/18/7 43/19/7
f 11/20/8 35/14/8 34/21/8
f 8/22/9 2/23/9 24/24/9
f 14/25/10 15/26/10 43/19/10
f 10/27/11 34/21/11 33/28/11
f 21/29/12 22/30/12 28/31/12
f 22/30/13 168/32/13 173/33/13
f 13/34/14 14/25/14 42/35/14
f 9/36/15 33/28/15 26/6/15
f 20/37/16 21/29/16 48/38/16
f 13/34/17 41/39/17 24/24/17
f 8/22/18 23/40/18 32/41/18
f 20/37/19 47/42/19 46/43/19
f 80/44/20 3/45/20 27/46/20
f 6/47/21 7/48/21 32/41/21
f 19/49/22 46/43/22 45/50/22
f 79/51/23 6/47/23 31/52/23
f 18/53/24 45/50/24 27/46/24
f 77/54/25 91/55/25 129/56/25
f 149/57/26 24/24/26 41/39/26
f 23/40/27 161/58/27 153/59/27
f 32/41/28 155/60/28 158/61/28
f 102/62/29 31/52/29 150/63/29
f 61/64/30 85/7/30 92/65/30
f 40/66/31 104/67/31 103/68/31
f 64/69/32 94/70/32 87/71/32
f 64/69/33 67/72/33 66/73/33
f 62/74/34 63/75/34 66/73/34
f 85/7/35 62/74/35 65/76/35
f 39/77/26 35/14/26 36/13/26
f 60/78/36 39/77/36 40/66/36
f 59/79/37 60/78/37 64/69/37
f 58/80/26 59/79/26 63/75/26
f 57/81/38 58/80/38 62/74/38
f 38/82/39 34/21/39 35/14/39
f 56/83/40 38/82/40 39/77/40
f 55/84/41 56/83/41 60/78/41
f 54/85/26 55/84/26 59/79/26
f 53/86/42 54/85/42 58/80/42
f 37/87/43 33/28/43 34/21/43
f 37/87/40 38/82/40 56/83/40
f 51/88/44 52/89/44 56/83/44
f 55/84/45 50/90/45 148/91/45
f 49/92/26 50/90/26 54/85/26
f 26/6/26 33/28/26 37/87/26
f 25/11/46 37/87/46 52/89/46
f 44/18/47 52/89/47 51/88/47
f 162/93/48 43/19/48 51/88/48
f 42/35/26 154/94/26 147/95/26
f 72/96/49 117/97/49 189/98/49
f 66/73/50 67/72/50 97/99/50
f 65/76/51 66/73/51 90/100/51
f 65/76/52 81/101/52 99/102/52
f 73/1/53 69/103/53 45/50/53
f 72/96/54 67/72/54 87/71/54
f 104/67/55 78/104/55 108/105/55
f 91/55/56 47/42/56 48/38/56
f 76/106/57 120/107/57 183/108/57
f 97/99/58 135/109/58 188/110/58
f 93/111/59 70/112/59 30/16/59
f 96/113/60 27/46/60 45/50/60
f 104/67/61 142/114/61 141/115/61
f 98/2/62 46/43/62 47/42/62
f 90/100/63 128/116/63 182/117/63
f 100/118/64 48/38/64 28/31/64
f 101/119/65 28/31/65 178/120/65
f 96/113/66 69/103/66 115/121/66
f 103/68/67 141/115/67 112/122/67
f 69/103/68 73/1/68 118/123/68
f 84/124/69 78/104/69 36/13/69
f 95/125/70 96/113/70 134/126/70
f 88/127/71 74/128/71 30/16/71
f 119/9/72 110/129/72 113/130/72
f 91/55/73 82/131/73 125/132/73
f 84/124/74 106/133/74 108/105/74
f 98/2/75 77/54/75 121/134/75
f 79/51/76 71/135/76 116/136/76
f 80/44/77 83/137/77 126/138/77
f 75/8/78 99/102/78 137/139/78
f 68/140/79 92/65/79 130/141/79
f 88/127/80 105/142/80 107/143/80
f 81/101/81 124/144/81 192/145/81
f 92/65/82 85/7/82 113/130/82
f 82/131/83 100/118/83 138/146/83
f 93/111/84 131/147/84 109/148/84
f 100/118/85 86/149/85 127/150/85
f 74/128/86 107/143/86 186/151/86
f 86/149/87 101/119/87 139/152/87
f 94/70/88 132/153/88 111/154/88
f 70/112/89 109/148/89 139/152/89
f 89/155/90 112/122/90 132/153/90
f 102/62/91 140/156/91 195/157/91
f 83/137/92 95/125/92 133/158/92
f 87/71/93 111/154/93 180/159/93
f 102/62/94 68/140/94 114/160/94
f 73/1/95 136/3/95 190/161/95
f 17/4/2 26/6/2 25/11/2
f 85/7/96 119/9/96 113/130/96
f 16/10/4 25/11/4 44/18/4
f 12/12/97 35/14/97 11/20/97
f 5/15/6 29/17/6 1/162/6
f 16/10/7 43/19/7 15/26/7
f 11/20/98 34/21/98 10/27/98
f 8/22/9 24/24/9 23/40/9
f 14/25/10 43/19/10 42/35/10
f 10/27/99 33/28/99 9/36/99
f 21/29/12 28/31/12 48/38/12
f 28/31/13 22/30/13 173/33/13
f 13/34/14 42/35/14 41/39/14
f 9/36/15 26/6/15 4/5/15
f 20/37/100 48/38/100 47/42/100
f 13/34/17 24/24/17 2/23/17
f 8/22/18 32/41/18 7/48/18
f 20/37/101 46/43/101 19/49/101
f 80/44/102 27/46/102 83/137/102
f 6/47/103 32/41/103 31/52/103
f 19/49/104 45/50/104 18/53/104
f 79/51/105 31/52/105 71/135/105
f 18/53/106 27/46/106 3/45/106
f 77/54/107 129/56/107 184/163/107
f 24/24/26 149/57/26 161/58/26
f 23/40/108 153/59/108 155/60/108
f 31/52/109 32/41/109 158/61/109
f 61/64/110 68/140/110 160/164/110
f 31/52/111 102/62/111 71/135/111
f 68/140/112 102/62/112 163/165/112
f 61/64/113 92/65/113 68/140/113
f 78/104/114 104/67/114 36/13/114
f 40/66/115 103/68/115 89/155/115
f 104/67/116 40/66/116 36/13/116
f 89/155/117 94/70/117 40/66/117
f 64/69/118 87/71/118 67/72/118
f 94/70/119 64/69/119 40/66/119
f 64/69/120 66/73/120 63/75/120
f 62/74/121 66/73/121 65/76/121
f 65/76/122 75/8/122 85/7/122
f 61/64/123 62/74/123 85/7/123
f 39/77/124 36/13/124 40/66/124
f 60/78/125 40/66/125 64/69/125
f 59/79/126 64/69/126 63/75/126
f 58/80/127 63/75/127 62/74/127
f 57/81/128 62/74/128 61/64/128
f 38/82/26 35/14/26 39/77/26
f 56/83/129 39/77/129 60/78/129
f 55/84/26 60/78/26 59/79/26
f 54/85/26 59/79/26 58/80/26
f 53/86/130 58/80/130 57/81/130
f 37/87/131 34/21/131 38/82/131
f 37/87/132 56/83/132 52/89/132
f 51/88/133 56/83/133 55/84/133
f 50/90/26 55/84/26 54/85/26
f 49/92/134 54/85/134 53/86/134
f 26/6/26 37/87/26 25/11/26
f 25/11/135 52/89/135 44/18/135
f 44/18/136 51/88/136 43/19/136
f 154/94/137 42/35/137 144/166/137
f 41/39/26 42/35/26 147/95/26
f 72/96/138 135/109/138 97/99/138
f 72/96/139 97/99/139 67/72/139
f 66/73/140 97/99/140 76/106/140
f 76/106/141 90/100/141 66/73/141
f 65/76/142 90/100/142 81/101/142
f 65/76/143 99/102/143 75/8/143
f 73/1/144 45/50/144 46/43/144
f 104/67/145 108/105/145 142/114/145
f 47/42/146 91/55/146 77/54/146
f 91/55/147 48/38/147 82/131/147
f 76/106/148 128/116/148 90/100/148
f 97/99/149 120/107/149 76/106/149
f 93/111/150 30/16/150 74/128/150
f 27/46/151 95/125/151 83/137/151
f 95/125/152 27/46/152 96/113/152
f 69/103/153 96/113/153 45/50/153
f 104/67/154 141/115/154 103/68/154
f 46/43/155 98/2/155 73/1/155
f 98/2/156 47/42/156 77/54/156
f 90/100/157 124/144/157 81/101/157
f 48/38/158 100/118/158 82/131/158
f 100/118/159 28/31/159 86/149/159
f 28/31/160 101/119/160 86/149/160
f 70/112/161 176/167/161 174/168/161
f 30/16/162 70/112/162 29/17/162
f 96/113/163 115/121/163 187/169/163
f 103/68/164 112/122/164 89/155/164
f 69/103/165 118/123/165 181/170/165
f 84/124/166 36/13/166 12/12/166
f 95/125/167 134/126/167 133/158/167
f 88/127/168 30/16/168 5/15/168
f 91/55/169 125/132/169 185/171/169
f 84/124/170 108/105/170 78/104/170
f 98/2/171 121/134/171 191/172/171
f 79/51/172 116/136/172 122/173/172
f 80/44/173 126/138/173 123/174/173
f 75/8/174 137/139/174 119/9/174
f 68/140/175 130/141/175 114/160/175
f 88/127/176 107/143/176 74/128/176
f 81/101/177 137/139/177 99/102/177
f 92/65/178 113/130/178 130/141/178
f 82/131/179 138/146/179 193/175/179
f 93/111/180 109/148/180 70/112/180
f 100/118/181 127/150/181 194/176/181
f 74/128/182 131/147/182 93/111/182
f 86/149/183 139/152/183 127/150/183
f 94/70/184 111/154/184 87/71/184
f 70/112/185 139/152/185 101/119/185
f 89/155/186 132/153/186 94/70/186
f 102/62/187 116/136/187 71/135/187
f 83/137/188 133/158/188 126/138/188
f 87/71/189 117/97/189 72/96/189
f 102/62/190 114/160/190 196/177/190
f 149/57/26 41/39/26 159/178/26
f 152/179/108 53/86/108 156/180/108
f 145/181/191 57/81/191 160/164/191
f 164/182/27 49/92/27 53/86/27
f 151/183/192 57/81/192 145/181/192
f 165/184/137 143/185/137 51/88/137
f 157/186/193 57/81/193 151/183/193
f 156/180/194 53/86/194 57/81/194
f 102/62/195 150/63/195 146/187/195
f 55/84/45 148/91/45 51/88/45
f 43/19/48 144/166/48 42/35/48
f 162/93/196 51/88/196 143/185/196
f 43/19/196 162/93/196 144/166/196
f 24/24/26 161/58/26 23/40/26
f 23/40/108 155/60/108 32/41/108
f 31/52/197 158/61/197 150/63/197
f 61/64/198 160/164/198 57/81/198
f 146/187/199 163/165/199 102/62/199
f 68/140/200 163/165/200 160/164/200
f 41/39/26 147/95/26 159/178/26
f 164/182/27 53/86/27 152/179/27
f 165/184/137 51/88/137 148/91/137
f 156/180/201 57/81/201 157/186/201
f 101/119/202 179/188/202 167/189/202
f 173/33/13 168/32/13 169/190/13
f 172/191/13 169/190/13 1/162/13
f 177/192/203 171/193/203 29/17/203
f 170/194/13 173/33/13 172/191/13
f 172/191/13 29/17/13 171/193/13
f 178/120/204 28/31/204 170/194/204
f 101/119/205 178/120/205 179/188/205
f 28/31/13 173/33/13 170/194/13
f 29/17/206 175/195/206 166/196/206
f 29/17/206 174/168/206 175/195/206
f 176/167/207 101/119/207 167/189/207
f 70/112/208 174/168/208 29/17/208
f 176/167/209 70/112/209 101/119/209
f 173/33/13 169/190/13 172/191/13
f 172/191/13 1/162/13 29/17/13
f 177/192/203 29/17/203 166/196/203
f 170/194/13 172/191/13 171/193/13
f 72/96/210 189/98/210 135/109/210
f 76/106/211 183/108/211 128/116/211
f 97/99/212 188/110/212 120/107/212
f 90/100/213 182/117/213 124/144/213
f 81/101/214 192/145/214 137/139/214
f 74/128/215 186/151/215 131/147/215
f 102/62/216 195/157/216 116/136/216
f 87/71/217 180/159/217 117/97/217
f 73/1/218 190/161/218 118/123/218
f 77/54/219 184/163/219 121/134/219
f 96/113/220 187/169/220 134/126/220
f 69/103/221 181/170/221 115/121/221
f 91/55/222 185/171/222 129/56/222
f 98/2/223 191/172/223 136/3/223
f 82/131/224 193/175/224 125/132/224
f 100/118/225 194/176/225 138/146/225
f 102/62/226 196/177/226 140/156/226
