# Blender v2.92.0 OBJ File: 'uploads_files_1868604_floating+island.blend'
# www.blender.org
mtllib island_blue2.mtl
o island_blue2_Cube.055
v -2.425851 4.330425 -1.066936
v -2.450075 4.321546 -0.892336
v 2.513431 4.338783 -1.209909
v 2.516608 4.535638 -1.175210
v -2.457519 4.389080 -0.866215
v -2.427992 4.483210 -1.079039
v 2.574436 4.433176 -1.110952
v 1.441397 4.462611 -1.262101
v -1.819804 4.404429 -1.519640
v -1.153233 4.449234 -1.262101
v 0.903842 4.429958 -1.262101
v -1.661131 4.411376 -0.711874
v 1.571726 4.424869 -1.752127
v -2.502537 4.432788 -0.293096
v 0.809818 4.509683 -1.308607
v 1.052819 4.413572 -1.970359
v 0.246601 4.408766 -1.540580
v 0.459071 4.448670 -2.117731
v -2.498332 4.290454 -0.277972
v 2.459798 4.371750 -1.663921
v -0.416156 4.420879 -1.596139
v -0.264348 4.441706 -2.169657
v 2.460453 4.474377 -1.650576
v -1.063928 4.452024 -2.075296
v -0.254452 4.427336 -1.624089
v 0.258552 4.421918 -2.160062
v -1.464222 4.448988 -0.858411
v -1.915972 4.437894 -1.440326
v 1.100797 4.425967 -1.164682
v 2.287597 4.505963 -1.616432
v 1.766936 4.417872 -1.670029
v 0.388717 4.479243 -1.516894
v 0.947662 4.459245 -2.014584
v -0.874650 4.451141 -1.516894
v -0.576036 4.461476 -2.175376
v -1.173265 4.443991 -2.052868
v 1.713339 4.477333 -1.049831
v 2.295254 4.447425 -1.026860
v 2.801406 4.334324 -1.232557
v 2.732879 4.367953 -1.308703
v 2.687829 4.424851 -1.274004
v 2.745657 4.433062 -1.209745
v 2.679247 4.358701 -1.762715
v 2.631674 4.474441 -1.749370
v 2.570710 -49.778931 -1.203598
v 2.502184 -49.778931 -1.279744
v 2.790159 -49.757111 -1.302391
v 2.448551 -49.778931 -1.733755
v 2.721632 -49.757111 -1.378537
v 2.668000 -49.757111 -1.832549
v -2.653183 4.325065 -1.094970
v -2.677406 4.334797 -0.920370
v -2.629292 4.376936 -0.894249
v -2.599765 4.386890 -1.107072
v -2.674309 4.374265 -0.321129
v -2.725663 4.296925 -0.306006
v -2.425851 -50.669083 -1.066936
v -2.450075 -50.669083 -0.892336
v -2.498332 -50.669083 -0.277972
v -2.653183 -50.678635 -1.094970
v -2.677406 -50.678635 -0.920370
v -2.725663 -50.678635 -0.306006
v -2.442756 4.499198 -0.972627
v 1.979003 4.534807 -1.218655
v 1.172620 4.447554 -1.262101
v -2.059325 4.550556 -0.789045
v 1.506562 4.441911 -1.507114
v -2.480028 4.507895 -0.579656
v 0.931318 4.516190 -1.639483
v 0.352836 4.448714 -1.829155
v -0.340252 4.401138 -1.882898
v -1.108581 4.434100 -1.668698
v 0.856830 4.447980 -1.285354
v 1.312272 4.498584 -1.861243
v -0.335304 4.387521 -1.610114
v -0.003925 4.445355 -1.582334
v 0.358812 4.428331 -2.138896
v -0.002898 4.430819 -2.164860
v -2.171982 4.466463 -1.259682
v 1.669331 4.429392 -1.711078
v 0.317659 4.441863 -1.528737
v 0.599267 4.472690 -1.412751
v 1.000241 4.502676 -1.992471
v 0.703366 4.431412 -2.066157
v -0.645403 4.471551 -1.556517
v -0.420192 4.445294 -2.172516
v -0.819982 4.442204 -2.125336
v -2.312620 4.385735 -0.330737
v 1.604167 4.419131 -1.466065
v 2.141772 4.653845 -1.422620
v 1.247108 4.458456 -1.616230
v 0.978331 4.580560 -1.616230
v 0.252576 4.427563 -1.850321
v -0.259400 4.415823 -1.896873
v 0.002050 4.430898 -1.892076
v -1.788551 4.430698 -1.076100
v -2.044561 4.518558 -0.895457
v 0.878740 4.461317 -1.661596
v 0.423894 4.436975 -1.817312
v 0.668190 4.466422 -1.765739
v -0.496096 4.552965 -1.885758
v -1.013942 4.421782 -1.389497
v -0.969289 4.434395 -1.796095
v -0.725343 4.490222 -1.846135
v -2.290111 4.447028 -0.617297
v -2.656210 -43.800781 -1.073145
v -2.659238 -36.922913 -1.051320
v -2.662266 -30.045057 -1.029495
v -2.665294 -23.167196 -1.007670
v -2.668322 -16.289335 -0.985845
v -2.671350 -9.411476 -0.964020
v -2.674378 -2.533617 -0.942195
vt 0.000000 0.000000
vt 0.000000 0.000000
vt 0.000000 0.000000
vt 0.000000 0.000000
vt 0.000000 0.000000
vt 0.000000 0.000000
vt 0.000000 0.000000
vt 0.000000 0.000000
vt 0.000000 0.000000
vt 0.000000 0.000000
vt 0.000000 0.000000
vt 0.000000 0.000000
vt 0.000000 0.000000
vt 0.000000 0.000000
vt 0.000000 0.000000
vt 0.000000 0.000000
vt 0.000000 0.000000
vt 0.000000 0.000000
vt 0.000000 0.000000
vt 0.000000 0.000000
vt 0.000000 0.000000
vt 0.000000 0.000000
vt 0.000000 0.000000
vt 0.000000 0.000000
vt 0.000000 0.000000
vt 0.000000 0.000000
vt 0.000000 0.000000
vt 0.000000 0.000000
vt 0.000000 0.000000
vt 0.000000 0.000000
vt 0.000000 0.000000
vt 0.000000 0.000000
vt 0.000000 0.000000
vt 0.000000 0.000000
vt 0.000000 0.000000
vt 0.000000 0.000000
vt 0.000000 0.000000
vt 0.000000 0.000000
vt 0.000000 0.000000
vt 0.000000 0.000000
vt 0.000000 0.000000
vt 0.000000 0.000000
vt 0.000000 0.000000
vt 0.000000 0.000000
vt 0.000000 0.000000
vt 0.000000 0.000000
vt 0.000000 0.000000
vt 0.000000 0.000000
vt 0.000000 0.000000
vt 0.000000 0.000000
vt 0.000000 0.000000
vt 0.000000 0.000000
vt 0.000000 0.000000
vt 0.000000 0.000000
vt 0.000000 0.000000
vt 0.000000 0.000000
vt 0.000000 0.000000
vt 0.000000 0.000000
vt 0.000000 0.000000
vt 0.000000 0.000000
vt 0.000000 0.000000
vt 0.000000 0.000000
vt 0.000000 0.000000
vt 0.000000 0.000000
vt 0.000000 0.000000
vt 0.000000 0.000000
vt 0.000000 0.000000
vt 0.000000 0.000000
vt 0.000000 0.000000
vt 0.000000 0.000000
vt 0.000000 0.000000
vt 0.000000 0.000000
vt 0.000000 0.000000
vt 0.000000 0.000000
vt 0.000000 0.000000
vt 0.000000 0.000000
vt 0.000000 0.000000
vt 0.000000 0.000000
vt 0.000000 0.000000
vt 0.000000 0.000000
vt 0.000000 0.000000
vt 0.000000 0.000000
vt 0.000000 0.000000
vt 0.000000 0.000000
vt 0.000000 0.000000
vt 0.000000 0.000000
vt 0.000000 0.000000
vt 0.000000 0.000000
vt 0.000000 0.000000
vt 0.000000 0.000000
vt 0.000000 0.000000
vt 0.000000 0.000000
vt 0.000000 0.000000
vt 0.000000 0.000000
vt 0.000000 0.000000
vt 0.000000 0.000000
vt 0.000000 0.000000
vt 0.000000 0.000000
vt 0.000000 0.000000
vt 0.000000 0.000000
vt 0.000000 0.000000
vt 0.000000 0.000000
vt 0.000000 0.000000
vt 0.000000 0.000000
vt 0.000000 0.000000
vt 0.000000 0.000000
vt 0.000000 0.000000
vt 0.000000 0.000000
vt 0.000000 0.000000
vt 0.000000 0.000000
vt 0.000000 0.000000
vt 0.000000 0.000000
vn 0.2207 0.9753 -0.0121
vn -0.1047 0.9523 -0.2866
vn -0.0637 0.9968 -0.0478
vn 0.1238 -0.2926 -0.9482
vn -0.0282 0.9909 -0.1319
vn -0.2199 0.9754 0.0160
vn -0.0247 0.9576 0.2871
vn -0.7433 -0.0007 0.6689
vn -0.0479 0.9953 -0.0841
vn 0.0704 -0.9955 -0.0634
vn 0.0940 -0.9955 -0.0111
vn -0.9931 0.0001 0.1173
vn -0.6130 0.7796 -0.1285
vn -0.8371 0.5434 -0.0632
vn -0.4856 0.8738 -0.0265
vn -0.0704 0.9975 -0.0009
vn 0.1224 0.0000 -0.9925
vn 0.0413 -0.9991 0.0058
vn 0.9905 0.0000 0.1374
vn -0.9905 0.0000 -0.1374
vn -0.0652 0.9979 -0.0050
vn 0.1503 0.9781 -0.1438
vn -0.0647 0.7693 -0.6357
vn 0.2713 0.9625 0.0052
vn 0.0397 0.9948 0.0937
vn -0.0905 0.9946 0.0513
vn -0.3929 0.6657 0.6344
vn 0.1956 0.9658 -0.1703
vn -0.0550 0.9826 0.1772
vn 0.8364 0.5291 0.1431
vn -0.4353 0.8831 -0.1752
vn 0.0607 0.9971 0.0459
vn 0.0201 0.9892 0.1453
vn 0.1783 0.9838 -0.0170
vn 0.0223 0.8444 0.5353
vn 0.7433 0.0007 -0.6689
vn 0.7372 0.5168 -0.4352
vn -0.4129 -0.0649 -0.9085
vn 0.0557 0.9937 0.0971
vn 0.6513 0.6315 0.4207
vn -0.7618 0.6434 -0.0756
vn 0.9969 0.0000 0.0783
vn -0.5944 0.7790 -0.1995
vn 0.0416 -0.9991 0.0033
vn 0.0413 -0.9991 0.0057
vn -0.1224 0.0000 0.9925
vn 0.2196 0.9072 -0.3589
vn 0.3372 0.9148 0.2222
vn 0.2809 0.9227 0.2639
vn -0.2411 0.9620 0.1286
vn -0.1987 0.9800 0.0086
vn 0.0292 0.9990 0.0342
vn 0.1036 0.9399 -0.3255
vn 0.6903 0.7111 0.1338
vn -0.0873 0.9850 -0.1488
vn -0.0862 0.9884 -0.1253
vn -0.4182 0.9079 -0.0283
vn -0.6011 0.7898 -0.1220
vn -0.6797 0.7158 -0.1601
vn 0.3598 0.9061 -0.2225
vn 0.0090 0.9579 -0.2868
vn -0.0188 0.9883 -0.1511
vn -0.0568 0.9975 -0.0411
vn 0.0340 0.9994 -0.0009
vn -0.1618 0.9821 0.0961
vn -0.1697 0.9841 0.0522
vn 0.3869 0.9213 0.0390
vn -0.1921 0.9790 -0.0681
vn 0.7123 0.6461 0.2743
vn -0.3352 0.9399 0.0648
vn 0.0897 0.9938 0.0655
vn -0.0153 0.9972 -0.0734
vn -0.3825 0.9230 0.0424
vn -0.2389 0.9673 -0.0854
vn 0.0496 0.9977 0.0462
vn -0.0968 0.9834 -0.1536
vn 0.0301 0.9995 -0.0119
vn 0.2916 0.9552 -0.0513
vn 0.1002 0.9949 -0.0154
vn 0.3913 0.8614 -0.3239
vn -0.4056 0.8925 0.1972
vn -0.3623 0.8843 -0.2946
vn -0.0657 0.9972 0.0367
vn -0.1412 0.9836 0.1127
vn 0.4588 0.8383 -0.2945
vn -0.1188 0.9885 0.0940
vn -0.0644 0.9833 0.1704
vn -0.1632 0.6968 0.6984
usemtl blue.003
s off
f 36/1/1 10/2/1 72/3/1
f 8/4/2 64/5/2 89/6/2
f 25/7/3 76/8/3 95/9/3
f 1/10/4 51/11/4 54/12/4
f 6/13/5 97/14/5 79/15/5
f 34/16/6 104/17/6 103/18/6
f 37/19/7 4/20/7 64/5/7
f 3/21/8 46/22/8 45/23/8
f 7/24/9 42/25/9 41/26/9
f 45/23/10 46/22/10 49/27/10
f 48/28/11 50/29/11 49/27/11
f 20/30/12 48/28/12 46/22/12
f 51/11/13 52/31/13 53/32/13
f 56/33/14 55/34/14 53/32/14
f 6/13/15 54/12/15 53/32/15
f 5/35/16 53/32/16 55/34/16
f 51/11/17 1/10/17 57/36/17
f 58/37/18 61/38/18 60/39/18
f 1/10/19 2/40/19 58/37/19
f 110/41/20 51/11/20 109/42/20
f 10/2/21 36/1/21 9/43/21
f 23/44/22 30/45/22 4/20/22
f 30/45/23 31/46/23 90/47/23
f 13/48/24 74/49/24 67/50/24
f 22/51/25 94/52/25 78/53/25
f 27/54/26 28/55/26 96/56/26
f 5/35/27 66/57/27 63/58/27
f 28/55/28 27/54/28 9/43/28
f 29/59/29 8/4/29 65/60/29
f 16/61/30 83/62/30 69/63/30
f 32/64/31 99/65/31 81/66/31
f 18/67/32 99/65/32 84/68/32
f 22/51/33 86/69/33 71/70/33
f 10/2/34 102/71/34 72/3/34
f 38/72/35 4/20/35 37/19/35
f 40/73/36 47/74/36 49/27/36
f 40/73/37 42/25/37 39/75/37
f 20/30/38 44/76/38 43/77/38
f 23/44/39 41/26/39 44/76/39
f 7/24/40 41/26/40 4/20/40
f 48/28/11 49/27/11 46/22/11
f 51/11/41 53/32/41 54/12/41
f 2/40/42 59/78/42 58/37/42
f 63/58/43 6/13/43 53/32/43
f 51/11/17 57/36/17 60/39/17
f 58/37/44 62/79/44 61/38/44
f 58/37/45 60/39/45 57/36/45
f 56/33/46 59/78/46 19/80/46
f 1/10/19 58/37/19 57/36/19
f 111/81/20 61/38/20 112/82/20
f 105/83/47 5/35/47 68/84/47
f 105/83/48 68/84/48 88/85/48
f 88/85/49 68/84/49 14/86/49
f 104/17/50 85/87/50 101/88/50
f 102/71/51 34/16/51 103/18/51
f 102/71/52 103/18/52 72/3/52
f 86/69/53 35/89/53 101/88/53
f 71/70/54 101/88/54 21/90/54
f 99/65/55 32/64/55 100/91/55
f 84/68/56 100/91/56 33/92/56
f 81/66/57 70/93/57 17/94/57
f 83/62/58 33/92/58 98/95/58
f 83/62/59 98/95/59 69/63/59
f 66/57/60 12/96/60 97/14/60
f 66/57/61 97/14/61 63/58/61
f 63/58/62 97/14/62 6/13/62
f 94/52/63 25/7/63 95/9/63
f 78/53/64 95/9/64 26/97/64
f 94/52/65 22/51/65 71/70/65
f 94/52/66 71/70/66 75/98/66
f 75/98/67 71/70/67 21/90/67
f 77/99/68 93/100/68 70/93/68
f 73/101/69 69/63/69 15/102/69
f 74/49/70 16/61/70 91/103/70
f 89/6/71 31/46/71 80/104/71
f 67/50/72 80/104/72 13/48/72
f 105/83/73 66/57/73 5/35/73
f 104/17/74 87/105/74 103/18/74
f 103/18/75 87/105/75 24/106/75
f 82/107/76 15/102/76 98/95/76
f 82/107/77 98/95/77 100/91/77
f 97/14/78 12/96/78 96/56/78
f 79/15/79 96/56/79 28/55/79
f 92/108/80 91/103/80 16/61/80
f 64/5/81 90/47/81 89/6/81
f 89/6/82 90/47/82 31/46/82
f 36/1/83 72/3/83 24/106/83
f 37/19/84 64/5/84 8/4/84
f 51/11/20 112/82/20 52/31/20
f 51/11/20 111/81/20 112/82/20
f 106/109/20 51/11/20 60/39/20
f 109/42/20 51/11/20 108/110/20
f 108/110/20 51/11/20 107/111/20
f 107/111/20 51/11/20 106/109/20
f 51/11/20 110/41/20 111/81/20
f 30/45/85 90/47/85 4/20/85
f 27/54/86 96/56/86 12/96/86
f 29/59/87 65/60/87 11/112/87
f 63/58/88 53/32/88 5/35/88
f 112/82/20 61/38/20 52/31/20
f 61/38/20 106/109/20 60/39/20
f 106/109/20 61/38/20 107/111/20
f 107/111/20 61/38/20 108/110/20
f 108/110/20 61/38/20 109/42/20
f 109/42/20 61/38/20 110/41/20
f 110/41/20 61/38/20 111/81/20
